<svg width="50" height="50" viewBox="0 0 2500 2500" fill="none" xmlns="http://www.w3.org/2000/svg">
<path d="M1280 823.75H1101.4V1175.86H1382.39V1323.29H1101.4V1675.38H1288.75C1336.89 1675.38 1683.95 1680.81 1683.41 1265.73C1682.88 850.638 1346.8 823.75 1280 823.75Z" fill="#C2A633"/>
<path d="M1250 0C559.638 0 0 559.638 0 1250C0 1940.36 559.638 2500 1250 2500C1940.36 2500 2500 1940.36 2500 1250C2500 559.638 1940.36 0 1250 0ZM1299.11 1925.12H846.425V1323.3H686.85V1175.88H846.412V574.013H1234.94C1326.85 574.013 1935.64 554.925 1935.64 1260.86C1935.64 1978.48 1299.12 1925.12 1299.12 1925.12H1299.11Z" fill="#C2A633"/>
<path d="M1299.11 1925.12H846.425V1323.3H686.85V1175.88H846.412V574.013H1234.94C1326.85 574.013 1935.64 554.925 1935.64 1260.86C1935.64 1978.48 1299.12 1925.12 1299.12 1925.12H1299.11Z" fill="white"/>
<path d="M1280 823.75H1101.4V1175.86H1382.39V1323.29H1101.4V1675.38H1288.75C1336.89 1675.38 1683.95 1680.81 1683.41 1265.73C1682.88 850.638 1346.8 823.75 1280 823.75Z" fill="#C2A633"/>
</svg>
