<svg width="50" height="50" viewBox="0 0 58 58" fill="none" xmlns="http://www.w3.org/2000/svg">
<path d="M29 58C45.0163 58 58 45.0163 58 29C58 12.9837 45.0163 0 29 0C12.9837 0 0 12.9837 0 29C0 45.0163 12.9837 58 29 58Z" fill="black"/>
<path d="M29 54C42.8071 54 54 42.8071 54 29C54 15.1929 42.8071 4 29 4C15.1929 4 4 15.1929 4 29C4 42.8071 15.1929 54 29 54Z" fill="black"/>
<path d="M29.1455 0C29.4693 1.32118 29.6999 2.66348 29.8355 4.017C34.4524 4.17087 38.9365 5.60098 42.79 8.14861C46.6435 10.6962 49.7158 14.2618 51.6659 18.4495C53.6161 22.6372 54.3677 27.2834 53.8375 31.8724C53.3073 36.4614 51.516 40.8138 48.6624 44.4465C45.8087 48.0793 42.0043 50.8503 37.6714 52.4521C33.3385 54.0539 28.6464 54.4238 24.116 53.5209C19.5856 52.6179 15.394 50.4773 12.0063 47.3367C8.61856 44.1961 6.16728 40.1782 4.92447 35.729C3.624 35.907 2.31306 35.9975 1.00047 36C0.951469 36 0.900469 36 0.855469 36C2.1659 41.2681 4.92872 46.0626 8.82956 49.838C12.7304 53.6134 17.6126 56.2181 22.9207 57.3557C28.2288 58.4933 33.7497 58.1182 38.8551 56.273C43.9605 54.4277 48.4455 51.1865 51.7998 46.9181C55.154 42.6497 57.2429 37.5255 57.8286 32.1286C58.4143 26.7316 57.4734 21.2786 55.113 16.39C52.7525 11.5014 49.0673 7.3735 44.4766 4.47597C39.8859 1.57844 34.574 0.0276297 29.1455 0V0Z" fill="black"/>
<path d="M43 35H20L15 41H38L43 35Z" fill="#424EDE"/>
<path d="M43 32L38 26H15L20 32H43Z" fill="#2488FF"/>
<path d="M43 17H20L15 23H38L43 17Z" fill="#00DDC2"/>
</svg>
