<svg xmlns="http://www.w3.org/2000/svg" width="50" height="50" viewBox="0 0 100 100"><circle cx="50" cy="50" r="49" fill="#ff060a" transform="rotate(-67.5 50 49.999)"/><path fill="#fff" d="M75.088 35.797c-2.846-1.87-5.71-4.23-8.759-6.004-6.808-1.667-13.743-3.337-20.443-4.977-6.074-1.476-12.133-2.952-18.207-4.429-.756-.19-1.461-.467-2.334-.366-.62.048-1.08.753-1.209 1.209v.647c6.856 19.248 13.647 37.952 20.527 57.137.183.562.703.928 1.35.984h.141c.605 0 1.139-.295 1.406-.773 8.925-12.992 19.319-28.217 28.189-41.082l.098-.141c.016-.617.131-1.583-.759-2.205"/><path fill="#ff060a" d="M62.041 41.716c-2.615 1.364-5.286 2.77-7.972 4.162 3.57-3.821 7.094-7.619 10.685-11.458.326-.414.754-.783 1.125-1.195 1.815 1.24 3.534 2.484 5.343 3.726a759.567 759.567 0 0 0-9.181 4.765m-6.721-.675c-2.01 2.179-4.091 4.415-6.158 6.622-5.843-7.096-11.645-14.063-17.476-21.075-.688-.787-1.316-1.62-1.996-2.418 3.097.802 6.133 1.463 9.237 2.25l24.477 5.947c-2.713 2.896-5.441 5.834-8.084 8.674m-7.072 27.402c.603-5.952 1.279-11.859 1.828-17.827 3.663-1.8 7.249-3.784 10.896-5.638 3.248-1.687 6.58-3.431 9.884-5.16-5.632 8.148-11.017 16.091-16.632 24.224-2.165 3.182-4.315 6.253-6.467 9.448.14-1.687.309-3.388.491-5.047M28.65 27.488c-.183-.506-.38-1.026-.548-1.518 6.64 8.005 13.102 15.807 19.725 23.732-.875 8.107-1.7 16.094-2.531 24.084A86131.23 86131.23 0 0 1 28.65 27.488"/></svg>