<svg width="50" height="50" viewBox="0 0 50 50" fill="none" xmlns="http://www.w3.org/2000/svg">
<g clip-path="url(#clip0_186_2603)">
<path d="M25 50C38.8071 50 50 38.8071 50 25C50 11.1929 38.8071 0 25 0C11.1929 0 0 11.1929 0 25C0 38.8071 11.1929 50 25 50Z" fill="black"/>
<path d="M37.31 14.5L33.4575 14.5525L27.28 20.73C26.6496 21.359 25.7955 21.7122 24.905 21.7122C24.0145 21.7122 23.1604 21.359 22.53 20.73L16.3525 14.5525L12.5 14.5L20.155 22.155C21.4154 23.4136 23.1238 24.1205 24.905 24.1205C26.6862 24.1205 28.3946 23.4136 29.655 22.155L37.31 14.5ZM12.5 35.545L16.3525 35.4925L22.53 29.315C23.1604 28.686 24.0145 28.3328 24.905 28.3328C25.7955 28.3328 26.6496 28.686 27.28 29.315L33.4575 35.4925L37.31 35.545L29.655 27.89C28.3946 26.6314 26.6862 25.9245 24.905 25.9245C23.1238 25.9245 21.4154 26.6314 20.155 27.89L12.5 35.545Z" fill="white"/>
</g>
<defs>
<clipPath id="clip0_186_2603">
<rect width="50" height="50" fill="white"/>
</clipPath>
</defs>
</svg>
