<svg width="234" height="150" viewBox="0 0 234 150" fill="none" xmlns="http://www.w3.org/2000/svg">
<g filter="url(#filter0_d_98_7632)">
<rect y="36" width="194" height="69.2047" rx="8.50877" fill="url(#paint0_linear_98_7632)" shape-rendering="crispEdges"/>
<path d="M11.7513 53.3158V52.1882H17.676V53.3158H15.3808V59.614H14.0465V53.3158H11.7513ZM18.1818 59.614V54.0446H19.4545V54.9729H19.5125C19.6141 54.6514 19.7881 54.4036 20.0347 54.2296C20.2837 54.0531 20.5677 53.9649 20.8868 53.9649C20.9593 53.9649 21.0403 53.9685 21.1297 53.9757C21.2216 53.9806 21.2977 53.989 21.3581 54.0011V55.2085C21.3025 55.1892 21.2143 55.1723 21.0934 55.1578C20.975 55.1409 20.8602 55.1324 20.749 55.1324C20.5097 55.1324 20.2945 55.1844 20.1036 55.2883C19.915 55.3898 19.7664 55.5313 19.6576 55.7125C19.5488 55.8938 19.4944 56.1029 19.4944 56.3398V59.614H18.1818ZM23.7331 59.7264C23.3802 59.7264 23.0623 59.6636 22.7795 59.5379C22.4991 59.4098 22.2767 59.2212 22.1123 58.9722C21.9504 58.7233 21.8694 58.4163 21.8694 58.0513C21.8694 57.737 21.9274 57.4772 22.0434 57.2717C22.1595 57.0662 22.3178 56.9018 22.5184 56.7786C22.719 56.6553 22.9451 56.5622 23.1965 56.4994C23.4503 56.4341 23.7125 56.387 23.9833 56.358C24.3096 56.3241 24.5743 56.2939 24.7773 56.2673C24.9804 56.2383 25.1279 56.1948 25.2197 56.1368C25.314 56.0763 25.3611 55.9833 25.3611 55.8576V55.8358C25.3611 55.5627 25.2801 55.3512 25.1182 55.2013C24.9562 55.0514 24.723 54.9765 24.4184 54.9765C24.0969 54.9765 23.8419 55.0466 23.6533 55.1868C23.4672 55.327 23.3415 55.4926 23.2762 55.6835L22.0507 55.5095C22.1474 55.1711 22.3069 54.8883 22.5293 54.661C22.7517 54.4314 23.0236 54.2598 23.3451 54.1462C23.6666 54.0301 24.022 53.9721 24.4111 53.9721C24.6795 53.9721 24.9466 54.0035 25.2125 54.0664C25.4784 54.1292 25.7213 54.2332 25.9413 54.3782C26.1612 54.5208 26.3377 54.7154 26.4706 54.962C26.606 55.2085 26.6737 55.5168 26.6737 55.8866V59.614H25.4119V58.8489H25.3684C25.2886 59.0037 25.1762 59.1487 25.0312 59.2841C24.8885 59.417 24.7085 59.5246 24.4909 59.6068C24.2758 59.6865 24.0232 59.7264 23.7331 59.7264ZM24.0739 58.7619C24.3374 58.7619 24.5658 58.71 24.7592 58.606C24.9526 58.4997 25.1013 58.3595 25.2052 58.1854C25.3116 58.0114 25.3647 57.8216 25.3647 57.6161V56.9599C25.3237 56.9937 25.2536 57.0251 25.1544 57.0541C25.0578 57.0831 24.949 57.1085 24.8281 57.1303C24.7072 57.152 24.5876 57.1714 24.4691 57.1883C24.3507 57.2052 24.248 57.2197 24.1609 57.2318C23.9651 57.2584 23.7899 57.3019 23.6352 57.3623C23.4805 57.4228 23.3584 57.5074 23.269 57.6161C23.1795 57.7225 23.1348 57.8603 23.1348 58.0295C23.1348 58.2712 23.223 58.4537 23.3995 58.577C23.576 58.7003 23.8008 58.7619 24.0739 58.7619ZM30.0603 59.7119C29.6228 59.7119 29.2312 59.5995 28.8855 59.3747C28.5398 59.1499 28.2667 58.8236 28.066 58.3957C27.8654 57.9679 27.7651 57.4481 27.7651 56.8366C27.7651 56.2178 27.8666 55.6956 28.0697 55.2702C28.2751 54.8423 28.5519 54.5196 28.9 54.3021C29.2481 54.0821 29.6361 53.9721 30.0639 53.9721C30.3902 53.9721 30.6586 54.0277 30.8689 54.1389C31.0792 54.2477 31.2459 54.3794 31.3692 54.5341C31.4925 54.6864 31.588 54.8302 31.6557 54.9656H31.7101V52.1882H33.0263V59.614H31.7354V58.7365H31.6557C31.588 58.8719 31.4901 59.0157 31.362 59.168C31.2339 59.3179 31.0647 59.446 30.8544 59.5524C30.6441 59.6587 30.3794 59.7119 30.0603 59.7119ZM30.4265 58.635C30.7045 58.635 30.9414 58.5601 31.1372 58.4102C31.333 58.2579 31.4816 58.0464 31.5832 57.7757C31.6847 57.505 31.7354 57.1895 31.7354 56.8293C31.7354 56.4692 31.6847 56.1561 31.5832 55.8902C31.4841 55.6243 31.3366 55.4176 31.1408 55.2702C30.9474 55.1227 30.7093 55.049 30.4265 55.049C30.134 55.049 29.8899 55.1252 29.6941 55.2774C29.4983 55.4297 29.3508 55.64 29.2517 55.9083C29.1526 56.1767 29.103 56.4837 29.103 56.8293C29.103 57.1774 29.1526 57.488 29.2517 57.7612C29.3532 58.0319 29.5019 58.2458 29.6977 58.403C29.8959 58.5577 30.1388 58.635 30.4265 58.635ZM36.8906 59.7228C36.3322 59.7228 35.8499 59.6068 35.4438 59.3747C35.0401 59.1402 34.7295 58.8091 34.512 58.3812C34.2944 57.9509 34.1856 57.4445 34.1856 56.862C34.1856 56.2891 34.2944 55.7863 34.512 55.3536C34.7319 54.9185 35.0389 54.5801 35.433 54.3383C35.827 54.0942 36.2899 53.9721 36.8217 53.9721C37.1649 53.9721 37.4888 54.0277 37.7934 54.1389C38.1004 54.2477 38.3711 54.4169 38.6056 54.6465C38.8425 54.8762 39.0286 55.1687 39.164 55.524C39.2994 55.8769 39.3671 56.2975 39.3671 56.7858V57.1883H34.802V56.3036H38.1089C38.1064 56.0522 38.0521 55.8286 37.9457 55.6328C37.8393 55.4346 37.6907 55.2786 37.4997 55.165C37.3112 55.0514 37.0912 54.9946 36.8398 54.9946C36.5715 54.9946 36.3358 55.0599 36.1328 55.1904C35.9297 55.3185 35.7714 55.4877 35.6578 55.698C35.5466 55.9059 35.4898 56.1344 35.4873 56.3833V57.1557C35.4873 57.4796 35.5466 57.7576 35.665 57.9896C35.7835 58.2193 35.949 58.3957 36.1618 58.519C36.3745 58.6399 36.6235 58.7003 36.9087 58.7003C37.0997 58.7003 37.2725 58.6737 37.4272 58.6205C37.5819 58.5649 37.7161 58.4839 37.8297 58.3776C37.9433 58.2712 38.0291 58.1395 38.0871 57.9824L39.3127 58.1201C39.2353 58.4441 39.0879 58.7269 38.8703 58.9686C38.6552 59.2079 38.3796 59.394 38.0436 59.527C37.7076 59.6575 37.3233 59.7228 36.8906 59.7228ZM42.7419 53.3158V52.1882H48.6666V53.3158H46.3714V59.614H45.037V53.3158H42.7419ZM51.3724 59.7228C50.8285 59.7228 50.3571 59.6031 49.9583 59.3638C49.5595 59.1245 49.25 58.7897 49.0301 58.3595C48.8125 57.9292 48.7037 57.4264 48.7037 56.8511C48.7037 56.2758 48.8125 55.7718 49.0301 55.3391C49.25 54.9064 49.5595 54.5704 49.9583 54.3311C50.3571 54.0918 50.8285 53.9721 51.3724 53.9721C51.9163 53.9721 52.3876 54.0918 52.7865 54.3311C53.1853 54.5704 53.4935 54.9064 53.7111 55.3391C53.9311 55.7718 54.0411 56.2758 54.0411 56.8511C54.0411 57.4264 53.9311 57.9292 53.7111 58.3595C53.4935 58.7897 53.1853 59.1245 52.7865 59.3638C52.3876 59.6031 51.9163 59.7228 51.3724 59.7228ZM51.3797 58.6713C51.6746 58.6713 51.9211 58.5903 52.1193 58.4283C52.3175 58.264 52.465 58.044 52.5617 57.7684C52.6608 57.4929 52.7104 57.1859 52.7104 56.8475C52.7104 56.5066 52.6608 56.1984 52.5617 55.9229C52.465 55.6449 52.3175 55.4237 52.1193 55.2593C51.9211 55.0949 51.6746 55.0128 51.3797 55.0128C51.0775 55.0128 50.8261 55.0949 50.6255 55.2593C50.4272 55.4237 50.2786 55.6449 50.1795 55.9229C50.0828 56.1984 50.0344 56.5066 50.0344 56.8475C50.0344 57.1859 50.0828 57.4929 50.1795 57.7684C50.2786 58.044 50.4272 58.264 50.6255 58.4283C50.8261 58.5903 51.0775 58.6713 51.3797 58.6713ZM57.5845 59.7228C57.0406 59.7228 56.5692 59.6031 56.1704 59.3638C55.7715 59.1245 55.4621 58.7897 55.2421 58.3595C55.0246 57.9292 54.9158 57.4264 54.9158 56.8511C54.9158 56.2758 55.0246 55.7718 55.2421 55.3391C55.4621 54.9064 55.7715 54.5704 56.1704 54.3311C56.5692 54.0918 57.0406 53.9721 57.5845 53.9721C58.1283 53.9721 58.5997 54.0918 58.9986 54.3311C59.3974 54.5704 59.7056 54.9064 59.9232 55.3391C60.1431 55.7718 60.2531 56.2758 60.2531 56.8511C60.2531 57.4264 60.1431 57.9292 59.9232 58.3595C59.7056 58.7897 59.3974 59.1245 58.9986 59.3638C58.5997 59.6031 58.1283 59.7228 57.5845 59.7228ZM57.5917 58.6713C57.8866 58.6713 58.1332 58.5903 58.3314 58.4283C58.5296 58.264 58.6771 58.044 58.7738 57.7684C58.8729 57.4929 58.9224 57.1859 58.9224 56.8475C58.9224 56.5066 58.8729 56.1984 58.7738 55.9229C58.6771 55.6449 58.5296 55.4237 58.3314 55.2593C58.1332 55.0949 57.8866 55.0128 57.5917 55.0128C57.2896 55.0128 57.0382 55.0949 56.8375 55.2593C56.6393 55.4237 56.4907 55.6449 56.3915 55.9229C56.2949 56.1984 56.2465 56.5066 56.2465 56.8475C56.2465 57.1859 56.2949 57.4929 56.3915 57.7684C56.4907 58.044 56.6393 58.264 56.8375 58.4283C57.0382 58.5903 57.2896 58.6713 57.5917 58.6713ZM62.6798 52.1882V59.614H61.3672V52.1882H62.6798ZM68.4313 55.5168L67.2348 55.6473C67.2009 55.5264 67.1417 55.4128 67.0571 55.3064C66.9749 55.2001 66.8637 55.1143 66.7235 55.049C66.5833 54.9837 66.4117 54.9511 66.2087 54.9511C65.9355 54.9511 65.7059 55.0103 65.5197 55.1288C65.336 55.2472 65.2454 55.4007 65.2478 55.5893C65.2454 55.7512 65.3046 55.883 65.4255 55.9845C65.5487 56.086 65.7518 56.1694 66.0346 56.2347L66.9846 56.4377C67.5116 56.5513 67.9032 56.7314 68.1594 56.978C68.418 57.2245 68.5486 57.5473 68.551 57.9461C68.5486 58.2966 68.4458 58.606 68.2428 58.8743C68.0422 59.1402 67.763 59.3481 67.4052 59.498C67.0475 59.6479 66.6365 59.7228 66.1724 59.7228C65.4907 59.7228 64.942 59.5802 64.5262 59.2949C64.1105 59.0073 63.8627 58.6072 63.7829 58.0948L65.0629 57.9715C65.1209 58.2229 65.2442 58.4126 65.4327 58.5407C65.6213 58.6689 65.8666 58.7329 66.1688 58.7329C66.4806 58.7329 66.7308 58.6689 66.9193 58.5407C67.1103 58.4126 67.2058 58.2543 67.2058 58.0658C67.2058 57.9062 67.1441 57.7745 67.0209 57.6705C66.9 57.5666 66.7115 57.4868 66.4552 57.4312L65.5052 57.2318C64.971 57.1206 64.5758 56.9333 64.3196 56.6698C64.0633 56.4039 63.9364 56.0679 63.9388 55.6618C63.9364 55.3185 64.0295 55.0212 64.218 54.7698C64.409 54.516 64.6737 54.3202 65.0121 54.1824C65.3529 54.0422 65.7458 53.9721 66.1905 53.9721C66.8432 53.9721 67.3569 54.1111 67.7315 54.3891C68.1086 54.6671 68.3419 55.043 68.4313 55.5168Z" fill="white"/>
<rect x="11.3452" y="73.4386" width="20.4211" height="20.4211" rx="10.2105" fill="url(#paint1_linear_98_7632)"/>
<path d="M18.5776 85.9892L24.5338 80.033" stroke="white" stroke-width="0.850877" stroke-miterlimit="10" stroke-linecap="round" stroke-linejoin="round"/>
<path d="M18.5776 81.6199V85.9892H22.9469" stroke="white" stroke-width="0.850877" stroke-miterlimit="10" stroke-linecap="round" stroke-linejoin="round"/>
<path d="M17.9399 87.9036H25.1724" stroke="white" stroke-width="0.850877" stroke-miterlimit="10" stroke-linecap="round" stroke-linejoin="round"/>
<rect x="36.3042" y="73.4387" width="20.4211" height="20.4211" rx="10.2105" fill="white"/>
<path d="M50.1309 87.9037H42.8984" stroke="#8E8E93" stroke-width="0.850877" stroke-miterlimit="10" stroke-linecap="round" stroke-linejoin="round"/>
<path d="M49.4932 80.0331L43.537 85.9893" stroke="#8E8E93" stroke-width="0.850877" stroke-miterlimit="10" stroke-linecap="round" stroke-linejoin="round"/>
<path d="M49.4932 84.4024V80.0331H45.1239" stroke="#8E8E93" stroke-width="0.850877" stroke-miterlimit="10" stroke-linecap="round" stroke-linejoin="round"/>
<rect x="61.2632" y="73.4387" width="20.4211" height="20.4211" rx="10.2105" fill="white"/>
<path d="M70.8142 81.4031L69.2315 79.8205L67.6489 81.4031" stroke="#8E8E93" stroke-width="0.850877" stroke-linecap="round" stroke-linejoin="round"/>
<path d="M69.2319 87.4783L69.2319 79.8204" stroke="#8E8E93" stroke-width="0.850877" stroke-linecap="round" stroke-linejoin="round"/>
<path d="M72.1333 85.8957L73.7159 87.4783L75.2986 85.8957" stroke="#8E8E93" stroke-width="0.850877" stroke-linecap="round" stroke-linejoin="round"/>
<path d="M73.7158 79.8204L73.7158 87.4783" stroke="#8E8E93" stroke-width="0.850877" stroke-linecap="round" stroke-linejoin="round"/>
<rect x="86.2222" y="73.4387" width="20.4211" height="20.4211" rx="10.2105" fill="white"/>
<path d="M100.049 84.9214L97.918 87.0571" stroke="#8E8E93" stroke-width="0.850877" stroke-miterlimit="10" stroke-linecap="round" stroke-linejoin="round"/>
<path d="M92.8169 84.9214H100.049" stroke="#8E8E93" stroke-width="0.850877" stroke-miterlimit="10" stroke-linecap="round" stroke-linejoin="round"/>
<path d="M92.8169 82.3773L94.9483 80.2416" stroke="#8E8E93" stroke-width="0.850877" stroke-miterlimit="10" stroke-linecap="round" stroke-linejoin="round"/>
<path d="M100.049 82.3773H92.8169" stroke="#8E8E93" stroke-width="0.850877" stroke-miterlimit="10" stroke-linecap="round" stroke-linejoin="round"/>
<path d="M121.223 79.8555C121.109 79.8555 121.001 79.9005 120.921 79.9806C120.841 80.0607 120.796 80.1693 120.796 80.2826L120.796 83.0528L118.025 83.0528C117.912 83.0528 117.803 83.0978 117.723 83.1779C117.643 83.258 117.598 83.3666 117.598 83.4799C117.598 83.5931 117.643 83.7017 117.723 83.7818C117.803 83.8619 117.912 83.9069 118.025 83.9069L120.796 83.9069L120.796 86.6771C120.796 86.7904 120.841 86.899 120.921 86.9791C121.001 87.0592 121.109 87.1042 121.223 87.1042C121.336 87.1042 121.444 87.0592 121.525 86.9791C121.605 86.899 121.65 86.7904 121.65 86.6771L121.65 83.9069H124.42C124.533 83.9069 124.642 83.8619 124.722 83.7818C124.802 83.7017 124.847 83.5931 124.847 83.4799C124.847 83.3666 124.802 83.258 124.722 83.1779C124.642 83.0978 124.533 83.0528 124.42 83.0528H121.65L121.65 80.2826C121.65 80.1693 121.605 80.0607 121.525 79.9806C121.444 79.9005 121.336 79.8555 121.223 79.8555Z" fill="url(#paint2_linear_98_7632)"/>
<rect x="111.38" y="73.6373" width="20.024" height="20.024" rx="10.012" stroke="url(#paint3_linear_98_7632)" stroke-width="0.397076" stroke-dasharray="1.93 1.93"/>
</g>
<defs>
<filter id="filter0_d_98_7632" x="-40" y="0" width="274" height="149.205" filterUnits="userSpaceOnUse" color-interpolation-filters="sRGB">
<feFlood flood-opacity="0" result="BackgroundImageFix"/>
<feColorMatrix in="SourceAlpha" type="matrix" values="0 0 0 0 0 0 0 0 0 0 0 0 0 0 0 0 0 0 127 0" result="hardAlpha"/>
<feOffset dy="4"/>
<feGaussianBlur stdDeviation="20"/>
<feComposite in2="hardAlpha" operator="out"/>
<feColorMatrix type="matrix" values="0 0 0 0 0.0392157 0 0 0 0 0.0431373 0 0 0 0 0.0862745 0 0 0 1 0"/>
<feBlend mode="normal" in2="BackgroundImageFix" result="effect1_dropShadow_98_7632"/>
<feBlend mode="normal" in="SourceGraphic" in2="effect1_dropShadow_98_7632" result="shape"/>
</filter>
<linearGradient id="paint0_linear_98_7632" x1="97" y1="36" x2="97" y2="105.205" gradientUnits="userSpaceOnUse">
<stop offset="0.578125" stop-color="#181B23"/>
<stop offset="1" stop-color="#181B23" stop-opacity="0"/>
</linearGradient>
<linearGradient id="paint1_linear_98_7632" x1="11.3452" y1="75.8891" x2="32.8541" y2="78.5482" gradientUnits="userSpaceOnUse">
<stop stop-color="#F29200"/>
<stop offset="1" stop-color="#F9B234"/>
</linearGradient>
<linearGradient id="paint2_linear_98_7632" x1="117.878" y1="83.936" x2="122.376" y2="80.4273" gradientUnits="userSpaceOnUse">
<stop stop-color="#F29200"/>
<stop offset="1" stop-color="#F9B234"/>
</linearGradient>
<linearGradient id="paint3_linear_98_7632" x1="111.182" y1="75.8892" x2="132.691" y2="78.5483" gradientUnits="userSpaceOnUse">
<stop stop-color="#F29200"/>
<stop offset="1" stop-color="#F9B234"/>
</linearGradient>
</defs>
</svg>
