<svg width="95" height="92" viewBox="0 0 95 92" fill="none" xmlns="http://www.w3.org/2000/svg">
<g filter="url(#filter0_dd_98_7353)">
<path d="M62.256 45.2327C62.256 43.3249 57.0648 41.7332 50.1664 41.366L50.1658 38.3262H58.7794V32H35.2263V38.3262H43.8392V41.3808C37.0664 41.7732 32 43.3484 32 45.2327C32 47.1174 37.0664 48.6926 43.8392 49.0844V60H50.1658V49.0992C57.0648 48.7328 62.256 47.1405 62.256 45.2327ZM47.1279 47.1121C39.7233 47.1121 33.7206 45.9661 33.7206 44.5516C33.7206 43.3539 38.0249 42.3483 43.8392 42.0686V42.7895H43.8399V45.7438C44.8881 45.8026 45.9898 45.8334 47.1279 45.8334C48.1759 45.8334 49.1936 45.8067 50.1665 45.758V42.0576C56.1069 42.3202 60.5356 43.3363 60.5356 44.5516C60.5354 45.9661 54.5325 47.1121 47.1279 47.1121Z" fill="url(#paint0_linear_98_7353)"/>
</g>
<defs>
<filter id="filter0_dd_98_7353" x="0" y="0" width="94.2559" height="92" filterUnits="userSpaceOnUse" color-interpolation-filters="sRGB">
<feFlood flood-opacity="0" result="BackgroundImageFix"/>
<feColorMatrix in="SourceAlpha" type="matrix" values="0 0 0 0 0 0 0 0 0 0 0 0 0 0 0 0 0 0 127 0" result="hardAlpha"/>
<feOffset/>
<feGaussianBlur stdDeviation="16"/>
<feComposite in2="hardAlpha" operator="out"/>
<feColorMatrix type="matrix" values="0 0 0 0 0.956863 0 0 0 0 0.341176 0 0 0 0 0.0627451 0 0 0 1 0"/>
<feBlend mode="normal" in2="BackgroundImageFix" result="effect1_dropShadow_98_7353"/>
<feColorMatrix in="SourceAlpha" type="matrix" values="0 0 0 0 0 0 0 0 0 0 0 0 0 0 0 0 0 0 127 0" result="hardAlpha"/>
<feOffset dx="3" dy="2"/>
<feGaussianBlur stdDeviation="4"/>
<feComposite in2="hardAlpha" operator="out"/>
<feColorMatrix type="matrix" values="0 0 0 0 0.0470588 0 0 0 0 0.0470588 0 0 0 0 0.0862745 0 0 0 0.12 0"/>
<feBlend mode="normal" in2="effect1_dropShadow_98_7353" result="effect2_dropShadow_98_7353"/>
<feBlend mode="normal" in="SourceGraphic" in2="effect2_dropShadow_98_7353" result="shape"/>
</filter>
<linearGradient id="paint0_linear_98_7353" x1="32" y1="35.36" x2="63.7875" y2="39.6064" gradientUnits="userSpaceOnUse">
<stop stop-color="#F24900"/>
<stop offset="1" stop-color="#FFB673"/>
</linearGradient>
</defs>
</svg>
