<svg width="88" height="88" viewBox="0 0 88 88" fill="none" xmlns="http://www.w3.org/2000/svg">
<g filter="url(#filter0_dd_98_7365)">
<path d="M43.9829 32C47.0973 34.7554 51.1621 36.1901 55.3162 36C55.921 38.0574 56.106 40.2153 55.8604 42.3456C55.6147 44.4759 54.9433 46.535 53.8861 48.4007C52.8288 50.2664 51.4074 51.9005 49.7061 53.206C48.0049 54.5114 46.0586 55.4616 43.9829 56C41.9071 55.4616 39.9608 54.5114 38.2596 53.206C36.5583 51.9005 35.1369 50.2664 34.0796 48.4007C33.0224 46.535 32.351 44.4759 32.1054 42.3456C31.8597 40.2153 32.0447 38.0574 32.6495 36C36.8036 36.1901 40.8684 34.7554 43.9829 32Z" fill="url(#paint0_linear_98_7365)"/>
<path d="M43.9827 44C44.7191 44 45.3161 43.403 45.3161 42.6667C45.3161 41.9303 44.7191 41.3333 43.9827 41.3333C43.2464 41.3333 42.6494 41.9303 42.6494 42.6667C42.6494 43.403 43.2464 44 43.9827 44Z" fill="url(#paint1_linear_98_7365)"/>
</g>
<defs>
<filter id="filter0_dd_98_7365" x="0" y="0" width="87.9658" height="88" filterUnits="userSpaceOnUse" color-interpolation-filters="sRGB">
<feFlood flood-opacity="0" result="BackgroundImageFix"/>
<feColorMatrix in="SourceAlpha" type="matrix" values="0 0 0 0 0 0 0 0 0 0 0 0 0 0 0 0 0 0 127 0" result="hardAlpha"/>
<feOffset/>
<feGaussianBlur stdDeviation="16"/>
<feComposite in2="hardAlpha" operator="out"/>
<feColorMatrix type="matrix" values="0 0 0 0 0.490196 0 0 0 0 0.4 0 0 0 0 0.956863 0 0 0 1 0"/>
<feBlend mode="normal" in2="BackgroundImageFix" result="effect1_dropShadow_98_7365"/>
<feColorMatrix in="SourceAlpha" type="matrix" values="0 0 0 0 0 0 0 0 0 0 0 0 0 0 0 0 0 0 127 0" result="hardAlpha"/>
<feOffset dx="3" dy="2"/>
<feGaussianBlur stdDeviation="4"/>
<feComposite in2="hardAlpha" operator="out"/>
<feColorMatrix type="matrix" values="0 0 0 0 0.0470588 0 0 0 0 0.0470588 0 0 0 0 0.0862745 0 0 0 0.12 0"/>
<feBlend mode="normal" in2="effect1_dropShadow_98_7365" result="effect2_dropShadow_98_7365"/>
<feBlend mode="normal" in="SourceGraphic" in2="effect2_dropShadow_98_7365" result="shape"/>
</filter>
<linearGradient id="paint0_linear_98_7365" x1="32" y1="34.88" x2="57.2435" y2="37.9963" gradientUnits="userSpaceOnUse">
<stop stop-color="#7857FB"/>
<stop offset="1" stop-color="#878BE4"/>
</linearGradient>
<linearGradient id="paint1_linear_98_7365" x1="42.6494" y1="41.6533" x2="45.4581" y2="42.0006" gradientUnits="userSpaceOnUse">
<stop stop-color="#7857FB"/>
<stop offset="1" stop-color="#878BE4"/>
</linearGradient>
</defs>
</svg>
