<svg width="92" height="92" viewBox="0 0 92 92" fill="none" xmlns="http://www.w3.org/2000/svg">
<g filter="url(#filter0_dd_98_7432)">
<path d="M41.7052 44.935C41.7665 44.9016 41.8211 44.8707 41.8751 44.8372C43.7901 43.6878 44.9349 41.6788 44.9444 39.4576L44.9441 39.4408C44.9441 36.3828 46.5413 33.6542 49.1053 32.1692C48.0732 32.0571 47.0359 32.0006 45.9978 32C41.2259 32 36.4781 33.1854 32.2671 35.4277C32.0689 35.5331 32.0553 35.5562 32.0401 35.583C32.0071 35.6402 31.9975 35.6613 32.0005 35.7647C32.0513 37.4358 32.2454 39.0994 32.5807 40.7373C32.6571 41.1062 32.7406 41.4735 32.8311 41.8392C33.8003 44.1652 36.1344 45.7261 38.6481 45.7261C39.7184 45.7261 40.7757 45.4525 41.7052 44.935ZM49.23 46.7586C49.1812 46.7286 49.1318 46.6997 49.0818 46.6717L49.0239 46.6382C48.1181 46.1373 47.0653 45.8662 46.0002 45.8662C44.9296 45.8662 43.8763 46.1373 42.9542 46.6508C42.8909 46.6902 42.8071 46.7391 42.7234 46.7844C41.4867 47.4722 40.0762 47.8367 38.6482 47.8367C37.2049 47.8367 35.7741 47.4518 34.5118 46.7365C36.8516 51.977 40.7309 56.493 45.5418 59.5462C45.657 59.6198 45.7366 59.6517 46.0174 59.6517C46.2716 59.6517 46.3335 59.6261 46.4582 59.5473C47.7673 58.7155 49.008 57.7807 50.1685 56.7517C50.452 56.4993 50.7306 56.2414 51.004 55.9781C51.8368 54.8825 52.2952 53.5289 52.2952 52.1628C52.2949 49.9608 51.1205 47.89 49.23 46.7586ZM59.9604 35.5827C59.9455 35.557 59.9319 35.5333 59.7335 35.4276C58.3292 34.6798 56.8661 34.0481 55.3589 33.539C55.0124 33.4223 54.6637 33.3122 54.3131 33.2086C53.9945 33.1596 53.6726 33.1349 53.3503 33.1345C49.9052 33.1345 47.0973 35.9167 47.0556 39.3523V39.4329C47.0566 41.6547 48.1924 43.6684 50.0951 44.8199L50.1227 44.8368C50.1809 44.8683 50.254 44.91 50.3224 44.9517C52.8159 46.4445 54.3752 49.1702 54.4048 52.0783C57.8464 47.3361 59.8236 41.5913 59.9995 35.7624C60.0023 35.6597 59.9945 35.6417 59.9604 35.5827Z" fill="url(#paint0_linear_98_7432)"/>
</g>
<defs>
<filter id="filter0_dd_98_7432" x="0" y="0" width="92" height="91.6517" filterUnits="userSpaceOnUse" color-interpolation-filters="sRGB">
<feFlood flood-opacity="0" result="BackgroundImageFix"/>
<feColorMatrix in="SourceAlpha" type="matrix" values="0 0 0 0 0 0 0 0 0 0 0 0 0 0 0 0 0 0 127 0" result="hardAlpha"/>
<feOffset/>
<feGaussianBlur stdDeviation="16"/>
<feComposite in2="hardAlpha" operator="out"/>
<feColorMatrix type="matrix" values="0 0 0 0 0.419608 0 0 0 0 0.909804 0 0 0 0 0.827451 0 0 0 1 0"/>
<feBlend mode="normal" in2="BackgroundImageFix" result="effect1_dropShadow_98_7432"/>
<feColorMatrix in="SourceAlpha" type="matrix" values="0 0 0 0 0 0 0 0 0 0 0 0 0 0 0 0 0 0 127 0" result="hardAlpha"/>
<feOffset dx="3" dy="2"/>
<feGaussianBlur stdDeviation="4"/>
<feComposite in2="hardAlpha" operator="out"/>
<feColorMatrix type="matrix" values="0 0 0 0 0.0470588 0 0 0 0 0.0470588 0 0 0 0 0.0862745 0 0 0 0.12 0"/>
<feBlend mode="normal" in2="effect1_dropShadow_98_7432" result="effect2_dropShadow_98_7432"/>
<feBlend mode="normal" in="SourceGraphic" in2="effect2_dropShadow_98_7432" result="shape"/>
</filter>
<linearGradient id="paint0_linear_98_7432" x1="46" y1="32" x2="46" y2="59.6517" gradientUnits="userSpaceOnUse">
<stop stop-color="#47D1B2"/>
<stop offset="1" stop-color="#4F88AC"/>
</linearGradient>
</defs>
</svg>
