<svg width="96" height="94" viewBox="0 0 96 94" fill="none" xmlns="http://www.w3.org/2000/svg">
<g filter="url(#filter0_dd_98_7371)">
<path d="M50.5513 50.7175C51.0036 50.7175 51.3703 50.3508 51.3703 49.8985C51.3703 49.4463 51.0036 49.0796 50.5513 49.0796C50.0991 49.0796 49.7324 49.4463 49.7324 49.8985C49.7324 50.3508 50.0991 50.7175 50.5513 50.7175Z" fill="url(#paint0_linear_98_7371)"/>
<path d="M52.3786 49.0796C52.866 49.0796 53.2611 48.6845 53.2611 48.1971C53.2611 47.7097 52.866 47.3146 52.3786 47.3146C51.8912 47.3146 51.4961 47.7097 51.4961 48.1971C51.4961 48.6845 51.8912 49.0796 52.3786 49.0796Z" fill="url(#paint1_linear_98_7371)"/>
<path d="M53.9373 46.7987C54.4954 46.7987 54.9478 46.3463 54.9478 45.7882C54.9478 45.2301 54.4954 44.7776 53.9373 44.7776C53.3792 44.7776 52.9268 45.2301 52.9268 45.7882C52.9268 46.3463 53.3792 46.7987 53.9373 46.7987Z" fill="url(#paint2_linear_98_7371)"/>
<path d="M54.9477 43.9707C55.7483 43.9707 56.3973 43.3217 56.3973 42.5211C56.3973 41.7205 55.7483 41.0714 54.9477 41.0714C54.1471 41.0714 53.498 41.7205 53.498 42.5211C53.498 43.3217 54.1471 43.9707 54.9477 43.9707Z" fill="url(#paint3_linear_98_7371)"/>
<path d="M55.5065 40.1201C56.3733 40.1201 57.076 39.4175 57.076 38.5507C57.076 37.6839 56.3733 36.9812 55.5065 36.9812C54.6397 36.9812 53.937 37.6839 53.937 38.5507C53.937 39.4175 54.6397 40.1201 55.5065 40.1201Z" fill="url(#paint4_linear_98_7371)"/>
<path d="M55.0677 35.8815C56.1396 35.8815 57.0085 35.0126 57.0085 33.9408C57.0085 32.8689 56.1396 32 55.0677 32C53.9959 32 53.127 32.8689 53.127 33.9408C53.127 35.0126 53.9959 35.8815 55.0677 35.8815Z" fill="url(#paint5_linear_98_7371)"/>
<path d="M53.2033 51.7564C53.2931 51.3794 53.0603 51.001 52.6833 50.9111C52.3063 50.8213 51.9278 51.0541 51.838 51.4311C51.7481 51.8081 51.9809 52.1866 52.358 52.2764C52.735 52.3663 53.1134 52.1335 53.2033 51.7564Z" fill="url(#paint6_linear_98_7371)"/>
<path d="M55.1178 50.7136C55.2147 50.3073 54.9638 49.8994 54.5575 49.8026C54.1512 49.7058 53.7433 49.9567 53.6465 50.363C53.5497 50.7693 53.8006 51.1771 54.2069 51.274C54.6132 51.3708 55.021 51.1199 55.1178 50.7136Z" fill="url(#paint7_linear_98_7371)"/>
<path d="M57.0021 49.0406C57.113 48.5754 56.8257 48.1084 56.3605 47.9976C55.8953 47.8867 55.4283 48.174 55.3174 48.6392C55.2066 49.1044 55.4938 49.5714 55.9591 49.6823C56.4243 49.7931 56.8913 49.5059 57.0021 49.0406Z" fill="url(#paint8_linear_98_7371)"/>
<path d="M58.8591 46.6048C59.0181 45.9374 58.606 45.2674 57.9386 45.1084C57.2712 44.9494 56.6013 45.3615 56.4422 46.0289C56.2832 46.6963 56.6953 47.3662 57.3627 47.5252C58.0301 47.6843 58.7 47.2722 58.8591 46.6048Z" fill="url(#paint9_linear_98_7371)"/>
<path d="M60.2141 43.4302C60.3863 42.7076 59.9401 41.9823 59.2175 41.8101C58.4949 41.6379 57.7696 42.0841 57.5974 42.8067C57.4252 43.5293 57.8714 44.2546 58.594 44.4268C59.3166 44.599 60.0419 44.1528 60.2141 43.4302Z" fill="url(#paint10_linear_98_7371)"/>
<path d="M61.0731 39.5739C61.286 38.6803 60.7343 37.7833 59.8407 37.5704C58.9471 37.3575 58.0501 37.9093 57.8372 38.8028C57.6243 39.6964 58.176 40.5934 59.0696 40.8063C59.9632 41.0192 60.8602 40.4675 61.0731 39.5739Z" fill="url(#paint11_linear_98_7371)"/>
<path d="M54.7331 53.5986C54.8742 53.3031 54.7491 52.9492 54.4536 52.8081C54.1582 52.667 53.8043 52.7922 53.6632 53.0877C53.5221 53.3832 53.6472 53.7371 53.9426 53.8782C54.2381 54.0193 54.592 53.8941 54.7331 53.5986Z" fill="url(#paint12_linear_98_7371)"/>
<path d="M56.4994 53.077C56.6515 52.7586 56.5166 52.3771 56.1981 52.225C55.8797 52.073 55.4982 52.2079 55.3461 52.5263C55.1941 52.8448 55.329 53.2262 55.6474 53.3783C55.9659 53.5304 56.3473 53.3955 56.4994 53.077Z" fill="url(#paint13_linear_98_7371)"/>
<path d="M58.3528 52.0297C58.5269 51.6651 58.3725 51.2284 58.0079 51.0543C57.6433 50.8802 57.2066 51.0346 57.0325 51.3992C56.8584 51.7638 57.0128 52.2005 57.3774 52.3746C57.742 52.5487 58.1787 52.3942 58.3528 52.0297Z" fill="url(#paint14_linear_98_7371)"/>
<path d="M60.3188 50.3473C60.5685 49.8243 60.347 49.1978 59.824 48.9481C59.301 48.6983 58.6746 48.9199 58.4248 49.4429C58.1751 49.9659 58.3966 50.5923 58.9196 50.842C59.4426 51.0918 60.0691 50.8703 60.3188 50.3473Z" fill="url(#paint15_linear_98_7371)"/>
<path d="M62.0007 47.965C62.2711 47.3987 62.0313 46.7205 61.465 46.4501C60.8987 46.1797 60.2205 46.4195 59.9501 46.9858C59.6797 47.5521 59.9195 48.2303 60.4858 48.5008C61.0521 48.7712 61.7303 48.5313 62.0007 47.965Z" fill="url(#paint16_linear_98_7371)"/>
<path d="M63.3947 44.9321C63.7291 44.2319 63.4325 43.3931 62.7322 43.0588C62.032 42.7244 61.1932 43.021 60.8589 43.7212C60.5245 44.4215 60.8211 45.2602 61.5213 45.5946C62.2216 45.929 63.0603 45.6324 63.3947 44.9321Z" fill="url(#paint17_linear_98_7371)"/>
<path d="M51.1385 44.7011C51.5302 44.4749 51.6644 43.9741 51.4382 43.5824C51.2121 43.1907 50.7112 43.0565 50.3196 43.2827C49.9279 43.5088 49.7937 44.0096 50.0198 44.4013C50.2459 44.793 50.7468 44.9272 51.1385 44.7011Z" fill="url(#paint18_linear_98_7371)"/>
<path d="M48.7825 44.0244C49.2046 43.7807 49.3493 43.2409 49.1056 42.8188C48.8619 42.3967 48.3221 42.2521 47.9 42.4958C47.4779 42.7395 47.3333 43.2792 47.577 43.7013C47.8207 44.1234 48.3604 44.2681 48.7825 44.0244Z" fill="url(#paint19_linear_98_7371)"/>
<path d="M45.9814 43.9902C46.4647 43.7112 46.6303 43.0931 46.3513 42.6098C46.0722 42.1265 45.4542 41.9609 44.9709 42.2399C44.4875 42.519 44.3219 43.137 44.601 43.6203C44.88 44.1037 45.4981 44.2693 45.9814 43.9902Z" fill="url(#paint20_linear_98_7371)"/>
<path d="M42.8666 45.1289C43.56 44.7286 43.7975 43.842 43.3972 43.1487C42.9969 42.4553 42.1104 42.2178 41.417 42.6181C40.7237 43.0184 40.4861 43.9049 40.8864 44.5983C41.2867 45.2916 42.1733 45.5292 42.8666 45.1289Z" fill="url(#paint21_linear_98_7371)"/>
<path d="M39.2085 46.7338C39.9592 46.3004 40.2163 45.3405 39.7829 44.5899C39.3495 43.8392 38.3897 43.582 37.639 44.0154C36.8883 44.4488 36.6311 45.4087 37.0645 46.1593C37.4979 46.91 38.4578 47.1672 39.2085 46.7338Z" fill="url(#paint22_linear_98_7371)"/>
<path d="M35.6215 49.7404C36.5497 49.2045 36.8678 48.0176 36.3319 47.0893C35.7959 46.1611 34.609 45.843 33.6807 46.379C32.7525 46.9149 32.4345 48.1018 32.9704 49.0301C33.5063 49.9583 34.6932 50.2764 35.6215 49.7404Z" fill="url(#paint23_linear_98_7371)"/>
<path d="M51.4142 42.1114C51.7857 42.0007 51.997 41.6099 51.8863 41.2384C51.7756 40.867 51.3848 40.6556 51.0134 40.7663C50.6419 40.877 50.4306 41.2679 50.5413 41.6393C50.652 42.0107 51.0428 42.2221 51.4142 42.1114Z" fill="url(#paint24_linear_98_7371)"/>
<path d="M49.585 41.0792C49.9853 40.9599 50.2131 40.5387 50.0938 40.1385C49.9745 39.7382 49.5533 39.5104 49.153 39.6297C48.7527 39.749 48.5249 40.1702 48.6442 40.5705C48.7635 40.9708 49.1847 41.1985 49.585 41.0792Z" fill="url(#paint25_linear_98_7371)"/>
<path d="M47.2567 40.4941C47.715 40.3575 47.9758 39.8752 47.8392 39.4169C47.7026 38.9585 47.2203 38.6977 46.762 38.8343C46.3037 38.9709 46.0429 39.4532 46.1795 39.9115C46.3161 40.3698 46.7983 40.6307 47.2567 40.4941Z" fill="url(#paint26_linear_98_7371)"/>
<path d="M44.4333 40.8243C45.0908 40.6284 45.465 39.9365 45.269 39.279C45.073 38.6215 44.3812 38.2474 43.7237 38.4433C43.0662 38.6393 42.6921 39.3312 42.888 39.9886C43.084 40.6461 43.7758 41.0203 44.4333 40.8243Z" fill="url(#paint27_linear_98_7371)"/>
<path d="M41.0656 41.4355C41.7774 41.2233 42.1825 40.4742 41.9704 39.7624C41.7582 39.0505 41.0091 38.6454 40.2973 38.8576C39.5854 39.0697 39.1803 39.8188 39.3925 40.5307C39.6046 41.2425 40.3537 41.6476 41.0656 41.4355Z" fill="url(#paint28_linear_98_7371)"/>
<path d="M37.4777 43.2294C38.358 42.9671 38.859 42.0407 38.5966 41.1604C38.3342 40.2801 37.4079 39.7791 36.5276 40.0415C35.6472 40.3039 35.1463 41.2302 35.4087 42.1105C35.671 42.9909 36.5974 43.4918 37.4777 43.2294Z" fill="url(#paint29_linear_98_7371)"/>
<path d="M51.9352 39.7045C52.2616 39.6791 52.5057 39.394 52.4803 39.0676C52.455 38.7412 52.1699 38.4971 51.8434 38.5224C51.517 38.5478 51.273 38.8329 51.2983 39.1593C51.3237 39.4857 51.6088 39.7298 51.9352 39.7045Z" fill="url(#paint30_linear_98_7371)"/>
<path d="M50.6076 38.5277C50.9594 38.5004 51.2225 38.193 51.1952 37.8411C51.1679 37.4893 50.8605 37.2262 50.5087 37.2535C50.1568 37.2808 49.8937 37.5882 49.921 37.9401C49.9484 38.2919 50.2557 38.555 50.6076 38.5277Z" fill="url(#paint31_linear_98_7371)"/>
<path d="M48.7878 37.631C49.1906 37.5995 49.4915 37.2474 49.46 36.8446C49.4285 36.4418 49.0764 36.1409 48.6736 36.1724C48.2709 36.2039 47.9699 36.556 48.0014 36.9588C48.0329 37.3615 48.385 37.6625 48.7878 37.631Z" fill="url(#paint32_linear_98_7371)"/>
<path d="M46.3969 37.4031C46.9747 37.3579 47.4065 36.8528 47.3613 36.275C47.3161 35.6972 46.811 35.2655 46.2332 35.3107C45.6554 35.3559 45.2237 35.8609 45.2689 36.4388C45.3141 37.0166 45.8191 37.4483 46.3969 37.4031Z" fill="url(#paint33_linear_98_7371)"/>
<path d="M43.5068 37.3104C44.1324 37.2614 44.5999 36.7146 44.551 36.089C44.502 35.4633 43.9552 34.9959 43.3296 35.0448C42.7039 35.0938 42.2365 35.6406 42.2854 36.2662C42.3344 36.8918 42.8812 37.3593 43.5068 37.3104Z" fill="url(#paint34_linear_98_7371)"/>
<path d="M40.2254 38.1555C40.9991 38.095 41.5771 37.4188 41.5166 36.6452C41.4561 35.8715 40.7799 35.2935 40.0062 35.354C39.2326 35.4145 38.6545 36.0907 38.7151 36.8644C38.7756 37.638 39.4518 38.2161 40.2254 38.1555Z" fill="url(#paint35_linear_98_7371)"/>
<path d="M46.2634 47.3904C46.4896 46.9987 46.3554 46.4979 45.9637 46.2717C45.572 46.0456 45.0711 46.1798 44.845 46.5715C44.6189 46.9632 44.7531 47.464 45.1448 47.6901C45.5364 47.9163 46.0373 47.7821 46.2634 47.3904Z" fill="url(#paint36_linear_98_7371)"/>
<path d="M46.8785 49.8554C47.1222 49.4333 46.9776 48.8936 46.5555 48.6499C46.1334 48.4062 45.5937 48.5508 45.35 48.9729C45.1063 49.395 45.2509 49.9348 45.673 50.1785C46.0951 50.4222 46.6348 50.2776 46.8785 49.8554Z" fill="url(#paint37_linear_98_7371)"/>
<path d="M48.2961 52.4736C48.5751 51.9903 48.4095 51.3722 47.9262 51.0932C47.4429 50.8141 46.8248 50.9797 46.5458 51.4631C46.2667 51.9464 46.4323 52.5644 46.9157 52.8435C47.399 53.1225 48.017 52.9569 48.2961 52.4736Z" fill="url(#paint38_linear_98_7371)"/>
<path d="M51.0008 55.202C51.4011 54.5087 51.1635 53.6221 50.4702 53.2218C49.7768 52.8215 48.8902 53.059 48.4899 53.7524C48.0896 54.4457 48.3272 55.3323 49.0205 55.7326C49.7139 56.1329 50.6005 55.8953 51.0008 55.202Z" fill="url(#paint39_linear_98_7371)"/>
<path d="M54.2629 57.7313C54.6963 56.9806 54.4391 56.0207 53.6885 55.5873C52.9378 55.1539 51.9779 55.4111 51.5445 56.1618C51.1111 56.9124 51.3683 57.8723 52.119 58.3057C52.8696 58.7391 53.8295 58.4819 54.2629 57.7313Z" fill="url(#paint40_linear_98_7371)"/>
<path d="M58.7967 59.8416C59.3326 58.9134 59.0146 57.7264 58.0863 57.1905C57.1581 56.6546 55.9711 56.9726 55.4352 57.9008C54.8993 58.8291 55.2173 60.016 56.1456 60.552C57.0738 61.0879 58.2608 60.7698 58.7967 59.8416Z" fill="url(#paint41_linear_98_7371)"/>
<path d="M43.6099 48.3205C43.8762 48.0389 43.8638 47.5947 43.5822 47.3284C43.3006 47.0621 42.8564 47.0745 42.5901 47.3561C42.3238 47.6377 42.3362 48.0818 42.6178 48.3482C42.8994 48.6145 43.3435 48.6021 43.6099 48.3205Z" fill="url(#paint42_linear_98_7371)"/>
<path d="M43.6327 50.4977C43.9197 50.1942 43.9064 49.7156 43.6029 49.4286C43.2995 49.1416 42.8208 49.1549 42.5338 49.4584C42.2468 49.7618 42.2602 50.2405 42.5636 50.5275C42.8671 50.8145 43.3457 50.8011 43.6327 50.4977Z" fill="url(#paint43_linear_98_7371)"/>
<path d="M44.2942 52.9618C44.6228 52.6143 44.6075 52.0662 44.2601 51.7376C43.9126 51.409 43.3645 51.4243 43.0359 51.7717C42.7073 52.1192 42.7226 52.6673 43.0701 52.9959C43.4175 53.3245 43.9656 53.3092 44.2942 52.9618Z" fill="url(#paint44_linear_98_7371)"/>
<path d="M46.0068 55.7737C46.4782 55.2752 46.4563 54.489 45.9578 54.0176C45.4594 53.5462 44.6731 53.5681 44.2017 54.0665C43.7303 54.565 43.7522 55.3512 44.2507 55.8226C44.7491 56.2941 45.5354 56.2721 46.0068 55.7737Z" fill="url(#paint45_linear_98_7371)"/>
<path d="M48.2242 58.5302C48.7346 57.9905 48.7109 57.1393 48.1712 56.6289C47.6315 56.1184 46.7803 56.1422 46.2699 56.6819C45.7595 57.2215 45.7832 58.0728 46.3229 58.5832C46.8626 59.0936 47.7138 59.0699 48.2242 58.5302Z" fill="url(#paint46_linear_98_7371)"/>
<path d="M51.5846 61.1903C52.2158 60.5229 52.1864 59.4702 51.519 58.839C50.8517 58.2078 49.7989 58.2372 49.1678 58.9046C48.5366 59.572 48.5659 60.6247 49.2333 61.2559C49.9007 61.887 50.9534 61.8577 51.5846 61.1903Z" fill="url(#paint47_linear_98_7371)"/>
<path d="M41.0847 48.905C41.3546 48.7196 41.4232 48.3505 41.2379 48.0807C41.0526 47.8108 40.6835 47.7423 40.4136 47.9276C40.1436 48.113 40.075 48.4821 40.2604 48.7519C40.4457 49.0218 40.8148 49.0903 41.0847 48.905Z" fill="url(#paint48_linear_98_7371)"/>
<path d="M40.7177 50.7073C41.0086 50.5075 41.0824 50.1098 40.8827 49.819C40.683 49.5281 40.2853 49.4542 39.9944 49.654C39.7036 49.8537 39.6297 50.2514 39.8294 50.5423C40.0291 50.8331 40.4268 50.907 40.7177 50.7073Z" fill="url(#paint49_linear_98_7371)"/>
<path d="M40.8273 52.8598C41.1603 52.6311 41.2449 52.1757 41.0162 51.8426C40.7875 51.5096 40.3321 51.425 39.999 51.6537C39.666 51.8824 39.5814 52.3378 39.8101 52.6709C40.0388 53.0039 40.4942 53.0885 40.8273 52.8598Z" fill="url(#paint50_linear_98_7371)"/>
<path d="M41.7431 55.4858C42.2209 55.1577 42.3422 54.5044 42.0141 54.0266C41.6861 53.5489 41.0328 53.4275 40.555 53.7556C40.0773 54.0837 39.9559 54.7369 40.284 55.2147C40.6121 55.6925 41.2653 55.8138 41.7431 55.4858Z" fill="url(#paint51_linear_98_7371)"/>
<path d="M43.0859 58.1557C43.6032 57.8005 43.7345 57.0932 43.3793 56.5759C43.0241 56.0586 42.3168 55.9272 41.7995 56.2824C41.2822 56.6376 41.1508 57.345 41.506 57.8623C41.8612 58.3796 42.5685 58.511 43.0859 58.1557Z" fill="url(#paint52_linear_98_7371)"/>
<path d="M45.3891 60.9485C46.0288 60.5092 46.1913 59.6346 45.752 58.9949C45.3127 58.3552 44.4381 58.1927 43.7984 58.632C43.1587 59.0713 42.9962 59.9459 43.4355 60.5856C43.8748 61.2253 44.7494 61.3878 45.3891 60.9485Z" fill="url(#paint53_linear_98_7371)"/>
</g>
<defs>
<filter id="filter0_dd_98_7371" x="0.709961" y="0" width="94.8223" height="93.7107" filterUnits="userSpaceOnUse" color-interpolation-filters="sRGB">
<feFlood flood-opacity="0" result="BackgroundImageFix"/>
<feColorMatrix in="SourceAlpha" type="matrix" values="0 0 0 0 0 0 0 0 0 0 0 0 0 0 0 0 0 0 127 0" result="hardAlpha"/>
<feOffset/>
<feGaussianBlur stdDeviation="16"/>
<feComposite in2="hardAlpha" operator="out"/>
<feColorMatrix type="matrix" values="0 0 0 0 0.419608 0 0 0 0 0.909804 0 0 0 0 0.827451 0 0 0 1 0"/>
<feBlend mode="normal" in2="BackgroundImageFix" result="effect1_dropShadow_98_7371"/>
<feColorMatrix in="SourceAlpha" type="matrix" values="0 0 0 0 0 0 0 0 0 0 0 0 0 0 0 0 0 0 127 0" result="hardAlpha"/>
<feOffset dx="3" dy="2"/>
<feGaussianBlur stdDeviation="4"/>
<feComposite in2="hardAlpha" operator="out"/>
<feColorMatrix type="matrix" values="0 0 0 0 0.0470588 0 0 0 0 0.0470588 0 0 0 0 0.0862745 0 0 0 0.12 0"/>
<feBlend mode="normal" in2="effect1_dropShadow_98_7371" result="effect2_dropShadow_98_7371"/>
<feBlend mode="normal" in="SourceGraphic" in2="effect2_dropShadow_98_7371" result="shape"/>
</filter>
<linearGradient id="paint0_linear_98_7371" x1="50.5513" y1="49.0796" x2="50.5513" y2="50.7175" gradientUnits="userSpaceOnUse">
<stop stop-color="#47D1B2"/>
<stop offset="1" stop-color="#4F88AC"/>
</linearGradient>
<linearGradient id="paint1_linear_98_7371" x1="52.3786" y1="47.3146" x2="52.3786" y2="49.0796" gradientUnits="userSpaceOnUse">
<stop stop-color="#47D1B2"/>
<stop offset="1" stop-color="#4F88AC"/>
</linearGradient>
<linearGradient id="paint2_linear_98_7371" x1="53.9373" y1="44.7776" x2="53.9373" y2="46.7987" gradientUnits="userSpaceOnUse">
<stop stop-color="#47D1B2"/>
<stop offset="1" stop-color="#4F88AC"/>
</linearGradient>
<linearGradient id="paint3_linear_98_7371" x1="54.9477" y1="41.0714" x2="54.9477" y2="43.9707" gradientUnits="userSpaceOnUse">
<stop stop-color="#47D1B2"/>
<stop offset="1" stop-color="#4F88AC"/>
</linearGradient>
<linearGradient id="paint4_linear_98_7371" x1="55.5065" y1="36.9812" x2="55.5065" y2="40.1201" gradientUnits="userSpaceOnUse">
<stop stop-color="#47D1B2"/>
<stop offset="1" stop-color="#4F88AC"/>
</linearGradient>
<linearGradient id="paint5_linear_98_7371" x1="55.0677" y1="32" x2="55.0677" y2="35.8815" gradientUnits="userSpaceOnUse">
<stop stop-color="#47D1B2"/>
<stop offset="1" stop-color="#4F88AC"/>
</linearGradient>
<linearGradient id="paint6_linear_98_7371" x1="51.838" y1="51.4311" x2="53.2033" y2="51.7564" gradientUnits="userSpaceOnUse">
<stop stop-color="#47D1B2"/>
<stop offset="1" stop-color="#4F88AC"/>
</linearGradient>
<linearGradient id="paint7_linear_98_7371" x1="53.6465" y1="50.363" x2="55.1178" y2="50.7136" gradientUnits="userSpaceOnUse">
<stop stop-color="#47D1B2"/>
<stop offset="1" stop-color="#4F88AC"/>
</linearGradient>
<linearGradient id="paint8_linear_98_7371" x1="55.3174" y1="48.6392" x2="57.0021" y2="49.0406" gradientUnits="userSpaceOnUse">
<stop stop-color="#47D1B2"/>
<stop offset="1" stop-color="#4F88AC"/>
</linearGradient>
<linearGradient id="paint9_linear_98_7371" x1="56.4422" y1="46.0289" x2="58.8591" y2="46.6048" gradientUnits="userSpaceOnUse">
<stop stop-color="#47D1B2"/>
<stop offset="1" stop-color="#4F88AC"/>
</linearGradient>
<linearGradient id="paint10_linear_98_7371" x1="57.5974" y1="42.8067" x2="60.2141" y2="43.4302" gradientUnits="userSpaceOnUse">
<stop stop-color="#47D1B2"/>
<stop offset="1" stop-color="#4F88AC"/>
</linearGradient>
<linearGradient id="paint11_linear_98_7371" x1="57.8372" y1="38.8028" x2="61.0731" y2="39.5739" gradientUnits="userSpaceOnUse">
<stop stop-color="#47D1B2"/>
<stop offset="1" stop-color="#4F88AC"/>
</linearGradient>
<linearGradient id="paint12_linear_98_7371" x1="53.6632" y1="53.0877" x2="54.7331" y2="53.5986" gradientUnits="userSpaceOnUse">
<stop stop-color="#47D1B2"/>
<stop offset="1" stop-color="#4F88AC"/>
</linearGradient>
<linearGradient id="paint13_linear_98_7371" x1="55.3461" y1="52.5263" x2="56.4994" y2="53.077" gradientUnits="userSpaceOnUse">
<stop stop-color="#47D1B2"/>
<stop offset="1" stop-color="#4F88AC"/>
</linearGradient>
<linearGradient id="paint14_linear_98_7371" x1="57.0325" y1="51.3992" x2="58.3528" y2="52.0297" gradientUnits="userSpaceOnUse">
<stop stop-color="#47D1B2"/>
<stop offset="1" stop-color="#4F88AC"/>
</linearGradient>
<linearGradient id="paint15_linear_98_7371" x1="58.4248" y1="49.4429" x2="60.3188" y2="50.3473" gradientUnits="userSpaceOnUse">
<stop stop-color="#47D1B2"/>
<stop offset="1" stop-color="#4F88AC"/>
</linearGradient>
<linearGradient id="paint16_linear_98_7371" x1="59.9501" y1="46.9858" x2="62.0007" y2="47.965" gradientUnits="userSpaceOnUse">
<stop stop-color="#47D1B2"/>
<stop offset="1" stop-color="#4F88AC"/>
</linearGradient>
<linearGradient id="paint17_linear_98_7371" x1="60.8589" y1="43.7212" x2="63.3947" y2="44.9321" gradientUnits="userSpaceOnUse">
<stop stop-color="#47D1B2"/>
<stop offset="1" stop-color="#4F88AC"/>
</linearGradient>
<linearGradient id="paint18_linear_98_7371" x1="50.3196" y1="43.2827" x2="51.1385" y2="44.7011" gradientUnits="userSpaceOnUse">
<stop stop-color="#47D1B2"/>
<stop offset="1" stop-color="#4F88AC"/>
</linearGradient>
<linearGradient id="paint19_linear_98_7371" x1="47.9" y1="42.4958" x2="48.7825" y2="44.0244" gradientUnits="userSpaceOnUse">
<stop stop-color="#47D1B2"/>
<stop offset="1" stop-color="#4F88AC"/>
</linearGradient>
<linearGradient id="paint20_linear_98_7371" x1="44.9709" y1="42.2399" x2="45.9814" y2="43.9902" gradientUnits="userSpaceOnUse">
<stop stop-color="#47D1B2"/>
<stop offset="1" stop-color="#4F88AC"/>
</linearGradient>
<linearGradient id="paint21_linear_98_7371" x1="41.417" y1="42.6181" x2="42.8666" y2="45.1289" gradientUnits="userSpaceOnUse">
<stop stop-color="#47D1B2"/>
<stop offset="1" stop-color="#4F88AC"/>
</linearGradient>
<linearGradient id="paint22_linear_98_7371" x1="37.639" y1="44.0154" x2="39.2085" y2="46.7338" gradientUnits="userSpaceOnUse">
<stop stop-color="#47D1B2"/>
<stop offset="1" stop-color="#4F88AC"/>
</linearGradient>
<linearGradient id="paint23_linear_98_7371" x1="33.6807" y1="46.379" x2="35.6215" y2="49.7404" gradientUnits="userSpaceOnUse">
<stop stop-color="#47D1B2"/>
<stop offset="1" stop-color="#4F88AC"/>
</linearGradient>
<linearGradient id="paint24_linear_98_7371" x1="51.0134" y1="40.7663" x2="51.4142" y2="42.1114" gradientUnits="userSpaceOnUse">
<stop stop-color="#47D1B2"/>
<stop offset="1" stop-color="#4F88AC"/>
</linearGradient>
<linearGradient id="paint25_linear_98_7371" x1="49.153" y1="39.6297" x2="49.585" y2="41.0792" gradientUnits="userSpaceOnUse">
<stop stop-color="#47D1B2"/>
<stop offset="1" stop-color="#4F88AC"/>
</linearGradient>
<linearGradient id="paint26_linear_98_7371" x1="46.762" y1="38.8343" x2="47.2567" y2="40.4941" gradientUnits="userSpaceOnUse">
<stop stop-color="#47D1B2"/>
<stop offset="1" stop-color="#4F88AC"/>
</linearGradient>
<linearGradient id="paint27_linear_98_7371" x1="43.7237" y1="38.4433" x2="44.4333" y2="40.8243" gradientUnits="userSpaceOnUse">
<stop stop-color="#47D1B2"/>
<stop offset="1" stop-color="#4F88AC"/>
</linearGradient>
<linearGradient id="paint28_linear_98_7371" x1="40.2973" y1="38.8576" x2="41.0656" y2="41.4355" gradientUnits="userSpaceOnUse">
<stop stop-color="#47D1B2"/>
<stop offset="1" stop-color="#4F88AC"/>
</linearGradient>
<linearGradient id="paint29_linear_98_7371" x1="36.5276" y1="40.0415" x2="37.4777" y2="43.2294" gradientUnits="userSpaceOnUse">
<stop stop-color="#47D1B2"/>
<stop offset="1" stop-color="#4F88AC"/>
</linearGradient>
<linearGradient id="paint30_linear_98_7371" x1="51.8434" y1="38.5224" x2="51.9352" y2="39.7045" gradientUnits="userSpaceOnUse">
<stop stop-color="#47D1B2"/>
<stop offset="1" stop-color="#4F88AC"/>
</linearGradient>
<linearGradient id="paint31_linear_98_7371" x1="50.5087" y1="37.2535" x2="50.6076" y2="38.5277" gradientUnits="userSpaceOnUse">
<stop stop-color="#47D1B2"/>
<stop offset="1" stop-color="#4F88AC"/>
</linearGradient>
<linearGradient id="paint32_linear_98_7371" x1="48.6736" y1="36.1724" x2="48.7878" y2="37.631" gradientUnits="userSpaceOnUse">
<stop stop-color="#47D1B2"/>
<stop offset="1" stop-color="#4F88AC"/>
</linearGradient>
<linearGradient id="paint33_linear_98_7371" x1="46.2332" y1="35.3107" x2="46.3969" y2="37.4031" gradientUnits="userSpaceOnUse">
<stop stop-color="#47D1B2"/>
<stop offset="1" stop-color="#4F88AC"/>
</linearGradient>
<linearGradient id="paint34_linear_98_7371" x1="43.3296" y1="35.0448" x2="43.5068" y2="37.3104" gradientUnits="userSpaceOnUse">
<stop stop-color="#47D1B2"/>
<stop offset="1" stop-color="#4F88AC"/>
</linearGradient>
<linearGradient id="paint35_linear_98_7371" x1="40.0062" y1="35.354" x2="40.2254" y2="38.1555" gradientUnits="userSpaceOnUse">
<stop stop-color="#47D1B2"/>
<stop offset="1" stop-color="#4F88AC"/>
</linearGradient>
<linearGradient id="paint36_linear_98_7371" x1="44.845" y1="46.5715" x2="46.2634" y2="47.3904" gradientUnits="userSpaceOnUse">
<stop stop-color="#47D1B2"/>
<stop offset="1" stop-color="#4F88AC"/>
</linearGradient>
<linearGradient id="paint37_linear_98_7371" x1="45.35" y1="48.9729" x2="46.8785" y2="49.8554" gradientUnits="userSpaceOnUse">
<stop stop-color="#47D1B2"/>
<stop offset="1" stop-color="#4F88AC"/>
</linearGradient>
<linearGradient id="paint38_linear_98_7371" x1="46.5458" y1="51.4631" x2="48.2961" y2="52.4736" gradientUnits="userSpaceOnUse">
<stop stop-color="#47D1B2"/>
<stop offset="1" stop-color="#4F88AC"/>
</linearGradient>
<linearGradient id="paint39_linear_98_7371" x1="48.4899" y1="53.7524" x2="51.0008" y2="55.202" gradientUnits="userSpaceOnUse">
<stop stop-color="#47D1B2"/>
<stop offset="1" stop-color="#4F88AC"/>
</linearGradient>
<linearGradient id="paint40_linear_98_7371" x1="51.5445" y1="56.1618" x2="54.2629" y2="57.7313" gradientUnits="userSpaceOnUse">
<stop stop-color="#47D1B2"/>
<stop offset="1" stop-color="#4F88AC"/>
</linearGradient>
<linearGradient id="paint41_linear_98_7371" x1="55.4352" y1="57.9008" x2="58.7967" y2="59.8416" gradientUnits="userSpaceOnUse">
<stop stop-color="#47D1B2"/>
<stop offset="1" stop-color="#4F88AC"/>
</linearGradient>
<linearGradient id="paint42_linear_98_7371" x1="42.5901" y1="47.3561" x2="43.6099" y2="48.3205" gradientUnits="userSpaceOnUse">
<stop stop-color="#47D1B2"/>
<stop offset="1" stop-color="#4F88AC"/>
</linearGradient>
<linearGradient id="paint43_linear_98_7371" x1="42.5338" y1="49.4584" x2="43.6327" y2="50.4977" gradientUnits="userSpaceOnUse">
<stop stop-color="#47D1B2"/>
<stop offset="1" stop-color="#4F88AC"/>
</linearGradient>
<linearGradient id="paint44_linear_98_7371" x1="43.0359" y1="51.7717" x2="44.2942" y2="52.9618" gradientUnits="userSpaceOnUse">
<stop stop-color="#47D1B2"/>
<stop offset="1" stop-color="#4F88AC"/>
</linearGradient>
<linearGradient id="paint45_linear_98_7371" x1="44.2017" y1="54.0665" x2="46.0068" y2="55.7737" gradientUnits="userSpaceOnUse">
<stop stop-color="#47D1B2"/>
<stop offset="1" stop-color="#4F88AC"/>
</linearGradient>
<linearGradient id="paint46_linear_98_7371" x1="46.2699" y1="56.6819" x2="48.2242" y2="58.5302" gradientUnits="userSpaceOnUse">
<stop stop-color="#47D1B2"/>
<stop offset="1" stop-color="#4F88AC"/>
</linearGradient>
<linearGradient id="paint47_linear_98_7371" x1="49.1678" y1="58.9046" x2="51.5846" y2="61.1903" gradientUnits="userSpaceOnUse">
<stop stop-color="#47D1B2"/>
<stop offset="1" stop-color="#4F88AC"/>
</linearGradient>
<linearGradient id="paint48_linear_98_7371" x1="40.4136" y1="47.9276" x2="41.0847" y2="48.905" gradientUnits="userSpaceOnUse">
<stop stop-color="#47D1B2"/>
<stop offset="1" stop-color="#4F88AC"/>
</linearGradient>
<linearGradient id="paint49_linear_98_7371" x1="39.9944" y1="49.654" x2="40.7177" y2="50.7073" gradientUnits="userSpaceOnUse">
<stop stop-color="#47D1B2"/>
<stop offset="1" stop-color="#4F88AC"/>
</linearGradient>
<linearGradient id="paint50_linear_98_7371" x1="39.999" y1="51.6537" x2="40.8273" y2="52.8598" gradientUnits="userSpaceOnUse">
<stop stop-color="#47D1B2"/>
<stop offset="1" stop-color="#4F88AC"/>
</linearGradient>
<linearGradient id="paint51_linear_98_7371" x1="40.555" y1="53.7556" x2="41.7431" y2="55.4858" gradientUnits="userSpaceOnUse">
<stop stop-color="#47D1B2"/>
<stop offset="1" stop-color="#4F88AC"/>
</linearGradient>
<linearGradient id="paint52_linear_98_7371" x1="41.7995" y1="56.2824" x2="43.0859" y2="58.1557" gradientUnits="userSpaceOnUse">
<stop stop-color="#47D1B2"/>
<stop offset="1" stop-color="#4F88AC"/>
</linearGradient>
<linearGradient id="paint53_linear_98_7371" x1="43.7984" y1="58.632" x2="45.3891" y2="60.9485" gradientUnits="userSpaceOnUse">
<stop stop-color="#47D1B2"/>
<stop offset="1" stop-color="#4F88AC"/>
</linearGradient>
</defs>
</svg>
