<svg width="84" height="90" viewBox="0 0 84 90" fill="none" xmlns="http://www.w3.org/2000/svg">
<g filter="url(#filter0_dd_98_7362)">
<path fill-rule="evenodd" clip-rule="evenodd" d="M32 35.2C32 34.3513 32.3371 33.5374 32.9373 32.9373C33.5374 32.3371 34.3513 32 35.2 32H42.5376C43.3862 32.0002 44.2 32.3374 44.8 32.9376L50.2624 38.4C50.8626 39 51.1998 39.8138 51.2 40.6624V54.4C51.2 55.2487 50.8629 56.0626 50.2627 56.6627C49.6626 57.2629 48.8487 57.6 48 57.6H35.2C34.3513 57.6 33.5374 57.2629 32.9373 56.6627C32.3371 56.0626 32 55.2487 32 54.4V35.2ZM35.2 44.8C35.2 44.3757 35.3686 43.9687 35.6686 43.6686C35.9687 43.3686 36.3757 43.2 36.8 43.2H46.4C46.8243 43.2 47.2313 43.3686 47.5314 43.6686C47.8314 43.9687 48 44.3757 48 44.8C48 45.2243 47.8314 45.6313 47.5314 45.9314C47.2313 46.2314 46.8243 46.4 46.4 46.4H36.8C36.3757 46.4 35.9687 46.2314 35.6686 45.9314C35.3686 45.6313 35.2 45.2243 35.2 44.8ZM36.8 49.6C36.3757 49.6 35.9687 49.7686 35.6686 50.0686C35.3686 50.3687 35.2 50.7757 35.2 51.2C35.2 51.6243 35.3686 52.0313 35.6686 52.3314C35.9687 52.6314 36.3757 52.8 36.8 52.8H46.4C46.8243 52.8 47.2313 52.6314 47.5314 52.3314C47.8314 52.0313 48 51.6243 48 51.2C48 50.7757 47.8314 50.3687 47.5314 50.0686C47.2313 49.7686 46.8243 49.6 46.4 49.6H36.8Z" fill="url(#paint0_linear_98_7362)"/>
</g>
<defs>
<filter id="filter0_dd_98_7362" x="0" y="0" width="83.2002" height="89.6" filterUnits="userSpaceOnUse" color-interpolation-filters="sRGB">
<feFlood flood-opacity="0" result="BackgroundImageFix"/>
<feColorMatrix in="SourceAlpha" type="matrix" values="0 0 0 0 0 0 0 0 0 0 0 0 0 0 0 0 0 0 127 0" result="hardAlpha"/>
<feOffset/>
<feGaussianBlur stdDeviation="16"/>
<feComposite in2="hardAlpha" operator="out"/>
<feColorMatrix type="matrix" values="0 0 0 0 0.913725 0 0 0 0 0.278431 0 0 0 0 0.85098 0 0 0 1 0"/>
<feBlend mode="normal" in2="BackgroundImageFix" result="effect1_dropShadow_98_7362"/>
<feColorMatrix in="SourceAlpha" type="matrix" values="0 0 0 0 0 0 0 0 0 0 0 0 0 0 0 0 0 0 127 0" result="hardAlpha"/>
<feOffset dx="3" dy="2"/>
<feGaussianBlur stdDeviation="4"/>
<feComposite in2="hardAlpha" operator="out"/>
<feColorMatrix type="matrix" values="0 0 0 0 0.0470588 0 0 0 0 0.0470588 0 0 0 0 0.0862745 0 0 0 0.12 0"/>
<feBlend mode="normal" in2="effect1_dropShadow_98_7362" result="effect2_dropShadow_98_7362"/>
<feBlend mode="normal" in="SourceGraphic" in2="effect2_dropShadow_98_7362" result="shape"/>
</filter>
<linearGradient id="paint0_linear_98_7362" x1="32" y1="35.072" x2="52.3569" y2="36.9595" gradientUnits="userSpaceOnUse">
<stop stop-color="#E834D6"/>
<stop offset="1" stop-color="#EC7DE1"/>
</linearGradient>
</defs>
</svg>
