<svg width="90" height="90" viewBox="0 0 90 90" fill="none" xmlns="http://www.w3.org/2000/svg">
<g filter="url(#filter0_dd_98_7357)">
<path fill-rule="evenodd" clip-rule="evenodd" d="M38.4 38.4V36.8C38.4 35.527 38.9057 34.3061 39.8059 33.4059C40.7061 32.5057 41.927 32 43.2 32H46.4C47.673 32 48.8939 32.5057 49.7941 33.4059C50.6943 34.3061 51.2 35.527 51.2 36.8V38.4H54.4C55.2487 38.4 56.0626 38.7371 56.6627 39.3373C57.2629 39.9374 57.6 40.7513 57.6 41.6V47.312C53.5034 48.83 49.1688 49.6048 44.8 49.6C40.4312 49.6049 36.0966 48.83 32 47.312V41.6C32 40.7513 32.3371 39.9374 32.9373 39.3373C33.5374 38.7371 34.3513 38.4 35.2 38.4H38.4ZM41.6 36.8C41.6 36.3757 41.7686 35.9687 42.0686 35.6686C42.3687 35.3686 42.7757 35.2 43.2 35.2H46.4C46.8243 35.2 47.2313 35.3686 47.5314 35.6686C47.8314 35.9687 48 36.3757 48 36.8V38.4H41.6V36.8ZM43.2 44.8C43.2 44.3757 43.3686 43.9687 43.6686 43.6686C43.9687 43.3686 44.3757 43.2 44.8 43.2H44.816C45.2403 43.2 45.6473 43.3686 45.9474 43.6686C46.2474 43.9687 46.416 44.3757 46.416 44.8C46.416 45.2243 46.2474 45.6313 45.9474 45.9314C45.6473 46.2314 45.2403 46.4 44.816 46.4H44.8C44.3757 46.4 43.9687 46.2314 43.6686 45.9314C43.3686 45.6313 43.2 45.2243 43.2 44.8Z" fill="url(#paint0_linear_98_7357)"/>
<path d="M32 50.7072V54.4C32 55.2487 32.3371 56.0626 32.9373 56.6628C33.5374 57.2629 34.3513 57.6 35.2 57.6H54.4C55.2487 57.6 56.0626 57.2629 56.6627 56.6628C57.2629 56.0626 57.6 55.2487 57.6 54.4V50.7072C53.4758 52.0972 49.1522 52.8041 44.8 52.8C40.3264 52.8 36.0208 52.064 32 50.7072Z" fill="url(#paint1_linear_98_7357)"/>
</g>
<defs>
<filter id="filter0_dd_98_7357" x="0" y="0" width="89.6001" height="89.6" filterUnits="userSpaceOnUse" color-interpolation-filters="sRGB">
<feFlood flood-opacity="0" result="BackgroundImageFix"/>
<feColorMatrix in="SourceAlpha" type="matrix" values="0 0 0 0 0 0 0 0 0 0 0 0 0 0 0 0 0 0 127 0" result="hardAlpha"/>
<feOffset/>
<feGaussianBlur stdDeviation="16"/>
<feComposite in2="hardAlpha" operator="out"/>
<feColorMatrix type="matrix" values="0 0 0 0 0.823529 0 0 0 0 0.945098 0 0 0 0 0.423529 0 0 0 1 0"/>
<feBlend mode="normal" in2="BackgroundImageFix" result="effect1_dropShadow_98_7357"/>
<feColorMatrix in="SourceAlpha" type="matrix" values="0 0 0 0 0 0 0 0 0 0 0 0 0 0 0 0 0 0 127 0" result="hardAlpha"/>
<feOffset dx="3" dy="2"/>
<feGaussianBlur stdDeviation="4"/>
<feComposite in2="hardAlpha" operator="out"/>
<feColorMatrix type="matrix" values="0 0 0 0 0.0470588 0 0 0 0 0.0470588 0 0 0 0 0.0862745 0 0 0 0.12 0"/>
<feBlend mode="normal" in2="effect1_dropShadow_98_7357" result="effect2_dropShadow_98_7357"/>
<feBlend mode="normal" in="SourceGraphic" in2="effect2_dropShadow_98_7357" result="shape"/>
</filter>
<linearGradient id="paint0_linear_98_7357" x1="32" y1="34.112" x2="58.5183" y2="38.8805" gradientUnits="userSpaceOnUse">
<stop stop-color="#F3F55B"/>
<stop offset="1" stop-color="#5BE3A8"/>
</linearGradient>
<linearGradient id="paint1_linear_98_7357" x1="32" y1="51.5344" x2="54.6093" y2="61.9154" gradientUnits="userSpaceOnUse">
<stop stop-color="#F3F55B"/>
<stop offset="1" stop-color="#5BE3A8"/>
</linearGradient>
</defs>
</svg>
