<svg width="94" height="102" viewBox="0 0 94 102" fill="none" xmlns="http://www.w3.org/2000/svg">
<g filter="url(#filter0_dd_98_7428)">
<path d="M37.823 61.4586C37.7687 61.42 37.7074 61.3924 37.6424 61.3774C37.5775 61.3625 37.5102 61.3604 37.4445 61.3715C37.3788 61.3825 37.3159 61.4064 37.2594 61.4418C37.2029 61.4771 37.1539 61.5233 37.1153 61.5776L32.097 68.6257C32.0576 68.68 32.0293 68.7415 32.0138 68.8067C31.9982 68.872 31.9958 68.9396 32.0066 69.0058C32.0174 69.072 32.0412 69.1354 32.0767 69.1923C32.1121 69.2492 32.1585 69.2986 32.2131 69.3374C32.2678 69.3763 32.3296 69.404 32.3949 69.4189C32.4603 69.4337 32.528 69.4355 32.5941 69.424C32.6602 69.4126 32.7233 69.3881 32.7799 69.3521C32.8364 69.3161 32.8853 69.2692 32.9237 69.2142L37.9419 62.1664C37.9806 62.1121 38.0082 62.0507 38.0232 61.9858C38.0382 61.9209 38.0402 61.8536 38.0291 61.7879C38.0181 61.7221 37.9942 61.6592 37.9588 61.6027C37.9235 61.5462 37.8773 61.4973 37.823 61.4586ZM39.0368 63.7711C38.9275 63.6928 38.7915 63.661 38.6587 63.6828C38.5259 63.7047 38.4073 63.7783 38.3287 63.8876L35.5376 67.7784C35.4987 67.8326 35.4709 67.8938 35.4557 67.9587C35.4405 68.0236 35.4383 68.0909 35.4491 68.1566C35.4599 68.2224 35.4836 68.2854 35.5188 68.342C35.554 68.3986 35.6 68.4477 35.6542 68.4865C35.7635 68.565 35.8995 68.5968 36.0323 68.575C36.1651 68.5532 36.2838 68.4795 36.3623 68.3702L39.1534 64.4795C39.2319 64.3701 39.2637 64.234 39.2418 64.1012C39.2199 63.9684 39.1462 63.8496 39.0368 63.7711ZM62 38.6694C62 35.2864 60.8442 32.0161 60.8442 32.0161C60.8442 32.0161 56.5307 31.7201 52.9221 33.6651C49.3132 35.6102 47.9459 38.0915 47.2692 39.2333C46.5926 40.3751 45.183 42.8137 45.183 42.8137C45.183 42.8137 42.096 42.7576 39.6572 44.1108C37.2187 45.4639 35.7244 48.0013 35.7244 48.0013C35.7244 48.0013 37.3455 47.5362 38.8961 47.5787C40.4467 47.6211 41.9973 48.2691 41.9973 48.2691C41.9973 48.2691 41.6308 48.8187 41.7013 49.6221C41.7323 49.9752 42.2041 50.4777 42.8535 51.0245C42.7514 51.1579 42.6517 51.293 42.5544 51.4299C40.2391 54.7012 39.7102 58.3066 41.3733 59.4839C43.0365 60.6609 46.2616 58.9636 48.5767 55.693C48.6505 55.5886 48.7225 55.4836 48.7926 55.3787C49.3822 55.7501 49.8875 55.9956 50.2015 55.9797C51.0332 55.9373 51.752 55.0634 51.752 55.0634C51.752 55.0634 53.3381 57.0721 53.7397 58.0872C54.1415 59.1022 54.2895 60.9205 54.2895 60.9205C54.2895 60.9205 56.0655 58.8272 56.6265 55.7349C57.1874 52.6427 55.8117 50.4539 55.8117 50.4539C55.8117 50.4539 57.3765 48.5371 58.9834 46.5918C60.5905 44.6463 62 42.0525 62 38.6694ZM48.03 54.9339C46.4966 57.0099 44.3101 57.9954 43.1457 57.1356C41.9814 56.2755 42.281 53.8956 43.8144 51.8195C43.8206 51.8111 43.827 51.8031 43.8333 51.7947C44.4526 52.2577 45.1102 52.718 45.6623 53.1182C46.3896 53.6456 47.2593 54.3241 48.0617 54.8883C48.0506 54.9035 48.0412 54.9187 48.03 54.9339ZM53.8948 44.2938C51.9872 44.2938 50.4409 42.7475 50.4409 40.8402C50.4409 38.9327 51.9872 37.3865 53.8948 37.3865C55.8021 37.3865 57.3482 38.9327 57.3482 40.8402C57.3482 42.7475 55.8021 44.2938 53.8948 44.2938Z" fill="url(#paint0_linear_98_7428)"/>
</g>
<defs>
<filter id="filter0_dd_98_7428" x="0" y="0" width="94" height="101.431" filterUnits="userSpaceOnUse" color-interpolation-filters="sRGB">
<feFlood flood-opacity="0" result="BackgroundImageFix"/>
<feColorMatrix in="SourceAlpha" type="matrix" values="0 0 0 0 0 0 0 0 0 0 0 0 0 0 0 0 0 0 127 0" result="hardAlpha"/>
<feOffset/>
<feGaussianBlur stdDeviation="16"/>
<feComposite in2="hardAlpha" operator="out"/>
<feColorMatrix type="matrix" values="0 0 0 0 0.913725 0 0 0 0 0.278431 0 0 0 0 0.85098 0 0 0 1 0"/>
<feBlend mode="normal" in2="BackgroundImageFix" result="effect1_dropShadow_98_7428"/>
<feColorMatrix in="SourceAlpha" type="matrix" values="0 0 0 0 0 0 0 0 0 0 0 0 0 0 0 0 0 0 127 0" result="hardAlpha"/>
<feOffset dx="3" dy="2"/>
<feGaussianBlur stdDeviation="4"/>
<feComposite in2="hardAlpha" operator="out"/>
<feColorMatrix type="matrix" values="0 0 0 0 0.0470588 0 0 0 0 0.0470588 0 0 0 0 0.0862745 0 0 0 0.12 0"/>
<feBlend mode="normal" in2="effect1_dropShadow_98_7428" result="effect2_dropShadow_98_7428"/>
<feBlend mode="normal" in="SourceGraphic" in2="effect2_dropShadow_98_7428" result="shape"/>
</filter>
<linearGradient id="paint0_linear_98_7428" x1="32" y1="36.4918" x2="63.7692" y2="39.6395" gradientUnits="userSpaceOnUse">
<stop stop-color="#E834D6"/>
<stop offset="1" stop-color="#EC7DE1"/>
</linearGradient>
</defs>
</svg>
