<svg width="212" height="234" viewBox="0 0 212 234" fill="none" xmlns="http://www.w3.org/2000/svg">
<g filter="url(#filter0_d_98_7622)">
<rect x="40" y="36" width="132" height="154" rx="12.375" fill="url(#paint0_linear_98_7622)" shape-rendering="crispEdges"/>
<path d="M57.2693 103.75V95.95H60.2553C60.8189 95.95 61.2874 96.0389 61.6606 96.2166C62.0364 96.3918 62.317 96.6317 62.5023 96.9364C62.6902 97.2411 62.7842 97.5864 62.7842 97.9724C62.7842 98.2897 62.7232 98.5614 62.6014 98.7874C62.4795 99.0108 62.3157 99.1924 62.1101 99.332C61.9044 99.4717 61.6746 99.572 61.4207 99.6329V99.7091C61.6975 99.7243 61.9628 99.8094 62.2167 99.9643C62.4731 100.117 62.6826 100.332 62.8451 100.612C63.0076 100.891 63.0889 101.229 63.0889 101.625C63.0889 102.029 62.9911 102.392 62.7956 102.714C62.6001 103.034 62.3056 103.287 61.912 103.472C61.5185 103.657 61.0233 103.75 60.4267 103.75H57.2693ZM58.6823 102.569H60.202C60.7148 102.569 61.0843 102.472 61.3103 102.276C61.5388 102.078 61.653 101.824 61.653 101.514C61.653 101.283 61.5959 101.075 61.4816 100.89C61.3674 100.702 61.2049 100.555 60.9941 100.448C60.7834 100.339 60.532 100.284 60.24 100.284H58.6823V102.569ZM58.6823 99.2673H60.0801C60.3238 99.2673 60.5435 99.2229 60.739 99.134C60.9345 99.0426 61.0881 98.9144 61.1998 98.7493C61.3141 98.5817 61.3712 98.3837 61.3712 98.1552C61.3712 97.853 61.2646 97.6042 61.0513 97.4087C60.8405 97.2132 60.527 97.1154 60.1105 97.1154H58.6823V99.2673ZM64.2572 103.75V97.9H65.6359V103.75H64.2572ZM64.9503 97.0697C64.732 97.0697 64.5441 96.9974 64.3866 96.8526C64.2292 96.7054 64.1505 96.5289 64.1505 96.3232C64.1505 96.115 64.2292 95.9386 64.3866 95.7938C64.5441 95.6466 64.732 95.5729 64.9503 95.5729C65.1712 95.5729 65.3591 95.6466 65.514 95.7938C65.6714 95.9386 65.7501 96.115 65.7501 96.3232C65.7501 96.5289 65.6714 96.7054 65.514 96.8526C65.3591 96.9974 65.1712 97.0697 64.9503 97.0697ZM69.9748 97.9V98.9664H66.6118V97.9H69.9748ZM67.4421 96.4984H68.8208V101.99C68.8208 102.176 68.8487 102.318 68.9046 102.417C68.963 102.513 69.0392 102.579 69.1331 102.615C69.2271 102.651 69.3312 102.668 69.4454 102.668C69.5317 102.668 69.6104 102.662 69.6815 102.649C69.7552 102.637 69.811 102.625 69.8491 102.615L70.0814 103.693C70.0078 103.718 69.9024 103.746 69.7653 103.777C69.6308 103.807 69.4657 103.825 69.2702 103.83C68.9249 103.84 68.6139 103.788 68.3371 103.674C68.0604 103.557 67.8407 103.377 67.6782 103.133C67.5183 102.889 67.4396 102.585 67.4421 102.219V96.4984ZM73.6168 103.864C73.0328 103.864 72.5313 103.736 72.1124 103.48C71.696 103.223 71.3748 102.869 71.1488 102.417C70.9254 101.963 70.8136 101.439 70.8136 100.848C70.8136 100.254 70.9279 99.7294 71.1564 99.2749C71.3849 98.8179 71.7074 98.4624 72.1238 98.2085C72.5427 97.9521 73.0379 97.8238 73.6092 97.8238C74.084 97.8238 74.5042 97.9114 74.8698 98.0866C75.238 98.2593 75.5312 98.5043 75.7496 98.8217C75.9679 99.1365 76.0924 99.5047 76.1228 99.9262H74.8051C74.7517 99.6443 74.6248 99.4095 74.4242 99.2216C74.2261 99.0312 73.9608 98.9359 73.6282 98.9359C73.3464 98.9359 73.0988 99.0121 72.8855 99.1645C72.6722 99.3143 72.5059 99.5301 72.3866 99.8119C72.2698 100.094 72.2114 100.431 72.2114 100.825C72.2114 101.224 72.2698 101.566 72.3866 101.853C72.5034 102.138 72.6672 102.357 72.8779 102.512C73.0912 102.665 73.3413 102.741 73.6282 102.741C73.8313 102.741 74.0129 102.703 74.1728 102.626C74.3353 102.548 74.4712 102.435 74.5803 102.288C74.6895 102.14 74.7644 101.961 74.8051 101.75H76.1228C76.0898 102.164 75.9679 102.531 75.7572 102.851C75.5465 103.169 75.2595 103.417 74.8965 103.598C74.5334 103.775 74.1068 103.864 73.6168 103.864ZM79.8067 103.864C79.2354 103.864 78.7403 103.739 78.3213 103.487C77.9024 103.236 77.5774 102.884 77.3463 102.432C77.1178 101.98 77.0036 101.452 77.0036 100.848C77.0036 100.244 77.1178 99.7142 77.3463 99.2597C77.5774 98.8052 77.9024 98.4522 78.3213 98.2009C78.7403 97.9495 79.2354 97.8238 79.8067 97.8238C80.378 97.8238 80.8731 97.9495 81.292 98.2009C81.711 98.4522 82.0347 98.8052 82.2632 99.2597C82.4943 99.7142 82.6098 100.244 82.6098 100.848C82.6098 101.452 82.4943 101.98 82.2632 102.432C82.0347 102.884 81.711 103.236 81.292 103.487C80.8731 103.739 80.378 103.864 79.8067 103.864ZM79.8143 102.76C80.1241 102.76 80.3831 102.675 80.5913 102.505C80.7995 102.332 80.9543 102.101 81.0559 101.811C81.16 101.522 81.2121 101.2 81.2121 100.844C81.2121 100.486 81.16 100.162 81.0559 99.8729C80.9543 99.5809 80.7995 99.3485 80.5913 99.1759C80.3831 99.0032 80.1241 98.9169 79.8143 98.9169C79.4969 98.9169 79.2329 99.0032 79.0221 99.1759C78.8139 99.3485 78.6578 99.5809 78.5537 99.8729C78.4521 100.162 78.4013 100.486 78.4013 100.844C78.4013 101.2 78.4521 101.522 78.5537 101.811C78.6578 102.101 78.8139 102.332 79.0221 102.505C79.2329 102.675 79.4969 102.76 79.8143 102.76ZM83.78 103.75V97.9H85.1587V103.75H83.78ZM84.4732 97.0697C84.2548 97.0697 84.0669 96.9974 83.9095 96.8526C83.7521 96.7054 83.6734 96.5289 83.6734 96.3232C83.6734 96.115 83.7521 95.9386 83.9095 95.7938C84.0669 95.6466 84.2548 95.5729 84.4732 95.5729C84.6941 95.5729 84.882 95.6466 85.0368 95.7938C85.1943 95.9386 85.273 96.115 85.273 96.3232C85.273 96.5289 85.1943 96.7054 85.0368 96.8526C84.882 96.9974 84.6941 97.0697 84.4732 97.0697ZM87.9552 100.322V103.75H86.5765V97.9H87.8942V98.894H87.9628C88.0974 98.5665 88.3119 98.3063 88.6064 98.1133C88.9035 97.9203 89.2704 97.8238 89.7071 97.8238C90.1108 97.8238 90.4625 97.9102 90.7621 98.0828C91.0643 98.2555 91.2978 98.5056 91.4629 98.8331C91.6305 99.1606 91.713 99.558 91.7104 100.025V103.75H90.3317V100.238C90.3317 99.8475 90.2302 99.5415 90.027 99.3206C89.8265 99.0997 89.5484 98.9893 89.193 98.9893C88.9518 98.9893 88.7372 99.0426 88.5493 99.1492C88.364 99.2533 88.218 99.4044 88.1113 99.6024C88.0072 99.8005 87.9552 100.04 87.9552 100.322Z" fill="white"/>
<path d="M59.4602 122.8V113.8H60.0367V122.8H59.4602ZM61.123 116.679C61.0902 116.372 60.952 116.133 60.7082 115.962C60.4668 115.791 60.1527 115.705 59.766 115.705C59.4941 115.705 59.2609 115.747 59.0664 115.829C58.8719 115.911 58.723 116.022 58.6199 116.163C58.5168 116.303 58.4641 116.464 58.4617 116.644C58.4617 116.794 58.4957 116.924 58.5637 117.034C58.634 117.145 58.7289 117.238 58.8484 117.316C58.968 117.391 59.1004 117.454 59.2457 117.505C59.391 117.557 59.5375 117.6 59.6852 117.636L60.3602 117.804C60.632 117.868 60.8934 117.953 61.1441 118.061C61.3973 118.169 61.6234 118.305 61.8227 118.469C62.0242 118.633 62.1836 118.831 62.3008 119.063C62.418 119.295 62.4766 119.567 62.4766 119.879C62.4766 120.3 62.3687 120.672 62.1531 120.993C61.9375 121.312 61.6258 121.561 61.218 121.742C60.8125 121.92 60.3215 122.009 59.7449 122.009C59.1848 122.009 58.6984 121.922 58.2859 121.749C57.8758 121.575 57.5547 121.322 57.3227 120.989C57.093 120.657 56.9688 120.251 56.95 119.773H58.2332C58.252 120.024 58.3293 120.232 58.4652 120.399C58.6012 120.565 58.7781 120.689 58.9961 120.772C59.2164 120.854 59.4625 120.895 59.7344 120.895C60.018 120.895 60.2664 120.852 60.4797 120.768C60.6953 120.681 60.8641 120.562 60.9859 120.409C61.1078 120.255 61.1699 120.074 61.1723 119.868C61.1699 119.68 61.1148 119.526 61.007 119.404C60.8992 119.28 60.748 119.177 60.5535 119.095C60.3613 119.01 60.1363 118.935 59.8785 118.87L59.0594 118.659C58.4664 118.506 57.9977 118.275 57.6531 117.966C57.3109 117.654 57.1398 117.241 57.1398 116.725C57.1398 116.301 57.2547 115.929 57.4844 115.611C57.7164 115.292 58.0316 115.045 58.4301 114.869C58.8285 114.691 59.2797 114.602 59.7836 114.602C60.2945 114.602 60.7422 114.691 61.1266 114.869C61.5133 115.045 61.8168 115.289 62.0371 115.604C62.2574 115.915 62.3711 116.274 62.3781 116.679H61.123ZM66.4976 114.7V121.9H65.1933V115.969H65.1511L63.4671 117.045V115.85L65.2565 114.7H66.4976ZM70.8851 121.998C70.3624 121.998 69.8983 121.911 69.4929 121.735C69.0897 121.559 68.7733 121.319 68.5437 121.014C68.3163 120.707 68.2038 120.359 68.2062 119.97C68.2038 119.668 68.2694 119.39 68.403 119.137C68.5366 118.884 68.7171 118.673 68.9444 118.504C69.1741 118.333 69.4296 118.224 69.7108 118.177V118.128C69.3405 118.046 69.0405 117.857 68.8108 117.562C68.5835 117.264 68.471 116.921 68.4733 116.532C68.471 116.161 68.5741 115.831 68.7827 115.54C68.9913 115.25 69.2772 115.021 69.6405 114.855C70.0038 114.686 70.4187 114.602 70.8851 114.602C71.3468 114.602 71.7581 114.686 72.119 114.855C72.4823 115.021 72.7683 115.25 72.9769 115.54C73.1878 115.831 73.2933 116.161 73.2933 116.532C73.2933 116.921 73.1772 117.264 72.9452 117.562C72.7155 117.857 72.419 118.046 72.0558 118.128V118.177C72.337 118.224 72.5901 118.333 72.8151 118.504C73.0425 118.673 73.2229 118.884 73.3565 119.137C73.4925 119.39 73.5604 119.668 73.5604 119.97C73.5604 120.359 73.4456 120.707 73.2159 121.014C72.9862 121.319 72.6698 121.559 72.2667 121.735C71.8659 121.911 71.4054 121.998 70.8851 121.998ZM70.8851 120.993C71.1546 120.993 71.389 120.947 71.5882 120.856C71.7874 120.762 71.9421 120.631 72.0522 120.462C72.1624 120.293 72.2187 120.099 72.221 119.879C72.2187 119.649 72.1589 119.446 72.0417 119.27C71.9269 119.092 71.7687 118.953 71.5671 118.852C71.3679 118.751 71.1405 118.701 70.8851 118.701C70.6272 118.701 70.3976 118.751 70.196 118.852C69.9944 118.953 69.8351 119.092 69.7179 119.27C69.603 119.446 69.5468 119.649 69.5491 119.879C69.5468 120.099 69.6007 120.293 69.7108 120.462C69.821 120.629 69.9757 120.759 70.1749 120.852C70.3765 120.946 70.6132 120.993 70.8851 120.993ZM70.8851 117.713C71.1054 117.713 71.2999 117.668 71.4687 117.579C71.6397 117.49 71.7745 117.366 71.8729 117.207C71.9714 117.047 72.0218 116.863 72.0241 116.655C72.0218 116.448 71.9726 116.268 71.8765 116.113C71.7804 115.956 71.6468 115.836 71.4757 115.751C71.3046 115.664 71.1077 115.621 70.8851 115.621C70.6577 115.621 70.4573 115.664 70.2839 115.751C70.1128 115.836 69.9792 115.956 69.8831 116.113C69.7894 116.268 69.7437 116.448 69.746 116.655C69.7437 116.863 69.7905 117.047 69.8866 117.207C69.9851 117.364 70.1198 117.488 70.2909 117.579C70.4644 117.668 70.6624 117.713 70.8851 117.713ZM76.0117 120.916L75.966 121.302C75.9332 121.598 75.8746 121.898 75.7902 122.202C75.7082 122.509 75.6215 122.792 75.5301 123.05C75.4387 123.307 75.3648 123.51 75.3086 123.658H74.4508C74.4836 123.515 74.5281 123.32 74.5844 123.074C74.643 122.828 74.6992 122.552 74.7531 122.245C74.807 121.938 74.8434 121.626 74.8621 121.309L74.8867 120.916H76.0117ZM77.4232 121.9V120.958L79.9229 118.507C80.1619 118.266 80.3611 118.052 80.5205 117.864C80.6799 117.677 80.7994 117.495 80.8791 117.319C80.9588 117.143 80.9986 116.956 80.9986 116.757C80.9986 116.529 80.9471 116.335 80.8439 116.173C80.7408 116.009 80.599 115.882 80.4186 115.793C80.2381 115.704 80.033 115.66 79.8033 115.66C79.5666 115.66 79.3592 115.709 79.1811 115.807C79.0029 115.904 78.8646 116.041 78.7662 116.219C78.6701 116.397 78.6221 116.609 78.6221 116.855H77.3811C77.3811 116.398 77.4854 116.001 77.6939 115.663C77.9025 115.326 78.1896 115.064 78.5553 114.879C78.9232 114.694 79.3451 114.602 79.8209 114.602C80.3037 114.602 80.7279 114.692 81.0936 114.872C81.4592 115.053 81.7428 115.3 81.9443 115.614C82.1482 115.928 82.2502 116.287 82.2502 116.69C82.2502 116.959 82.1986 117.224 82.0955 117.484C81.9924 117.745 81.8107 118.033 81.5506 118.349C81.2928 118.666 80.9307 119.049 80.4643 119.499L79.2232 120.761V120.81H82.3592V121.9H77.4232ZM83.8357 121.9L86.8978 115.839V115.79H83.3436V114.7H88.2478V115.814L85.1893 121.9H83.8357ZM91.7969 121.998C91.2742 121.998 90.8102 121.911 90.4047 121.735C90.0016 121.559 89.6852 121.319 89.4555 121.014C89.2281 120.707 89.1156 120.359 89.118 119.97C89.1156 119.668 89.1813 119.39 89.3148 119.137C89.4484 118.884 89.6289 118.673 89.8563 118.504C90.0859 118.333 90.3414 118.224 90.6227 118.177V118.128C90.2523 118.046 89.9523 117.857 89.7227 117.562C89.4953 117.264 89.3828 116.921 89.3852 116.532C89.3828 116.161 89.4859 115.831 89.6945 115.54C89.9031 115.25 90.1891 115.021 90.5523 114.855C90.9156 114.686 91.3305 114.602 91.7969 114.602C92.2586 114.602 92.6699 114.686 93.0309 114.855C93.3941 115.021 93.6801 115.25 93.8887 115.54C94.0996 115.831 94.2051 116.161 94.2051 116.532C94.2051 116.921 94.0891 117.264 93.857 117.562C93.6273 117.857 93.3309 118.046 92.9676 118.128V118.177C93.2488 118.224 93.502 118.333 93.727 118.504C93.9543 118.673 94.1348 118.884 94.2684 119.137C94.4043 119.39 94.4723 119.668 94.4723 119.97C94.4723 120.359 94.3574 120.707 94.1277 121.014C93.898 121.319 93.5816 121.559 93.1785 121.735C92.7777 121.911 92.3172 121.998 91.7969 121.998ZM91.7969 120.993C92.0664 120.993 92.3008 120.947 92.5 120.856C92.6992 120.762 92.8539 120.631 92.9641 120.462C93.0742 120.293 93.1305 120.099 93.1328 119.879C93.1305 119.649 93.0707 119.446 92.9535 119.27C92.8387 119.092 92.6805 118.953 92.4789 118.852C92.2797 118.751 92.0523 118.701 91.7969 118.701C91.5391 118.701 91.3094 118.751 91.1078 118.852C90.9063 118.953 90.7469 119.092 90.6297 119.27C90.5148 119.446 90.4586 119.649 90.4609 119.879C90.4586 120.099 90.5125 120.293 90.6227 120.462C90.7328 120.629 90.8875 120.759 91.0867 120.852C91.2883 120.946 91.525 120.993 91.7969 120.993ZM91.7969 117.713C92.0172 117.713 92.2117 117.668 92.3805 117.579C92.5516 117.49 92.6863 117.366 92.7848 117.207C92.8832 117.047 92.9336 116.863 92.9359 116.655C92.9336 116.448 92.8844 116.268 92.7883 116.113C92.6922 115.956 92.5586 115.836 92.3875 115.751C92.2164 115.664 92.0195 115.621 91.7969 115.621C91.5695 115.621 91.3691 115.664 91.1957 115.751C91.0246 115.836 90.891 115.956 90.7949 116.113C90.7012 116.268 90.6555 116.448 90.6578 116.655C90.6555 116.863 90.7023 117.047 90.7984 117.207C90.8969 117.364 91.0316 117.488 91.2027 117.579C91.3762 117.668 91.5742 117.713 91.7969 117.713ZM96.2134 121.977C96.0001 121.977 95.8173 121.902 95.6649 121.752C95.5126 121.602 95.4376 121.42 95.4399 121.204C95.4376 120.993 95.5126 120.813 95.6649 120.663C95.8173 120.513 96.0001 120.438 96.2134 120.438C96.4196 120.438 96.5989 120.513 96.7513 120.663C96.906 120.813 96.9845 120.993 96.9868 121.204C96.9845 121.347 96.947 121.477 96.8743 121.594C96.804 121.711 96.7103 121.805 96.5931 121.875C96.4782 121.943 96.3517 121.977 96.2134 121.977ZM100.668 122.037C100.089 122.037 99.5919 121.891 99.177 121.598C98.7645 121.302 98.447 120.877 98.2243 120.322C98.004 119.764 97.8938 119.092 97.8938 118.307C97.8962 117.522 98.0075 116.854 98.2278 116.303C98.4505 115.75 98.7681 115.328 99.1806 115.038C99.5954 114.747 100.091 114.602 100.668 114.602C101.244 114.602 101.74 114.747 102.155 115.038C102.57 115.328 102.887 115.75 103.108 116.303C103.33 116.856 103.442 117.524 103.442 118.307C103.442 119.095 103.33 119.767 103.108 120.325C102.887 120.88 102.57 121.305 102.155 121.598C101.742 121.891 101.247 122.037 100.668 122.037ZM100.668 120.937C101.118 120.937 101.473 120.715 101.733 120.272C101.995 119.827 102.127 119.172 102.127 118.307C102.127 117.735 102.067 117.255 101.947 116.866C101.828 116.477 101.659 116.184 101.441 115.987C101.223 115.788 100.965 115.688 100.668 115.688C100.22 115.688 99.8661 115.911 99.606 116.356C99.3458 116.799 99.2145 117.449 99.2122 118.307C99.2099 118.881 99.2673 119.364 99.3845 119.755C99.504 120.147 99.6728 120.442 99.8907 120.641C100.109 120.838 100.368 120.937 100.668 120.937ZM107.538 114.7V121.9H106.234V115.969H106.192L104.508 117.045V115.85L106.297 114.7H107.538ZM124.875 121.475V116.609H125.978V121.475H124.875ZM122.994 119.594V118.49H127.859V119.594H122.994ZM131.782 114.7V121.9H131.124V115.389H131.082L129.395 116.511V115.829L131.096 114.7H131.782ZM134.067 121.953C133.929 121.953 133.809 121.904 133.708 121.805C133.61 121.704 133.561 121.585 133.561 121.447C133.561 121.306 133.61 121.186 133.708 121.088C133.809 120.989 133.929 120.94 134.067 120.94C134.208 120.94 134.327 120.989 134.426 121.088C134.524 121.186 134.573 121.306 134.573 121.447C134.573 121.538 134.55 121.622 134.503 121.7C134.458 121.777 134.397 121.839 134.32 121.886C134.245 121.93 134.161 121.953 134.067 121.953ZM138.25 121.998C137.807 121.998 137.411 121.919 137.061 121.759C136.712 121.598 136.436 121.374 136.232 121.088C136.028 120.802 135.92 120.473 135.908 120.1H136.573C136.584 120.363 136.665 120.592 136.815 120.789C136.965 120.984 137.165 121.136 137.413 121.246C137.661 121.354 137.938 121.408 138.243 121.408C138.575 121.408 138.868 121.346 139.122 121.222C139.377 121.097 139.576 120.927 139.719 120.712C139.865 120.494 139.937 120.248 139.937 119.973C139.937 119.683 139.863 119.426 139.716 119.204C139.568 118.981 139.356 118.807 139.079 118.683C138.805 118.559 138.477 118.497 138.095 118.497H137.673V117.906H138.095C138.407 117.906 138.682 117.85 138.921 117.738C139.163 117.623 139.352 117.462 139.491 117.256C139.629 117.05 139.698 116.807 139.698 116.528C139.698 116.263 139.638 116.03 139.519 115.829C139.399 115.627 139.231 115.469 139.013 115.354C138.797 115.239 138.545 115.182 138.257 115.182C137.978 115.182 137.722 115.236 137.49 115.343C137.258 115.451 137.071 115.604 136.928 115.8C136.787 115.997 136.712 116.23 136.703 116.5H136.067C136.076 116.125 136.179 115.796 136.376 115.512C136.575 115.226 136.839 115.004 137.167 114.844C137.497 114.682 137.863 114.602 138.264 114.602C138.688 114.602 139.055 114.688 139.364 114.862C139.674 115.035 139.913 115.266 140.081 115.554C140.252 115.84 140.338 116.155 140.338 116.5C140.338 116.91 140.227 117.262 140.004 117.555C139.781 117.845 139.481 118.047 139.104 118.159V118.205C139.563 118.297 139.924 118.5 140.187 118.817C140.452 119.131 140.584 119.516 140.584 119.973C140.584 120.358 140.483 120.704 140.282 121.011C140.08 121.315 139.804 121.557 139.452 121.735C139.103 121.911 138.702 121.998 138.25 121.998ZM142.345 121.9L145.625 115.336V115.291H141.846V114.7H146.315V115.319L143.038 121.9H142.345ZM151.359 120.564V120.237C151.359 119.968 151.412 119.725 151.52 119.509C151.628 119.291 151.782 119.119 151.981 118.993C152.18 118.866 152.417 118.803 152.691 118.803C152.968 118.803 153.204 118.866 153.401 118.993C153.598 119.119 153.749 119.291 153.855 119.509C153.96 119.725 154.013 119.968 154.013 120.237V120.564C154.013 120.834 153.959 121.076 153.851 121.292C153.746 121.507 153.595 121.68 153.398 121.809C153.201 121.935 152.965 121.998 152.691 121.998C152.412 121.998 152.173 121.935 151.974 121.809C151.777 121.68 151.625 121.507 151.517 121.292C151.411 121.076 151.359 120.834 151.359 120.564ZM151.911 120.237V120.564C151.911 120.829 151.975 121.055 152.104 121.243C152.235 121.428 152.431 121.52 152.691 121.52C152.944 121.52 153.135 121.428 153.264 121.243C153.393 121.055 153.457 120.829 153.457 120.564V120.237C153.457 119.972 153.394 119.747 153.268 119.562C153.141 119.375 152.949 119.281 152.691 119.281C152.436 119.281 152.241 119.375 152.107 119.562C151.976 119.747 151.911 119.972 151.911 120.237ZM147.73 116.363V116.036C147.73 115.766 147.784 115.524 147.892 115.308C148 115.093 148.154 114.922 148.353 114.795C148.552 114.666 148.789 114.602 149.063 114.602C149.339 114.602 149.576 114.666 149.773 114.795C149.97 114.922 150.121 115.093 150.227 115.308C150.332 115.524 150.385 115.766 150.385 116.036V116.363C150.385 116.632 150.331 116.876 150.223 117.094C150.118 117.31 149.966 117.481 149.77 117.607C149.573 117.734 149.337 117.797 149.063 117.797C148.784 117.797 148.545 117.734 148.346 117.607C148.149 117.481 147.996 117.31 147.889 117.094C147.783 116.876 147.73 116.632 147.73 116.363ZM148.282 116.036V116.363C148.282 116.628 148.347 116.854 148.476 117.041C148.607 117.227 148.803 117.319 149.063 117.319C149.316 117.319 149.507 117.227 149.636 117.041C149.765 116.854 149.829 116.628 149.829 116.363V116.036C149.829 115.771 149.766 115.546 149.639 115.361C149.513 115.173 149.321 115.08 149.063 115.08C148.807 115.08 148.613 115.173 148.479 115.361C148.348 115.546 148.282 115.771 148.282 116.036ZM148.054 121.9L153 114.7H153.623L148.676 121.9H148.054Z" fill="#34C759"/>
<path d="M116 112.38V124.22H114.819V112.38H116Z" fill="white"/>
<path d="M56.5 144.522C68.8794 144.522 70.4608 160.059 82.8402 160.059C95.2196 160.059 93.1673 172.403 105.547 172.403C117.926 172.403 117.689 154.951 130.069 154.951C142.448 154.951 143.121 146.154 155.5 146.154" stroke="url(#paint1_linear_98_7622)" stroke-opacity="0.1" stroke-width="7.2765" stroke-linecap="round"/>
<path d="M56.5 144.075C68.8794 144.075 70.4608 159.612 82.8402 159.612C95.2196 159.612 93.1673 171.956 105.547 171.956C117.926 171.956 117.689 154.504 130.069 154.504C142.448 154.504 143.121 145.707 155.5 145.707" stroke="url(#paint2_linear_98_7622)" stroke-width="2.3265" stroke-linecap="round"/>
<path d="M69.5 84.5625C76.7142 84.5625 82.5625 78.7142 82.5625 71.5C82.5625 64.2858 76.7142 58.4375 69.5 58.4375C62.2858 58.4375 56.4375 64.2858 56.4375 71.5C56.4375 78.7142 62.2858 84.5625 69.5 84.5625Z" fill="url(#paint3_linear_98_7622)"/>
<path d="M69.5 59.2969C76.2203 59.2969 81.7031 64.7625 81.7031 71.5C81.7031 78.2375 76.2203 83.7031 69.5 83.7031C62.7797 83.7031 57.2969 78.2203 57.2969 71.5C57.2969 64.7797 62.7625 59.2969 69.5 59.2969ZM69.5 58.4375C62.2812 58.4375 56.4375 64.2812 56.4375 71.5C56.4375 78.7188 62.2812 84.5625 69.5 84.5625C76.7188 84.5625 82.5625 78.7188 82.5625 71.5C82.5625 64.2812 76.7188 58.4375 69.5 58.4375Z" fill="url(#paint4_linear_98_7622)"/>
<path d="M74.3639 72.5484C74.1404 72.1531 73.8311 71.861 73.4357 71.6375C73.1607 71.4828 72.7826 71.3453 72.267 71.225C72.7482 71.0703 73.1092 70.8641 73.4014 70.6235C73.6936 70.3656 73.917 70.0906 74.0545 69.7813C74.2092 69.4547 74.2779 69.1281 74.2779 68.7672C74.2779 68.2859 74.1404 67.8219 73.8482 67.4266C73.5561 67.0313 73.1436 66.7047 72.6107 66.4813C72.4045 66.3953 72.1467 66.3266 71.8889 66.275V64.3328H70.0842V66.1031H68.9154V64.3328H67.0936V66.1031H64.292V67.5985H64.7045C64.9967 67.5985 65.1857 67.6328 65.2889 67.6844C65.392 67.736 65.4607 67.8047 65.4951 67.8906C65.5295 67.9766 65.5639 68.1828 65.5639 68.4922V74.5078C65.5639 74.8172 65.5295 75.0234 65.4951 75.1094C65.4436 75.1953 65.3748 75.2641 65.2889 75.3156C65.1857 75.3672 64.9967 75.3844 64.7045 75.3844H64.292V76.8797H67.0936V78.65H68.9154V76.8797H70.1014V78.65H71.9061V76.725C72.2154 76.6735 72.4904 76.5875 72.7139 76.5016C73.3498 76.2438 73.8311 75.8828 74.1748 75.4016C74.5186 74.9203 74.6904 74.3875 74.6904 73.8203C74.7076 73.3563 74.5873 72.9266 74.3639 72.5484ZM68.2451 67.8563H69.4311C70.1186 67.8563 70.5998 67.9078 70.8748 67.9938C71.1498 68.0797 71.3561 68.2172 71.4936 68.4234C71.6311 68.6125 71.6998 68.8703 71.6998 69.1453C71.6998 69.4203 71.6311 69.6609 71.4764 69.8672C71.3217 70.0734 71.1154 70.2281 70.8061 70.3313C70.5139 70.4344 70.0498 70.4859 69.4482 70.4859H68.2623L68.2451 67.8563ZM71.5795 74.525C71.3732 74.8 71.1154 74.9719 70.8061 75.0578C70.5139 75.1438 70.1357 75.1953 69.6717 75.1953H68.8811C68.6232 75.1953 68.4686 75.1781 68.3998 75.1438C68.3311 75.1094 68.2967 75.0578 68.2795 74.9891C68.2623 74.9375 68.2451 74.7313 68.2451 74.4047V72.0672H69.6373C70.2389 72.0672 70.7029 72.1188 70.9951 72.2391C71.2873 72.3422 71.5107 72.5141 71.6482 72.7375C71.8029 72.9609 71.8717 73.236 71.8717 73.5453C71.8889 73.9406 71.7857 74.25 71.5795 74.525Z" fill="url(#paint5_linear_98_7622)"/>
<path d="M69.5 82.0703C63.6734 82.0703 58.9297 77.3266 58.9297 71.5C58.9297 65.6734 63.6734 60.9297 69.5 60.9297C75.3266 60.9297 80.0703 65.6734 80.0703 71.5C80.0703 77.3266 75.3266 82.0703 69.5 82.0703ZM69.5 61.4453C63.9484 61.4453 59.4453 65.9484 59.4453 71.5C59.4453 77.0516 63.9484 81.5547 69.5 81.5547C75.0516 81.5547 79.5547 77.0516 79.5547 71.5C79.5547 65.9484 75.0516 61.4453 69.5 61.4453Z" fill="url(#paint6_linear_98_7622)"/>
</g>
<defs>
<filter id="filter0_d_98_7622" x="0" y="0" width="212" height="234" filterUnits="userSpaceOnUse" color-interpolation-filters="sRGB">
<feFlood flood-opacity="0" result="BackgroundImageFix"/>
<feColorMatrix in="SourceAlpha" type="matrix" values="0 0 0 0 0 0 0 0 0 0 0 0 0 0 0 0 0 0 127 0" result="hardAlpha"/>
<feOffset dy="4"/>
<feGaussianBlur stdDeviation="20"/>
<feComposite in2="hardAlpha" operator="out"/>
<feColorMatrix type="matrix" values="0 0 0 0 0.0392157 0 0 0 0 0.0431373 0 0 0 0 0.0862745 0 0 0 1 0"/>
<feBlend mode="normal" in2="BackgroundImageFix" result="effect1_dropShadow_98_7622"/>
<feBlend mode="normal" in="SourceGraphic" in2="effect1_dropShadow_98_7622" result="shape"/>
</filter>
<linearGradient id="paint0_linear_98_7622" x1="106" y1="36" x2="106" y2="190" gradientUnits="userSpaceOnUse">
<stop stop-color="#181B23"/>
<stop offset="1" stop-color="#181B23" stop-opacity="0"/>
</linearGradient>
<linearGradient id="paint1_linear_98_7622" x1="155.5" y1="162.082" x2="54.3643" y2="159.752" gradientUnits="userSpaceOnUse">
<stop stop-color="#48D277"/>
<stop offset="0.53125" stop-color="#66F8EF"/>
<stop offset="1" stop-color="white" stop-opacity="0"/>
</linearGradient>
<linearGradient id="paint2_linear_98_7622" x1="155.5" y1="161.634" x2="54.3643" y2="159.305" gradientUnits="userSpaceOnUse">
<stop stop-color="#48D277"/>
<stop offset="0.53125" stop-color="#66F8EF"/>
<stop offset="1" stop-color="white" stop-opacity="0"/>
</linearGradient>
<linearGradient id="paint3_linear_98_7622" x1="60.2634" y1="62.2634" x2="78.7366" y2="80.7366" gradientUnits="userSpaceOnUse">
<stop stop-color="#FFCA28"/>
<stop offset="1" stop-color="#FF7043"/>
</linearGradient>
<linearGradient id="paint4_linear_98_7622" x1="61.1018" y1="61.4915" x2="77.8982" y2="81.5085" gradientUnits="userSpaceOnUse">
<stop stop-color="#FFECB3"/>
<stop offset="0.055" stop-color="#FEE6AA"/>
<stop offset="0.145" stop-color="#FDD792"/>
<stop offset="0.258" stop-color="#FBBE6A"/>
<stop offset="0.389" stop-color="#F89C33"/>
<stop offset="0.5" stop-color="#F57C00"/>
<stop offset="0.613" stop-color="#F67A09"/>
<stop offset="0.798" stop-color="#FA7621"/>
<stop offset="1" stop-color="#FF7043"/>
</linearGradient>
<linearGradient id="paint5_linear_98_7622" x1="64.292" y1="71.4914" x2="74.692" y2="71.4914" gradientUnits="userSpaceOnUse">
<stop stop-color="#FFECB3"/>
<stop offset="0.805" stop-color="#FFE3B2"/>
<stop offset="1" stop-color="#FFE0B2"/>
</linearGradient>
<linearGradient id="paint6_linear_98_7622" x1="60.3483" y1="66.2162" x2="78.6517" y2="76.7838" gradientUnits="userSpaceOnUse">
<stop stop-color="#FFB300"/>
<stop offset="1" stop-color="#F4511E"/>
</linearGradient>
</defs>
</svg>
