<svg width="140" height="154" viewBox="0 0 140 154" fill="none" xmlns="http://www.w3.org/2000/svg">
<g filter="url(#filter0_bdd_337_1561)">
<rect x="4" width="132" height="146" rx="12.375" fill="url(#paint0_linear_337_1561)" shape-rendering="crispEdges"/>
<path d="M21.2693 67.75V59.95H26.3424V61.1345H22.6823V63.2521H26.0796V64.4365H22.6823V66.5655H26.3729V67.75H21.2693ZM30.2748 67.8643C29.7035 67.8643 29.2083 67.7386 28.7894 67.4872C28.3705 67.2358 28.0455 66.8842 27.8144 66.4322C27.5859 65.9803 27.4716 65.4521 27.4716 64.8479C27.4716 64.2436 27.5859 63.7142 27.8144 63.2597C28.0455 62.8052 28.3705 62.4522 28.7894 62.2009C29.2083 61.9495 29.7035 61.8238 30.2748 61.8238C30.846 61.8238 31.3412 61.9495 31.7601 62.2009C32.1791 62.4522 32.5028 62.8052 32.7313 63.2597C32.9624 63.7142 33.0779 64.2436 33.0779 64.8479C33.0779 65.4521 32.9624 65.9803 32.7313 66.4322C32.5028 66.8842 32.1791 67.2358 31.7601 67.4872C31.3412 67.7386 30.846 67.8643 30.2748 67.8643ZM30.2824 66.7598C30.5921 66.7598 30.8511 66.6747 31.0593 66.5046C31.2675 66.3319 31.4224 66.1009 31.524 65.8114C31.6281 65.522 31.6801 65.1995 31.6801 64.844C31.6801 64.486 31.6281 64.1623 31.524 63.8729C31.4224 63.5809 31.2675 63.3485 31.0593 63.1759C30.8511 63.0032 30.5921 62.9169 30.2824 62.9169C29.965 62.9169 29.7009 63.0032 29.4902 63.1759C29.282 63.3485 29.1258 63.5809 29.0217 63.8729C28.9202 64.1623 28.8694 64.486 28.8694 64.844C28.8694 65.1995 28.9202 65.522 29.0217 65.8114C29.1258 66.1009 29.282 66.3319 29.4902 66.5046C29.7009 66.6747 29.965 66.7598 30.2824 66.7598ZM38.8717 63.4463L37.6149 63.5834C37.5793 63.4564 37.5171 63.3371 37.4282 63.2254C37.3419 63.1137 37.2251 63.0235 37.0779 62.955C36.9306 62.8864 36.7503 62.8521 36.537 62.8521C36.2501 62.8521 36.0089 62.9144 35.8134 63.0388C35.6204 63.1632 35.5252 63.3244 35.5278 63.5225C35.5252 63.6926 35.5874 63.831 35.7144 63.9376C35.8439 64.0442 36.0572 64.1318 36.3542 64.2004L37.3521 64.4137C37.9056 64.533 38.3169 64.7222 38.5861 64.9812C38.8577 65.2401 38.9948 65.5791 38.9974 65.998C38.9948 66.3662 38.8869 66.6912 38.6737 66.973C38.4629 67.2523 38.1697 67.4707 37.7939 67.6281C37.4181 67.7855 36.9865 67.8643 36.499 67.8643C35.7829 67.8643 35.2066 67.7145 34.7698 67.4148C34.3331 67.1127 34.0729 66.6925 33.9891 66.1542L35.3335 66.0247C35.3945 66.2888 35.524 66.4881 35.722 66.6227C35.92 66.7572 36.1778 66.8245 36.4951 66.8245C36.8227 66.8245 37.0855 66.7572 37.2835 66.6227C37.4841 66.4881 37.5844 66.3218 37.5844 66.1237C37.5844 65.9562 37.5197 65.8178 37.3902 65.7086C37.2632 65.5994 37.0652 65.5156 36.796 65.4572L35.7982 65.2478C35.237 65.131 34.8219 64.9342 34.5528 64.6574C34.2836 64.3781 34.1503 64.0252 34.1529 63.5986C34.1503 63.2381 34.2481 62.9258 34.4461 62.6617C34.6467 62.3951 34.9247 62.1895 35.2802 62.0447C35.6382 61.8975 36.0508 61.8238 36.518 61.8238C37.2035 61.8238 37.7431 61.9698 38.1366 62.2618C38.5327 62.5538 38.7778 62.9486 38.8717 63.4463ZM40.1343 67.75V61.9H41.513V67.75H40.1343ZM40.8274 61.0697C40.6091 61.0697 40.4212 60.9974 40.2637 60.8526C40.1063 60.7054 40.0276 60.5289 40.0276 60.3232C40.0276 60.115 40.1063 59.9386 40.2637 59.7938C40.4212 59.6466 40.6091 59.5729 40.8274 59.5729C41.0483 59.5729 41.2362 59.6466 41.3911 59.7938C41.5485 59.9386 41.6272 60.115 41.6272 60.3232C41.6272 60.5289 41.5485 60.7054 41.3911 60.8526C41.2362 60.9974 41.0483 61.0697 40.8274 61.0697ZM45.4825 67.8643C44.9112 67.8643 44.4161 67.7386 43.9971 67.4872C43.5782 67.2358 43.2532 66.8842 43.0221 66.4322C42.7936 65.9803 42.6793 65.4521 42.6793 64.8479C42.6793 64.2436 42.7936 63.7142 43.0221 63.2597C43.2532 62.8052 43.5782 62.4522 43.9971 62.2009C44.4161 61.9495 44.9112 61.8238 45.4825 61.8238C46.0538 61.8238 46.5489 61.9495 46.9678 62.2009C47.3868 62.4522 47.7105 62.8052 47.939 63.2597C48.1701 63.7142 48.2856 64.2436 48.2856 64.8479C48.2856 65.4521 48.1701 65.9803 47.939 66.4322C47.7105 66.8842 47.3868 67.2358 46.9678 67.4872C46.5489 67.7386 46.0538 67.8643 45.4825 67.8643ZM45.4901 66.7598C45.7999 66.7598 46.0588 66.6747 46.267 66.5046C46.4752 66.3319 46.6301 66.1009 46.7317 65.8114C46.8358 65.522 46.8878 65.1995 46.8878 64.844C46.8878 64.486 46.8358 64.1623 46.7317 63.8729C46.6301 63.5809 46.4752 63.3485 46.267 63.1759C46.0588 63.0032 45.7999 62.9169 45.4901 62.9169C45.1727 62.9169 44.9086 63.0032 44.6979 63.1759C44.4897 63.3485 44.3335 63.5809 44.2294 63.8729C44.1279 64.1623 44.0771 64.486 44.0771 64.844C44.0771 65.1995 44.1279 65.522 44.2294 65.8114C44.3335 66.1009 44.4897 66.3319 44.6979 66.5046C44.9086 66.6747 45.1727 66.7598 45.4901 66.7598Z" fill="white"/>
<path d="M23.4602 86.7999V77.7999H24.0367V86.7999H23.4602ZM25.123 80.6792C25.0902 80.3722 24.952 80.1331 24.7082 79.962C24.4668 79.7909 24.1527 79.7054 23.766 79.7054C23.4941 79.7054 23.2609 79.7464 23.0664 79.8284C22.8719 79.9104 22.723 80.0218 22.6199 80.1624C22.5168 80.303 22.4641 80.4636 22.4617 80.644C22.4617 80.794 22.4957 80.9241 22.5637 81.0343C22.634 81.1444 22.7289 81.2382 22.8484 81.3155C22.968 81.3905 23.1004 81.4538 23.2457 81.5054C23.391 81.5569 23.5375 81.6003 23.6852 81.6354L24.3602 81.8042C24.632 81.8675 24.8934 81.953 25.1441 82.0608C25.3973 82.1687 25.6234 82.3046 25.8227 82.4687C26.0242 82.6327 26.1836 82.8308 26.3008 83.0628C26.418 83.2948 26.4766 83.5667 26.4766 83.8784C26.4766 84.3003 26.3687 84.6718 26.1531 84.9929C25.9375 85.3116 25.6258 85.5612 25.218 85.7417C24.8125 85.9198 24.3215 86.0089 23.7449 86.0089C23.1848 86.0089 22.6984 85.9222 22.2859 85.7487C21.8758 85.5753 21.5547 85.3222 21.3227 84.9894C21.093 84.6565 20.9688 84.2511 20.95 83.7729H22.2332C22.252 84.0237 22.3293 84.2323 22.4652 84.3987C22.6012 84.5651 22.7781 84.6894 22.9961 84.7714C23.2164 84.8534 23.4625 84.8944 23.7344 84.8944C24.018 84.8944 24.2664 84.8522 24.4797 84.7679C24.6953 84.6812 24.8641 84.5616 24.9859 84.4093C25.1078 84.2546 25.1699 84.0741 25.1723 83.8679C25.1699 83.6804 25.1148 83.5257 25.007 83.4038C24.8992 83.2796 24.748 83.1765 24.5535 83.0944C24.3613 83.0101 24.1363 82.9351 23.8785 82.8694L23.0594 82.6585C22.4664 82.5062 21.9977 82.2753 21.6531 81.9659C21.3109 81.6542 21.1398 81.2405 21.1398 80.7249C21.1398 80.3007 21.2547 79.9292 21.4844 79.6104C21.7164 79.2917 22.0316 79.0444 22.4301 78.8687C22.8285 78.6905 23.2797 78.6015 23.7836 78.6015C24.2945 78.6015 24.7422 78.6905 25.1266 78.8687C25.5133 79.0444 25.8168 79.2894 26.0371 79.6034C26.2574 79.9151 26.3711 80.2737 26.3781 80.6792H25.123ZM27.569 85.8999V84.9577L30.0687 82.5073C30.3077 82.2659 30.5069 82.0515 30.6663 81.864C30.8257 81.6765 30.9452 81.4948 31.0249 81.319C31.1046 81.1433 31.1444 80.9558 31.1444 80.7565C31.1444 80.5292 31.0929 80.3347 30.9897 80.1729C30.8866 80.0089 30.7448 79.8823 30.5644 79.7933C30.3839 79.7042 30.1788 79.6597 29.9491 79.6597C29.7124 79.6597 29.505 79.7089 29.3269 79.8073C29.1487 79.9034 29.0104 80.0405 28.912 80.2187C28.8159 80.3968 28.7679 80.6089 28.7679 80.855H27.5269C27.5269 80.3979 27.6312 80.0007 27.8397 79.6632C28.0483 79.3257 28.3354 79.0644 28.7011 78.8792C29.069 78.694 29.4909 78.6015 29.9667 78.6015C30.4495 78.6015 30.8737 78.6917 31.2394 78.8722C31.605 79.0526 31.8886 79.2999 32.0901 79.614C32.294 79.928 32.396 80.2866 32.396 80.6897C32.396 80.9593 32.3444 81.2241 32.2413 81.4843C32.1382 81.7444 31.9565 82.0327 31.6964 82.3491C31.4386 82.6655 31.0765 83.0487 30.6101 83.4987L29.369 84.7608V84.8101H32.505V85.8999H27.569ZM34.5159 85.9772C34.3026 85.9772 34.1198 85.9022 33.9675 85.7522C33.8151 85.6022 33.7401 85.4194 33.7425 85.2038C33.7401 84.9929 33.8151 84.8124 33.9675 84.6624C34.1198 84.5124 34.3026 84.4374 34.5159 84.4374C34.7222 84.4374 34.9015 84.5124 35.0538 84.6624C35.2085 84.8124 35.287 84.9929 35.2894 85.2038C35.287 85.3468 35.2495 85.4769 35.1769 85.594C35.1065 85.7112 35.0128 85.805 34.8956 85.8753C34.7808 85.9433 34.6542 85.9772 34.5159 85.9772ZM38.9702 86.037C38.3913 86.037 37.8944 85.8905 37.4796 85.5976C37.0671 85.3022 36.7495 84.8769 36.5269 84.3214C36.3065 83.7636 36.1964 83.0921 36.1964 82.3069C36.1987 81.5218 36.3101 80.8538 36.5304 80.303C36.753 79.7499 37.0706 79.328 37.4831 79.0374C37.8979 78.7468 38.3937 78.6015 38.9702 78.6015C39.5468 78.6015 40.0425 78.7468 40.4573 79.0374C40.8722 79.328 41.1897 79.7499 41.4101 80.303C41.6327 80.8562 41.744 81.5241 41.744 82.3069C41.744 83.0944 41.6327 83.7671 41.4101 84.3249C41.1897 84.8804 40.8722 85.3046 40.4573 85.5976C40.0448 85.8905 39.5491 86.037 38.9702 86.037ZM38.9702 84.9366C39.4202 84.9366 39.7753 84.7151 40.0354 84.2722C40.2979 83.8269 40.4292 83.1718 40.4292 82.3069C40.4292 81.7351 40.3694 81.2546 40.2499 80.8655C40.1304 80.4765 39.9616 80.1835 39.7437 79.9866C39.5257 79.7874 39.2679 79.6878 38.9702 79.6878C38.5226 79.6878 38.1687 79.9104 37.9085 80.3558C37.6483 80.7987 37.5171 81.4491 37.5147 82.3069C37.5124 82.8812 37.5698 83.364 37.687 83.7554C37.8065 84.1468 37.9753 84.4421 38.1933 84.6413C38.4112 84.8382 38.6702 84.9366 38.9702 84.9366ZM45.8406 78.6999V85.8999H44.5363V79.969H44.4941L42.8102 81.0448V79.8495L44.5996 78.6999H45.8406ZM63.177 85.4745V80.6089H64.281V85.4745H63.177ZM61.2962 83.5937V82.4897H66.1618V83.5937H61.2962ZM70.0844 78.6999V85.8999H69.427V79.389H69.3848L67.6973 80.5104V79.8284L69.3988 78.6999H70.0844ZM72.3695 85.9526C72.2312 85.9526 72.1117 85.9034 72.0109 85.805C71.9125 85.7042 71.8633 85.5847 71.8633 85.4464C71.8633 85.3058 71.9125 85.1862 72.0109 85.0878C72.1117 84.9894 72.2312 84.9401 72.3695 84.9401C72.5102 84.9401 72.6297 84.9894 72.7281 85.0878C72.8266 85.1862 72.8758 85.3058 72.8758 85.4464C72.8758 85.5378 72.8523 85.6222 72.8055 85.6995C72.7609 85.7769 72.7 85.839 72.6227 85.8858C72.5477 85.9304 72.4633 85.9526 72.3695 85.9526ZM76.5522 85.9983C76.1093 85.9983 75.7132 85.9187 75.364 85.7593C75.0147 85.5976 74.7382 85.3737 74.5343 85.0878C74.3304 84.8019 74.2226 84.4726 74.2108 84.0999H74.8753C74.887 84.3624 74.9679 84.5921 75.1179 84.789C75.2679 84.9835 75.4671 85.1358 75.7155 85.246C75.964 85.3538 76.2405 85.4077 76.5452 85.4077C76.878 85.4077 77.171 85.3456 77.4241 85.2214C77.6796 85.0972 77.8788 84.9272 78.0218 84.7116C78.1671 84.4937 78.2397 84.2476 78.2397 83.9733C78.2397 83.6827 78.1659 83.4261 78.0183 83.2034C77.8706 82.9808 77.6585 82.8073 77.3819 82.6831C77.1077 82.5589 76.7796 82.4968 76.3976 82.4968H75.9757V81.9062H76.3976C76.7093 81.9062 76.9847 81.8499 77.2237 81.7374C77.4651 81.6226 77.655 81.462 77.7933 81.2558C77.9315 81.0495 78.0007 80.8069 78.0007 80.528C78.0007 80.2632 77.9409 80.03 77.8214 79.8284C77.7019 79.6269 77.5331 79.4687 77.3151 79.3538C77.0995 79.239 76.8476 79.1815 76.5593 79.1815C76.2804 79.1815 76.0249 79.2354 75.7929 79.3433C75.5608 79.4511 75.3733 79.6034 75.2304 79.8003C75.0897 79.9972 75.0147 80.2304 75.0054 80.4999H74.369C74.3784 80.1249 74.4815 79.7956 74.6784 79.512C74.8776 79.2261 75.1413 79.0034 75.4694 78.844C75.7999 78.6823 76.1655 78.6015 76.5663 78.6015C76.9905 78.6015 77.3573 78.6882 77.6667 78.8616C77.9761 79.0351 78.2151 79.2659 78.3839 79.5542C78.555 79.8401 78.6405 80.1554 78.6405 80.4999C78.6405 80.9101 78.5292 81.2616 78.3065 81.5546C78.0839 81.8452 77.7839 82.0468 77.4065 82.1593V82.205C77.8659 82.2964 78.2269 82.5003 78.4894 82.8167C78.7542 83.1308 78.8866 83.5163 78.8866 83.9733C78.8866 84.3577 78.7858 84.7034 78.5843 85.0104C78.3827 85.3151 78.1062 85.5565 77.7546 85.7347C77.4054 85.9104 77.0046 85.9983 76.5522 85.9983ZM80.6479 85.8999L83.928 79.3362V79.2905H80.1487V78.6999H84.6171V79.3187L81.3405 85.8999H80.6479ZM89.6611 84.564V84.237C89.6611 83.9675 89.715 83.7249 89.8228 83.5093C89.9307 83.2913 90.0842 83.119 90.2834 82.9925C90.4826 82.8659 90.7193 82.8026 90.9935 82.8026C91.2701 82.8026 91.5068 82.8659 91.7037 82.9925C91.9006 83.119 92.0518 83.2913 92.1572 83.5093C92.2627 83.7249 92.3154 83.9675 92.3154 84.237V84.564C92.3154 84.8335 92.2615 85.0761 92.1537 85.2917C92.0482 85.5073 91.8971 85.6796 91.7002 85.8085C91.5033 85.9351 91.2678 85.9983 90.9935 85.9983C90.7146 85.9983 90.4756 85.9351 90.2764 85.8085C90.0795 85.6796 89.9271 85.5073 89.8193 85.2917C89.7139 85.0761 89.6611 84.8335 89.6611 84.564ZM90.2131 84.237V84.564C90.2131 84.8288 90.2775 85.055 90.4064 85.2425C90.5377 85.4276 90.7334 85.5202 90.9935 85.5202C91.2467 85.5202 91.4377 85.4276 91.5666 85.2425C91.6955 85.055 91.76 84.8288 91.76 84.564V84.237C91.76 83.9722 91.6967 83.7472 91.5701 83.562C91.4435 83.3745 91.2514 83.2808 90.9935 83.2808C90.7381 83.2808 90.5435 83.3745 90.41 83.562C90.2787 83.7472 90.2131 83.9722 90.2131 84.237ZM86.033 80.3628V80.0358C86.033 79.7663 86.0869 79.5237 86.1947 79.3081C86.3025 79.0925 86.456 78.9214 86.6553 78.7948C86.8545 78.6659 87.0912 78.6015 87.3654 78.6015C87.642 78.6015 87.8787 78.6659 88.0756 78.7948C88.2725 78.9214 88.4236 79.0925 88.5291 79.3081C88.6346 79.5237 88.6873 79.7663 88.6873 80.0358V80.3628C88.6873 80.6323 88.6334 80.8761 88.5256 81.094C88.4201 81.3097 88.2689 81.4808 88.0721 81.6073C87.8752 81.7339 87.6396 81.7972 87.3654 81.7972C87.0865 81.7972 86.8475 81.7339 86.6482 81.6073C86.4514 81.4808 86.299 81.3097 86.1912 81.094C86.0857 80.8761 86.033 80.6323 86.033 80.3628ZM86.585 80.0358V80.3628C86.585 80.6276 86.6494 80.8538 86.7783 81.0413C86.9096 81.2265 87.1053 81.319 87.3654 81.319C87.6185 81.319 87.8096 81.2265 87.9385 81.0413C88.0674 80.8538 88.1318 80.6276 88.1318 80.3628V80.0358C88.1318 79.771 88.0685 79.546 87.942 79.3608C87.8154 79.1733 87.6232 79.0796 87.3654 79.0796C87.11 79.0796 86.9154 79.1733 86.7818 79.3608C86.6506 79.546 86.585 79.771 86.585 80.0358ZM86.3564 85.8999L91.3029 78.6999H91.9252L86.9787 85.8999H86.3564Z" fill="#34C759"/>
<path d="M54.3027 76.3796V88.2202H53.1215V76.3796H54.3027Z" fill="white"/>
<path d="M21 101.447C33.3794 101.447 34.9608 116.984 47.3402 116.984C59.7196 116.984 57.6673 129.329 70.0467 129.329C82.4261 129.329 82.1895 111.876 94.5688 111.876C106.948 111.876 107.621 103.08 120 103.08" stroke="url(#paint1_linear_337_1561)" stroke-opacity="0.1" stroke-width="7.2765" stroke-linecap="round"/>
<path d="M21 101C33.3794 101 34.9608 116.537 47.3402 116.537C59.7196 116.537 57.6673 128.882 70.0467 128.882C82.4261 128.882 82.1895 111.429 94.5688 111.429C106.948 111.429 107.621 102.633 120 102.633" stroke="url(#paint2_linear_337_1561)" stroke-width="2.3265" stroke-linecap="round"/>
<path d="M37.3473 28.1238L37.1136 28.715L30.6236 46.9063H30.3761L23.8723 28.6875L23.6523 28.1375C23.7348 27.9313 23.8448 27.7388 23.9548 27.6013L28.9186 21.6475C29.7848 20.6025 31.2148 20.6025 32.0811 21.6475L37.0448 27.6013C37.1548 27.725 37.2648 27.9313 37.3473 28.1238Z" fill="#5856D6"/>
<path opacity="0.4" d="M30.3763 46.9062C30.0463 46.8925 29.73 46.81 29.4825 46.6587L22.1675 42.4925C21.4525 42.08 21.0125 41.09 21.1638 40.2925L23.5288 28.5087C23.5563 28.3987 23.5975 28.275 23.6525 28.1375L23.8725 28.6875L30.3763 46.9062Z" fill="#5856D6"/>
<path opacity="0.4" d="M38.8325 42.4925L31.5175 46.6588C31.27 46.81 30.9538 46.8925 30.6238 46.9063L37.1138 28.715L37.3475 28.1238C37.4025 28.2613 37.4438 28.3988 37.4713 28.5088L39.8363 40.2925C39.9875 41.09 39.5475 42.08 38.8325 42.4925Z" fill="#5856D6"/>
</g>
<defs>
<filter id="filter0_bdd_337_1561" x="-396" y="-400" width="932" height="946" filterUnits="userSpaceOnUse" color-interpolation-filters="sRGB">
<feFlood flood-opacity="0" result="BackgroundImageFix"/>
<feGaussianBlur in="BackgroundImageFix" stdDeviation="200"/>
<feComposite in2="SourceAlpha" operator="in" result="effect1_backgroundBlur_337_1561"/>
<feColorMatrix in="SourceAlpha" type="matrix" values="0 0 0 0 0 0 0 0 0 0 0 0 0 0 0 0 0 0 127 0" result="hardAlpha"/>
<feOffset dy="4"/>
<feGaussianBlur stdDeviation="2"/>
<feComposite in2="hardAlpha" operator="out"/>
<feColorMatrix type="matrix" values="0 0 0 0 0 0 0 0 0 0 0 0 0 0 0 0 0 0 0.25 0"/>
<feBlend mode="normal" in2="effect1_backgroundBlur_337_1561" result="effect2_dropShadow_337_1561"/>
<feColorMatrix in="SourceAlpha" type="matrix" values="0 0 0 0 0 0 0 0 0 0 0 0 0 0 0 0 0 0 127 0" result="hardAlpha"/>
<feOffset dy="4"/>
<feGaussianBlur stdDeviation="2"/>
<feComposite in2="hardAlpha" operator="out"/>
<feColorMatrix type="matrix" values="0 0 0 0 0 0 0 0 0 0 0 0 0 0 0 0 0 0 0.25 0"/>
<feBlend mode="normal" in2="effect2_dropShadow_337_1561" result="effect3_dropShadow_337_1561"/>
<feBlend mode="normal" in="SourceGraphic" in2="effect3_dropShadow_337_1561" result="shape"/>
</filter>
<linearGradient id="paint0_linear_337_1561" x1="70" y1="0" x2="70" y2="146" gradientUnits="userSpaceOnUse">
<stop stop-color="#181B23"/>
<stop offset="1" stop-color="#181B23" stop-opacity="0"/>
</linearGradient>
<linearGradient id="paint1_linear_337_1561" x1="120" y1="119.007" x2="18.8643" y2="116.678" gradientUnits="userSpaceOnUse">
<stop stop-color="#48D277"/>
<stop offset="0.53125" stop-color="#66F8EF"/>
<stop offset="1" stop-color="white" stop-opacity="0"/>
</linearGradient>
<linearGradient id="paint2_linear_337_1561" x1="120" y1="118.56" x2="18.8643" y2="116.231" gradientUnits="userSpaceOnUse">
<stop stop-color="#48D277"/>
<stop offset="0.53125" stop-color="#66F8EF"/>
<stop offset="1" stop-color="white" stop-opacity="0"/>
</linearGradient>
</defs>
</svg>
