<svg width="202" height="78" viewBox="0 0 202 78" fill="none" xmlns="http://www.w3.org/2000/svg">
<g filter="url(#filter0_bdd_337_1571)">
<rect x="4" width="194" height="69.2047" rx="8.50877" fill="url(#paint0_linear_337_1571)" shape-rendering="crispEdges"/>
<path d="M15.7511 17.3158V16.1882H21.6758V17.3158H19.3806V23.614H18.0463V17.3158H15.7511ZM22.1816 23.614V18.0446H23.4543V18.9729H23.5123C23.6138 18.6514 23.7879 18.4036 24.0344 18.2296C24.2834 18.0531 24.5674 17.9649 24.8865 17.9649C24.959 17.9649 25.04 17.9685 25.1295 17.9757C25.2213 17.9806 25.2975 17.989 25.3579 18.0011V19.2085C25.3023 19.1892 25.2141 19.1723 25.0932 19.1578C24.9747 19.1409 24.8599 19.1324 24.7487 19.1324C24.5094 19.1324 24.2943 19.1844 24.1033 19.2883C23.9148 19.3898 23.7661 19.5313 23.6573 19.7125C23.5486 19.8938 23.4942 20.1029 23.4942 20.3398V23.614H22.1816ZM27.7328 23.7264C27.3799 23.7264 27.0621 23.6636 26.7792 23.5379C26.4988 23.4098 26.2764 23.2212 26.1121 22.9722C25.9501 22.7233 25.8691 22.4163 25.8691 22.0513C25.8691 21.737 25.9272 21.4772 26.0432 21.2717C26.1592 21.0662 26.3175 20.9018 26.5182 20.7786C26.7188 20.6553 26.9448 20.5622 27.1962 20.4994C27.45 20.4341 27.7123 20.387 27.983 20.358C28.3094 20.3241 28.5741 20.2939 28.7771 20.2673C28.9802 20.2383 29.1276 20.1948 29.2195 20.1368C29.3137 20.0763 29.3609 19.9833 29.3609 19.8576V19.8358C29.3609 19.5627 29.2799 19.3512 29.1179 19.2013C28.956 19.0514 28.7227 18.9765 28.4181 18.9765C28.0966 18.9765 27.8416 19.0466 27.6531 19.1868C27.4669 19.327 27.3413 19.4926 27.276 19.6835L26.0504 19.5095C26.1471 19.1711 26.3067 18.8883 26.529 18.661C26.7514 18.4314 27.0234 18.2598 27.3449 18.1462C27.6664 18.0301 28.0217 17.9721 28.4109 17.9721C28.6792 17.9721 28.9463 18.0035 29.2122 18.0664C29.4781 18.1292 29.721 18.2332 29.941 18.3782C30.161 18.5208 30.3374 18.7154 30.4704 18.962C30.6058 19.2085 30.6734 19.5168 30.6734 19.8866V23.614H29.4116V22.8489H29.3681C29.2884 23.0037 29.176 23.1487 29.0309 23.2841C28.8883 23.417 28.7082 23.5246 28.4907 23.6068C28.2755 23.6865 28.0229 23.7264 27.7328 23.7264ZM28.0737 22.7619C28.3372 22.7619 28.5656 22.71 28.759 22.606C28.9524 22.4997 29.101 22.3595 29.205 22.1854C29.3113 22.0114 29.3645 21.8216 29.3645 21.6161V20.9599C29.3234 20.9937 29.2533 21.0251 29.1542 21.0541C29.0575 21.0831 28.9487 21.1085 28.8279 21.1303C28.707 21.152 28.5874 21.1714 28.4689 21.1883C28.3505 21.2052 28.2477 21.2197 28.1607 21.2318C27.9649 21.2584 27.7897 21.3019 27.6349 21.3623C27.4802 21.4228 27.3582 21.5074 27.2687 21.6161C27.1793 21.7225 27.1346 21.8603 27.1346 22.0295C27.1346 22.2712 27.2228 22.4537 27.3993 22.577C27.5757 22.7003 27.8005 22.7619 28.0737 22.7619ZM34.06 23.7119C33.6225 23.7119 33.2309 23.5995 32.8852 23.3747C32.5396 23.1499 32.2664 22.8236 32.0658 22.3957C31.8652 21.9679 31.7648 21.4481 31.7648 20.8366C31.7648 20.2178 31.8664 19.6956 32.0694 19.2702C32.2749 18.8423 32.5517 18.5196 32.8998 18.3021C33.2478 18.0821 33.6358 17.9721 34.0637 17.9721C34.39 17.9721 34.6583 18.0277 34.8686 18.1389C35.0789 18.2477 35.2457 18.3794 35.369 18.5341C35.4923 18.6864 35.5877 18.8302 35.6554 18.9656H35.7098V16.1882H37.026V23.614H35.7352V22.7365H35.6554C35.5877 22.8719 35.4898 23.0157 35.3617 23.168C35.2336 23.3179 35.0644 23.446 34.8541 23.5524C34.6438 23.6587 34.3791 23.7119 34.06 23.7119ZM34.4263 22.635C34.7042 22.635 34.9411 22.5601 35.1369 22.4102C35.3327 22.2579 35.4814 22.0464 35.5829 21.7757C35.6844 21.505 35.7352 21.1895 35.7352 20.8293C35.7352 20.4692 35.6844 20.1561 35.5829 19.8902C35.4838 19.6243 35.3364 19.4176 35.1406 19.2702C34.9472 19.1227 34.7091 19.049 34.4263 19.049C34.1338 19.049 33.8896 19.1252 33.6938 19.2774C33.498 19.4297 33.3506 19.64 33.2515 19.9083C33.1524 20.1767 33.1028 20.4837 33.1028 20.8293C33.1028 21.1774 33.1524 21.488 33.2515 21.7612C33.353 22.0319 33.5016 22.2458 33.6974 22.403C33.8957 22.5577 34.1386 22.635 34.4263 22.635ZM40.8903 23.7228C40.3319 23.7228 39.8497 23.6068 39.4436 23.3747C39.0399 23.1402 38.7293 22.8091 38.5117 22.3812C38.2942 21.9509 38.1854 21.4445 38.1854 20.862C38.1854 20.2891 38.2942 19.7863 38.5117 19.3536C38.7317 18.9185 39.0387 18.5801 39.4327 18.3383C39.8267 18.0942 40.2896 17.9721 40.8214 17.9721C41.1647 17.9721 41.4886 18.0277 41.7932 18.1389C42.1002 18.2477 42.3709 18.4169 42.6054 18.6465C42.8423 18.8762 43.0284 19.1687 43.1638 19.524C43.2991 19.8769 43.3668 20.2975 43.3668 20.7858V21.1883H38.8018V20.3036H42.1086C42.1062 20.0522 42.0518 19.8286 41.9455 19.6328C41.8391 19.4346 41.6904 19.2786 41.4995 19.165C41.3109 19.0514 41.091 18.9946 40.8396 18.9946C40.5712 18.9946 40.3356 19.0599 40.1325 19.1904C39.9295 19.3185 39.7711 19.4877 39.6575 19.698C39.5463 19.9059 39.4895 20.1344 39.4871 20.3833V21.1557C39.4871 21.4796 39.5463 21.7576 39.6648 21.9896C39.7832 22.2193 39.9488 22.3957 40.1615 22.519C40.3742 22.6399 40.6232 22.7003 40.9085 22.7003C41.0994 22.7003 41.2722 22.6737 41.427 22.6205C41.5817 22.5649 41.7158 22.4839 41.8294 22.3776C41.943 22.2712 42.0289 22.1395 42.0869 21.9824L43.3124 22.1201C43.2351 22.4441 43.0876 22.7269 42.8701 22.9686C42.6549 23.2079 42.3794 23.394 42.0434 23.527C41.7074 23.6575 41.323 23.7228 40.8903 23.7228ZM46.7416 17.3158V16.1882H52.6663V17.3158H50.3711V23.614H49.0368V17.3158H46.7416ZM55.3722 23.7228C54.8283 23.7228 54.3569 23.6031 53.9581 23.3638C53.5592 23.1245 53.2498 22.7897 53.0298 22.3595C52.8123 21.9292 52.7035 21.4264 52.7035 20.8511C52.7035 20.2758 52.8123 19.7718 53.0298 19.3391C53.2498 18.9064 53.5592 18.5704 53.9581 18.3311C54.3569 18.0918 54.8283 17.9721 55.3722 17.9721C55.916 17.9721 56.3874 18.0918 56.7863 18.3311C57.1851 18.5704 57.4933 18.9064 57.7109 19.3391C57.9308 19.7718 58.0408 20.2758 58.0408 20.8511C58.0408 21.4264 57.9308 21.9292 57.7109 22.3595C57.4933 22.7897 57.1851 23.1245 56.7863 23.3638C56.3874 23.6031 55.916 23.7228 55.3722 23.7228ZM55.3794 22.6713C55.6743 22.6713 55.9209 22.5903 56.1191 22.4283C56.3173 22.264 56.4648 22.044 56.5614 21.7684C56.6606 21.4929 56.7101 21.1859 56.7101 20.8475C56.7101 20.5066 56.6606 20.1984 56.5614 19.9229C56.4648 19.6449 56.3173 19.4237 56.1191 19.2593C55.9209 19.0949 55.6743 19.0128 55.3794 19.0128C55.0772 19.0128 54.8259 19.0949 54.6252 19.2593C54.427 19.4237 54.2783 19.6449 54.1792 19.9229C54.0825 20.1984 54.0342 20.5066 54.0342 20.8475C54.0342 21.1859 54.0825 21.4929 54.1792 21.7684C54.2783 22.044 54.427 22.264 54.6252 22.4283C54.8259 22.5903 55.0772 22.6713 55.3794 22.6713ZM61.5842 23.7228C61.0403 23.7228 60.569 23.6031 60.1701 23.3638C59.7713 23.1245 59.4619 22.7897 59.2419 22.3595C59.0243 21.9292 58.9156 21.4264 58.9156 20.8511C58.9156 20.2758 59.0243 19.7718 59.2419 19.3391C59.4619 18.9064 59.7713 18.5704 60.1701 18.3311C60.569 18.0918 61.0403 17.9721 61.5842 17.9721C62.1281 17.9721 62.5995 18.0918 62.9983 18.3311C63.3972 18.5704 63.7054 18.9064 63.9229 19.3391C64.1429 19.7718 64.2529 20.2758 64.2529 20.8511C64.2529 21.4264 64.1429 21.9292 63.9229 22.3595C63.7054 22.7897 63.3972 23.1245 62.9983 23.3638C62.5995 23.6031 62.1281 23.7228 61.5842 23.7228ZM61.5915 22.6713C61.8864 22.6713 62.1329 22.5903 62.3312 22.4283C62.5294 22.264 62.6768 22.044 62.7735 21.7684C62.8726 21.4929 62.9222 21.1859 62.9222 20.8475C62.9222 20.5066 62.8726 20.1984 62.7735 19.9229C62.6768 19.6449 62.5294 19.4237 62.3312 19.2593C62.1329 19.0949 61.8864 19.0128 61.5915 19.0128C61.2893 19.0128 61.0379 19.0949 60.8373 19.2593C60.6391 19.4237 60.4904 19.6449 60.3913 19.9229C60.2946 20.1984 60.2463 20.5066 60.2463 20.8475C60.2463 21.1859 60.2946 21.4929 60.3913 21.7684C60.4904 22.044 60.6391 22.264 60.8373 22.4283C61.0379 22.5903 61.2893 22.6713 61.5915 22.6713ZM66.6795 16.1882V23.614H65.3669V16.1882H66.6795ZM72.4311 19.5168L71.2345 19.6473C71.2007 19.5264 71.1415 19.4128 71.0569 19.3064C70.9747 19.2001 70.8635 19.1143 70.7233 19.049C70.5831 18.9837 70.4115 18.9511 70.2084 18.9511C69.9353 18.9511 69.7056 19.0103 69.5195 19.1288C69.3358 19.2472 69.2451 19.4007 69.2476 19.5893C69.2451 19.7512 69.3044 19.883 69.4252 19.9845C69.5485 20.086 69.7516 20.1694 70.0344 20.2347L70.9844 20.4377C71.5113 20.5513 71.9029 20.7314 72.1591 20.978C72.4178 21.2245 72.5483 21.5473 72.5507 21.9461C72.5483 22.2966 72.4456 22.606 72.2425 22.8743C72.0419 23.1402 71.7627 23.3481 71.405 23.498C71.0472 23.6479 70.6363 23.7228 70.1722 23.7228C69.4905 23.7228 68.9418 23.5802 68.526 23.2949C68.1102 23.0073 67.8625 22.6072 67.7827 22.0948L69.0626 21.9715C69.1206 22.2229 69.2439 22.4126 69.4325 22.5407C69.621 22.6689 69.8664 22.7329 70.1685 22.7329C70.4804 22.7329 70.7305 22.6689 70.9191 22.5407C71.1101 22.4126 71.2055 22.2543 71.2055 22.0658C71.2055 21.9062 71.1439 21.7745 71.0206 21.6705C70.8998 21.5666 70.7112 21.4868 70.455 21.4312L69.505 21.2318C68.9708 21.1206 68.5756 20.9333 68.3193 20.6698C68.0631 20.4039 67.9362 20.0679 67.9386 19.6618C67.9362 19.3185 68.0293 19.0212 68.2178 18.7698C68.4088 18.516 68.6735 18.3202 69.0119 18.1824C69.3527 18.0422 69.7455 17.9721 70.1903 17.9721C70.8429 17.9721 71.3566 18.1111 71.7313 18.3891C72.1084 18.6671 72.3417 19.043 72.4311 19.5168Z" fill="white"/>
<rect x="15.345" y="37.4385" width="20.4211" height="20.4211" rx="10.2105" fill="url(#paint1_linear_337_1571)"/>
<path d="M22.5774 49.9891L28.5335 44.033" stroke="white" stroke-width="0.850877" stroke-miterlimit="10" stroke-linecap="round" stroke-linejoin="round"/>
<path d="M22.5774 45.6199V49.9891H26.9466" stroke="white" stroke-width="0.850877" stroke-miterlimit="10" stroke-linecap="round" stroke-linejoin="round"/>
<path d="M21.9392 51.9036H29.1717" stroke="white" stroke-width="0.850877" stroke-miterlimit="10" stroke-linecap="round" stroke-linejoin="round"/>
<rect x="40.304" y="37.4385" width="20.4211" height="20.4211" rx="10.2105" fill="white"/>
<path d="M54.1306 51.9036H46.8982" stroke="#8E8E93" stroke-width="0.850877" stroke-miterlimit="10" stroke-linecap="round" stroke-linejoin="round"/>
<path d="M53.4924 44.033L47.5363 49.9891" stroke="#8E8E93" stroke-width="0.850877" stroke-miterlimit="10" stroke-linecap="round" stroke-linejoin="round"/>
<path d="M53.4924 48.4022V44.033H49.1232" stroke="#8E8E93" stroke-width="0.850877" stroke-miterlimit="10" stroke-linecap="round" stroke-linejoin="round"/>
<rect x="65.2632" y="37.4385" width="20.4211" height="20.4211" rx="10.2105" fill="white"/>
<path d="M74.8142 45.4028L73.2315 43.8202L71.6489 45.4028" stroke="#8E8E93" stroke-width="0.850877" stroke-linecap="round" stroke-linejoin="round"/>
<path d="M73.2317 51.478L73.2317 43.8201" stroke="#8E8E93" stroke-width="0.850877" stroke-linecap="round" stroke-linejoin="round"/>
<path d="M76.1331 49.8954L77.7157 51.478L79.2983 49.8954" stroke="#8E8E93" stroke-width="0.850877" stroke-linecap="round" stroke-linejoin="round"/>
<path d="M77.7158 43.8201L77.7158 51.478" stroke="#8E8E93" stroke-width="0.850877" stroke-linecap="round" stroke-linejoin="round"/>
<rect x="90.2222" y="37.4385" width="20.4211" height="20.4211" rx="10.2105" fill="white"/>
<path d="M104.049 48.9211L101.917 51.0568" stroke="#8E8E93" stroke-width="0.850877" stroke-miterlimit="10" stroke-linecap="round" stroke-linejoin="round"/>
<path d="M96.8164 48.9211H104.049" stroke="#8E8E93" stroke-width="0.850877" stroke-miterlimit="10" stroke-linecap="round" stroke-linejoin="round"/>
<path d="M96.8164 46.3772L98.9479 44.2415" stroke="#8E8E93" stroke-width="0.850877" stroke-miterlimit="10" stroke-linecap="round" stroke-linejoin="round"/>
<path d="M104.049 46.3772H96.8164" stroke="#8E8E93" stroke-width="0.850877" stroke-miterlimit="10" stroke-linecap="round" stroke-linejoin="round"/>
<path d="M125.222 43.8551C125.109 43.8552 125 43.9002 124.92 43.9802C124.84 44.0603 124.795 44.1689 124.795 44.2822L124.795 47.0524L122.025 47.0524C121.912 47.0524 121.803 47.0974 121.723 47.1775C121.643 47.2576 121.598 47.3662 121.598 47.4795C121.598 47.5928 121.643 47.7014 121.723 47.7815C121.803 47.8615 121.912 47.9065 122.025 47.9066L124.795 47.9066L124.795 50.6768C124.795 50.79 124.84 50.8987 124.92 50.9787C125 51.0588 125.109 51.1038 125.222 51.1038C125.335 51.1038 125.444 51.0588 125.524 50.9787C125.604 50.8987 125.649 50.79 125.649 50.6768L125.649 47.9066H128.419C128.533 47.9065 128.641 47.8615 128.721 47.7815C128.801 47.7014 128.846 47.5928 128.846 47.4795C128.846 47.3662 128.801 47.2576 128.721 47.1775C128.641 47.0974 128.533 47.0524 128.419 47.0524H125.649L125.649 44.2822C125.649 44.1689 125.604 44.0603 125.524 43.9802C125.444 43.9002 125.335 43.8552 125.222 43.8551Z" fill="url(#paint2_linear_337_1571)"/>
<rect x="115.38" y="37.637" width="20.024" height="20.024" rx="10.012" stroke="url(#paint3_linear_337_1571)" stroke-width="0.397076" stroke-dasharray="1.93 1.93"/>
</g>
<defs>
<filter id="filter0_bdd_337_1571" x="-396" y="-400" width="994" height="869.205" filterUnits="userSpaceOnUse" color-interpolation-filters="sRGB">
<feFlood flood-opacity="0" result="BackgroundImageFix"/>
<feGaussianBlur in="BackgroundImageFix" stdDeviation="200"/>
<feComposite in2="SourceAlpha" operator="in" result="effect1_backgroundBlur_337_1571"/>
<feColorMatrix in="SourceAlpha" type="matrix" values="0 0 0 0 0 0 0 0 0 0 0 0 0 0 0 0 0 0 127 0" result="hardAlpha"/>
<feOffset dy="4"/>
<feGaussianBlur stdDeviation="2"/>
<feComposite in2="hardAlpha" operator="out"/>
<feColorMatrix type="matrix" values="0 0 0 0 0 0 0 0 0 0 0 0 0 0 0 0 0 0 0.25 0"/>
<feBlend mode="normal" in2="effect1_backgroundBlur_337_1571" result="effect2_dropShadow_337_1571"/>
<feColorMatrix in="SourceAlpha" type="matrix" values="0 0 0 0 0 0 0 0 0 0 0 0 0 0 0 0 0 0 127 0" result="hardAlpha"/>
<feOffset dy="4"/>
<feGaussianBlur stdDeviation="2"/>
<feComposite in2="hardAlpha" operator="out"/>
<feColorMatrix type="matrix" values="0 0 0 0 0 0 0 0 0 0 0 0 0 0 0 0 0 0 0.25 0"/>
<feBlend mode="normal" in2="effect2_dropShadow_337_1571" result="effect3_dropShadow_337_1571"/>
<feBlend mode="normal" in="SourceGraphic" in2="effect3_dropShadow_337_1571" result="shape"/>
</filter>
<linearGradient id="paint0_linear_337_1571" x1="101" y1="0" x2="101" y2="69.2047" gradientUnits="userSpaceOnUse">
<stop offset="0.578125" stop-color="#181B23"/>
<stop offset="1" stop-color="#181B23" stop-opacity="0"/>
</linearGradient>
<linearGradient id="paint1_linear_337_1571" x1="15.345" y1="39.889" x2="36.8539" y2="42.5481" gradientUnits="userSpaceOnUse">
<stop stop-color="#F29200"/>
<stop offset="1" stop-color="#F9B234"/>
</linearGradient>
<linearGradient id="paint2_linear_337_1571" x1="121.877" y1="47.9356" x2="126.376" y2="44.4269" gradientUnits="userSpaceOnUse">
<stop stop-color="#F29200"/>
<stop offset="1" stop-color="#F9B234"/>
</linearGradient>
<linearGradient id="paint3_linear_337_1571" x1="115.181" y1="39.889" x2="136.69" y2="42.5481" gradientUnits="userSpaceOnUse">
<stop stop-color="#F29200"/>
<stop offset="1" stop-color="#F9B234"/>
</linearGradient>
</defs>
</svg>
