<svg width="360" height="363" viewBox="0 0 360 363" fill="none" xmlns="http://www.w3.org/2000/svg">
<rect width="360" height="363" rx="15" fill="url(#paint0_linear_98_7554)"/>
<path d="M21.2912 34.9091H24.1932L28.0795 44.3949H28.233L32.1193 34.9091H35.0213V48H32.7457V39.0064H32.6243L29.0064 47.9616H27.3061L23.6882 38.9872H23.5668V48H21.2912V34.9091ZM40.3267 48.1982C39.7045 48.1982 39.1442 48.0874 38.6456 47.8658C38.1513 47.6399 37.7592 47.3075 37.4695 46.8686C37.1839 46.4297 37.0412 45.8885 37.0412 45.245C37.0412 44.6911 37.1435 44.233 37.348 43.8707C37.5526 43.5085 37.8317 43.2188 38.1854 43.0014C38.5391 42.7841 38.9375 42.62 39.3807 42.5092C39.8281 42.3942 40.2905 42.3111 40.7678 42.2599C41.343 42.2003 41.8097 42.147 42.1676 42.1001C42.5256 42.049 42.7855 41.9723 42.9474 41.87C43.1136 41.7635 43.1967 41.5994 43.1967 41.3778V41.3395C43.1967 40.858 43.054 40.4851 42.7685 40.2209C42.483 39.9567 42.0717 39.8246 41.5348 39.8246C40.968 39.8246 40.5185 39.9482 40.1861 40.1953C39.858 40.4425 39.6364 40.7344 39.5213 41.071L37.3608 40.7642C37.5313 40.1676 37.8125 39.669 38.2045 39.2685C38.5966 38.8636 39.076 38.5611 39.6428 38.3608C40.2095 38.1562 40.8359 38.054 41.522 38.054C41.995 38.054 42.4659 38.1094 42.9347 38.2202C43.4034 38.331 43.8317 38.5142 44.2195 38.7699C44.6072 39.0213 44.9183 39.3643 45.1527 39.799C45.3913 40.2337 45.5107 40.777 45.5107 41.429V48H43.2862V46.6513H43.2095C43.0689 46.924 42.8707 47.1797 42.6151 47.4183C42.3636 47.6527 42.0462 47.8423 41.6626 47.9872C41.2834 48.1278 40.8381 48.1982 40.3267 48.1982ZM40.9276 46.4979C41.392 46.4979 41.7947 46.4062 42.1357 46.223C42.4766 46.0355 42.7386 45.7884 42.9219 45.4815C43.1094 45.1747 43.2031 44.8402 43.2031 44.478V43.321C43.1307 43.3807 43.0071 43.4361 42.8324 43.4872C42.6619 43.5384 42.4702 43.5831 42.2571 43.6214C42.044 43.6598 41.8331 43.6939 41.6243 43.7237C41.4155 43.7536 41.2344 43.7791 41.081 43.8004C40.7358 43.8473 40.4268 43.924 40.1541 44.0305C39.8814 44.1371 39.6662 44.2862 39.5085 44.478C39.3509 44.6655 39.272 44.9084 39.272 45.2067C39.272 45.6328 39.4276 45.9545 39.7386 46.1719C40.0497 46.3892 40.446 46.4979 40.9276 46.4979ZM47.8374 48V38.1818H50.081V39.8182H50.1832C50.3622 39.2514 50.669 38.8146 51.1037 38.5078C51.5426 38.1967 52.0433 38.0412 52.6058 38.0412C52.7337 38.0412 52.8764 38.0476 53.0341 38.0604C53.196 38.0689 53.3303 38.0838 53.4368 38.1051V40.2337C53.3388 40.1996 53.1832 40.1697 52.9702 40.1442C52.7614 40.1143 52.5589 40.0994 52.3629 40.0994C51.9411 40.0994 51.5618 40.1911 51.2251 40.3743C50.8928 40.5533 50.6307 40.8026 50.4389 41.1222C50.2472 41.4418 50.1513 41.8104 50.1513 42.228V48H47.8374ZM57.0835 44.919L57.0771 42.1257H57.4478L60.9762 38.1818H63.68L59.3398 43.0142H58.8604L57.0835 44.919ZM54.9741 48V34.9091H57.288V48H54.9741ZM61.136 48L57.94 43.532L59.4996 41.902L63.9038 48H61.136ZM69.1644 48.1918C68.18 48.1918 67.3299 47.9872 66.614 47.5781C65.9023 47.1648 65.3548 46.581 64.9712 45.8267C64.5877 45.0682 64.396 44.1754 64.396 43.1484C64.396 42.1385 64.5877 41.2521 64.9712 40.4893C65.359 39.7223 65.9002 39.1257 66.5948 38.6996C67.2894 38.2692 68.1055 38.054 69.043 38.054C69.6481 38.054 70.2191 38.152 70.756 38.348C71.2972 38.5398 71.7745 38.8381 72.1879 39.2429C72.6055 39.6477 72.9336 40.1634 73.1722 40.7898C73.4109 41.4119 73.5302 42.1534 73.5302 43.0142V43.7237H65.4826V42.1641H71.3121C71.3079 41.7209 71.212 41.3267 71.0245 40.9815C70.837 40.6321 70.5749 40.3572 70.2383 40.157C69.9059 39.9567 69.5181 39.8565 69.0749 39.8565C68.6019 39.8565 68.1864 39.9716 67.8285 40.2017C67.4705 40.4276 67.1914 40.7259 66.9911 41.0966C66.7951 41.4631 66.695 41.8658 66.6907 42.3047V43.6662C66.6907 44.2372 66.7951 44.7273 67.0039 45.1364C67.2127 45.5412 67.5046 45.8523 67.8796 46.0696C68.2546 46.2827 68.6935 46.3892 69.1964 46.3892C69.533 46.3892 69.8377 46.3423 70.1104 46.2486C70.3832 46.1506 70.6197 46.0078 70.82 45.8203C71.0202 45.6328 71.1715 45.4006 71.2738 45.1236L73.4343 45.3665C73.2979 45.9375 73.038 46.4361 72.6545 46.8622C72.2752 47.2841 71.7894 47.6122 71.1971 47.8466C70.6048 48.0767 69.9272 48.1918 69.1644 48.1918ZM80.3904 38.1818V39.9716H74.7463V38.1818H80.3904ZM76.1397 35.8295H78.4537V45.0469C78.4537 45.358 78.5005 45.5966 78.5943 45.7628C78.6923 45.9247 78.8201 46.0355 78.9778 46.0952C79.1355 46.1548 79.3102 46.1847 79.502 46.1847C79.6468 46.1847 79.7789 46.174 79.8983 46.1527C80.0218 46.1314 80.1156 46.1122 80.1795 46.0952L80.5694 47.9041C80.4458 47.9467 80.269 47.9936 80.0389 48.0447C79.813 48.0959 79.536 48.1257 79.2079 48.1342C78.6284 48.1513 78.1064 48.0639 77.6419 47.8722C77.1774 47.6761 76.8088 47.3736 76.536 46.9645C76.2676 46.5554 76.1355 46.044 76.1397 45.4304V35.8295Z" fill="white"/>
<path d="M20 94V94C21.1046 94 22 94.8954 22 96V132C22 133.105 21.1046 134 20 134V134V94Z" fill="#F2F2F7"/>
<path d="M37.9325 109V99.5455H41.5518C42.2351 99.5455 42.8029 99.6532 43.2553 99.8686C43.7108 100.081 44.0509 100.372 44.2756 100.741C44.5033 101.11 44.6172 101.529 44.6172 101.997C44.6172 102.382 44.5433 102.711 44.3956 102.985C44.2479 103.256 44.0494 103.476 43.8001 103.645C43.5508 103.814 43.2723 103.936 42.9645 104.01V104.102C43.3 104.12 43.6216 104.223 43.9293 104.411C44.2402 104.596 44.4941 104.857 44.6911 105.196C44.888 105.535 44.9865 105.944 44.9865 106.424C44.9865 106.913 44.868 107.353 44.631 107.744C44.3941 108.132 44.0371 108.438 43.56 108.663C43.083 108.888 42.4828 109 41.7596 109H37.9325ZM39.6452 107.569H41.4872C42.1089 107.569 42.5567 107.45 42.8306 107.213C43.1076 106.973 43.2461 106.666 43.2461 106.29C43.2461 106.01 43.1768 105.758 43.0384 105.533C42.8999 105.305 42.7029 105.127 42.4474 104.998C42.192 104.865 41.8873 104.799 41.5334 104.799H39.6452V107.569ZM39.6452 103.566H41.3395C41.6349 103.566 41.9012 103.513 42.1381 103.405C42.3751 103.294 42.5613 103.139 42.6967 102.939C42.8352 102.735 42.9045 102.495 42.9045 102.218C42.9045 101.852 42.7752 101.551 42.5167 101.314C42.2612 101.077 41.8812 100.958 41.3764 100.958H39.6452V103.566ZM46.4026 109V101.909H48.0738V109H46.4026ZM47.2428 100.903C46.9781 100.903 46.7504 100.815 46.5596 100.64C46.3688 100.461 46.2733 100.247 46.2733 99.9979C46.2733 99.7455 46.3688 99.5316 46.5596 99.3562C46.7504 99.1777 46.9781 99.0884 47.2428 99.0884C47.5106 99.0884 47.7383 99.1777 47.926 99.3562C48.1169 99.5316 48.2123 99.7455 48.2123 99.9979C48.2123 100.247 48.1169 100.461 47.926 100.64C47.7383 100.815 47.5106 100.903 47.2428 100.903ZM53.3331 101.909V103.202H49.2567V101.909H53.3331ZM50.2631 100.21H51.9343V106.867C51.9343 107.092 51.9682 107.264 52.0359 107.384C52.1067 107.501 52.199 107.581 52.3129 107.624C52.4267 107.667 52.5529 107.689 52.6914 107.689C52.796 107.689 52.8915 107.681 52.9776 107.666C53.0669 107.65 53.1346 107.637 53.1808 107.624L53.4624 108.931C53.3731 108.962 53.2454 108.995 53.0792 109.032C52.9161 109.069 52.716 109.091 52.479 109.097C52.0605 109.109 51.6835 109.046 51.348 108.908C51.0125 108.766 50.7463 108.548 50.5494 108.252C50.3555 107.957 50.2601 107.587 50.2631 107.144V100.21ZM57.7476 109.138C57.0397 109.138 56.4319 108.983 55.9241 108.672C55.4194 108.361 55.03 107.932 54.7561 107.384C54.4853 106.833 54.3499 106.199 54.3499 105.482C54.3499 104.762 54.4884 104.127 54.7654 103.576C55.0423 103.022 55.4332 102.591 55.9379 102.283C56.4458 101.972 57.0459 101.817 57.7384 101.817C58.3139 101.817 58.8232 101.923 59.2664 102.135C59.7127 102.345 60.0682 102.642 60.3328 103.026C60.5975 103.408 60.7483 103.854 60.7852 104.365H59.1879C59.1233 104.023 58.9694 103.739 58.7263 103.511C58.4862 103.28 58.1646 103.165 57.7615 103.165C57.4198 103.165 57.1198 103.257 56.8612 103.442C56.6027 103.623 56.4011 103.885 56.2565 104.227C56.1149 104.568 56.0441 104.978 56.0441 105.455C56.0441 105.938 56.1149 106.353 56.2565 106.701C56.3981 107.046 56.5966 107.312 56.852 107.5C57.1105 107.684 57.4137 107.777 57.7615 107.777C58.0077 107.777 58.2277 107.73 58.4216 107.638C58.6186 107.543 58.7832 107.406 58.9156 107.227C59.0479 107.049 59.1387 106.832 59.1879 106.576H60.7852C60.7452 107.078 60.5975 107.523 60.3421 107.911C60.0866 108.295 59.7388 108.597 59.2987 108.815C58.8586 109.031 58.3416 109.138 57.7476 109.138ZM65.2505 109.138C64.5581 109.138 63.9579 108.986 63.4501 108.681C62.9423 108.377 62.5484 107.951 62.2683 107.403C61.9913 106.855 61.8528 106.215 61.8528 105.482C61.8528 104.75 61.9913 104.108 62.2683 103.557C62.5484 103.006 62.9423 102.578 63.4501 102.274C63.9579 101.969 64.5581 101.817 65.2505 101.817C65.943 101.817 66.5431 101.969 67.051 102.274C67.5588 102.578 67.9512 103.006 68.2282 103.557C68.5082 104.108 68.6483 104.75 68.6483 105.482C68.6483 106.215 68.5082 106.855 68.2282 107.403C67.9512 107.951 67.5588 108.377 67.051 108.681C66.5431 108.986 65.943 109.138 65.2505 109.138ZM65.2598 107.8C65.6352 107.8 65.9492 107.697 66.2015 107.49C66.4539 107.281 66.6416 107.001 66.7647 106.65C66.8909 106.299 66.954 105.908 66.954 105.478C66.954 105.044 66.8909 104.651 66.7647 104.3C66.6416 103.946 66.4539 103.665 66.2015 103.456C65.9492 103.246 65.6352 103.142 65.2598 103.142C64.8751 103.142 64.555 103.246 64.2995 103.456C64.0472 103.665 63.8579 103.946 63.7317 104.3C63.6086 104.651 63.5471 105.044 63.5471 105.478C63.5471 105.908 63.6086 106.299 63.7317 106.65C63.8579 107.001 64.0472 107.281 64.2995 107.49C64.555 107.697 64.8751 107.8 65.2598 107.8ZM70.0667 109V101.909H71.7378V109H70.0667ZM70.9069 100.903C70.6422 100.903 70.4144 100.815 70.2236 100.64C70.0328 100.461 69.9374 100.247 69.9374 99.9979C69.9374 99.7455 70.0328 99.5316 70.2236 99.3562C70.4144 99.1777 70.6422 99.0884 70.9069 99.0884C71.1746 99.0884 71.4024 99.1777 71.5901 99.3562C71.7809 99.5316 71.8763 99.7455 71.8763 99.9979C71.8763 100.247 71.7809 100.461 71.5901 100.64C71.4024 100.815 71.1746 100.903 70.9069 100.903ZM75.1275 104.845V109H73.4563V101.909H75.0536V103.114H75.1367C75.2998 102.717 75.5599 102.402 75.9169 102.168C76.277 101.934 76.7217 101.817 77.2511 101.817C77.7404 101.817 78.1667 101.921 78.5298 102.131C78.8961 102.34 79.1792 102.643 79.3793 103.04C79.5824 103.437 79.6824 103.919 79.6793 104.485V109H78.0082V104.744C78.0082 104.27 77.8851 103.899 77.6388 103.631C77.3957 103.363 77.0587 103.229 76.6278 103.229C76.3355 103.229 76.0754 103.294 75.8477 103.423C75.623 103.549 75.446 103.733 75.3168 103.973C75.1906 104.213 75.1275 104.504 75.1275 104.845Z" fill="white"/>
<path d="M40.5881 130.091V119.182H41.2869V130.091H40.5881ZM42.6037 122.672C42.5639 122.3 42.3963 122.01 42.1009 121.803C41.8082 121.595 41.4276 121.491 40.9588 121.491C40.6293 121.491 40.3466 121.541 40.1108 121.641C39.875 121.74 39.6946 121.875 39.5696 122.045C39.4446 122.216 39.3807 122.411 39.3778 122.629C39.3778 122.811 39.419 122.969 39.5014 123.102C39.5866 123.236 39.7017 123.349 39.8466 123.443C39.9915 123.534 40.152 123.611 40.3281 123.673C40.5043 123.736 40.6818 123.788 40.8608 123.831L41.679 124.036C42.0085 124.112 42.3253 124.216 42.6293 124.347C42.9361 124.477 43.2102 124.642 43.4517 124.841C43.696 125.04 43.8892 125.28 44.0312 125.561C44.1733 125.842 44.2443 126.172 44.2443 126.55C44.2443 127.061 44.1136 127.511 43.8523 127.901C43.5909 128.287 43.2131 128.589 42.7188 128.808C42.2273 129.024 41.6321 129.132 40.9332 129.132C40.2543 129.132 39.6648 129.027 39.1648 128.817C38.6676 128.607 38.2784 128.3 37.9972 127.896C37.7188 127.493 37.5682 127.001 37.5455 126.422H39.1009C39.1236 126.726 39.2173 126.979 39.3821 127.18C39.5469 127.382 39.7614 127.533 40.0256 127.632C40.2926 127.732 40.5909 127.781 40.9205 127.781C41.2642 127.781 41.5653 127.73 41.8239 127.628C42.0852 127.523 42.2898 127.378 42.4375 127.193C42.5852 127.006 42.6605 126.787 42.6634 126.537C42.6605 126.31 42.5938 126.122 42.4631 125.974C42.3324 125.824 42.1491 125.699 41.9134 125.599C41.6804 125.497 41.4077 125.406 41.0952 125.327L40.1023 125.071C39.3835 124.886 38.8153 124.607 38.3977 124.232C37.983 123.854 37.7756 123.352 37.7756 122.727C37.7756 122.213 37.9148 121.763 38.1932 121.376C38.4744 120.99 38.8565 120.69 39.3395 120.477C39.8224 120.261 40.3693 120.153 40.9801 120.153C41.5994 120.153 42.142 120.261 42.608 120.477C43.0767 120.69 43.4446 120.987 43.7116 121.368C43.9787 121.746 44.1165 122.18 44.125 122.672H42.6037ZM48.7006 129.119C48.087 129.119 47.5415 129.014 47.0643 128.804C46.5898 128.594 46.2148 128.301 45.9393 127.926C45.6637 127.551 45.5174 127.118 45.5004 126.626H47.1026C47.1168 126.862 47.195 127.068 47.337 127.244C47.479 127.418 47.668 127.553 47.9038 127.649C48.1396 127.746 48.4038 127.794 48.6964 127.794C49.0089 127.794 49.2859 127.74 49.5273 127.632C49.7688 127.521 49.9577 127.368 50.0941 127.172C50.2305 126.976 50.2972 126.75 50.2944 126.494C50.2972 126.23 50.229 125.997 50.0898 125.795C49.9506 125.594 49.7489 125.436 49.4847 125.322C49.2234 125.209 48.908 125.152 48.5387 125.152H47.7674V123.933H48.5387C48.8427 123.933 49.1083 123.881 49.3356 123.776C49.5657 123.67 49.7461 123.523 49.8768 123.332C50.0075 123.139 50.0714 122.916 50.0685 122.663C50.0714 122.416 50.016 122.202 49.9023 122.02C49.7915 121.835 49.6339 121.692 49.4293 121.589C49.2276 121.487 48.9904 121.436 48.7177 121.436C48.4506 121.436 48.2035 121.484 47.9762 121.581C47.7489 121.678 47.5657 121.815 47.4265 121.994C47.2873 122.17 47.2134 122.381 47.2049 122.625H45.6836C45.695 122.136 45.8356 121.707 46.1055 121.338C46.3782 120.966 46.7418 120.676 47.1964 120.469C47.6509 120.259 48.1609 120.153 48.7262 120.153C49.3086 120.153 49.8143 120.263 50.2433 120.482C50.6751 120.697 51.0089 120.989 51.2447 121.355C51.4805 121.722 51.5984 122.126 51.5984 122.57C51.6012 123.061 51.4563 123.473 51.1637 123.805C50.8739 124.138 50.4933 124.355 50.0217 124.457V124.526C50.6353 124.611 51.1055 124.838 51.4322 125.207C51.7617 125.574 51.9251 126.03 51.9222 126.575C51.9222 127.064 51.783 127.501 51.5046 127.888C51.229 128.271 50.8484 128.572 50.3626 128.791C49.8796 129.01 49.3256 129.119 48.7006 129.119ZM56.4872 129.119C55.8537 129.119 55.2912 129.013 54.7997 128.8C54.3111 128.587 53.9276 128.295 53.6491 127.926C53.3736 127.554 53.2372 127.132 53.2401 126.661C53.2372 126.294 53.3168 125.957 53.4787 125.651C53.6406 125.344 53.8594 125.088 54.1349 124.884C54.4134 124.676 54.723 124.544 55.0639 124.487V124.428C54.6151 124.328 54.2514 124.099 53.973 123.741C53.6974 123.381 53.5611 122.964 53.5639 122.493C53.5611 122.044 53.6861 121.643 53.9389 121.291C54.1918 120.939 54.5384 120.662 54.9787 120.46C55.419 120.256 55.9219 120.153 56.4872 120.153C57.0469 120.153 57.5455 120.256 57.983 120.46C58.4233 120.662 58.7699 120.939 59.0227 121.291C59.2784 121.643 59.4062 122.044 59.4062 122.493C59.4062 122.964 59.2656 123.381 58.9844 123.741C58.706 124.099 58.3466 124.328 57.9062 124.428V124.487C58.2472 124.544 58.554 124.676 58.8267 124.884C59.1023 125.088 59.321 125.344 59.483 125.651C59.6477 125.957 59.7301 126.294 59.7301 126.661C59.7301 127.132 59.5909 127.554 59.3125 127.926C59.0341 128.295 58.6506 128.587 58.1619 128.8C57.6761 129.013 57.1179 129.119 56.4872 129.119ZM56.4872 127.901C56.8139 127.901 57.098 127.845 57.3395 127.734C57.581 127.621 57.7685 127.462 57.902 127.257C58.0355 127.053 58.1037 126.817 58.1065 126.55C58.1037 126.271 58.0313 126.026 57.8892 125.812C57.75 125.597 57.5582 125.428 57.3139 125.305C57.0724 125.183 56.7969 125.122 56.4872 125.122C56.1747 125.122 55.8963 125.183 55.652 125.305C55.4077 125.428 55.2145 125.597 55.0724 125.812C54.9332 126.026 54.8651 126.271 54.8679 126.55C54.8651 126.817 54.9304 127.053 55.0639 127.257C55.1974 127.459 55.3849 127.616 55.6264 127.73C55.8707 127.844 56.1577 127.901 56.4872 127.901ZM56.4872 123.925C56.7543 123.925 56.9901 123.871 57.1946 123.763C57.402 123.655 57.5653 123.504 57.6847 123.311C57.804 123.118 57.8651 122.895 57.8679 122.642C57.8651 122.392 57.8054 122.173 57.6889 121.986C57.5724 121.795 57.4105 121.649 57.2031 121.547C56.9957 121.442 56.7571 121.389 56.4872 121.389C56.2116 121.389 55.9688 121.442 55.7585 121.547C55.5511 121.649 55.3892 121.795 55.2727 121.986C55.1591 122.173 55.1037 122.392 55.1065 122.642C55.1037 122.895 55.1605 123.118 55.277 123.311C55.3963 123.501 55.5597 123.652 55.767 123.763C55.9773 123.871 56.2173 123.925 56.4872 123.925ZM62.7013 127.807L62.646 128.276C62.6062 128.634 62.5352 128.997 62.4329 129.366C62.3335 129.739 62.2283 130.081 62.1175 130.393C62.0067 130.706 61.9173 130.952 61.8491 131.131H60.8093C60.8491 130.957 60.9031 130.722 60.9712 130.423C61.0423 130.125 61.1104 129.79 61.1758 129.418C61.2411 129.045 61.2852 128.668 61.3079 128.284L61.3377 127.807H62.7013ZM64.4506 129L68.1623 121.653V121.594H63.854V120.273H69.7987V121.624L66.0913 129H64.4506ZM74.0866 120.153C74.5043 120.156 74.9105 120.23 75.3054 120.375C75.7031 120.517 76.0611 120.75 76.3793 121.074C76.6974 121.395 76.9503 121.825 77.1378 122.365C77.3253 122.905 77.419 123.572 77.419 124.368C77.4219 125.118 77.3423 125.788 77.1804 126.379C77.0213 126.967 76.7926 127.464 76.4943 127.871C76.196 128.277 75.8366 128.587 75.4162 128.8C74.9957 129.013 74.5227 129.119 73.9972 129.119C73.446 129.119 72.9574 129.011 72.5312 128.795C72.108 128.58 71.7656 128.284 71.5043 127.909C71.2429 127.534 71.0824 127.105 71.0227 126.622H72.5781C72.6577 126.969 72.8196 127.244 73.0639 127.449C73.3111 127.651 73.6222 127.751 73.9972 127.751C74.6023 127.751 75.0682 127.489 75.3949 126.963C75.7216 126.437 75.8849 125.707 75.8849 124.773H75.8253C75.6861 125.023 75.5057 125.239 75.2841 125.42C75.0625 125.599 74.8111 125.737 74.5298 125.834C74.2514 125.93 73.956 125.979 73.6435 125.979C73.1321 125.979 72.6719 125.857 72.2628 125.612C71.8565 125.368 71.5341 125.033 71.2955 124.607C71.0597 124.18 70.9403 123.693 70.9375 123.145C70.9375 122.577 71.0682 122.067 71.3295 121.615C71.5938 121.161 71.9616 120.803 72.4332 120.541C72.9048 120.277 73.456 120.148 74.0866 120.153ZM74.0909 121.432C73.7841 121.432 73.5071 121.507 73.2599 121.658C73.0156 121.805 72.8224 122.007 72.6804 122.263C72.5412 122.516 72.4716 122.798 72.4716 123.111C72.4744 123.42 72.544 123.702 72.6804 123.955C72.8196 124.207 73.0085 124.408 73.2472 124.555C73.4886 124.703 73.7642 124.777 74.0739 124.777C74.304 124.777 74.5185 124.733 74.7173 124.645C74.9162 124.557 75.0895 124.435 75.2372 124.278C75.3878 124.119 75.5043 123.939 75.5866 123.737C75.6719 123.536 75.7131 123.322 75.7102 123.098C75.7102 122.8 75.6392 122.524 75.4972 122.271C75.358 122.018 75.1662 121.815 74.9219 121.662C74.6804 121.509 74.4034 121.432 74.0909 121.432ZM81.8722 129.119C81.304 129.119 80.7955 129.013 80.3466 128.8C79.8977 128.584 79.5412 128.288 79.277 127.913C79.0156 127.538 78.8764 127.109 78.8594 126.626H80.3935C80.4219 126.984 80.5767 127.277 80.858 127.504C81.1392 127.729 81.4773 127.841 81.8722 127.841C82.1818 127.841 82.4574 127.77 82.6989 127.628C82.9403 127.486 83.1307 127.288 83.2699 127.036C83.4091 126.783 83.4773 126.494 83.4744 126.17C83.4773 125.841 83.4077 125.548 83.2656 125.293C83.1236 125.037 82.929 124.837 82.6818 124.692C82.4347 124.544 82.1506 124.47 81.8295 124.47C81.5682 124.467 81.3111 124.516 81.0582 124.615C80.8054 124.714 80.6051 124.845 80.4574 125.007L79.0298 124.773L79.4858 120.273H84.5483V121.594H80.794L80.5426 123.908H80.5938C80.7557 123.717 80.9844 123.56 81.2798 123.435C81.5753 123.307 81.8991 123.243 82.2514 123.243C82.7798 123.243 83.2514 123.368 83.6662 123.618C84.081 123.865 84.4077 124.206 84.6463 124.641C84.8849 125.075 85.0043 125.572 85.0043 126.132C85.0043 126.709 84.8707 127.223 84.6037 127.675C84.3395 128.124 83.9716 128.477 83.5 128.736C83.0312 128.991 82.4886 129.119 81.8722 129.119ZM106.397 124.278V124.994H102.767V124.278H106.397ZM107.862 129V128.416L110.713 125.212C111.085 124.791 111.385 124.432 111.612 124.134C111.839 123.835 112.004 123.56 112.107 123.307C112.212 123.054 112.264 122.791 112.264 122.518C112.264 122.186 112.186 121.896 112.03 121.649C111.876 121.399 111.665 121.205 111.395 121.065C111.125 120.926 110.821 120.857 110.483 120.857C110.125 120.857 109.811 120.933 109.541 121.087C109.274 121.24 109.067 121.45 108.919 121.717C108.771 121.984 108.697 122.291 108.697 122.638H107.935C107.935 122.155 108.045 121.727 108.267 121.355C108.491 120.98 108.797 120.686 109.183 120.473C109.572 120.26 110.013 120.153 110.504 120.153C110.99 120.153 111.422 120.259 111.8 120.469C112.178 120.676 112.474 120.959 112.69 121.317C112.906 121.675 113.014 122.075 113.014 122.518C113.014 122.839 112.957 123.151 112.844 123.452C112.733 123.753 112.541 124.088 112.268 124.457C111.996 124.827 111.618 125.278 111.135 125.812L108.97 128.229V128.284H113.287V129H107.862ZM115.821 129.064C115.654 129.064 115.509 129.004 115.387 128.885C115.267 128.763 115.208 128.618 115.208 128.45C115.208 128.28 115.267 128.135 115.387 128.016C115.509 127.896 115.654 127.837 115.821 127.837C115.992 127.837 116.137 127.896 116.256 128.016C116.375 128.135 116.435 128.28 116.435 128.45C116.435 128.561 116.407 128.663 116.35 128.757C116.296 128.851 116.222 128.926 116.128 128.983C116.037 129.037 115.935 129.064 115.821 129.064ZM120.891 129.119C120.354 129.119 119.874 129.023 119.451 128.83C119.028 128.634 118.692 128.362 118.445 128.016C118.198 127.669 118.067 127.27 118.053 126.818H118.859C118.873 127.136 118.971 127.415 119.153 127.653C119.335 127.889 119.576 128.074 119.877 128.207C120.178 128.338 120.513 128.403 120.883 128.403C121.286 128.403 121.641 128.328 121.948 128.178C122.258 128.027 122.499 127.821 122.673 127.56C122.849 127.295 122.937 126.997 122.937 126.665C122.937 126.312 122.847 126.001 122.668 125.732C122.489 125.462 122.232 125.251 121.897 125.101C121.565 124.95 121.167 124.875 120.704 124.875H120.192V124.159H120.704C121.082 124.159 121.415 124.091 121.705 123.955C121.998 123.815 122.228 123.621 122.396 123.371C122.563 123.121 122.647 122.827 122.647 122.489C122.647 122.168 122.575 121.885 122.43 121.641C122.285 121.396 122.08 121.205 121.816 121.065C121.555 120.926 121.249 120.857 120.9 120.857C120.562 120.857 120.252 120.922 119.971 121.053C119.69 121.183 119.462 121.368 119.289 121.607C119.119 121.845 119.028 122.128 119.016 122.455H118.245C118.256 122 118.381 121.601 118.62 121.257C118.862 120.911 119.181 120.641 119.579 120.447C119.979 120.251 120.423 120.153 120.908 120.153C121.423 120.153 121.867 120.259 122.242 120.469C122.617 120.679 122.907 120.959 123.112 121.308C123.319 121.655 123.423 122.037 123.423 122.455C123.423 122.952 123.288 123.378 123.018 123.733C122.748 124.085 122.384 124.33 121.927 124.466V124.521C122.484 124.632 122.921 124.879 123.239 125.263C123.56 125.643 123.721 126.111 123.721 126.665C123.721 127.131 123.599 127.55 123.354 127.922C123.11 128.291 122.775 128.584 122.349 128.8C121.925 129.013 121.44 129.119 120.891 129.119ZM130.019 127.381V126.984C130.019 126.658 130.085 126.364 130.215 126.102C130.346 125.838 130.532 125.629 130.773 125.476C131.015 125.322 131.302 125.246 131.634 125.246C131.969 125.246 132.256 125.322 132.495 125.476C132.734 125.629 132.917 125.838 133.045 126.102C133.173 126.364 133.237 126.658 133.237 126.984V127.381C133.237 127.707 133.171 128.001 133.04 128.263C132.913 128.524 132.729 128.733 132.491 128.889C132.252 129.043 131.967 129.119 131.634 129.119C131.296 129.119 131.006 129.043 130.765 128.889C130.526 128.733 130.342 128.524 130.211 128.263C130.083 128.001 130.019 127.707 130.019 127.381ZM130.688 126.984V127.381C130.688 127.702 130.766 127.976 130.923 128.203C131.082 128.428 131.319 128.54 131.634 128.54C131.941 128.54 132.173 128.428 132.329 128.203C132.485 127.976 132.563 127.702 132.563 127.381V126.984C132.563 126.663 132.487 126.391 132.333 126.166C132.18 125.939 131.947 125.825 131.634 125.825C131.325 125.825 131.089 125.939 130.927 126.166C130.768 126.391 130.688 126.663 130.688 126.984ZM125.621 122.288V121.892C125.621 121.565 125.687 121.271 125.817 121.01C125.948 120.749 126.134 120.541 126.376 120.388C126.617 120.232 126.904 120.153 127.237 120.153C127.572 120.153 127.859 120.232 128.097 120.388C128.336 120.541 128.519 120.749 128.647 121.01C128.775 121.271 128.839 121.565 128.839 121.892V122.288C128.839 122.615 128.773 122.911 128.643 123.175C128.515 123.436 128.332 123.643 128.093 123.797C127.854 123.95 127.569 124.027 127.237 124.027C126.898 124.027 126.609 123.95 126.367 123.797C126.129 123.643 125.944 123.436 125.813 123.175C125.685 122.911 125.621 122.615 125.621 122.288ZM126.29 121.892V122.288C126.29 122.609 126.369 122.884 126.525 123.111C126.684 123.335 126.921 123.447 127.237 123.447C127.543 123.447 127.775 123.335 127.931 123.111C128.087 122.884 128.165 122.609 128.165 122.288V121.892C128.165 121.571 128.089 121.298 127.935 121.074C127.782 120.847 127.549 120.733 127.237 120.733C126.927 120.733 126.691 120.847 126.529 121.074C126.37 121.298 126.29 121.571 126.29 121.892ZM126.013 129L132.009 120.273H132.763L126.768 129H126.013Z" fill="#FF3B30"/>
<path d="M94.473 117.46V131.812H93.0412V117.46H94.473Z" fill="white"/>
<path d="M241 126.906C252.786 126.906 254.291 111.913 266.077 111.913C277.863 111.913 275.909 100 287.695 100C299.481 100 299.256 116.842 311.042 116.842C322.828 116.842 323.468 125.331 335.254 125.331" stroke="url(#paint1_linear_98_7554)" stroke-opacity="0.1" stroke-width="8.82" stroke-linecap="round"/>
<path d="M241 127.338C252.786 127.338 254.291 112.344 266.077 112.344C277.863 112.344 275.909 100.432 287.695 100.432C299.481 100.432 299.256 117.274 311.042 117.274C322.828 117.274 323.468 125.762 335.254 125.762" stroke="url(#paint2_linear_98_7554)" stroke-width="2.82" stroke-linecap="round"/>
<path d="M20 158V158C21.1046 158 22 158.895 22 160V196C22 197.105 21.1046 198 20 198V198V158Z" fill="white"/>
<path d="M37.9325 173V163.545H44.0817V164.981H39.6452V167.548H43.7631V168.984H39.6452V171.564H44.1186V173H37.9325ZM49.296 165.909V167.202H45.2196V165.909H49.296ZM46.226 164.21H47.8972V170.867C47.8972 171.092 47.931 171.264 47.9988 171.384C48.0695 171.501 48.1619 171.581 48.2757 171.624C48.3896 171.667 48.5158 171.689 48.6543 171.689C48.7589 171.689 48.8543 171.681 48.9405 171.666C49.0298 171.65 49.0975 171.637 49.1436 171.624L49.4252 172.931C49.336 172.962 49.2083 172.995 49.0421 173.032C48.879 173.069 48.6789 173.091 48.4419 173.097C48.0234 173.109 47.6464 173.046 47.3109 172.908C46.9754 172.766 46.7092 172.548 46.5123 172.252C46.3184 171.957 46.223 171.587 46.226 171.144V164.21ZM52.5171 168.845V173H50.846V163.545H52.4802V167.114H52.5633C52.7295 166.714 52.9865 166.398 53.3343 166.168C53.6851 165.934 54.1314 165.817 54.673 165.817C55.1655 165.817 55.5948 165.92 55.961 166.126C56.3273 166.332 56.6104 166.634 56.8105 167.031C57.0136 167.428 57.1151 167.913 57.1151 168.485V173H55.444V168.744C55.444 168.267 55.3209 167.896 55.0747 167.631C54.8315 167.363 54.4899 167.229 54.0498 167.229C53.7544 167.229 53.4897 167.294 53.2558 167.423C53.0249 167.549 52.8434 167.733 52.711 167.973C52.5818 168.213 52.5171 168.504 52.5171 168.845ZM61.9578 173.138C61.2469 173.138 60.6329 172.991 60.1159 172.695C59.6019 172.397 59.2064 171.975 58.9294 171.43C58.6524 170.883 58.5139 170.238 58.5139 169.496C58.5139 168.767 58.6524 168.127 58.9294 167.576C59.2095 167.022 59.6003 166.591 60.102 166.283C60.6037 165.972 61.193 165.817 61.8701 165.817C62.3071 165.817 62.7195 165.888 63.1073 166.029C63.4982 166.168 63.8429 166.383 64.1414 166.675C64.443 166.968 64.68 167.34 64.8524 167.793C65.0247 168.242 65.1109 168.777 65.1109 169.399V169.912H59.2987V168.785H63.509C63.5059 168.465 63.4366 168.18 63.3012 167.931C63.1658 167.679 62.9765 167.48 62.7334 167.336C62.4933 167.191 62.2133 167.119 61.8932 167.119C61.5516 167.119 61.2515 167.202 60.993 167.368C60.7345 167.531 60.5329 167.746 60.3882 168.014C60.2467 168.279 60.1743 168.57 60.1713 168.887V169.87C60.1713 170.282 60.2467 170.636 60.3975 170.932C60.5483 171.224 60.7591 171.449 61.0299 171.606C61.3008 171.76 61.6177 171.837 61.9809 171.837C62.224 171.837 62.4441 171.803 62.6411 171.735C62.838 171.664 63.0088 171.561 63.1535 171.426C63.2981 171.29 63.4074 171.123 63.4813 170.923L65.0416 171.098C64.9432 171.51 64.7554 171.871 64.4784 172.178C64.2045 172.483 63.8537 172.72 63.4259 172.889C62.9981 173.055 62.5087 173.138 61.9578 173.138ZM66.5247 173V165.909H68.1451V167.091H68.2189C68.3482 166.682 68.5698 166.366 68.8837 166.145C69.2007 165.92 69.5623 165.808 69.9686 165.808C70.0609 165.808 70.164 165.812 70.2779 165.821C70.3948 165.828 70.4918 165.838 70.5687 165.854V167.391C70.4979 167.366 70.3856 167.345 70.2317 167.326C70.0809 167.305 69.9347 167.294 69.7931 167.294C69.4885 167.294 69.2145 167.36 68.9714 167.493C68.7314 167.622 68.5421 167.802 68.4036 168.033C68.2651 168.263 68.1958 168.53 68.1958 168.831V173H66.5247ZM74.5262 173.138C73.8153 173.138 73.2013 172.991 72.6842 172.695C72.1702 172.397 71.7748 171.975 71.4978 171.43C71.2208 170.883 71.0823 170.238 71.0823 169.496C71.0823 168.767 71.2208 168.127 71.4978 167.576C71.7778 167.022 72.1687 166.591 72.6704 166.283C73.172 165.972 73.7614 165.817 74.4385 165.817C74.8755 165.817 75.2879 165.888 75.6757 166.029C76.0666 166.168 76.4113 166.383 76.7098 166.675C77.0114 166.968 77.2484 167.34 77.4207 167.793C77.5931 168.242 77.6792 168.777 77.6792 169.399V169.912H71.8671V168.785H76.0773C76.0742 168.465 76.005 168.18 75.8696 167.931C75.7342 167.679 75.5449 167.48 75.3018 167.336C75.0617 167.191 74.7816 167.119 74.4616 167.119C74.1199 167.119 73.8199 167.202 73.5613 167.368C73.3028 167.531 73.1012 167.746 72.9566 168.014C72.815 168.279 72.7427 168.57 72.7396 168.887V169.87C72.7396 170.282 72.815 170.636 72.9658 170.932C73.1166 171.224 73.3274 171.449 73.5983 171.606C73.8691 171.76 74.1861 171.837 74.5493 171.837C74.7924 171.837 75.0125 171.803 75.2094 171.735C75.4064 171.664 75.5772 171.561 75.7219 171.426C75.8665 171.29 75.9758 171.123 76.0496 170.923L77.61 171.098C77.5115 171.51 77.3238 171.871 77.0468 172.178C76.7729 172.483 76.422 172.72 75.9942 172.889C75.5664 173.055 75.0771 173.138 74.5262 173.138ZM83.6126 170.018V165.909H85.2837V173H83.6634V171.74H83.5895C83.4295 172.137 83.1663 172.461 82.8001 172.714C82.4369 172.966 81.9891 173.092 81.4567 173.092C80.992 173.092 80.5811 172.989 80.2241 172.783C79.8701 172.574 79.5932 172.271 79.3931 171.874C79.1931 171.473 79.093 170.99 79.093 170.424V165.909H80.7642V170.165C80.7642 170.615 80.8873 170.972 81.1335 171.237C81.3797 171.501 81.7029 171.634 82.103 171.634C82.3492 171.634 82.5877 171.574 82.8185 171.453C83.0494 171.333 83.2386 171.155 83.3864 170.918C83.5372 170.678 83.6126 170.378 83.6126 170.018ZM87.0022 173V165.909H88.5995V167.114H88.6826C88.8303 166.708 89.075 166.391 89.4166 166.163C89.7583 165.932 90.166 165.817 90.64 165.817C91.1201 165.817 91.5248 165.934 91.8541 166.168C92.1865 166.398 92.4204 166.714 92.5558 167.114H92.6297C92.7867 166.72 93.0513 166.406 93.4237 166.172C93.7992 165.935 94.2439 165.817 94.7579 165.817C95.4104 165.817 95.9428 166.023 96.3552 166.435C96.7676 166.848 96.9738 167.449 96.9738 168.24V173H95.298V168.499C95.298 168.059 95.1811 167.737 94.9472 167.534C94.7133 167.328 94.4271 167.225 94.0885 167.225C93.6853 167.225 93.3699 167.351 93.1421 167.603C92.9175 167.853 92.8051 168.177 92.8051 168.577V173H91.1663V168.43C91.1663 168.063 91.0555 167.771 90.8339 167.553C90.6154 167.334 90.3292 167.225 89.9752 167.225C89.7352 167.225 89.5167 167.286 89.3197 167.409C89.1227 167.529 88.9658 167.7 88.8488 167.922C88.7319 168.14 88.6734 168.396 88.6734 168.688V173H87.0022Z" fill="white"/>
<path d="M40.5881 194.091V183.182H41.2869V194.091H40.5881ZM42.6037 186.672C42.5639 186.3 42.3963 186.01 42.1009 185.803C41.8082 185.595 41.4276 185.491 40.9588 185.491C40.6293 185.491 40.3466 185.541 40.1108 185.641C39.875 185.74 39.6946 185.875 39.5696 186.045C39.4446 186.216 39.3807 186.411 39.3778 186.629C39.3778 186.811 39.419 186.969 39.5014 187.102C39.5866 187.236 39.7017 187.349 39.8466 187.443C39.9915 187.534 40.152 187.611 40.3281 187.673C40.5043 187.736 40.6818 187.788 40.8608 187.831L41.679 188.036C42.0085 188.112 42.3253 188.216 42.6293 188.347C42.9361 188.477 43.2102 188.642 43.4517 188.841C43.696 189.04 43.8892 189.28 44.0312 189.561C44.1733 189.842 44.2443 190.172 44.2443 190.55C44.2443 191.061 44.1136 191.511 43.8523 191.901C43.5909 192.287 43.2131 192.589 42.7188 192.808C42.2273 193.024 41.6321 193.132 40.9332 193.132C40.2543 193.132 39.6648 193.027 39.1648 192.817C38.6676 192.607 38.2784 192.3 37.9972 191.896C37.7188 191.493 37.5682 191.001 37.5455 190.422H39.1009C39.1236 190.726 39.2173 190.979 39.3821 191.18C39.5469 191.382 39.7614 191.533 40.0256 191.632C40.2926 191.732 40.5909 191.781 40.9205 191.781C41.2642 191.781 41.5653 191.73 41.8239 191.628C42.0852 191.523 42.2898 191.378 42.4375 191.193C42.5852 191.006 42.6605 190.787 42.6634 190.537C42.6605 190.31 42.5938 190.122 42.4631 189.974C42.3324 189.824 42.1491 189.699 41.9134 189.599C41.6804 189.497 41.4077 189.406 41.0952 189.327L40.1023 189.071C39.3835 188.886 38.8153 188.607 38.3977 188.232C37.983 187.854 37.7756 187.352 37.7756 186.727C37.7756 186.213 37.9148 185.763 38.1932 185.376C38.4744 184.99 38.8565 184.69 39.3395 184.477C39.8224 184.261 40.3693 184.153 40.9801 184.153C41.5994 184.153 42.142 184.261 42.608 184.477C43.0767 184.69 43.4446 184.987 43.7116 185.368C43.9787 185.746 44.1165 186.18 44.125 186.672H42.6037ZM45.5685 193V191.858L48.5984 188.888C48.8881 188.595 49.1296 188.335 49.3228 188.108C49.516 187.881 49.6609 187.661 49.7575 187.447C49.854 187.234 49.9023 187.007 49.9023 186.766C49.9023 186.49 49.8398 186.254 49.7148 186.058C49.5898 185.859 49.418 185.706 49.1992 185.598C48.9805 185.49 48.7319 185.436 48.4535 185.436C48.1665 185.436 47.9151 185.496 47.6992 185.615C47.4833 185.732 47.3157 185.898 47.1964 186.114C47.0799 186.33 47.0217 186.587 47.0217 186.885H45.5174C45.5174 186.331 45.6438 185.849 45.8967 185.44C46.1495 185.031 46.4975 184.714 46.9407 184.49C47.3867 184.266 47.8981 184.153 48.4748 184.153C49.06 184.153 49.5742 184.263 50.0174 184.482C50.4606 184.7 50.8043 185 51.0487 185.381C51.2958 185.761 51.4194 186.196 51.4194 186.685C51.4194 187.011 51.3569 187.332 51.2319 187.648C51.1069 187.963 50.8867 188.312 50.5714 188.696C50.2589 189.08 49.82 189.544 49.2546 190.089L47.7504 191.619V191.679H51.5515V193H45.5685ZM54.8498 191.807L54.7944 192.276C54.7546 192.634 54.6836 192.997 54.5813 193.366C54.4819 193.739 54.3768 194.081 54.266 194.393C54.1552 194.706 54.0657 194.952 53.9975 195.131H52.9577C52.9975 194.957 53.0515 194.722 53.1197 194.423C53.1907 194.125 53.2589 193.79 53.3242 193.418C53.3896 193.045 53.4336 192.668 53.4563 192.284L53.4862 191.807H54.8498ZM59.4616 184.153C59.8793 184.156 60.2855 184.23 60.6804 184.375C61.0781 184.517 61.4361 184.75 61.7543 185.074C62.0724 185.395 62.3253 185.825 62.5128 186.365C62.7003 186.905 62.794 187.572 62.794 188.368C62.7969 189.118 62.7173 189.788 62.5554 190.379C62.3963 190.967 62.1676 191.464 61.8693 191.871C61.571 192.277 61.2116 192.587 60.7912 192.8C60.3707 193.013 59.8977 193.119 59.3722 193.119C58.821 193.119 58.3324 193.011 57.9062 192.795C57.483 192.58 57.1406 192.284 56.8793 191.909C56.6179 191.534 56.4574 191.105 56.3977 190.622H57.9531C58.0327 190.969 58.1946 191.244 58.4389 191.449C58.6861 191.651 58.9972 191.751 59.3722 191.751C59.9773 191.751 60.4432 191.489 60.7699 190.963C61.0966 190.437 61.2599 189.707 61.2599 188.773H61.2003C61.0611 189.023 60.8807 189.239 60.6591 189.42C60.4375 189.599 60.1861 189.737 59.9048 189.834C59.6264 189.93 59.331 189.979 59.0185 189.979C58.5071 189.979 58.0469 189.857 57.6378 189.612C57.2315 189.368 56.9091 189.033 56.6705 188.607C56.4347 188.18 56.3153 187.693 56.3125 187.145C56.3125 186.577 56.4432 186.067 56.7045 185.615C56.9688 185.161 57.3366 184.803 57.8082 184.541C58.2798 184.277 58.831 184.148 59.4616 184.153ZM59.4659 185.432C59.1591 185.432 58.8821 185.507 58.6349 185.658C58.3906 185.805 58.1974 186.007 58.0554 186.263C57.9162 186.516 57.8466 186.798 57.8466 187.111C57.8494 187.42 57.919 187.702 58.0554 187.955C58.1946 188.207 58.3835 188.408 58.6222 188.555C58.8636 188.703 59.1392 188.777 59.4489 188.777C59.679 188.777 59.8935 188.733 60.0923 188.645C60.2912 188.557 60.4645 188.435 60.6122 188.278C60.7628 188.119 60.8793 187.939 60.9616 187.737C61.0469 187.536 61.0881 187.322 61.0852 187.098C61.0852 186.8 61.0142 186.524 60.8722 186.271C60.733 186.018 60.5412 185.815 60.2969 185.662C60.0554 185.509 59.7784 185.432 59.4659 185.432ZM67.3452 193.119C66.7315 193.119 66.1861 193.014 65.7088 192.804C65.2344 192.594 64.8594 192.301 64.5838 191.926C64.3082 191.551 64.1619 191.118 64.1449 190.626H65.7472C65.7614 190.862 65.8395 191.068 65.9815 191.244C66.1236 191.418 66.3125 191.553 66.5483 191.649C66.7841 191.746 67.0483 191.794 67.3409 191.794C67.6534 191.794 67.9304 191.74 68.1719 191.632C68.4134 191.521 68.6023 191.368 68.7386 191.172C68.875 190.976 68.9418 190.75 68.9389 190.494C68.9418 190.23 68.8736 189.997 68.7344 189.795C68.5952 189.594 68.3935 189.436 68.1293 189.322C67.8679 189.209 67.5526 189.152 67.1832 189.152H66.4119V187.933H67.1832C67.4872 187.933 67.7528 187.881 67.9801 187.776C68.2102 187.67 68.3906 187.523 68.5213 187.332C68.652 187.139 68.7159 186.916 68.7131 186.663C68.7159 186.416 68.6605 186.202 68.5469 186.02C68.4361 185.835 68.2784 185.692 68.0739 185.589C67.8722 185.487 67.6349 185.436 67.3622 185.436C67.0952 185.436 66.848 185.484 66.6207 185.581C66.3935 185.678 66.2102 185.815 66.071 185.994C65.9318 186.17 65.858 186.381 65.8494 186.625H64.3281C64.3395 186.136 64.4801 185.707 64.75 185.338C65.0227 184.966 65.3864 184.676 65.8409 184.469C66.2955 184.259 66.8054 184.153 67.3707 184.153C67.9531 184.153 68.4588 184.263 68.8878 184.482C69.3196 184.697 69.6534 184.989 69.8892 185.355C70.125 185.722 70.2429 186.126 70.2429 186.57C70.2457 187.061 70.1009 187.473 69.8082 187.805C69.5185 188.138 69.1378 188.355 68.6662 188.457V188.526C69.2798 188.611 69.75 188.838 70.0767 189.207C70.4063 189.574 70.5696 190.03 70.5668 190.575C70.5668 191.064 70.4276 191.501 70.1491 191.888C69.8736 192.271 69.4929 192.572 69.0071 192.791C68.5241 193.01 67.9702 193.119 67.3452 193.119ZM75.2255 193.119C74.8079 193.116 74.4002 193.044 74.0025 192.902C73.6048 192.757 73.2468 192.523 72.9286 192.199C72.6104 191.872 72.3576 191.439 72.1701 190.899C71.9826 190.357 71.8903 189.685 71.8931 188.884C71.8931 188.136 71.9727 187.47 72.1317 186.885C72.2908 186.3 72.5195 185.805 72.8178 185.402C73.1161 184.996 73.4755 184.686 73.896 184.473C74.3192 184.26 74.7923 184.153 75.315 184.153C75.8633 184.153 76.3491 184.261 76.7724 184.477C77.1985 184.693 77.5423 184.989 77.8036 185.364C78.065 185.736 78.2269 186.156 78.2894 186.625H76.734C76.6545 186.29 76.4911 186.023 76.244 185.824C75.9996 185.622 75.69 185.521 75.315 185.521C74.7099 185.521 74.244 185.784 73.9173 186.31C73.5934 186.835 73.43 187.557 73.4272 188.474H73.4869C73.6261 188.224 73.8065 188.01 74.0281 187.831C74.2496 187.652 74.4996 187.514 74.7781 187.418C75.0593 187.318 75.3562 187.268 75.6687 187.268C76.18 187.268 76.6388 187.391 77.0451 187.635C77.4542 187.879 77.7781 188.216 78.0167 188.645C78.2553 189.071 78.3732 189.56 78.3704 190.111C78.3732 190.685 78.2425 191.2 77.9783 191.658C77.7141 192.112 77.3462 192.47 76.8746 192.732C76.4031 192.993 75.8533 193.122 75.2255 193.119ZM75.217 191.841C75.5266 191.841 75.8036 191.766 76.0479 191.615C76.2923 191.464 76.4854 191.261 76.6275 191.006C76.7695 190.75 76.8391 190.463 76.8363 190.145C76.8391 189.832 76.771 189.55 76.6317 189.297C76.4954 189.044 76.3065 188.844 76.065 188.696C75.8235 188.548 75.5479 188.474 75.2383 188.474C75.0082 188.474 74.7937 188.518 74.5948 188.607C74.396 188.695 74.2227 188.817 74.0749 188.973C73.9272 189.126 73.8107 189.305 73.7255 189.51C73.6431 189.712 73.6005 189.928 73.5977 190.158C73.6005 190.462 73.6715 190.741 73.8107 190.997C73.9499 191.253 74.1417 191.457 74.386 191.611C74.6303 191.764 74.9073 191.841 75.217 191.841ZM98.7876 191.347V185.947H99.5163V191.347H98.7876ZM96.4524 189.011V188.283H101.852V189.011H96.4524ZM106.74 193.119C106.127 193.119 105.603 192.943 105.168 192.591C104.736 192.236 104.404 191.723 104.171 191.053C103.941 190.382 103.826 189.577 103.826 188.636C103.826 187.699 103.941 186.896 104.171 186.229C104.404 185.558 104.738 185.045 105.172 184.69C105.61 184.332 106.132 184.153 106.74 184.153C107.348 184.153 107.87 184.332 108.304 184.69C108.742 185.045 109.076 185.558 109.306 186.229C109.539 186.896 109.655 187.699 109.655 188.636C109.655 189.577 109.539 190.382 109.306 191.053C109.076 191.723 108.743 192.236 108.309 192.591C107.877 192.943 107.354 193.119 106.74 193.119ZM106.74 192.403C107.414 192.403 107.939 192.075 108.317 191.419C108.695 190.76 108.884 189.832 108.884 188.636C108.884 187.841 108.797 187.162 108.624 186.599C108.453 186.034 108.208 185.602 107.887 185.304C107.569 185.006 107.186 184.857 106.74 184.857C106.073 184.857 105.549 185.189 105.168 185.854C104.787 186.516 104.597 187.443 104.597 188.636C104.597 189.432 104.682 190.111 104.853 190.673C105.026 191.236 105.272 191.665 105.59 191.96C105.911 192.256 106.294 192.403 106.74 192.403ZM111.661 193.064C111.494 193.064 111.349 193.004 111.227 192.885C111.107 192.763 111.048 192.618 111.048 192.45C111.048 192.28 111.107 192.135 111.227 192.016C111.349 191.896 111.494 191.837 111.661 191.837C111.832 191.837 111.977 191.896 112.096 192.016C112.215 192.135 112.275 192.28 112.275 192.45C112.275 192.561 112.246 192.663 112.19 192.757C112.136 192.851 112.062 192.926 111.968 192.983C111.877 193.037 111.775 193.064 111.661 193.064ZM116.731 193.119C116.194 193.119 115.714 193.023 115.291 192.83C114.868 192.634 114.532 192.362 114.285 192.016C114.038 191.669 113.907 191.27 113.893 190.818H114.699C114.713 191.136 114.811 191.415 114.993 191.653C115.174 191.889 115.416 192.074 115.717 192.207C116.018 192.338 116.353 192.403 116.723 192.403C117.126 192.403 117.481 192.328 117.788 192.178C118.098 192.027 118.339 191.821 118.512 191.56C118.689 191.295 118.777 190.997 118.777 190.665C118.777 190.312 118.687 190.001 118.508 189.732C118.329 189.462 118.072 189.251 117.737 189.101C117.404 188.95 117.007 188.875 116.544 188.875H116.032V188.159H116.544C116.922 188.159 117.255 188.091 117.545 187.955C117.838 187.815 118.068 187.621 118.235 187.371C118.403 187.121 118.487 186.827 118.487 186.489C118.487 186.168 118.414 185.885 118.27 185.641C118.125 185.396 117.92 185.205 117.656 185.065C117.395 184.926 117.089 184.857 116.74 184.857C116.402 184.857 116.092 184.922 115.811 185.053C115.529 185.183 115.302 185.368 115.129 185.607C114.958 185.845 114.868 186.128 114.856 186.455H114.085C114.096 186 114.221 185.601 114.46 185.257C114.701 184.911 115.021 184.641 115.419 184.447C115.819 184.251 116.262 184.153 116.748 184.153C117.262 184.153 117.707 184.259 118.082 184.469C118.457 184.679 118.747 184.959 118.951 185.308C119.159 185.655 119.262 186.037 119.262 186.455C119.262 186.952 119.127 187.378 118.858 187.733C118.588 188.085 118.224 188.33 117.767 188.466V188.521C118.324 188.632 118.761 188.879 119.079 189.263C119.4 189.643 119.561 190.111 119.561 190.665C119.561 191.131 119.439 191.55 119.194 191.922C118.95 192.291 118.615 192.584 118.189 192.8C117.765 193.013 117.279 193.119 116.731 193.119ZM125.859 191.381V190.984C125.859 190.658 125.924 190.364 126.055 190.102C126.186 189.838 126.372 189.629 126.613 189.476C126.855 189.322 127.142 189.246 127.474 189.246C127.809 189.246 128.096 189.322 128.335 189.476C128.574 189.629 128.757 189.838 128.885 190.102C129.012 190.364 129.076 190.658 129.076 190.984V191.381C129.076 191.707 129.011 192.001 128.88 192.263C128.752 192.524 128.569 192.733 128.331 192.889C128.092 193.043 127.806 193.119 127.474 193.119C127.136 193.119 126.846 193.043 126.605 192.889C126.366 192.733 126.181 192.524 126.051 192.263C125.923 192.001 125.859 191.707 125.859 191.381ZM126.528 190.984V191.381C126.528 191.702 126.606 191.976 126.762 192.203C126.922 192.428 127.159 192.54 127.474 192.54C127.781 192.54 128.012 192.428 128.169 192.203C128.325 191.976 128.403 191.702 128.403 191.381V190.984C128.403 190.663 128.326 190.391 128.173 190.166C128.02 189.939 127.787 189.825 127.474 189.825C127.164 189.825 126.929 189.939 126.767 190.166C126.608 190.391 126.528 190.663 126.528 190.984ZM121.461 186.288V185.892C121.461 185.565 121.527 185.271 121.657 185.01C121.788 184.749 121.974 184.541 122.216 184.388C122.457 184.232 122.744 184.153 123.076 184.153C123.412 184.153 123.699 184.232 123.937 184.388C124.176 184.541 124.359 184.749 124.487 185.01C124.615 185.271 124.679 185.565 124.679 185.892V186.288C124.679 186.615 124.613 186.911 124.483 187.175C124.355 187.436 124.172 187.643 123.933 187.797C123.694 187.95 123.409 188.027 123.076 188.027C122.738 188.027 122.449 187.95 122.207 187.797C121.968 187.643 121.784 187.436 121.653 187.175C121.525 186.911 121.461 186.615 121.461 186.288ZM122.13 185.892V186.288C122.13 186.609 122.208 186.884 122.365 187.111C122.524 187.335 122.761 187.447 123.076 187.447C123.383 187.447 123.615 187.335 123.771 187.111C123.927 186.884 124.005 186.609 124.005 186.288V185.892C124.005 185.571 123.929 185.298 123.775 185.074C123.622 184.847 123.389 184.733 123.076 184.733C122.767 184.733 122.531 184.847 122.369 185.074C122.21 185.298 122.13 185.571 122.13 185.892ZM121.853 193L127.849 184.273H128.603L122.608 193H121.853Z" fill="#34C759"/>
<path d="M87.8519 181.46V195.812H86.4201V181.46H87.8519Z" fill="white"/>
<path d="M241 164.432C252.786 164.432 254.291 179.425 266.077 179.425C277.863 179.425 275.909 191.338 287.695 191.338C299.481 191.338 299.256 174.496 311.042 174.496C322.828 174.496 323.468 166.007 335.254 166.007" stroke="url(#paint3_linear_98_7554)" stroke-opacity="0.1" stroke-width="8.82" stroke-linecap="round"/>
<path d="M241 164C252.786 164 254.291 178.994 266.077 178.994C277.863 178.994 275.909 190.906 287.695 190.906C299.481 190.906 299.256 174.064 311.042 174.064C322.828 174.064 323.468 165.575 335.254 165.575" stroke="url(#paint4_linear_98_7554)" stroke-width="2.82" stroke-linecap="round"/>
<rect width="320" height="64" transform="translate(20 210)" fill="url(#paint5_linear_98_7554)"/>
<path d="M20 222V222C21.1046 222 22 222.895 22 224V260C22 261.105 21.1046 262 20 262V262V222Z" fill="white"/>
<path d="M46.0252 230.735H44.2987C44.2494 230.452 44.1586 230.201 44.0263 229.983C43.8939 229.761 43.7293 229.574 43.5323 229.42C43.3353 229.266 43.1107 229.15 42.8583 229.074C42.609 228.993 42.3397 228.953 42.0504 228.953C41.5365 228.953 41.081 229.083 40.6839 229.341C40.2869 229.597 39.9761 229.972 39.7514 230.468C39.5268 230.96 39.4144 231.562 39.4144 232.273C39.4144 232.996 39.5268 233.605 39.7514 234.101C39.9792 234.593 40.29 234.966 40.6839 235.218C41.081 235.467 41.5349 235.592 42.0458 235.592C42.329 235.592 42.5936 235.555 42.8398 235.481C43.0891 235.404 43.3123 235.292 43.5092 235.144C43.7093 234.996 43.877 234.815 44.0124 234.599C44.1509 234.384 44.2463 234.138 44.2987 233.861L46.0252 233.87C45.9606 234.319 45.8205 234.741 45.6051 235.135C45.3928 235.529 45.1142 235.877 44.7695 236.178C44.4248 236.477 44.0217 236.711 43.56 236.88C43.0984 237.046 42.5859 237.129 42.0227 237.129C41.1918 237.129 40.45 236.937 39.7976 236.552C39.1451 236.167 38.6312 235.612 38.2557 234.886C37.8802 234.159 37.6925 233.288 37.6925 232.273C37.6925 231.254 37.8817 230.383 38.2603 229.66C38.6388 228.933 39.1544 228.378 39.8068 227.993C40.4593 227.609 41.1979 227.416 42.0227 227.416C42.549 227.416 43.0384 227.49 43.4908 227.638C43.9432 227.786 44.3464 228.002 44.7003 228.289C45.0542 228.572 45.3451 228.92 45.5728 229.332C45.8036 229.741 45.9544 230.209 46.0252 230.735ZM49.5603 237.143C49.1109 237.143 48.7062 237.063 48.3461 236.903C47.9891 236.74 47.706 236.5 47.4967 236.183C47.2905 235.866 47.1874 235.475 47.1874 235.01C47.1874 234.61 47.2613 234.279 47.409 234.018C47.5567 233.756 47.7583 233.547 48.0138 233.39C48.2692 233.233 48.557 233.114 48.877 233.034C49.2002 232.951 49.5341 232.891 49.8788 232.854C50.2943 232.811 50.6313 232.773 50.8898 232.739C51.1483 232.702 51.3361 232.647 51.453 232.573C51.5731 232.496 51.6331 232.377 51.6331 232.217V232.19C51.6331 231.842 51.53 231.573 51.3238 231.382C51.1176 231.191 50.8206 231.096 50.4328 231.096C50.0235 231.096 49.6988 231.185 49.4587 231.363C49.2217 231.542 49.0617 231.753 48.9786 231.996L47.4182 231.774C47.5413 231.343 47.7445 230.983 48.0276 230.694C48.3108 230.402 48.657 230.183 49.0663 230.038C49.4756 229.891 49.9281 229.817 50.4236 229.817C50.7652 229.817 51.1053 229.857 51.4438 229.937C51.7823 230.017 52.0916 230.149 52.3717 230.334C52.6518 230.515 52.8765 230.763 53.0457 231.077C53.2181 231.391 53.3042 231.783 53.3042 232.254V237H51.6977V236.026H51.6423C51.5407 236.223 51.3976 236.408 51.213 236.58C51.0314 236.749 50.8021 236.886 50.5251 236.991C50.2512 237.092 49.9296 237.143 49.5603 237.143ZM49.9942 235.915C50.3297 235.915 50.6205 235.849 50.8667 235.717C51.113 235.581 51.3022 235.403 51.4346 235.181C51.57 234.96 51.6377 234.718 51.6377 234.456V233.621C51.5854 233.664 51.4961 233.704 51.3699 233.741C51.2468 233.778 51.1083 233.81 50.9545 233.838C50.8006 233.865 50.6482 233.89 50.4974 233.912C50.3466 233.933 50.2158 233.952 50.105 233.967C49.8557 234.001 49.6326 234.056 49.4356 234.133C49.2387 234.21 49.0832 234.318 48.9694 234.456C48.8555 234.592 48.7986 234.767 48.7986 234.983C48.7986 235.29 48.9109 235.523 49.1356 235.68C49.3602 235.837 49.6465 235.915 49.9942 235.915ZM54.9846 237V229.909H56.605V231.091H56.6789C56.8081 230.682 57.0297 230.366 57.3437 230.145C57.6607 229.92 58.0223 229.808 58.4285 229.808C58.5209 229.808 58.624 229.812 58.7378 229.821C58.8548 229.828 58.9517 229.838 59.0287 229.854V231.391C58.9579 231.366 58.8456 231.345 58.6917 231.326C58.5409 231.305 58.3947 231.294 58.2531 231.294C57.9484 231.294 57.6745 231.36 57.4314 231.493C57.1913 231.622 57.002 231.802 56.8635 232.033C56.7251 232.263 56.6558 232.53 56.6558 232.831V237H54.9846ZM62.4783 237.125C61.9213 237.125 61.4227 236.982 60.9826 236.695C60.5425 236.409 60.1947 235.994 59.9393 235.449C59.6838 234.904 59.5561 234.242 59.5561 233.464C59.5561 232.676 59.6854 232.011 59.9439 231.469C60.2055 230.925 60.5579 230.514 61.0011 230.237C61.4442 229.957 61.9382 229.817 62.483 229.817C62.8984 229.817 63.2401 229.888 63.5078 230.029C63.7756 230.168 63.9879 230.335 64.1449 230.532C64.3018 230.726 64.4234 230.909 64.5096 231.082H64.5788V227.545H66.2546V237H64.6112V235.883H64.5096C64.4234 236.055 64.2988 236.238 64.1357 236.432C63.9725 236.623 63.7571 236.786 63.4893 236.922C63.2216 237.057 62.8846 237.125 62.4783 237.125ZM62.9446 235.754C63.2985 235.754 63.6001 235.658 63.8494 235.467C64.0987 235.273 64.288 235.004 64.4173 234.659C64.5465 234.315 64.6112 233.913 64.6112 233.455C64.6112 232.996 64.5465 232.597 64.4173 232.259C64.2911 231.92 64.1033 231.657 63.854 231.469C63.6078 231.282 63.3047 231.188 62.9446 231.188C62.5722 231.188 62.2614 231.285 62.0121 231.479C61.7628 231.673 61.575 231.94 61.4489 232.282C61.3227 232.624 61.2596 233.014 61.2596 233.455C61.2596 233.898 61.3227 234.293 61.4489 234.641C61.5781 234.986 61.7674 235.258 62.0167 235.458C62.2691 235.655 62.5784 235.754 62.9446 235.754ZM70.0759 237.143C69.6266 237.143 69.2219 237.063 68.8618 236.903C68.5048 236.74 68.2216 236.5 68.0123 236.183C67.8061 235.866 67.703 235.475 67.703 235.01C67.703 234.61 67.7769 234.279 67.9246 234.018C68.0724 233.756 68.2739 233.547 68.5294 233.39C68.7848 233.233 69.0726 233.114 69.3927 233.034C69.7158 232.951 70.0497 232.891 70.3944 232.854C70.8099 232.811 71.1469 232.773 71.4055 232.739C71.664 232.702 71.8517 232.647 71.9687 232.573C72.0887 232.496 72.1487 232.377 72.1487 232.217V232.19C72.1487 231.842 72.0456 231.573 71.8394 231.382C71.6332 231.191 71.3362 231.096 70.9484 231.096C70.5391 231.096 70.2144 231.185 69.9743 231.363C69.7374 231.542 69.5773 231.753 69.4942 231.996L67.9339 231.774C68.057 231.343 68.2601 230.983 68.5432 230.694C68.8264 230.402 69.1726 230.183 69.5819 230.038C69.9913 229.891 70.4437 229.817 70.9392 229.817C71.2808 229.817 71.6209 229.857 71.9594 229.937C72.298 230.017 72.6073 230.149 72.8873 230.334C73.1674 230.515 73.3921 230.763 73.5613 231.077C73.7337 231.391 73.8199 231.783 73.8199 232.254V237H72.2133V236.026H72.1579C72.0564 236.223 71.9133 236.408 71.7286 236.58C71.547 236.749 71.3177 236.886 71.0407 236.991C70.7668 237.092 70.4452 237.143 70.0759 237.143ZM70.5099 235.915C70.8453 235.915 71.1362 235.849 71.3824 235.717C71.6286 235.581 71.8179 235.403 71.9502 235.181C72.0856 234.96 72.1533 234.718 72.1533 234.456V233.621C72.101 233.664 72.0117 233.704 71.8856 233.741C71.7625 233.778 71.624 233.81 71.4701 233.838C71.3162 233.865 71.1639 233.89 71.0131 233.912C70.8622 233.933 70.7314 233.952 70.6206 233.967C70.3714 234.001 70.1482 234.056 69.9513 234.133C69.7543 234.21 69.5989 234.318 69.485 234.456C69.3711 234.592 69.3142 234.767 69.3142 234.983C69.3142 235.29 69.4265 235.523 69.6512 235.68C69.8759 235.837 70.1621 235.915 70.5099 235.915ZM77.1714 232.845V237H75.5003V229.909H77.0976V231.114H77.1807C77.3438 230.717 77.6038 230.402 77.9608 230.168C78.3209 229.934 78.7657 229.817 79.295 229.817C79.7844 229.817 80.2106 229.921 80.5738 230.131C80.94 230.34 81.2232 230.643 81.4232 231.04C81.6263 231.437 81.7264 231.919 81.7233 232.485V237H80.0521V232.744C80.0521 232.27 79.929 231.899 79.6828 231.631C79.4397 231.363 79.1027 231.229 78.6718 231.229C78.3794 231.229 78.1193 231.294 77.8916 231.423C77.6669 231.549 77.49 231.733 77.3607 231.973C77.2345 232.213 77.1714 232.504 77.1714 232.845ZM86.5152 237.138C85.8227 237.138 85.2226 236.986 84.7148 236.681C84.2069 236.377 83.813 235.951 83.5329 235.403C83.2559 234.855 83.1175 234.215 83.1175 233.482C83.1175 232.75 83.2559 232.108 83.5329 231.557C83.813 231.006 84.2069 230.578 84.7148 230.274C85.2226 229.969 85.8227 229.817 86.5152 229.817C87.2077 229.817 87.8078 229.969 88.3156 230.274C88.8234 230.578 89.2158 231.006 89.4928 231.557C89.7729 232.108 89.9129 232.75 89.9129 233.482C89.9129 234.215 89.7729 234.855 89.4928 235.403C89.2158 235.951 88.8234 236.377 88.3156 236.681C87.8078 236.986 87.2077 237.138 86.5152 237.138ZM86.5244 235.8C86.8999 235.8 87.2138 235.697 87.4662 235.49C87.7185 235.281 87.9063 235.001 88.0294 234.65C88.1556 234.299 88.2187 233.908 88.2187 233.478C88.2187 233.044 88.1556 232.651 88.0294 232.3C87.9063 231.946 87.7185 231.665 87.4662 231.456C87.2138 231.246 86.8999 231.142 86.5244 231.142C86.1397 231.142 85.8196 231.246 85.5642 231.456C85.3118 231.665 85.1225 231.946 84.9964 232.3C84.8733 232.651 84.8117 233.044 84.8117 233.478C84.8117 233.908 84.8733 234.299 84.9964 234.65C85.1225 235.001 85.3118 235.281 85.5642 235.49C85.8196 235.697 86.1397 235.8 86.5244 235.8Z" fill="white"/>
<path d="M40.5881 258.091V247.182H41.2869V258.091H40.5881ZM42.6037 250.672C42.5639 250.3 42.3963 250.01 42.1009 249.803C41.8082 249.595 41.4276 249.491 40.9588 249.491C40.6293 249.491 40.3466 249.541 40.1108 249.641C39.875 249.74 39.6946 249.875 39.5696 250.045C39.4446 250.216 39.3807 250.411 39.3778 250.629C39.3778 250.811 39.419 250.969 39.5014 251.102C39.5866 251.236 39.7017 251.349 39.8466 251.443C39.9915 251.534 40.152 251.611 40.3281 251.673C40.5043 251.736 40.6818 251.788 40.8608 251.831L41.679 252.036C42.0085 252.112 42.3253 252.216 42.6293 252.347C42.9361 252.477 43.2102 252.642 43.4517 252.841C43.696 253.04 43.8892 253.28 44.0312 253.561C44.1733 253.842 44.2443 254.172 44.2443 254.55C44.2443 255.061 44.1136 255.511 43.8523 255.901C43.5909 256.287 43.2131 256.589 42.7188 256.808C42.2273 257.024 41.6321 257.132 40.9332 257.132C40.2543 257.132 39.6648 257.027 39.1648 256.817C38.6676 256.607 38.2784 256.3 37.9972 255.896C37.7188 255.493 37.5682 255.001 37.5455 254.422H39.1009C39.1236 254.726 39.2173 254.979 39.3821 255.18C39.5469 255.382 39.7614 255.533 40.0256 255.632C40.2926 255.732 40.5909 255.781 40.9205 255.781C41.2642 255.781 41.5653 255.73 41.8239 255.628C42.0852 255.523 42.2898 255.378 42.4375 255.193C42.5852 255.006 42.6605 254.787 42.6634 254.537C42.6605 254.31 42.5938 254.122 42.4631 253.974C42.3324 253.824 42.1491 253.699 41.9134 253.599C41.6804 253.497 41.4077 253.406 41.0952 253.327L40.1023 253.071C39.3835 252.886 38.8153 252.607 38.3977 252.232C37.983 251.854 37.7756 251.352 37.7756 250.727C37.7756 250.213 37.9148 249.763 38.1932 249.376C38.4744 248.99 38.8565 248.69 39.3395 248.477C39.8224 248.261 40.3693 248.153 40.9801 248.153C41.5994 248.153 42.142 248.261 42.608 248.477C43.0767 248.69 43.4446 248.987 43.7116 249.368C43.9787 249.746 44.1165 250.18 44.125 250.672H42.6037ZM49.1183 248.273V257H47.5373V249.811H47.4862L45.445 251.115V249.666L47.614 248.273H49.1183ZM51.821 257.094C51.5625 257.094 51.3409 257.003 51.1562 256.821C50.9716 256.639 50.8807 256.418 50.8835 256.156C50.8807 255.901 50.9716 255.682 51.1562 255.5C51.3409 255.318 51.5625 255.227 51.821 255.227C52.071 255.227 52.2884 255.318 52.473 255.5C52.6605 255.682 52.7557 255.901 52.7585 256.156C52.7557 256.33 52.7102 256.487 52.6222 256.629C52.5369 256.771 52.4233 256.885 52.2812 256.97C52.142 257.053 51.9886 257.094 51.821 257.094ZM57.2202 257.166C56.5185 257.166 55.9162 256.989 55.4134 256.634C54.9134 256.276 54.5284 255.76 54.2585 255.087C53.9915 254.411 53.858 253.597 53.858 252.645C53.8608 251.693 53.9957 250.884 54.2628 250.216C54.5327 249.545 54.9176 249.034 55.4176 248.682C55.9205 248.33 56.5213 248.153 57.2202 248.153C57.919 248.153 58.5199 248.33 59.0227 248.682C59.5256 249.034 59.9105 249.545 60.1776 250.216C60.4474 250.886 60.5824 251.696 60.5824 252.645C60.5824 253.599 60.4474 254.415 60.1776 255.091C59.9105 255.764 59.5256 256.278 59.0227 256.634C58.5227 256.989 57.9219 257.166 57.2202 257.166ZM57.2202 255.832C57.7656 255.832 58.196 255.564 58.5114 255.027C58.8295 254.487 58.9886 253.693 58.9886 252.645C58.9886 251.952 58.9162 251.369 58.7713 250.898C58.6264 250.426 58.4219 250.071 58.1577 249.832C57.8935 249.591 57.581 249.47 57.2202 249.47C56.6776 249.47 56.2486 249.74 55.9332 250.28C55.6179 250.817 55.4588 251.605 55.456 252.645C55.4531 253.341 55.5227 253.926 55.6648 254.401C55.8097 254.875 56.0142 255.233 56.2784 255.474C56.5426 255.713 56.8565 255.832 57.2202 255.832ZM65.5479 248.273V257H63.967V249.811H63.9158L61.8746 251.115V249.666L64.0437 248.273H65.5479ZM86.7408 255.347V249.947H87.4695V255.347H86.7408ZM84.4055 253.011V252.283H89.8047V253.011H84.4055ZM91.5732 257V256.416L94.424 253.212C94.7962 252.791 95.0959 252.432 95.3232 252.134C95.5504 251.835 95.7152 251.56 95.8175 251.307C95.9226 251.054 95.9751 250.791 95.9751 250.518C95.9751 250.186 95.897 249.896 95.7408 249.649C95.5874 249.399 95.3757 249.205 95.1058 249.065C94.8359 248.926 94.532 248.857 94.1939 248.857C93.8359 248.857 93.522 248.933 93.2521 249.087C92.9851 249.24 92.7777 249.45 92.63 249.717C92.4822 249.984 92.4084 250.291 92.4084 250.638H91.6456C91.6456 250.155 91.7564 249.727 91.978 249.355C92.2024 248.98 92.5078 248.686 92.8942 248.473C93.2834 248.26 93.7237 248.153 94.2152 248.153C94.701 248.153 95.1328 248.259 95.5107 248.469C95.8885 248.676 96.1854 248.959 96.4013 249.317C96.6172 249.675 96.7251 250.075 96.7251 250.518C96.7251 250.839 96.6683 251.151 96.5547 251.452C96.4439 251.753 96.2521 252.088 95.9794 252.457C95.7067 252.827 95.3288 253.278 94.8459 253.812L92.6811 256.229V256.284H96.9979V257H91.5732ZM99.5323 257.064C99.3647 257.064 99.2198 257.004 99.0977 256.885C98.9783 256.763 98.9187 256.618 98.9187 256.45C98.9187 256.28 98.9783 256.135 99.0977 256.016C99.2198 255.896 99.3647 255.837 99.5323 255.837C99.7028 255.837 99.8477 255.896 99.967 256.016C100.086 256.135 100.146 256.28 100.146 256.45C100.146 256.561 100.118 256.663 100.061 256.757C100.007 256.851 99.9329 256.926 99.8391 256.983C99.7482 257.037 99.646 257.064 99.5323 257.064ZM103.794 248.273V257H102.997V249.108H102.946L100.9 250.467V249.641L102.963 248.273H103.794ZM106.444 257V256.416L109.295 253.212C109.667 252.791 109.967 252.432 110.194 252.134C110.422 251.835 110.586 251.56 110.689 251.307C110.794 251.054 110.846 250.791 110.846 250.518C110.846 250.186 110.768 249.896 110.612 249.649C110.458 249.399 110.247 249.205 109.977 249.065C109.707 248.926 109.403 248.857 109.065 248.857C108.707 248.857 108.393 248.933 108.123 249.087C107.856 249.24 107.649 249.45 107.501 249.717C107.353 249.984 107.279 250.291 107.279 250.638H106.517C106.517 250.155 106.627 249.727 106.849 249.355C107.074 248.98 107.379 248.686 107.765 248.473C108.154 248.26 108.595 248.153 109.086 248.153C109.572 248.153 110.004 248.259 110.382 248.469C110.76 248.676 111.056 248.959 111.272 249.317C111.488 249.675 111.596 250.075 111.596 250.518C111.596 250.839 111.539 251.151 111.426 251.452C111.315 251.753 111.123 252.088 110.85 252.457C110.578 252.827 110.2 253.278 109.717 253.812L107.552 256.229V256.284H111.869V257H106.444ZM118.183 255.381V254.984C118.183 254.658 118.249 254.364 118.379 254.102C118.51 253.838 118.696 253.629 118.938 253.476C119.179 253.322 119.466 253.246 119.798 253.246C120.134 253.246 120.42 253.322 120.659 253.476C120.898 253.629 121.081 253.838 121.209 254.102C121.337 254.364 121.401 254.658 121.401 254.984V255.381C121.401 255.707 121.335 256.001 121.205 256.263C121.077 256.524 120.893 256.733 120.655 256.889C120.416 257.043 120.131 257.119 119.798 257.119C119.46 257.119 119.17 257.043 118.929 256.889C118.69 256.733 118.506 256.524 118.375 256.263C118.247 256.001 118.183 255.707 118.183 255.381ZM118.852 254.984V255.381C118.852 255.702 118.93 255.976 119.087 256.203C119.246 256.428 119.483 256.54 119.798 256.54C120.105 256.54 120.337 256.428 120.493 256.203C120.649 255.976 120.727 255.702 120.727 255.381V254.984C120.727 254.663 120.651 254.391 120.497 254.166C120.344 253.939 120.111 253.825 119.798 253.825C119.489 253.825 119.253 253.939 119.091 254.166C118.932 254.391 118.852 254.663 118.852 254.984ZM113.786 250.288V249.892C113.786 249.565 113.851 249.271 113.982 249.01C114.112 248.749 114.298 248.541 114.54 248.388C114.781 248.232 115.068 248.153 115.401 248.153C115.736 248.153 116.023 248.232 116.261 248.388C116.5 248.541 116.683 248.749 116.811 249.01C116.939 249.271 117.003 249.565 117.003 249.892V250.288C117.003 250.615 116.938 250.911 116.807 251.175C116.679 251.436 116.496 251.643 116.257 251.797C116.018 251.95 115.733 252.027 115.401 252.027C115.063 252.027 114.773 251.95 114.531 251.797C114.293 251.643 114.108 251.436 113.977 251.175C113.849 250.911 113.786 250.615 113.786 250.288ZM114.455 249.892V250.288C114.455 250.609 114.533 250.884 114.689 251.111C114.848 251.335 115.085 251.447 115.401 251.447C115.707 251.447 115.939 251.335 116.095 251.111C116.251 250.884 116.33 250.609 116.33 250.288V249.892C116.33 249.571 116.253 249.298 116.099 249.074C115.946 248.847 115.713 248.733 115.401 248.733C115.091 248.733 114.855 248.847 114.693 249.074C114.534 249.298 114.455 249.571 114.455 249.892ZM114.178 257L120.173 248.273H120.928L114.932 257H114.178Z" fill="#34C759"/>
<path d="M75.805 245.46V259.812H74.3732V245.46H75.805Z" fill="white"/>
<path d="M241 228.432C252.786 228.432 254.291 243.425 266.077 243.425C277.863 243.425 275.909 255.338 287.695 255.338C299.481 255.338 299.256 238.496 311.042 238.496C322.828 238.496 323.468 230.007 335.254 230.007" stroke="url(#paint6_linear_98_7554)" stroke-opacity="0.1" stroke-width="8.82" stroke-linecap="round"/>
<path d="M241 228C252.786 228 254.291 242.994 266.077 242.994C277.863 242.994 275.909 254.906 287.695 254.906C299.481 254.906 299.256 238.064 311.042 238.064C322.828 238.064 323.468 229.575 335.254 229.575" stroke="url(#paint7_linear_98_7554)" stroke-width="2.82" stroke-linecap="round"/>
<path d="M20 286V286C21.1046 286 22 286.895 22 288V324C22 325.105 21.1046 326 20 326V326V286Z" fill="white"/>
<path d="M37.9325 301V291.545H41.5518C42.2351 291.545 42.8029 291.653 43.2553 291.869C43.7108 292.081 44.0509 292.372 44.2756 292.741C44.5033 293.11 44.6172 293.529 44.6172 293.997C44.6172 294.382 44.5433 294.711 44.3956 294.985C44.2479 295.256 44.0494 295.476 43.8001 295.645C43.5508 295.814 43.2723 295.936 42.9645 296.01V296.102C43.3 296.12 43.6216 296.223 43.9293 296.411C44.2402 296.596 44.4941 296.857 44.6911 297.196C44.888 297.535 44.9865 297.944 44.9865 298.424C44.9865 298.913 44.868 299.353 44.631 299.744C44.3941 300.132 44.0371 300.438 43.56 300.663C43.083 300.888 42.4828 301 41.7596 301H37.9325ZM39.6452 299.569H41.4872C42.1089 299.569 42.5567 299.45 42.8306 299.213C43.1076 298.973 43.2461 298.666 43.2461 298.29C43.2461 298.01 43.1768 297.758 43.0384 297.533C42.8999 297.305 42.7029 297.127 42.4474 296.998C42.192 296.865 41.8873 296.799 41.5334 296.799H39.6452V299.569ZM39.6452 295.566H41.3395C41.6349 295.566 41.9012 295.513 42.1381 295.405C42.3751 295.294 42.5613 295.139 42.6967 294.939C42.8352 294.735 42.9045 294.495 42.9045 294.218C42.9045 293.852 42.7752 293.551 42.5167 293.314C42.2612 293.077 41.8812 292.958 41.3764 292.958H39.6452V295.566ZM46.4026 301V293.909H48.0738V301H46.4026ZM47.2428 292.903C46.9781 292.903 46.7504 292.815 46.5596 292.64C46.3688 292.461 46.2733 292.247 46.2733 291.998C46.2733 291.746 46.3688 291.532 46.5596 291.356C46.7504 291.178 46.9781 291.088 47.2428 291.088C47.5106 291.088 47.7383 291.178 47.926 291.356C48.1169 291.532 48.2123 291.746 48.2123 291.998C48.2123 292.247 48.1169 292.461 47.926 292.64C47.7383 292.815 47.5106 292.903 47.2428 292.903ZM51.4634 296.845V301H49.7923V293.909H51.3896V295.114H51.4727C51.6358 294.717 51.8958 294.402 52.2528 294.168C52.6129 293.934 53.0576 293.817 53.587 293.817C54.0763 293.817 54.5026 293.921 54.8658 294.131C55.232 294.34 55.5152 294.643 55.7152 295.04C55.9183 295.437 56.0183 295.919 56.0153 296.485V301H54.3441V296.744C54.3441 296.27 54.221 295.899 53.9748 295.631C53.7317 295.363 53.3946 295.229 52.9638 295.229C52.6714 295.229 52.4113 295.294 52.1836 295.423C51.9589 295.549 51.782 295.733 51.6527 295.973C51.5265 296.213 51.4634 296.504 51.4634 296.845ZM59.7546 301.143C59.3053 301.143 58.9006 301.063 58.5405 300.903C58.1835 300.74 57.9003 300.5 57.6911 300.183C57.4848 299.866 57.3817 299.475 57.3817 299.01C57.3817 298.61 57.4556 298.279 57.6033 298.018C57.7511 297.756 57.9527 297.547 58.2081 297.39C58.4635 297.233 58.7513 297.114 59.0714 297.034C59.3945 296.951 59.7285 296.891 60.0732 296.854C60.4886 296.811 60.8256 296.773 61.0842 296.739C61.3427 296.702 61.5304 296.647 61.6474 296.573C61.7674 296.496 61.8274 296.377 61.8274 296.217V296.19C61.8274 295.842 61.7243 295.573 61.5181 295.382C61.3119 295.191 61.0149 295.096 60.6271 295.096C60.2178 295.096 59.8931 295.185 59.6531 295.363C59.4161 295.542 59.256 295.753 59.1729 295.996L57.6126 295.774C57.7357 295.343 57.9388 294.983 58.2219 294.694C58.5051 294.402 58.8513 294.183 59.2607 294.038C59.67 293.891 60.1224 293.817 60.6179 293.817C60.9595 293.817 61.2996 293.857 61.6381 293.937C61.9767 294.017 62.286 294.149 62.5661 294.334C62.8461 294.515 63.0708 294.763 63.2401 295.077C63.4124 295.391 63.4986 295.783 63.4986 296.254V301H61.892V300.026H61.8366C61.7351 300.223 61.592 300.408 61.4073 300.58C61.2257 300.749 60.9964 300.886 60.7195 300.991C60.4455 301.092 60.1239 301.143 59.7546 301.143ZM60.1886 299.915C60.524 299.915 60.8149 299.849 61.0611 299.717C61.3073 299.581 61.4966 299.403 61.6289 299.181C61.7643 298.96 61.832 298.718 61.832 298.456V297.621C61.7797 297.664 61.6905 297.704 61.5643 297.741C61.4412 297.778 61.3027 297.81 61.1488 297.838C60.9949 297.865 60.8426 297.89 60.6918 297.912C60.541 297.933 60.4102 297.952 60.2994 297.967C60.0501 298.001 59.8269 298.056 59.63 298.133C59.433 298.21 59.2776 298.318 59.1637 298.456C59.0498 298.592 58.9929 298.767 58.9929 298.983C58.9929 299.29 59.1052 299.523 59.3299 299.68C59.5546 299.837 59.8408 299.915 60.1886 299.915ZM66.8501 296.845V301H65.179V293.909H66.7763V295.114H66.8594C67.0225 294.717 67.2826 294.402 67.6396 294.168C67.9996 293.934 68.4444 293.817 68.9737 293.817C69.4631 293.817 69.8893 293.921 70.2525 294.131C70.6187 294.34 70.9019 294.643 71.1019 295.04C71.305 295.437 71.4051 295.919 71.402 296.485V301H69.7308V296.744C69.7308 296.27 69.6077 295.899 69.3615 295.631C69.1184 295.363 68.7814 295.229 68.3505 295.229C68.0581 295.229 67.7981 295.294 67.5703 295.423C67.3456 295.549 67.1687 295.733 67.0394 295.973C66.9132 296.213 66.8501 296.504 66.8501 296.845ZM76.1939 301.138C75.486 301.138 74.8782 300.983 74.3704 300.672C73.8656 300.361 73.4763 299.932 73.2024 299.384C72.9316 298.833 72.7962 298.199 72.7962 297.482C72.7962 296.762 72.9347 296.127 73.2116 295.576C73.4886 295.022 73.8795 294.591 74.3842 294.283C74.892 293.972 75.4922 293.817 76.1847 293.817C76.7602 293.817 77.2695 293.923 77.7127 294.135C78.159 294.345 78.5144 294.642 78.7791 295.026C79.0438 295.408 79.1946 295.854 79.2315 296.365H77.6342C77.5696 296.023 77.4157 295.739 77.1726 295.511C76.9325 295.28 76.6109 295.165 76.2077 295.165C75.8661 295.165 75.5661 295.257 75.3075 295.442C75.049 295.623 74.8474 295.885 74.7028 296.227C74.5612 296.568 74.4904 296.978 74.4904 297.455C74.4904 297.938 74.5612 298.353 74.7028 298.701C74.8443 299.046 75.0429 299.312 75.2983 299.5C75.5568 299.684 75.86 299.777 76.2077 299.777C76.454 299.777 76.674 299.73 76.8679 299.638C77.0649 299.543 77.2295 299.406 77.3619 299.227C77.4942 299.049 77.585 298.832 77.6342 298.576H79.2315C79.1915 299.078 79.0438 299.523 78.7884 299.911C78.5329 300.295 78.1851 300.597 77.745 300.815C77.3049 301.031 76.7879 301.138 76.1939 301.138ZM83.743 301.138C83.032 301.138 82.4181 300.991 81.901 300.695C81.387 300.397 80.9916 299.975 80.7146 299.43C80.4376 298.883 80.2991 298.238 80.2991 297.496C80.2991 296.767 80.4376 296.127 80.7146 295.576C80.9946 295.022 81.3855 294.591 81.8872 294.283C82.3888 293.972 82.9782 293.817 83.6553 293.817C84.0923 293.817 84.5047 293.888 84.8925 294.029C85.2834 294.168 85.628 294.383 85.9266 294.675C86.2282 294.968 86.4652 295.34 86.6375 295.793C86.8099 296.242 86.896 296.777 86.896 297.399V297.912H81.0839V296.785H85.2941C85.291 296.465 85.2218 296.18 85.0864 295.931C84.951 295.679 84.7617 295.48 84.5186 295.336C84.2785 295.191 83.9984 295.119 83.6784 295.119C83.3367 295.119 83.0367 295.202 82.7781 295.368C82.5196 295.531 82.318 295.746 82.1734 296.014C82.0318 296.279 81.9595 296.57 81.9564 296.887V297.87C81.9564 298.282 82.0318 298.636 82.1826 298.932C82.3334 299.224 82.5442 299.449 82.8151 299.606C83.0859 299.76 83.4029 299.837 83.7661 299.837C84.0092 299.837 84.2293 299.803 84.4262 299.735C84.6232 299.664 84.794 299.561 84.9387 299.426C85.0833 299.29 85.1926 299.123 85.2664 298.923L86.8268 299.098C86.7283 299.51 86.5406 299.871 86.2636 300.178C85.9897 300.483 85.6388 300.72 85.211 300.889C84.7832 301.055 84.2939 301.138 83.743 301.138Z" fill="white"/>
<path d="M40.5881 322.091V311.182H41.2869V322.091H40.5881ZM42.6037 314.672C42.5639 314.3 42.3963 314.01 42.1009 313.803C41.8082 313.595 41.4276 313.491 40.9588 313.491C40.6293 313.491 40.3466 313.541 40.1108 313.641C39.875 313.74 39.6946 313.875 39.5696 314.045C39.4446 314.216 39.3807 314.411 39.3778 314.629C39.3778 314.811 39.419 314.969 39.5014 315.102C39.5866 315.236 39.7017 315.349 39.8466 315.443C39.9915 315.534 40.152 315.611 40.3281 315.673C40.5043 315.736 40.6818 315.788 40.8608 315.831L41.679 316.036C42.0085 316.112 42.3253 316.216 42.6293 316.347C42.9361 316.477 43.2102 316.642 43.4517 316.841C43.696 317.04 43.8892 317.28 44.0312 317.561C44.1733 317.842 44.2443 318.172 44.2443 318.55C44.2443 319.061 44.1136 319.511 43.8523 319.901C43.5909 320.287 43.2131 320.589 42.7188 320.808C42.2273 321.024 41.6321 321.132 40.9332 321.132C40.2543 321.132 39.6648 321.027 39.1648 320.817C38.6676 320.607 38.2784 320.3 37.9972 319.896C37.7188 319.493 37.5682 319.001 37.5455 318.422H39.1009C39.1236 318.726 39.2173 318.979 39.3821 319.18C39.5469 319.382 39.7614 319.533 40.0256 319.632C40.2926 319.732 40.5909 319.781 40.9205 319.781C41.2642 319.781 41.5653 319.73 41.8239 319.628C42.0852 319.523 42.2898 319.378 42.4375 319.193C42.5852 319.006 42.6605 318.787 42.6634 318.537C42.6605 318.31 42.5938 318.122 42.4631 317.974C42.3324 317.824 42.1491 317.699 41.9134 317.599C41.6804 317.497 41.4077 317.406 41.0952 317.327L40.1023 317.071C39.3835 316.886 38.8153 316.607 38.3977 316.232C37.983 315.854 37.7756 315.352 37.7756 314.727C37.7756 314.213 37.9148 313.763 38.1932 313.376C38.4744 312.99 38.8565 312.69 39.3395 312.477C39.8224 312.261 40.3693 312.153 40.9801 312.153C41.5994 312.153 42.142 312.261 42.608 312.477C43.0767 312.69 43.4446 312.987 43.7116 313.368C43.9787 313.746 44.1165 314.18 44.125 314.672H42.6037ZM48.7006 321.119C48.087 321.119 47.5415 321.014 47.0643 320.804C46.5898 320.594 46.2148 320.301 45.9393 319.926C45.6637 319.551 45.5174 319.118 45.5004 318.626H47.1026C47.1168 318.862 47.195 319.068 47.337 319.244C47.479 319.418 47.668 319.553 47.9038 319.649C48.1396 319.746 48.4038 319.794 48.6964 319.794C49.0089 319.794 49.2859 319.74 49.5273 319.632C49.7688 319.521 49.9577 319.368 50.0941 319.172C50.2305 318.976 50.2972 318.75 50.2944 318.494C50.2972 318.23 50.229 317.997 50.0898 317.795C49.9506 317.594 49.7489 317.436 49.4847 317.322C49.2234 317.209 48.908 317.152 48.5387 317.152H47.7674V315.933H48.5387C48.8427 315.933 49.1083 315.881 49.3356 315.776C49.5657 315.67 49.7461 315.523 49.8768 315.332C50.0075 315.139 50.0714 314.916 50.0685 314.663C50.0714 314.416 50.016 314.202 49.9023 314.02C49.7915 313.835 49.6339 313.692 49.4293 313.589C49.2276 313.487 48.9904 313.436 48.7177 313.436C48.4506 313.436 48.2035 313.484 47.9762 313.581C47.7489 313.678 47.5657 313.815 47.4265 313.994C47.2873 314.17 47.2134 314.381 47.2049 314.625H45.6836C45.695 314.136 45.8356 313.707 46.1055 313.338C46.3782 312.966 46.7418 312.676 47.1964 312.469C47.6509 312.259 48.1609 312.153 48.7262 312.153C49.3086 312.153 49.8143 312.263 50.2433 312.482C50.6751 312.697 51.0089 312.989 51.2447 313.355C51.4805 313.722 51.5984 314.126 51.5984 314.57C51.6012 315.061 51.4563 315.473 51.1637 315.805C50.8739 316.138 50.4933 316.355 50.0217 316.457V316.526C50.6353 316.611 51.1055 316.838 51.4322 317.207C51.7617 317.574 51.9251 318.03 51.9222 318.575C51.9222 319.064 51.783 319.501 51.5046 319.888C51.229 320.271 50.8484 320.572 50.3626 320.791C49.8796 321.01 49.3256 321.119 48.7006 321.119ZM53.7045 321L57.4162 313.653V313.594H53.108V312.273H59.0526V313.624L55.3452 321H53.7045ZM63.9776 312.273V321H62.3967V313.811H62.3455L60.3043 315.115V313.666L62.4734 312.273H63.9776ZM66.6804 321.094C66.4219 321.094 66.2003 321.003 66.0156 320.821C65.831 320.639 65.7401 320.418 65.7429 320.156C65.7401 319.901 65.831 319.682 66.0156 319.5C66.2003 319.318 66.4219 319.227 66.6804 319.227C66.9304 319.227 67.1477 319.318 67.3324 319.5C67.5199 319.682 67.6151 319.901 67.6179 320.156C67.6151 320.33 67.5696 320.487 67.4815 320.629C67.3963 320.771 67.2827 320.885 67.1406 320.97C67.0014 321.053 66.848 321.094 66.6804 321.094ZM69.1935 321V319.858L72.2234 316.888C72.5131 316.595 72.7546 316.335 72.9478 316.108C73.141 315.881 73.2859 315.661 73.3825 315.447C73.479 315.234 73.5273 315.007 73.5273 314.766C73.5273 314.49 73.4648 314.254 73.3398 314.058C73.2148 313.859 73.043 313.706 72.8242 313.598C72.6055 313.49 72.3569 313.436 72.0785 313.436C71.7915 313.436 71.5401 313.496 71.3242 313.615C71.1083 313.732 70.9407 313.898 70.8214 314.114C70.7049 314.33 70.6467 314.587 70.6467 314.885H69.1424C69.1424 314.331 69.2688 313.849 69.5217 313.44C69.7745 313.031 70.1225 312.714 70.5657 312.49C71.0117 312.266 71.5231 312.153 72.0998 312.153C72.685 312.153 73.1992 312.263 73.6424 312.482C74.0856 312.7 74.4293 313 74.6737 313.381C74.9208 313.761 75.0444 314.196 75.0444 314.685C75.0444 315.011 74.9819 315.332 74.8569 315.648C74.7319 315.963 74.5117 316.312 74.1964 316.696C73.8839 317.08 73.445 317.544 72.8796 318.089L71.3754 319.619V319.679H75.1765V321H69.1935ZM79.6808 321.119C79.1126 321.119 78.604 321.013 78.1552 320.8C77.7063 320.584 77.3498 320.288 77.0856 319.913C76.8242 319.538 76.685 319.109 76.668 318.626H78.2021C78.2305 318.984 78.3853 319.277 78.6665 319.504C78.9478 319.729 79.2859 319.841 79.6808 319.841C79.9904 319.841 80.266 319.77 80.5075 319.628C80.7489 319.486 80.9393 319.288 81.0785 319.036C81.2177 318.783 81.2859 318.494 81.283 318.17C81.2859 317.841 81.2163 317.548 81.0742 317.293C80.9322 317.037 80.7376 316.837 80.4904 316.692C80.2433 316.544 79.9592 316.47 79.6381 316.47C79.3768 316.467 79.1197 316.516 78.8668 316.615C78.614 316.714 78.4137 316.845 78.266 317.007L76.8384 316.773L77.2944 312.273H82.3569V313.594H78.6026L78.3512 315.908H78.4023C78.5643 315.717 78.793 315.56 79.0884 315.435C79.3839 315.307 79.7077 315.243 80.06 315.243C80.5884 315.243 81.06 315.368 81.4748 315.618C81.8896 315.865 82.2163 316.206 82.4549 316.641C82.6935 317.075 82.8129 317.572 82.8129 318.132C82.8129 318.709 82.6793 319.223 82.4123 319.675C82.1481 320.124 81.7802 320.477 81.3086 320.736C80.8398 320.991 80.2972 321.119 79.6808 321.119ZM104.206 316.278V316.994H100.575V316.278H104.206ZM108.774 312.273V321H107.977V313.108H107.926L105.881 314.467V313.641L107.943 312.273H108.774ZM111.544 321.064C111.376 321.064 111.232 321.004 111.109 320.885C110.99 320.763 110.93 320.618 110.93 320.45C110.93 320.28 110.99 320.135 111.109 320.016C111.232 319.896 111.376 319.837 111.544 319.837C111.714 319.837 111.859 319.896 111.979 320.016C112.098 320.135 112.158 320.28 112.158 320.45C112.158 320.561 112.129 320.663 112.072 320.757C112.018 320.851 111.945 320.926 111.851 320.983C111.76 321.037 111.658 321.064 111.544 321.064ZM115.805 312.273V321H115.009V313.108H114.957L112.912 314.467V313.641L114.974 312.273H115.805ZM121.153 321.119C120.597 321.119 120.101 321.014 119.666 320.804C119.232 320.594 118.891 320.307 118.643 319.943C118.396 319.577 118.273 319.163 118.273 318.703C118.273 318.342 118.348 318.006 118.499 317.693C118.649 317.378 118.857 317.114 119.121 316.901C119.385 316.685 119.682 316.544 120.011 316.479V316.432C119.582 316.307 119.237 316.061 118.976 315.695C118.714 315.325 118.585 314.906 118.588 314.438C118.585 314.003 118.696 313.614 118.92 313.27C119.145 312.926 119.45 312.655 119.837 312.456C120.226 312.254 120.665 312.153 121.153 312.153C121.639 312.153 122.075 312.254 122.462 312.456C122.848 312.655 123.153 312.926 123.378 313.27C123.605 313.614 123.72 314.003 123.723 314.438C123.72 314.903 123.588 315.322 123.327 315.695C123.065 316.064 122.722 316.31 122.295 316.432V316.479C122.625 316.541 122.92 316.68 123.182 316.896C123.443 317.112 123.651 317.378 123.804 317.693C123.957 318.006 124.034 318.342 124.034 318.703C124.034 319.163 123.909 319.577 123.659 319.943C123.412 320.307 123.071 320.594 122.636 320.804C122.205 321.014 121.71 321.119 121.153 321.119ZM121.153 320.403C121.568 320.403 121.932 320.33 122.244 320.182C122.56 320.031 122.805 319.825 122.982 319.564C123.161 319.303 123.25 319.003 123.25 318.665C123.25 318.315 123.158 318.004 122.973 317.732C122.788 317.456 122.538 317.239 122.223 317.08C121.908 316.918 121.551 316.837 121.153 316.837C120.756 316.837 120.398 316.918 120.08 317.08C119.764 317.239 119.514 317.456 119.33 317.732C119.148 318.004 119.057 318.315 119.057 318.665C119.057 319.003 119.143 319.303 119.317 319.564C119.493 319.825 119.739 320.031 120.054 320.182C120.372 320.33 120.739 320.403 121.153 320.403ZM121.153 316.155C121.494 316.155 121.8 316.082 122.07 315.938C122.339 315.793 122.553 315.595 122.709 315.345C122.868 315.092 122.949 314.805 122.952 314.484C122.949 314.166 122.869 313.885 122.713 313.641C122.557 313.393 122.344 313.202 122.074 313.065C121.807 312.926 121.5 312.857 121.153 312.857C120.807 312.857 120.497 312.926 120.224 313.065C119.955 313.202 119.741 313.393 119.585 313.641C119.432 313.885 119.357 314.166 119.359 314.484C119.357 314.805 119.433 315.092 119.589 315.345C119.749 315.595 119.963 315.793 120.233 315.938C120.506 316.082 120.813 316.155 121.153 316.155ZM130.218 319.381V318.984C130.218 318.658 130.284 318.364 130.414 318.102C130.545 317.838 130.731 317.629 130.973 317.476C131.214 317.322 131.501 317.246 131.833 317.246C132.169 317.246 132.456 317.322 132.694 317.476C132.933 317.629 133.116 317.838 133.244 318.102C133.372 318.364 133.436 318.658 133.436 318.984V319.381C133.436 319.707 133.37 320.001 133.24 320.263C133.112 320.524 132.929 320.733 132.69 320.889C132.451 321.043 132.166 321.119 131.833 321.119C131.495 321.119 131.206 321.043 130.964 320.889C130.725 320.733 130.541 320.524 130.41 320.263C130.282 320.001 130.218 319.707 130.218 319.381ZM130.887 318.984V319.381C130.887 319.702 130.966 319.976 131.122 320.203C131.281 320.428 131.518 320.54 131.833 320.54C132.14 320.54 132.372 320.428 132.528 320.203C132.684 319.976 132.762 319.702 132.762 319.381V318.984C132.762 318.663 132.686 318.391 132.532 318.166C132.379 317.939 132.146 317.825 131.833 317.825C131.524 317.825 131.288 317.939 131.126 318.166C130.967 318.391 130.887 318.663 130.887 318.984ZM125.821 314.288V313.892C125.821 313.565 125.886 313.271 126.017 313.01C126.147 312.749 126.333 312.541 126.575 312.388C126.816 312.232 127.103 312.153 127.436 312.153C127.771 312.153 128.058 312.232 128.297 312.388C128.535 312.541 128.718 312.749 128.846 313.01C128.974 313.271 129.038 313.565 129.038 313.892V314.288C129.038 314.615 128.973 314.911 128.842 315.175C128.714 315.436 128.531 315.643 128.292 315.797C128.054 315.95 127.768 316.027 127.436 316.027C127.098 316.027 126.808 315.95 126.566 315.797C126.328 315.643 126.143 315.436 126.012 315.175C125.885 314.911 125.821 314.615 125.821 314.288ZM126.49 313.892V314.288C126.49 314.609 126.568 314.884 126.724 315.111C126.883 315.335 127.12 315.447 127.436 315.447C127.743 315.447 127.974 315.335 128.13 315.111C128.287 314.884 128.365 314.609 128.365 314.288V313.892C128.365 313.571 128.288 313.298 128.135 313.074C127.981 312.847 127.748 312.733 127.436 312.733C127.126 312.733 126.89 312.847 126.728 313.074C126.569 313.298 126.49 313.571 126.49 313.892ZM126.213 321L132.208 312.273H132.963L126.967 321H126.213Z" fill="#FF3B30"/>
<path d="M92.2816 309.46V323.812H90.8498V309.46H92.2816Z" fill="white"/>
<path d="M241 318.906C252.786 318.906 254.291 303.913 266.077 303.913C277.863 303.913 275.909 292 287.695 292C299.481 292 299.256 308.842 311.042 308.842C322.828 308.842 323.468 317.331 335.254 317.331" stroke="url(#paint8_linear_98_7554)" stroke-opacity="0.1" stroke-width="8.82" stroke-linecap="round"/>
<path d="M241 319.338C252.786 319.338 254.291 304.344 266.077 304.344C277.863 304.344 275.909 292.432 287.695 292.432C299.481 292.432 299.256 309.274 311.042 309.274C322.828 309.274 323.468 317.762 335.254 317.762" stroke="url(#paint9_linear_98_7554)" stroke-width="2.82" stroke-linecap="round"/>
<defs>
<linearGradient id="paint0_linear_98_7554" x1="180" y1="0" x2="180" y2="363" gradientUnits="userSpaceOnUse">
<stop stop-color="#181B23"/>
<stop offset="1" stop-color="#181B23" stop-opacity="0"/>
</linearGradient>
<linearGradient id="paint1_linear_98_7554" x1="323.168" y1="111.534" x2="247.028" y2="113.636" gradientUnits="userSpaceOnUse">
<stop stop-color="#EF7C89"/>
<stop offset="1" stop-color="#C99100" stop-opacity="0"/>
</linearGradient>
<linearGradient id="paint2_linear_98_7554" x1="335.254" y1="110.392" x2="238.965" y2="112.58" gradientUnits="userSpaceOnUse">
<stop stop-color="#FF5F50"/>
<stop offset="0.53125" stop-color="#F866C6"/>
<stop offset="1" stop-color="white" stop-opacity="0"/>
</linearGradient>
<linearGradient id="paint3_linear_98_7554" x1="323.168" y1="179.804" x2="247.028" y2="177.701" gradientUnits="userSpaceOnUse">
<stop stop-color="#48D277"/>
<stop offset="1" stop-color="#00BDC9" stop-opacity="0"/>
</linearGradient>
<linearGradient id="paint4_linear_98_7554" x1="335.254" y1="180.946" x2="238.965" y2="178.758" gradientUnits="userSpaceOnUse">
<stop stop-color="#48D277"/>
<stop offset="0.53125" stop-color="#66F8EF"/>
<stop offset="1" stop-color="white" stop-opacity="0"/>
</linearGradient>
<linearGradient id="paint5_linear_98_7554" x1="160" y1="0" x2="160" y2="64" gradientUnits="userSpaceOnUse">
<stop stop-color="#181B23"/>
<stop stop-color="#181B23" stop-opacity="0"/>
</linearGradient>
<linearGradient id="paint6_linear_98_7554" x1="323.168" y1="243.804" x2="247.028" y2="241.701" gradientUnits="userSpaceOnUse">
<stop stop-color="#48D277"/>
<stop offset="1" stop-color="#00BDC9" stop-opacity="0"/>
</linearGradient>
<linearGradient id="paint7_linear_98_7554" x1="335.254" y1="244.946" x2="238.965" y2="242.758" gradientUnits="userSpaceOnUse">
<stop stop-color="#48D277"/>
<stop offset="0.53125" stop-color="#66F8EF"/>
<stop offset="1" stop-color="white" stop-opacity="0"/>
</linearGradient>
<linearGradient id="paint8_linear_98_7554" x1="323.168" y1="303.534" x2="247.028" y2="305.636" gradientUnits="userSpaceOnUse">
<stop stop-color="#EF7C89"/>
<stop offset="1" stop-color="#C99100" stop-opacity="0"/>
</linearGradient>
<linearGradient id="paint9_linear_98_7554" x1="335.254" y1="302.392" x2="238.965" y2="304.58" gradientUnits="userSpaceOnUse">
<stop stop-color="#FF5F50"/>
<stop offset="0.53125" stop-color="#F866C6"/>
<stop offset="1" stop-color="white" stop-opacity="0"/>
</linearGradient>
</defs>
</svg>
