<svg width="368" height="371" viewBox="0 0 368 371" fill="none" xmlns="http://www.w3.org/2000/svg">
<g filter="url(#filter0_bdd_337_1494)">
<rect x="4" width="360" height="363" rx="15" fill="url(#paint0_linear_337_1494)" shape-rendering="crispEdges"/>
<path d="M25.2912 34.9091H28.1932L32.0795 44.3949H32.233L36.1193 34.9091H39.0213V48H36.7457V39.0064H36.6243L33.0064 47.9616H31.3061L27.6882 38.9872H27.5668V48H25.2912V34.9091ZM44.3267 48.1982C43.7045 48.1982 43.1442 48.0874 42.6456 47.8658C42.1513 47.6399 41.7592 47.3075 41.4695 46.8686C41.1839 46.4297 41.0412 45.8885 41.0412 45.245C41.0412 44.6911 41.1435 44.233 41.348 43.8707C41.5526 43.5085 41.8317 43.2188 42.1854 43.0014C42.5391 42.7841 42.9375 42.62 43.3807 42.5092C43.8281 42.3942 44.2905 42.3111 44.7678 42.2599C45.343 42.2003 45.8097 42.147 46.1676 42.1001C46.5256 42.049 46.7855 41.9723 46.9474 41.87C47.1136 41.7635 47.1967 41.5994 47.1967 41.3778V41.3395C47.1967 40.858 47.054 40.4851 46.7685 40.2209C46.483 39.9567 46.0717 39.8246 45.5348 39.8246C44.968 39.8246 44.5185 39.9482 44.1861 40.1953C43.858 40.4425 43.6364 40.7344 43.5213 41.071L41.3608 40.7642C41.5313 40.1676 41.8125 39.669 42.2045 39.2685C42.5966 38.8636 43.076 38.5611 43.6428 38.3608C44.2095 38.1562 44.8359 38.054 45.522 38.054C45.995 38.054 46.4659 38.1094 46.9347 38.2202C47.4034 38.331 47.8317 38.5142 48.2195 38.7699C48.6072 39.0213 48.9183 39.3643 49.1527 39.799C49.3913 40.2337 49.5107 40.777 49.5107 41.429V48H47.2862V46.6513H47.2095C47.0689 46.924 46.8707 47.1797 46.6151 47.4183C46.3636 47.6527 46.0462 47.8423 45.6626 47.9872C45.2834 48.1278 44.8381 48.1982 44.3267 48.1982ZM44.9276 46.4979C45.392 46.4979 45.7947 46.4062 46.1357 46.223C46.4766 46.0355 46.7386 45.7884 46.9219 45.4815C47.1094 45.1747 47.2031 44.8402 47.2031 44.478V43.321C47.1307 43.3807 47.0071 43.4361 46.8324 43.4872C46.6619 43.5384 46.4702 43.5831 46.2571 43.6214C46.044 43.6598 45.8331 43.6939 45.6243 43.7237C45.4155 43.7536 45.2344 43.7791 45.081 43.8004C44.7358 43.8473 44.4268 43.924 44.1541 44.0305C43.8814 44.1371 43.6662 44.2862 43.5085 44.478C43.3509 44.6655 43.272 44.9084 43.272 45.2067C43.272 45.6328 43.4276 45.9545 43.7386 46.1719C44.0497 46.3892 44.446 46.4979 44.9276 46.4979ZM51.8374 48V38.1818H54.081V39.8182H54.1832C54.3622 39.2514 54.669 38.8146 55.1037 38.5078C55.5426 38.1967 56.0433 38.0412 56.6058 38.0412C56.7337 38.0412 56.8764 38.0476 57.0341 38.0604C57.196 38.0689 57.3303 38.0838 57.4368 38.1051V40.2337C57.3388 40.1996 57.1832 40.1697 56.9702 40.1442C56.7614 40.1143 56.5589 40.0994 56.3629 40.0994C55.9411 40.0994 55.5618 40.1911 55.2251 40.3743C54.8928 40.5533 54.6307 40.8026 54.4389 41.1222C54.2472 41.4418 54.1513 41.8104 54.1513 42.228V48H51.8374ZM61.0835 44.919L61.0771 42.1257H61.4478L64.9762 38.1818H67.68L63.3398 43.0142H62.8604L61.0835 44.919ZM58.9741 48V34.9091H61.288V48H58.9741ZM65.136 48L61.94 43.532L63.4996 41.902L67.9038 48H65.136ZM73.1644 48.1918C72.18 48.1918 71.3299 47.9872 70.614 47.5781C69.9023 47.1648 69.3548 46.581 68.9712 45.8267C68.5877 45.0682 68.396 44.1754 68.396 43.1484C68.396 42.1385 68.5877 41.2521 68.9712 40.4893C69.359 39.7223 69.9002 39.1257 70.5948 38.6996C71.2894 38.2692 72.1055 38.054 73.043 38.054C73.6481 38.054 74.2191 38.152 74.756 38.348C75.2972 38.5398 75.7745 38.8381 76.1879 39.2429C76.6055 39.6477 76.9336 40.1634 77.1722 40.7898C77.4109 41.4119 77.5302 42.1534 77.5302 43.0142V43.7237H69.4826V42.1641H75.3121C75.3079 41.7209 75.212 41.3267 75.0245 40.9815C74.837 40.6321 74.5749 40.3572 74.2383 40.157C73.9059 39.9567 73.5181 39.8565 73.0749 39.8565C72.6019 39.8565 72.1864 39.9716 71.8285 40.2017C71.4705 40.4276 71.1914 40.7259 70.9911 41.0966C70.7951 41.4631 70.695 41.8658 70.6907 42.3047V43.6662C70.6907 44.2372 70.7951 44.7273 71.0039 45.1364C71.2127 45.5412 71.5046 45.8523 71.8796 46.0696C72.2546 46.2827 72.6935 46.3892 73.1964 46.3892C73.533 46.3892 73.8377 46.3423 74.1104 46.2486C74.3832 46.1506 74.6197 46.0078 74.82 45.8203C75.0202 45.6328 75.1715 45.4006 75.2738 45.1236L77.4343 45.3665C77.2979 45.9375 77.038 46.4361 76.6545 46.8622C76.2752 47.2841 75.7894 47.6122 75.1971 47.8466C74.6048 48.0767 73.9272 48.1918 73.1644 48.1918ZM84.3904 38.1818V39.9716H78.7463V38.1818H84.3904ZM80.1397 35.8295H82.4537V45.0469C82.4537 45.358 82.5005 45.5966 82.5943 45.7628C82.6923 45.9247 82.8201 46.0355 82.9778 46.0952C83.1355 46.1548 83.3102 46.1847 83.502 46.1847C83.6468 46.1847 83.7789 46.174 83.8983 46.1527C84.0218 46.1314 84.1156 46.1122 84.1795 46.0952L84.5694 47.9041C84.4458 47.9467 84.269 47.9936 84.0389 48.0447C83.813 48.0959 83.536 48.1257 83.2079 48.1342C82.6284 48.1513 82.1064 48.0639 81.6419 47.8722C81.1774 47.6761 80.8088 47.3736 80.536 46.9645C80.2676 46.5554 80.1355 46.044 80.1397 45.4304V35.8295Z" fill="white"/>
<path d="M24 94V94C25.1046 94 26 94.8954 26 96V132C26 133.105 25.1046 134 24 134V134V94Z" fill="#F2F2F7"/>
<path d="M41.9325 109V99.5455H45.5518C46.2351 99.5455 46.8029 99.6532 47.2553 99.8686C47.7108 100.081 48.0509 100.372 48.2756 100.741C48.5033 101.11 48.6172 101.529 48.6172 101.997C48.6172 102.382 48.5433 102.711 48.3956 102.985C48.2479 103.256 48.0494 103.476 47.8001 103.645C47.5508 103.814 47.2723 103.936 46.9645 104.01V104.102C47.3 104.12 47.6216 104.223 47.9293 104.411C48.2402 104.596 48.4941 104.857 48.6911 105.196C48.888 105.535 48.9865 105.944 48.9865 106.424C48.9865 106.913 48.868 107.353 48.631 107.744C48.3941 108.132 48.0371 108.438 47.56 108.663C47.083 108.888 46.4828 109 45.7596 109H41.9325ZM43.6452 107.569H45.4872C46.1089 107.569 46.5567 107.45 46.8306 107.213C47.1076 106.973 47.2461 106.666 47.2461 106.29C47.2461 106.01 47.1768 105.758 47.0384 105.533C46.8999 105.305 46.7029 105.127 46.4474 104.998C46.192 104.865 45.8873 104.799 45.5334 104.799H43.6452V107.569ZM43.6452 103.566H45.3395C45.6349 103.566 45.9012 103.513 46.1381 103.405C46.3751 103.294 46.5613 103.139 46.6967 102.939C46.8352 102.735 46.9045 102.495 46.9045 102.218C46.9045 101.852 46.7752 101.551 46.5167 101.314C46.2612 101.077 45.8812 100.958 45.3764 100.958H43.6452V103.566ZM50.4026 109V101.909H52.0738V109H50.4026ZM51.2428 100.903C50.9781 100.903 50.7504 100.815 50.5596 100.64C50.3688 100.461 50.2733 100.247 50.2733 99.9979C50.2733 99.7455 50.3688 99.5316 50.5596 99.3562C50.7504 99.1777 50.9781 99.0884 51.2428 99.0884C51.5106 99.0884 51.7383 99.1777 51.926 99.3562C52.1169 99.5316 52.2123 99.7455 52.2123 99.9979C52.2123 100.247 52.1169 100.461 51.926 100.64C51.7383 100.815 51.5106 100.903 51.2428 100.903ZM57.3331 101.909V103.202H53.2567V101.909H57.3331ZM54.2631 100.21H55.9343V106.867C55.9343 107.092 55.9682 107.264 56.0359 107.384C56.1067 107.501 56.199 107.581 56.3129 107.624C56.4267 107.667 56.5529 107.689 56.6914 107.689C56.796 107.689 56.8915 107.681 56.9776 107.666C57.0669 107.65 57.1346 107.637 57.1808 107.624L57.4624 108.931C57.3731 108.962 57.2454 108.995 57.0792 109.032C56.9161 109.069 56.716 109.091 56.479 109.097C56.0605 109.109 55.6835 109.046 55.348 108.908C55.0125 108.766 54.7463 108.548 54.5494 108.252C54.3555 107.957 54.2601 107.587 54.2631 107.144V100.21ZM61.7476 109.138C61.0397 109.138 60.4319 108.983 59.9241 108.672C59.4194 108.361 59.03 107.932 58.7561 107.384C58.4853 106.833 58.3499 106.199 58.3499 105.482C58.3499 104.762 58.4884 104.127 58.7654 103.576C59.0423 103.022 59.4332 102.591 59.9379 102.283C60.4458 101.972 61.0459 101.817 61.7384 101.817C62.3139 101.817 62.8232 101.923 63.2664 102.135C63.7127 102.345 64.0682 102.642 64.3328 103.026C64.5975 103.408 64.7483 103.854 64.7852 104.365H63.1879C63.1233 104.023 62.9694 103.739 62.7263 103.511C62.4862 103.28 62.1646 103.165 61.7615 103.165C61.4198 103.165 61.1198 103.257 60.8612 103.442C60.6027 103.623 60.4011 103.885 60.2565 104.227C60.1149 104.568 60.0441 104.978 60.0441 105.455C60.0441 105.938 60.1149 106.353 60.2565 106.701C60.3981 107.046 60.5966 107.312 60.852 107.5C61.1105 107.684 61.4137 107.777 61.7615 107.777C62.0077 107.777 62.2277 107.73 62.4216 107.638C62.6186 107.543 62.7832 107.406 62.9156 107.227C63.0479 107.049 63.1387 106.832 63.1879 106.576H64.7852C64.7452 107.078 64.5975 107.523 64.3421 107.911C64.0866 108.295 63.7388 108.597 63.2987 108.815C62.8586 109.031 62.3416 109.138 61.7476 109.138ZM69.2505 109.138C68.5581 109.138 67.9579 108.986 67.4501 108.681C66.9423 108.377 66.5484 107.951 66.2683 107.403C65.9913 106.855 65.8528 106.215 65.8528 105.482C65.8528 104.75 65.9913 104.108 66.2683 103.557C66.5484 103.006 66.9423 102.578 67.4501 102.274C67.9579 101.969 68.5581 101.817 69.2505 101.817C69.943 101.817 70.5431 101.969 71.051 102.274C71.5588 102.578 71.9512 103.006 72.2282 103.557C72.5082 104.108 72.6483 104.75 72.6483 105.482C72.6483 106.215 72.5082 106.855 72.2282 107.403C71.9512 107.951 71.5588 108.377 71.051 108.681C70.5431 108.986 69.943 109.138 69.2505 109.138ZM69.2598 107.8C69.6352 107.8 69.9492 107.697 70.2015 107.49C70.4539 107.281 70.6416 107.001 70.7647 106.65C70.8909 106.299 70.954 105.908 70.954 105.478C70.954 105.044 70.8909 104.651 70.7647 104.3C70.6416 103.946 70.4539 103.665 70.2015 103.456C69.9492 103.246 69.6352 103.142 69.2598 103.142C68.8751 103.142 68.555 103.246 68.2995 103.456C68.0472 103.665 67.8579 103.946 67.7317 104.3C67.6086 104.651 67.5471 105.044 67.5471 105.478C67.5471 105.908 67.6086 106.299 67.7317 106.65C67.8579 107.001 68.0472 107.281 68.2995 107.49C68.555 107.697 68.8751 107.8 69.2598 107.8ZM74.0667 109V101.909H75.7378V109H74.0667ZM74.9069 100.903C74.6422 100.903 74.4144 100.815 74.2236 100.64C74.0328 100.461 73.9374 100.247 73.9374 99.9979C73.9374 99.7455 74.0328 99.5316 74.2236 99.3562C74.4144 99.1777 74.6422 99.0884 74.9069 99.0884C75.1746 99.0884 75.4024 99.1777 75.5901 99.3562C75.7809 99.5316 75.8763 99.7455 75.8763 99.9979C75.8763 100.247 75.7809 100.461 75.5901 100.64C75.4024 100.815 75.1746 100.903 74.9069 100.903ZM79.1275 104.845V109H77.4563V101.909H79.0536V103.114H79.1367C79.2998 102.717 79.5599 102.402 79.9169 102.168C80.277 101.934 80.7217 101.817 81.2511 101.817C81.7404 101.817 82.1667 101.921 82.5298 102.131C82.8961 102.34 83.1792 102.643 83.3793 103.04C83.5824 103.437 83.6824 103.919 83.6793 104.485V109H82.0082V104.744C82.0082 104.27 81.8851 103.899 81.6388 103.631C81.3957 103.363 81.0587 103.229 80.6278 103.229C80.3355 103.229 80.0754 103.294 79.8477 103.423C79.623 103.549 79.446 103.733 79.3168 103.973C79.1906 104.213 79.1275 104.504 79.1275 104.845Z" fill="white"/>
<path d="M44.5881 130.091V119.182H45.2869V130.091H44.5881ZM46.6037 122.672C46.5639 122.3 46.3963 122.01 46.1009 121.803C45.8082 121.595 45.4276 121.491 44.9588 121.491C44.6293 121.491 44.3466 121.541 44.1108 121.641C43.875 121.74 43.6946 121.875 43.5696 122.045C43.4446 122.216 43.3807 122.411 43.3778 122.629C43.3778 122.811 43.419 122.969 43.5014 123.102C43.5866 123.236 43.7017 123.349 43.8466 123.443C43.9915 123.534 44.152 123.611 44.3281 123.673C44.5043 123.736 44.6818 123.788 44.8608 123.831L45.679 124.036C46.0085 124.112 46.3253 124.216 46.6293 124.347C46.9361 124.477 47.2102 124.642 47.4517 124.841C47.696 125.04 47.8892 125.28 48.0312 125.561C48.1733 125.842 48.2443 126.172 48.2443 126.55C48.2443 127.061 48.1136 127.511 47.8523 127.901C47.5909 128.287 47.2131 128.589 46.7188 128.808C46.2273 129.024 45.6321 129.132 44.9332 129.132C44.2543 129.132 43.6648 129.027 43.1648 128.817C42.6676 128.607 42.2784 128.3 41.9972 127.896C41.7188 127.493 41.5682 127.001 41.5455 126.422H43.1009C43.1236 126.726 43.2173 126.979 43.3821 127.18C43.5469 127.382 43.7614 127.533 44.0256 127.632C44.2926 127.732 44.5909 127.781 44.9205 127.781C45.2642 127.781 45.5653 127.73 45.8239 127.628C46.0852 127.523 46.2898 127.378 46.4375 127.193C46.5852 127.006 46.6605 126.787 46.6634 126.537C46.6605 126.31 46.5938 126.122 46.4631 125.974C46.3324 125.824 46.1491 125.699 45.9134 125.599C45.6804 125.497 45.4077 125.406 45.0952 125.327L44.1023 125.071C43.3835 124.886 42.8153 124.607 42.3977 124.232C41.983 123.854 41.7756 123.352 41.7756 122.727C41.7756 122.213 41.9148 121.763 42.1932 121.376C42.4744 120.99 42.8565 120.69 43.3395 120.477C43.8224 120.261 44.3693 120.153 44.9801 120.153C45.5994 120.153 46.142 120.261 46.608 120.477C47.0767 120.69 47.4446 120.987 47.7116 121.368C47.9787 121.746 48.1165 122.18 48.125 122.672H46.6037ZM52.7006 129.119C52.087 129.119 51.5415 129.014 51.0643 128.804C50.5898 128.594 50.2148 128.301 49.9393 127.926C49.6637 127.551 49.5174 127.118 49.5004 126.626H51.1026C51.1168 126.862 51.195 127.068 51.337 127.244C51.479 127.418 51.668 127.553 51.9038 127.649C52.1396 127.746 52.4038 127.794 52.6964 127.794C53.0089 127.794 53.2859 127.74 53.5273 127.632C53.7688 127.521 53.9577 127.368 54.0941 127.172C54.2305 126.976 54.2972 126.75 54.2944 126.494C54.2972 126.23 54.229 125.997 54.0898 125.795C53.9506 125.594 53.7489 125.436 53.4847 125.322C53.2234 125.209 52.908 125.152 52.5387 125.152H51.7674V123.933H52.5387C52.8427 123.933 53.1083 123.881 53.3356 123.776C53.5657 123.67 53.7461 123.523 53.8768 123.332C54.0075 123.139 54.0714 122.916 54.0685 122.663C54.0714 122.416 54.016 122.202 53.9023 122.02C53.7915 121.835 53.6339 121.692 53.4293 121.589C53.2276 121.487 52.9904 121.436 52.7177 121.436C52.4506 121.436 52.2035 121.484 51.9762 121.581C51.7489 121.678 51.5657 121.815 51.4265 121.994C51.2873 122.17 51.2134 122.381 51.2049 122.625H49.6836C49.695 122.136 49.8356 121.707 50.1055 121.338C50.3782 120.966 50.7418 120.676 51.1964 120.469C51.6509 120.259 52.1609 120.153 52.7262 120.153C53.3086 120.153 53.8143 120.263 54.2433 120.482C54.6751 120.697 55.0089 120.989 55.2447 121.355C55.4805 121.722 55.5984 122.126 55.5984 122.57C55.6012 123.061 55.4563 123.473 55.1637 123.805C54.8739 124.138 54.4933 124.355 54.0217 124.457V124.526C54.6353 124.611 55.1055 124.838 55.4322 125.207C55.7617 125.574 55.9251 126.03 55.9222 126.575C55.9222 127.064 55.783 127.501 55.5046 127.888C55.229 128.271 54.8484 128.572 54.3626 128.791C53.8796 129.01 53.3256 129.119 52.7006 129.119ZM60.4872 129.119C59.8537 129.119 59.2912 129.013 58.7997 128.8C58.3111 128.587 57.9276 128.295 57.6491 127.926C57.3736 127.554 57.2372 127.132 57.2401 126.661C57.2372 126.294 57.3168 125.957 57.4787 125.651C57.6406 125.344 57.8594 125.088 58.1349 124.884C58.4134 124.676 58.723 124.544 59.0639 124.487V124.428C58.6151 124.328 58.2514 124.099 57.973 123.741C57.6974 123.381 57.5611 122.964 57.5639 122.493C57.5611 122.044 57.6861 121.643 57.9389 121.291C58.1918 120.939 58.5384 120.662 58.9787 120.46C59.419 120.256 59.9219 120.153 60.4872 120.153C61.0469 120.153 61.5455 120.256 61.983 120.46C62.4233 120.662 62.7699 120.939 63.0227 121.291C63.2784 121.643 63.4062 122.044 63.4062 122.493C63.4062 122.964 63.2656 123.381 62.9844 123.741C62.706 124.099 62.3466 124.328 61.9062 124.428V124.487C62.2472 124.544 62.554 124.676 62.8267 124.884C63.1023 125.088 63.321 125.344 63.483 125.651C63.6477 125.957 63.7301 126.294 63.7301 126.661C63.7301 127.132 63.5909 127.554 63.3125 127.926C63.0341 128.295 62.6506 128.587 62.1619 128.8C61.6761 129.013 61.1179 129.119 60.4872 129.119ZM60.4872 127.901C60.8139 127.901 61.098 127.845 61.3395 127.734C61.581 127.621 61.7685 127.462 61.902 127.257C62.0355 127.053 62.1037 126.817 62.1065 126.55C62.1037 126.271 62.0313 126.026 61.8892 125.812C61.75 125.597 61.5582 125.428 61.3139 125.305C61.0724 125.183 60.7969 125.122 60.4872 125.122C60.1747 125.122 59.8963 125.183 59.652 125.305C59.4077 125.428 59.2145 125.597 59.0724 125.812C58.9332 126.026 58.8651 126.271 58.8679 126.55C58.8651 126.817 58.9304 127.053 59.0639 127.257C59.1974 127.459 59.3849 127.616 59.6264 127.73C59.8707 127.844 60.1577 127.901 60.4872 127.901ZM60.4872 123.925C60.7543 123.925 60.9901 123.871 61.1946 123.763C61.402 123.655 61.5653 123.504 61.6847 123.311C61.804 123.118 61.8651 122.895 61.8679 122.642C61.8651 122.392 61.8054 122.173 61.6889 121.986C61.5724 121.795 61.4105 121.649 61.2031 121.547C60.9957 121.442 60.7571 121.389 60.4872 121.389C60.2116 121.389 59.9688 121.442 59.7585 121.547C59.5511 121.649 59.3892 121.795 59.2727 121.986C59.1591 122.173 59.1037 122.392 59.1065 122.642C59.1037 122.895 59.1605 123.118 59.277 123.311C59.3963 123.501 59.5597 123.652 59.767 123.763C59.9773 123.871 60.2173 123.925 60.4872 123.925ZM66.7013 127.807L66.646 128.276C66.6062 128.634 66.5352 128.997 66.4329 129.366C66.3335 129.739 66.2283 130.081 66.1175 130.393C66.0067 130.706 65.9173 130.952 65.8491 131.131H64.8093C64.8491 130.957 64.9031 130.722 64.9712 130.423C65.0423 130.125 65.1104 129.79 65.1758 129.418C65.2411 129.045 65.2852 128.668 65.3079 128.284L65.3377 127.807H66.7013ZM68.4506 129L72.1623 121.653V121.594H67.854V120.273H73.7987V121.624L70.0913 129H68.4506ZM78.0866 120.153C78.5043 120.156 78.9105 120.23 79.3054 120.375C79.7031 120.517 80.0611 120.75 80.3793 121.074C80.6974 121.395 80.9503 121.825 81.1378 122.365C81.3253 122.905 81.419 123.572 81.419 124.368C81.4219 125.118 81.3423 125.788 81.1804 126.379C81.0213 126.967 80.7926 127.464 80.4943 127.871C80.196 128.277 79.8366 128.587 79.4162 128.8C78.9957 129.013 78.5227 129.119 77.9972 129.119C77.446 129.119 76.9574 129.011 76.5312 128.795C76.108 128.58 75.7656 128.284 75.5043 127.909C75.2429 127.534 75.0824 127.105 75.0227 126.622H76.5781C76.6577 126.969 76.8196 127.244 77.0639 127.449C77.3111 127.651 77.6222 127.751 77.9972 127.751C78.6023 127.751 79.0682 127.489 79.3949 126.963C79.7216 126.437 79.8849 125.707 79.8849 124.773H79.8253C79.6861 125.023 79.5057 125.239 79.2841 125.42C79.0625 125.599 78.8111 125.737 78.5298 125.834C78.2514 125.93 77.956 125.979 77.6435 125.979C77.1321 125.979 76.6719 125.857 76.2628 125.612C75.8565 125.368 75.5341 125.033 75.2955 124.607C75.0597 124.18 74.9403 123.693 74.9375 123.145C74.9375 122.577 75.0682 122.067 75.3295 121.615C75.5938 121.161 75.9616 120.803 76.4332 120.541C76.9048 120.277 77.456 120.148 78.0866 120.153ZM78.0909 121.432C77.7841 121.432 77.5071 121.507 77.2599 121.658C77.0156 121.805 76.8224 122.007 76.6804 122.263C76.5412 122.516 76.4716 122.798 76.4716 123.111C76.4744 123.42 76.544 123.702 76.6804 123.955C76.8196 124.207 77.0085 124.408 77.2472 124.555C77.4886 124.703 77.7642 124.777 78.0739 124.777C78.304 124.777 78.5185 124.733 78.7173 124.645C78.9162 124.557 79.0895 124.435 79.2372 124.278C79.3878 124.119 79.5043 123.939 79.5866 123.737C79.6719 123.536 79.7131 123.322 79.7102 123.098C79.7102 122.8 79.6392 122.524 79.4972 122.271C79.358 122.018 79.1662 121.815 78.9219 121.662C78.6804 121.509 78.4034 121.432 78.0909 121.432ZM85.8722 129.119C85.304 129.119 84.7955 129.013 84.3466 128.8C83.8977 128.584 83.5412 128.288 83.277 127.913C83.0156 127.538 82.8764 127.109 82.8594 126.626H84.3935C84.4219 126.984 84.5767 127.277 84.858 127.504C85.1392 127.729 85.4773 127.841 85.8722 127.841C86.1818 127.841 86.4574 127.77 86.6989 127.628C86.9403 127.486 87.1307 127.288 87.2699 127.036C87.4091 126.783 87.4773 126.494 87.4744 126.17C87.4773 125.841 87.4077 125.548 87.2656 125.293C87.1236 125.037 86.929 124.837 86.6818 124.692C86.4347 124.544 86.1506 124.47 85.8295 124.47C85.5682 124.467 85.3111 124.516 85.0582 124.615C84.8054 124.714 84.6051 124.845 84.4574 125.007L83.0298 124.773L83.4858 120.273H88.5483V121.594H84.794L84.5426 123.908H84.5938C84.7557 123.717 84.9844 123.56 85.2798 123.435C85.5753 123.307 85.8991 123.243 86.2514 123.243C86.7798 123.243 87.2514 123.368 87.6662 123.618C88.081 123.865 88.4077 124.206 88.6463 124.641C88.8849 125.075 89.0043 125.572 89.0043 126.132C89.0043 126.709 88.8707 127.223 88.6037 127.675C88.3395 128.124 87.9716 128.477 87.5 128.736C87.0312 128.991 86.4886 129.119 85.8722 129.119ZM110.397 124.278V124.994H106.767V124.278H110.397ZM111.862 129V128.416L114.713 125.212C115.085 124.791 115.385 124.432 115.612 124.134C115.839 123.835 116.004 123.56 116.107 123.307C116.212 123.054 116.264 122.791 116.264 122.518C116.264 122.186 116.186 121.896 116.03 121.649C115.876 121.399 115.665 121.205 115.395 121.065C115.125 120.926 114.821 120.857 114.483 120.857C114.125 120.857 113.811 120.933 113.541 121.087C113.274 121.24 113.067 121.45 112.919 121.717C112.771 121.984 112.697 122.291 112.697 122.638H111.935C111.935 122.155 112.045 121.727 112.267 121.355C112.491 120.98 112.797 120.686 113.183 120.473C113.572 120.26 114.013 120.153 114.504 120.153C114.99 120.153 115.422 120.259 115.8 120.469C116.178 120.676 116.474 120.959 116.69 121.317C116.906 121.675 117.014 122.075 117.014 122.518C117.014 122.839 116.957 123.151 116.844 123.452C116.733 123.753 116.541 124.088 116.268 124.457C115.996 124.827 115.618 125.278 115.135 125.812L112.97 128.229V128.284H117.287V129H111.862ZM119.821 129.064C119.654 129.064 119.509 129.004 119.387 128.885C119.267 128.763 119.208 128.618 119.208 128.45C119.208 128.28 119.267 128.135 119.387 128.016C119.509 127.896 119.654 127.837 119.821 127.837C119.992 127.837 120.137 127.896 120.256 128.016C120.375 128.135 120.435 128.28 120.435 128.45C120.435 128.561 120.407 128.663 120.35 128.757C120.296 128.851 120.222 128.926 120.128 128.983C120.037 129.037 119.935 129.064 119.821 129.064ZM124.891 129.119C124.354 129.119 123.874 129.023 123.451 128.83C123.028 128.634 122.692 128.362 122.445 128.016C122.198 127.669 122.067 127.27 122.053 126.818H122.859C122.873 127.136 122.971 127.415 123.153 127.653C123.335 127.889 123.576 128.074 123.877 128.207C124.178 128.338 124.513 128.403 124.883 128.403C125.286 128.403 125.641 128.328 125.948 128.178C126.258 128.027 126.499 127.821 126.673 127.56C126.849 127.295 126.937 126.997 126.937 126.665C126.937 126.312 126.847 126.001 126.668 125.732C126.489 125.462 126.232 125.251 125.897 125.101C125.565 124.95 125.167 124.875 124.704 124.875H124.192V124.159H124.704C125.082 124.159 125.415 124.091 125.705 123.955C125.998 123.815 126.228 123.621 126.396 123.371C126.563 123.121 126.647 122.827 126.647 122.489C126.647 122.168 126.575 121.885 126.43 121.641C126.285 121.396 126.08 121.205 125.816 121.065C125.555 120.926 125.249 120.857 124.9 120.857C124.562 120.857 124.252 120.922 123.971 121.053C123.69 121.183 123.462 121.368 123.289 121.607C123.119 121.845 123.028 122.128 123.016 122.455H122.245C122.256 122 122.381 121.601 122.62 121.257C122.862 120.911 123.181 120.641 123.579 120.447C123.979 120.251 124.423 120.153 124.908 120.153C125.423 120.153 125.867 120.259 126.242 120.469C126.617 120.679 126.907 120.959 127.112 121.308C127.319 121.655 127.423 122.037 127.423 122.455C127.423 122.952 127.288 123.378 127.018 123.733C126.748 124.085 126.384 124.33 125.927 124.466V124.521C126.484 124.632 126.921 124.879 127.239 125.263C127.56 125.643 127.721 126.111 127.721 126.665C127.721 127.131 127.599 127.55 127.354 127.922C127.11 128.291 126.775 128.584 126.349 128.8C125.925 129.013 125.44 129.119 124.891 129.119ZM134.019 127.381V126.984C134.019 126.658 134.085 126.364 134.215 126.102C134.346 125.838 134.532 125.629 134.773 125.476C135.015 125.322 135.302 125.246 135.634 125.246C135.969 125.246 136.256 125.322 136.495 125.476C136.734 125.629 136.917 125.838 137.045 126.102C137.173 126.364 137.237 126.658 137.237 126.984V127.381C137.237 127.707 137.171 128.001 137.04 128.263C136.913 128.524 136.729 128.733 136.491 128.889C136.252 129.043 135.967 129.119 135.634 129.119C135.296 129.119 135.006 129.043 134.765 128.889C134.526 128.733 134.342 128.524 134.211 128.263C134.083 128.001 134.019 127.707 134.019 127.381ZM134.688 126.984V127.381C134.688 127.702 134.766 127.976 134.923 128.203C135.082 128.428 135.319 128.54 135.634 128.54C135.941 128.54 136.173 128.428 136.329 128.203C136.485 127.976 136.563 127.702 136.563 127.381V126.984C136.563 126.663 136.487 126.391 136.333 126.166C136.18 125.939 135.947 125.825 135.634 125.825C135.325 125.825 135.089 125.939 134.927 126.166C134.768 126.391 134.688 126.663 134.688 126.984ZM129.621 122.288V121.892C129.621 121.565 129.687 121.271 129.817 121.01C129.948 120.749 130.134 120.541 130.376 120.388C130.617 120.232 130.904 120.153 131.237 120.153C131.572 120.153 131.859 120.232 132.097 120.388C132.336 120.541 132.519 120.749 132.647 121.01C132.775 121.271 132.839 121.565 132.839 121.892V122.288C132.839 122.615 132.773 122.911 132.643 123.175C132.515 123.436 132.332 123.643 132.093 123.797C131.854 123.95 131.569 124.027 131.237 124.027C130.898 124.027 130.609 123.95 130.367 123.797C130.129 123.643 129.944 123.436 129.813 123.175C129.685 122.911 129.621 122.615 129.621 122.288ZM130.29 121.892V122.288C130.29 122.609 130.369 122.884 130.525 123.111C130.684 123.335 130.921 123.447 131.237 123.447C131.543 123.447 131.775 123.335 131.931 123.111C132.087 122.884 132.165 122.609 132.165 122.288V121.892C132.165 121.571 132.089 121.298 131.935 121.074C131.782 120.847 131.549 120.733 131.237 120.733C130.927 120.733 130.691 120.847 130.529 121.074C130.37 121.298 130.29 121.571 130.29 121.892ZM130.013 129L136.009 120.273H136.763L130.768 129H130.013Z" fill="#FF3B30"/>
<path d="M98.473 117.46V131.812H97.0412V117.46H98.473Z" fill="white"/>
<path d="M245 126.906C256.786 126.906 258.291 111.913 270.077 111.913C281.863 111.913 279.909 100 291.695 100C303.481 100 303.256 116.842 315.042 116.842C326.828 116.842 327.468 125.331 339.254 125.331" stroke="url(#paint1_linear_337_1494)" stroke-opacity="0.1" stroke-width="8.82" stroke-linecap="round"/>
<path d="M245 127.338C256.786 127.338 258.291 112.344 270.077 112.344C281.863 112.344 279.909 100.432 291.695 100.432C303.481 100.432 303.256 117.274 315.042 117.274C326.828 117.274 327.468 125.762 339.254 125.762" stroke="url(#paint2_linear_337_1494)" stroke-width="2.82" stroke-linecap="round"/>
<path d="M24 158V158C25.1046 158 26 158.895 26 160V196C26 197.105 25.1046 198 24 198V198V158Z" fill="white"/>
<path d="M41.9325 173V163.545H48.0817V164.981H43.6452V167.548H47.7631V168.984H43.6452V171.564H48.1186V173H41.9325ZM53.296 165.909V167.202H49.2196V165.909H53.296ZM50.226 164.21H51.8972V170.867C51.8972 171.092 51.931 171.264 51.9988 171.384C52.0695 171.501 52.1619 171.581 52.2757 171.624C52.3896 171.667 52.5158 171.689 52.6543 171.689C52.7589 171.689 52.8543 171.681 52.9405 171.666C53.0298 171.65 53.0975 171.637 53.1436 171.624L53.4252 172.931C53.336 172.962 53.2083 172.995 53.0421 173.032C52.879 173.069 52.6789 173.091 52.4419 173.097C52.0234 173.109 51.6464 173.046 51.3109 172.908C50.9754 172.766 50.7092 172.548 50.5123 172.252C50.3184 171.957 50.223 171.587 50.226 171.144V164.21ZM56.5171 168.845V173H54.846V163.545H56.4802V167.114H56.5633C56.7295 166.714 56.9865 166.398 57.3343 166.168C57.6851 165.934 58.1314 165.817 58.673 165.817C59.1655 165.817 59.5948 165.92 59.961 166.126C60.3273 166.332 60.6104 166.634 60.8105 167.031C61.0136 167.428 61.1151 167.913 61.1151 168.485V173H59.444V168.744C59.444 168.267 59.3209 167.896 59.0747 167.631C58.8315 167.363 58.4899 167.229 58.0498 167.229C57.7544 167.229 57.4897 167.294 57.2558 167.423C57.0249 167.549 56.8434 167.733 56.711 167.973C56.5818 168.213 56.5171 168.504 56.5171 168.845ZM65.9578 173.138C65.2469 173.138 64.6329 172.991 64.1159 172.695C63.6019 172.397 63.2064 171.975 62.9294 171.43C62.6524 170.883 62.5139 170.238 62.5139 169.496C62.5139 168.767 62.6524 168.127 62.9294 167.576C63.2095 167.022 63.6003 166.591 64.102 166.283C64.6037 165.972 65.193 165.817 65.8701 165.817C66.3071 165.817 66.7195 165.888 67.1073 166.029C67.4982 166.168 67.8429 166.383 68.1414 166.675C68.443 166.968 68.68 167.34 68.8524 167.793C69.0247 168.242 69.1109 168.777 69.1109 169.399V169.912H63.2987V168.785H67.509C67.5059 168.465 67.4366 168.18 67.3012 167.931C67.1658 167.679 66.9765 167.48 66.7334 167.336C66.4933 167.191 66.2133 167.119 65.8932 167.119C65.5516 167.119 65.2515 167.202 64.993 167.368C64.7345 167.531 64.5329 167.746 64.3882 168.014C64.2467 168.279 64.1743 168.57 64.1713 168.887V169.87C64.1713 170.282 64.2467 170.636 64.3975 170.932C64.5483 171.224 64.7591 171.449 65.0299 171.606C65.3008 171.76 65.6177 171.837 65.9809 171.837C66.224 171.837 66.4441 171.803 66.6411 171.735C66.838 171.664 67.0088 171.561 67.1535 171.426C67.2981 171.29 67.4074 171.123 67.4813 170.923L69.0416 171.098C68.9432 171.51 68.7554 171.871 68.4784 172.178C68.2045 172.483 67.8537 172.72 67.4259 172.889C66.9981 173.055 66.5087 173.138 65.9578 173.138ZM70.5247 173V165.909H72.1451V167.091H72.2189C72.3482 166.682 72.5698 166.366 72.8837 166.145C73.2007 165.92 73.5623 165.808 73.9686 165.808C74.0609 165.808 74.164 165.812 74.2779 165.821C74.3948 165.828 74.4918 165.838 74.5687 165.854V167.391C74.4979 167.366 74.3856 167.345 74.2317 167.326C74.0809 167.305 73.9347 167.294 73.7931 167.294C73.4885 167.294 73.2145 167.36 72.9714 167.493C72.7314 167.622 72.5421 167.802 72.4036 168.033C72.2651 168.263 72.1958 168.53 72.1958 168.831V173H70.5247ZM78.5262 173.138C77.8153 173.138 77.2013 172.991 76.6842 172.695C76.1702 172.397 75.7748 171.975 75.4978 171.43C75.2208 170.883 75.0823 170.238 75.0823 169.496C75.0823 168.767 75.2208 168.127 75.4978 167.576C75.7778 167.022 76.1687 166.591 76.6704 166.283C77.172 165.972 77.7614 165.817 78.4385 165.817C78.8755 165.817 79.2879 165.888 79.6757 166.029C80.0666 166.168 80.4113 166.383 80.7098 166.675C81.0114 166.968 81.2484 167.34 81.4207 167.793C81.5931 168.242 81.6792 168.777 81.6792 169.399V169.912H75.8671V168.785H80.0773C80.0742 168.465 80.005 168.18 79.8696 167.931C79.7342 167.679 79.5449 167.48 79.3018 167.336C79.0617 167.191 78.7816 167.119 78.4616 167.119C78.1199 167.119 77.8199 167.202 77.5613 167.368C77.3028 167.531 77.1012 167.746 76.9566 168.014C76.815 168.279 76.7427 168.57 76.7396 168.887V169.87C76.7396 170.282 76.815 170.636 76.9658 170.932C77.1166 171.224 77.3274 171.449 77.5983 171.606C77.8691 171.76 78.1861 171.837 78.5493 171.837C78.7924 171.837 79.0125 171.803 79.2094 171.735C79.4064 171.664 79.5772 171.561 79.7219 171.426C79.8665 171.29 79.9758 171.123 80.0496 170.923L81.61 171.098C81.5115 171.51 81.3238 171.871 81.0468 172.178C80.7729 172.483 80.422 172.72 79.9942 172.889C79.5664 173.055 79.0771 173.138 78.5262 173.138ZM87.6126 170.018V165.909H89.2837V173H87.6634V171.74H87.5895C87.4295 172.137 87.1663 172.461 86.8001 172.714C86.4369 172.966 85.9891 173.092 85.4567 173.092C84.992 173.092 84.5811 172.989 84.2241 172.783C83.8701 172.574 83.5932 172.271 83.3931 171.874C83.1931 171.473 83.093 170.99 83.093 170.424V165.909H84.7642V170.165C84.7642 170.615 84.8873 170.972 85.1335 171.237C85.3797 171.501 85.7029 171.634 86.103 171.634C86.3492 171.634 86.5877 171.574 86.8185 171.453C87.0494 171.333 87.2386 171.155 87.3864 170.918C87.5372 170.678 87.6126 170.378 87.6126 170.018ZM91.0022 173V165.909H92.5995V167.114H92.6826C92.8303 166.708 93.075 166.391 93.4166 166.163C93.7583 165.932 94.166 165.817 94.64 165.817C95.1201 165.817 95.5248 165.934 95.8541 166.168C96.1865 166.398 96.4204 166.714 96.5558 167.114H96.6297C96.7867 166.72 97.0513 166.406 97.4237 166.172C97.7992 165.935 98.2439 165.817 98.7579 165.817C99.4104 165.817 99.9428 166.023 100.355 166.435C100.768 166.848 100.974 167.449 100.974 168.24V173H99.298V168.499C99.298 168.059 99.1811 167.737 98.9472 167.534C98.7133 167.328 98.4271 167.225 98.0885 167.225C97.6853 167.225 97.3699 167.351 97.1421 167.603C96.9175 167.853 96.8051 168.177 96.8051 168.577V173H95.1663V168.43C95.1663 168.063 95.0555 167.771 94.8339 167.553C94.6154 167.334 94.3292 167.225 93.9752 167.225C93.7352 167.225 93.5167 167.286 93.3197 167.409C93.1227 167.529 92.9658 167.7 92.8488 167.922C92.7319 168.14 92.6734 168.396 92.6734 168.688V173H91.0022Z" fill="white"/>
<path d="M44.5881 194.091V183.182H45.2869V194.091H44.5881ZM46.6037 186.672C46.5639 186.3 46.3963 186.01 46.1009 185.803C45.8082 185.595 45.4276 185.491 44.9588 185.491C44.6293 185.491 44.3466 185.541 44.1108 185.641C43.875 185.74 43.6946 185.875 43.5696 186.045C43.4446 186.216 43.3807 186.411 43.3778 186.629C43.3778 186.811 43.419 186.969 43.5014 187.102C43.5866 187.236 43.7017 187.349 43.8466 187.443C43.9915 187.534 44.152 187.611 44.3281 187.673C44.5043 187.736 44.6818 187.788 44.8608 187.831L45.679 188.036C46.0085 188.112 46.3253 188.216 46.6293 188.347C46.9361 188.477 47.2102 188.642 47.4517 188.841C47.696 189.04 47.8892 189.28 48.0312 189.561C48.1733 189.842 48.2443 190.172 48.2443 190.55C48.2443 191.061 48.1136 191.511 47.8523 191.901C47.5909 192.287 47.2131 192.589 46.7188 192.808C46.2273 193.024 45.6321 193.132 44.9332 193.132C44.2543 193.132 43.6648 193.027 43.1648 192.817C42.6676 192.607 42.2784 192.3 41.9972 191.896C41.7188 191.493 41.5682 191.001 41.5455 190.422H43.1009C43.1236 190.726 43.2173 190.979 43.3821 191.18C43.5469 191.382 43.7614 191.533 44.0256 191.632C44.2926 191.732 44.5909 191.781 44.9205 191.781C45.2642 191.781 45.5653 191.73 45.8239 191.628C46.0852 191.523 46.2898 191.378 46.4375 191.193C46.5852 191.006 46.6605 190.787 46.6634 190.537C46.6605 190.31 46.5938 190.122 46.4631 189.974C46.3324 189.824 46.1491 189.699 45.9134 189.599C45.6804 189.497 45.4077 189.406 45.0952 189.327L44.1023 189.071C43.3835 188.886 42.8153 188.607 42.3977 188.232C41.983 187.854 41.7756 187.352 41.7756 186.727C41.7756 186.213 41.9148 185.763 42.1932 185.376C42.4744 184.99 42.8565 184.69 43.3395 184.477C43.8224 184.261 44.3693 184.153 44.9801 184.153C45.5994 184.153 46.142 184.261 46.608 184.477C47.0767 184.69 47.4446 184.987 47.7116 185.368C47.9787 185.746 48.1165 186.18 48.125 186.672H46.6037ZM49.5685 193V191.858L52.5984 188.888C52.8881 188.595 53.1296 188.335 53.3228 188.108C53.516 187.881 53.6609 187.661 53.7575 187.447C53.854 187.234 53.9023 187.007 53.9023 186.766C53.9023 186.49 53.8398 186.254 53.7148 186.058C53.5898 185.859 53.418 185.706 53.1992 185.598C52.9805 185.49 52.7319 185.436 52.4535 185.436C52.1665 185.436 51.9151 185.496 51.6992 185.615C51.4833 185.732 51.3157 185.898 51.1964 186.114C51.0799 186.33 51.0217 186.587 51.0217 186.885H49.5174C49.5174 186.331 49.6438 185.849 49.8967 185.44C50.1495 185.031 50.4975 184.714 50.9407 184.49C51.3867 184.266 51.8981 184.153 52.4748 184.153C53.06 184.153 53.5742 184.263 54.0174 184.482C54.4606 184.7 54.8043 185 55.0487 185.381C55.2958 185.761 55.4194 186.196 55.4194 186.685C55.4194 187.011 55.3569 187.332 55.2319 187.648C55.1069 187.963 54.8867 188.312 54.5714 188.696C54.2589 189.08 53.82 189.544 53.2546 190.089L51.7504 191.619V191.679H55.5515V193H49.5685ZM58.8498 191.807L58.7944 192.276C58.7546 192.634 58.6836 192.997 58.5813 193.366C58.4819 193.739 58.3768 194.081 58.266 194.393C58.1552 194.706 58.0657 194.952 57.9975 195.131H56.9577C56.9975 194.957 57.0515 194.722 57.1197 194.423C57.1907 194.125 57.2589 193.79 57.3242 193.418C57.3896 193.045 57.4336 192.668 57.4563 192.284L57.4862 191.807H58.8498ZM63.4616 184.153C63.8793 184.156 64.2855 184.23 64.6804 184.375C65.0781 184.517 65.4361 184.75 65.7543 185.074C66.0724 185.395 66.3253 185.825 66.5128 186.365C66.7003 186.905 66.794 187.572 66.794 188.368C66.7969 189.118 66.7173 189.788 66.5554 190.379C66.3963 190.967 66.1676 191.464 65.8693 191.871C65.571 192.277 65.2116 192.587 64.7912 192.8C64.3707 193.013 63.8977 193.119 63.3722 193.119C62.821 193.119 62.3324 193.011 61.9062 192.795C61.483 192.58 61.1406 192.284 60.8793 191.909C60.6179 191.534 60.4574 191.105 60.3977 190.622H61.9531C62.0327 190.969 62.1946 191.244 62.4389 191.449C62.6861 191.651 62.9972 191.751 63.3722 191.751C63.9773 191.751 64.4432 191.489 64.7699 190.963C65.0966 190.437 65.2599 189.707 65.2599 188.773H65.2003C65.0611 189.023 64.8807 189.239 64.6591 189.42C64.4375 189.599 64.1861 189.737 63.9048 189.834C63.6264 189.93 63.331 189.979 63.0185 189.979C62.5071 189.979 62.0469 189.857 61.6378 189.612C61.2315 189.368 60.9091 189.033 60.6705 188.607C60.4347 188.18 60.3153 187.693 60.3125 187.145C60.3125 186.577 60.4432 186.067 60.7045 185.615C60.9688 185.161 61.3366 184.803 61.8082 184.541C62.2798 184.277 62.831 184.148 63.4616 184.153ZM63.4659 185.432C63.1591 185.432 62.8821 185.507 62.6349 185.658C62.3906 185.805 62.1974 186.007 62.0554 186.263C61.9162 186.516 61.8466 186.798 61.8466 187.111C61.8494 187.42 61.919 187.702 62.0554 187.955C62.1946 188.207 62.3835 188.408 62.6222 188.555C62.8636 188.703 63.1392 188.777 63.4489 188.777C63.679 188.777 63.8935 188.733 64.0923 188.645C64.2912 188.557 64.4645 188.435 64.6122 188.278C64.7628 188.119 64.8793 187.939 64.9616 187.737C65.0469 187.536 65.0881 187.322 65.0852 187.098C65.0852 186.8 65.0142 186.524 64.8722 186.271C64.733 186.018 64.5412 185.815 64.2969 185.662C64.0554 185.509 63.7784 185.432 63.4659 185.432ZM71.3452 193.119C70.7315 193.119 70.1861 193.014 69.7088 192.804C69.2344 192.594 68.8594 192.301 68.5838 191.926C68.3082 191.551 68.1619 191.118 68.1449 190.626H69.7472C69.7614 190.862 69.8395 191.068 69.9815 191.244C70.1236 191.418 70.3125 191.553 70.5483 191.649C70.7841 191.746 71.0483 191.794 71.3409 191.794C71.6534 191.794 71.9304 191.74 72.1719 191.632C72.4134 191.521 72.6023 191.368 72.7386 191.172C72.875 190.976 72.9418 190.75 72.9389 190.494C72.9418 190.23 72.8736 189.997 72.7344 189.795C72.5952 189.594 72.3935 189.436 72.1293 189.322C71.8679 189.209 71.5526 189.152 71.1832 189.152H70.4119V187.933H71.1832C71.4872 187.933 71.7528 187.881 71.9801 187.776C72.2102 187.67 72.3906 187.523 72.5213 187.332C72.652 187.139 72.7159 186.916 72.7131 186.663C72.7159 186.416 72.6605 186.202 72.5469 186.02C72.4361 185.835 72.2784 185.692 72.0739 185.589C71.8722 185.487 71.6349 185.436 71.3622 185.436C71.0952 185.436 70.848 185.484 70.6207 185.581C70.3935 185.678 70.2102 185.815 70.071 185.994C69.9318 186.17 69.858 186.381 69.8494 186.625H68.3281C68.3395 186.136 68.4801 185.707 68.75 185.338C69.0227 184.966 69.3864 184.676 69.8409 184.469C70.2955 184.259 70.8054 184.153 71.3707 184.153C71.9531 184.153 72.4588 184.263 72.8878 184.482C73.3196 184.697 73.6534 184.989 73.8892 185.355C74.125 185.722 74.2429 186.126 74.2429 186.57C74.2457 187.061 74.1009 187.473 73.8082 187.805C73.5185 188.138 73.1378 188.355 72.6662 188.457V188.526C73.2798 188.611 73.75 188.838 74.0767 189.207C74.4063 189.574 74.5696 190.03 74.5668 190.575C74.5668 191.064 74.4276 191.501 74.1491 191.888C73.8736 192.271 73.4929 192.572 73.0071 192.791C72.5241 193.01 71.9702 193.119 71.3452 193.119ZM79.2255 193.119C78.8079 193.116 78.4002 193.044 78.0025 192.902C77.6048 192.757 77.2468 192.523 76.9286 192.199C76.6104 191.872 76.3576 191.439 76.1701 190.899C75.9826 190.357 75.8903 189.685 75.8931 188.884C75.8931 188.136 75.9727 187.47 76.1317 186.885C76.2908 186.3 76.5195 185.805 76.8178 185.402C77.1161 184.996 77.4755 184.686 77.896 184.473C78.3192 184.26 78.7923 184.153 79.315 184.153C79.8633 184.153 80.3491 184.261 80.7724 184.477C81.1985 184.693 81.5423 184.989 81.8036 185.364C82.065 185.736 82.2269 186.156 82.2894 186.625H80.734C80.6545 186.29 80.4911 186.023 80.244 185.824C79.9996 185.622 79.69 185.521 79.315 185.521C78.7099 185.521 78.244 185.784 77.9173 186.31C77.5934 186.835 77.43 187.557 77.4272 188.474H77.4869C77.6261 188.224 77.8065 188.01 78.0281 187.831C78.2496 187.652 78.4996 187.514 78.7781 187.418C79.0593 187.318 79.3562 187.268 79.6687 187.268C80.18 187.268 80.6388 187.391 81.0451 187.635C81.4542 187.879 81.7781 188.216 82.0167 188.645C82.2553 189.071 82.3732 189.56 82.3704 190.111C82.3732 190.685 82.2425 191.2 81.9783 191.658C81.7141 192.112 81.3462 192.47 80.8746 192.732C80.4031 192.993 79.8533 193.122 79.2255 193.119ZM79.217 191.841C79.5266 191.841 79.8036 191.766 80.0479 191.615C80.2923 191.464 80.4854 191.261 80.6275 191.006C80.7695 190.75 80.8391 190.463 80.8363 190.145C80.8391 189.832 80.771 189.55 80.6317 189.297C80.4954 189.044 80.3065 188.844 80.065 188.696C79.8235 188.548 79.5479 188.474 79.2383 188.474C79.0082 188.474 78.7937 188.518 78.5948 188.607C78.396 188.695 78.2227 188.817 78.0749 188.973C77.9272 189.126 77.8107 189.305 77.7255 189.51C77.6431 189.712 77.6005 189.928 77.5977 190.158C77.6005 190.462 77.6715 190.741 77.8107 190.997C77.9499 191.253 78.1417 191.457 78.386 191.611C78.6303 191.764 78.9073 191.841 79.217 191.841ZM102.788 191.347V185.947H103.516V191.347H102.788ZM100.452 189.011V188.283H105.852V189.011H100.452ZM110.74 193.119C110.127 193.119 109.603 192.943 109.168 192.591C108.736 192.236 108.404 191.723 108.171 191.053C107.941 190.382 107.826 189.577 107.826 188.636C107.826 187.699 107.941 186.896 108.171 186.229C108.404 185.558 108.738 185.045 109.172 184.69C109.61 184.332 110.132 184.153 110.74 184.153C111.348 184.153 111.87 184.332 112.304 184.69C112.742 185.045 113.076 185.558 113.306 186.229C113.539 186.896 113.655 187.699 113.655 188.636C113.655 189.577 113.539 190.382 113.306 191.053C113.076 191.723 112.743 192.236 112.309 192.591C111.877 192.943 111.354 193.119 110.74 193.119ZM110.74 192.403C111.414 192.403 111.939 192.075 112.317 191.419C112.695 190.76 112.884 189.832 112.884 188.636C112.884 187.841 112.797 187.162 112.624 186.599C112.453 186.034 112.208 185.602 111.887 185.304C111.569 185.006 111.186 184.857 110.74 184.857C110.073 184.857 109.549 185.189 109.168 185.854C108.787 186.516 108.597 187.443 108.597 188.636C108.597 189.432 108.682 190.111 108.853 190.673C109.026 191.236 109.272 191.665 109.59 191.96C109.911 192.256 110.294 192.403 110.74 192.403ZM115.661 193.064C115.494 193.064 115.349 193.004 115.227 192.885C115.107 192.763 115.048 192.618 115.048 192.45C115.048 192.28 115.107 192.135 115.227 192.016C115.349 191.896 115.494 191.837 115.661 191.837C115.832 191.837 115.977 191.896 116.096 192.016C116.215 192.135 116.275 192.28 116.275 192.45C116.275 192.561 116.246 192.663 116.19 192.757C116.136 192.851 116.062 192.926 115.968 192.983C115.877 193.037 115.775 193.064 115.661 193.064ZM120.731 193.119C120.194 193.119 119.714 193.023 119.291 192.83C118.868 192.634 118.532 192.362 118.285 192.016C118.038 191.669 117.907 191.27 117.893 190.818H118.699C118.713 191.136 118.811 191.415 118.993 191.653C119.174 191.889 119.416 192.074 119.717 192.207C120.018 192.338 120.353 192.403 120.723 192.403C121.126 192.403 121.481 192.328 121.788 192.178C122.098 192.027 122.339 191.821 122.512 191.56C122.689 191.295 122.777 190.997 122.777 190.665C122.777 190.312 122.687 190.001 122.508 189.732C122.329 189.462 122.072 189.251 121.737 189.101C121.404 188.95 121.007 188.875 120.544 188.875H120.032V188.159H120.544C120.922 188.159 121.255 188.091 121.545 187.955C121.838 187.815 122.068 187.621 122.235 187.371C122.403 187.121 122.487 186.827 122.487 186.489C122.487 186.168 122.414 185.885 122.27 185.641C122.125 185.396 121.92 185.205 121.656 185.065C121.395 184.926 121.089 184.857 120.74 184.857C120.402 184.857 120.092 184.922 119.811 185.053C119.529 185.183 119.302 185.368 119.129 185.607C118.958 185.845 118.868 186.128 118.856 186.455H118.085C118.096 186 118.221 185.601 118.46 185.257C118.701 184.911 119.021 184.641 119.419 184.447C119.819 184.251 120.262 184.153 120.748 184.153C121.262 184.153 121.707 184.259 122.082 184.469C122.457 184.679 122.747 184.959 122.951 185.308C123.159 185.655 123.262 186.037 123.262 186.455C123.262 186.952 123.127 187.378 122.858 187.733C122.588 188.085 122.224 188.33 121.767 188.466V188.521C122.324 188.632 122.761 188.879 123.079 189.263C123.4 189.643 123.561 190.111 123.561 190.665C123.561 191.131 123.439 191.55 123.194 191.922C122.95 192.291 122.615 192.584 122.189 192.8C121.765 193.013 121.279 193.119 120.731 193.119ZM129.859 191.381V190.984C129.859 190.658 129.924 190.364 130.055 190.102C130.186 189.838 130.372 189.629 130.613 189.476C130.855 189.322 131.142 189.246 131.474 189.246C131.809 189.246 132.096 189.322 132.335 189.476C132.574 189.629 132.757 189.838 132.885 190.102C133.012 190.364 133.076 190.658 133.076 190.984V191.381C133.076 191.707 133.011 192.001 132.88 192.263C132.752 192.524 132.569 192.733 132.331 192.889C132.092 193.043 131.806 193.119 131.474 193.119C131.136 193.119 130.846 193.043 130.605 192.889C130.366 192.733 130.181 192.524 130.051 192.263C129.923 192.001 129.859 191.707 129.859 191.381ZM130.528 190.984V191.381C130.528 191.702 130.606 191.976 130.762 192.203C130.922 192.428 131.159 192.54 131.474 192.54C131.781 192.54 132.012 192.428 132.169 192.203C132.325 191.976 132.403 191.702 132.403 191.381V190.984C132.403 190.663 132.326 190.391 132.173 190.166C132.02 189.939 131.787 189.825 131.474 189.825C131.164 189.825 130.929 189.939 130.767 190.166C130.608 190.391 130.528 190.663 130.528 190.984ZM125.461 186.288V185.892C125.461 185.565 125.527 185.271 125.657 185.01C125.788 184.749 125.974 184.541 126.216 184.388C126.457 184.232 126.744 184.153 127.076 184.153C127.412 184.153 127.699 184.232 127.937 184.388C128.176 184.541 128.359 184.749 128.487 185.01C128.615 185.271 128.679 185.565 128.679 185.892V186.288C128.679 186.615 128.613 186.911 128.483 187.175C128.355 187.436 128.172 187.643 127.933 187.797C127.694 187.95 127.409 188.027 127.076 188.027C126.738 188.027 126.449 187.95 126.207 187.797C125.968 187.643 125.784 187.436 125.653 187.175C125.525 186.911 125.461 186.615 125.461 186.288ZM126.13 185.892V186.288C126.13 186.609 126.208 186.884 126.365 187.111C126.524 187.335 126.761 187.447 127.076 187.447C127.383 187.447 127.615 187.335 127.771 187.111C127.927 186.884 128.005 186.609 128.005 186.288V185.892C128.005 185.571 127.929 185.298 127.775 185.074C127.622 184.847 127.389 184.733 127.076 184.733C126.767 184.733 126.531 184.847 126.369 185.074C126.21 185.298 126.13 185.571 126.13 185.892ZM125.853 193L131.849 184.273H132.603L126.608 193H125.853Z" fill="#34C759"/>
<path d="M91.8519 181.46V195.812H90.4201V181.46H91.8519Z" fill="white"/>
<path d="M245 164.432C256.786 164.432 258.291 179.425 270.077 179.425C281.863 179.425 279.909 191.338 291.695 191.338C303.481 191.338 303.256 174.496 315.042 174.496C326.828 174.496 327.468 166.007 339.254 166.007" stroke="url(#paint3_linear_337_1494)" stroke-opacity="0.1" stroke-width="8.82" stroke-linecap="round"/>
<path d="M245 164C256.786 164 258.291 178.994 270.077 178.994C281.863 178.994 279.909 190.906 291.695 190.906C303.481 190.906 303.256 174.064 315.042 174.064C326.828 174.064 327.468 165.575 339.254 165.575" stroke="url(#paint4_linear_337_1494)" stroke-width="2.82" stroke-linecap="round"/>
<rect width="320" height="64" transform="translate(24 210)" fill="url(#paint5_linear_337_1494)"/>
<path d="M24 222V222C25.1046 222 26 222.895 26 224V260C26 261.105 25.1046 262 24 262V262V222Z" fill="white"/>
<path d="M50.0252 230.735H48.2987C48.2494 230.452 48.1586 230.201 48.0263 229.983C47.8939 229.761 47.7293 229.574 47.5323 229.42C47.3353 229.266 47.1107 229.15 46.8583 229.074C46.609 228.993 46.3397 228.953 46.0504 228.953C45.5365 228.953 45.081 229.083 44.6839 229.341C44.2869 229.597 43.9761 229.972 43.7514 230.468C43.5268 230.96 43.4144 231.562 43.4144 232.273C43.4144 232.996 43.5268 233.605 43.7514 234.101C43.9792 234.593 44.29 234.966 44.6839 235.218C45.081 235.467 45.5349 235.592 46.0458 235.592C46.329 235.592 46.5936 235.555 46.8398 235.481C47.0891 235.404 47.3123 235.292 47.5092 235.144C47.7093 234.996 47.877 234.815 48.0124 234.599C48.1509 234.384 48.2463 234.138 48.2987 233.861L50.0252 233.87C49.9606 234.319 49.8205 234.741 49.6051 235.135C49.3928 235.529 49.1142 235.877 48.7695 236.178C48.4248 236.477 48.0217 236.711 47.56 236.88C47.0984 237.046 46.5859 237.129 46.0227 237.129C45.1918 237.129 44.45 236.937 43.7976 236.552C43.1451 236.167 42.6312 235.612 42.2557 234.886C41.8802 234.159 41.6925 233.288 41.6925 232.273C41.6925 231.254 41.8817 230.383 42.2603 229.66C42.6388 228.933 43.1544 228.378 43.8068 227.993C44.4593 227.609 45.1979 227.416 46.0227 227.416C46.549 227.416 47.0384 227.49 47.4908 227.638C47.9432 227.786 48.3464 228.002 48.7003 228.289C49.0542 228.572 49.3451 228.92 49.5728 229.332C49.8036 229.741 49.9544 230.209 50.0252 230.735ZM53.5603 237.143C53.1109 237.143 52.7062 237.063 52.3461 236.903C51.9891 236.74 51.706 236.5 51.4967 236.183C51.2905 235.866 51.1874 235.475 51.1874 235.01C51.1874 234.61 51.2613 234.279 51.409 234.018C51.5567 233.756 51.7583 233.547 52.0138 233.39C52.2692 233.233 52.557 233.114 52.877 233.034C53.2002 232.951 53.5341 232.891 53.8788 232.854C54.2943 232.811 54.6313 232.773 54.8898 232.739C55.1483 232.702 55.3361 232.647 55.453 232.573C55.5731 232.496 55.6331 232.377 55.6331 232.217V232.19C55.6331 231.842 55.53 231.573 55.3238 231.382C55.1176 231.191 54.8206 231.096 54.4328 231.096C54.0235 231.096 53.6988 231.185 53.4587 231.363C53.2217 231.542 53.0617 231.753 52.9786 231.996L51.4182 231.774C51.5413 231.343 51.7445 230.983 52.0276 230.694C52.3108 230.402 52.657 230.183 53.0663 230.038C53.4756 229.891 53.9281 229.817 54.4236 229.817C54.7652 229.817 55.1053 229.857 55.4438 229.937C55.7823 230.017 56.0916 230.149 56.3717 230.334C56.6518 230.515 56.8765 230.763 57.0457 231.077C57.2181 231.391 57.3042 231.783 57.3042 232.254V237H55.6977V236.026H55.6423C55.5407 236.223 55.3976 236.408 55.213 236.58C55.0314 236.749 54.8021 236.886 54.5251 236.991C54.2512 237.092 53.9296 237.143 53.5603 237.143ZM53.9942 235.915C54.3297 235.915 54.6205 235.849 54.8667 235.717C55.113 235.581 55.3022 235.403 55.4346 235.181C55.57 234.96 55.6377 234.718 55.6377 234.456V233.621C55.5854 233.664 55.4961 233.704 55.3699 233.741C55.2468 233.778 55.1083 233.81 54.9545 233.838C54.8006 233.865 54.6482 233.89 54.4974 233.912C54.3466 233.933 54.2158 233.952 54.105 233.967C53.8557 234.001 53.6326 234.056 53.4356 234.133C53.2387 234.21 53.0832 234.318 52.9694 234.456C52.8555 234.592 52.7986 234.767 52.7986 234.983C52.7986 235.29 52.9109 235.523 53.1356 235.68C53.3602 235.837 53.6465 235.915 53.9942 235.915ZM58.9846 237V229.909H60.605V231.091H60.6789C60.8081 230.682 61.0297 230.366 61.3437 230.145C61.6607 229.92 62.0223 229.808 62.4285 229.808C62.5209 229.808 62.624 229.812 62.7378 229.821C62.8548 229.828 62.9517 229.838 63.0287 229.854V231.391C62.9579 231.366 62.8456 231.345 62.6917 231.326C62.5409 231.305 62.3947 231.294 62.2531 231.294C61.9484 231.294 61.6745 231.36 61.4314 231.493C61.1913 231.622 61.002 231.802 60.8635 232.033C60.7251 232.263 60.6558 232.53 60.6558 232.831V237H58.9846ZM66.4783 237.125C65.9213 237.125 65.4227 236.982 64.9826 236.695C64.5425 236.409 64.1947 235.994 63.9393 235.449C63.6838 234.904 63.5561 234.242 63.5561 233.464C63.5561 232.676 63.6854 232.011 63.9439 231.469C64.2055 230.925 64.5579 230.514 65.0011 230.237C65.4442 229.957 65.9382 229.817 66.483 229.817C66.8984 229.817 67.2401 229.888 67.5078 230.029C67.7756 230.168 67.9879 230.335 68.1449 230.532C68.3018 230.726 68.4234 230.909 68.5096 231.082H68.5788V227.545H70.2546V237H68.6112V235.883H68.5096C68.4234 236.055 68.2988 236.238 68.1357 236.432C67.9725 236.623 67.7571 236.786 67.4893 236.922C67.2216 237.057 66.8846 237.125 66.4783 237.125ZM66.9446 235.754C67.2985 235.754 67.6001 235.658 67.8494 235.467C68.0987 235.273 68.288 235.004 68.4173 234.659C68.5465 234.315 68.6112 233.913 68.6112 233.455C68.6112 232.996 68.5465 232.597 68.4173 232.259C68.2911 231.92 68.1033 231.657 67.854 231.469C67.6078 231.282 67.3047 231.188 66.9446 231.188C66.5722 231.188 66.2614 231.285 66.0121 231.479C65.7628 231.673 65.575 231.94 65.4489 232.282C65.3227 232.624 65.2596 233.014 65.2596 233.455C65.2596 233.898 65.3227 234.293 65.4489 234.641C65.5781 234.986 65.7674 235.258 66.0167 235.458C66.2691 235.655 66.5784 235.754 66.9446 235.754ZM74.0759 237.143C73.6266 237.143 73.2219 237.063 72.8618 236.903C72.5048 236.74 72.2216 236.5 72.0123 236.183C71.8061 235.866 71.703 235.475 71.703 235.01C71.703 234.61 71.7769 234.279 71.9246 234.018C72.0724 233.756 72.2739 233.547 72.5294 233.39C72.7848 233.233 73.0726 233.114 73.3927 233.034C73.7158 232.951 74.0497 232.891 74.3944 232.854C74.8099 232.811 75.1469 232.773 75.4055 232.739C75.664 232.702 75.8517 232.647 75.9687 232.573C76.0887 232.496 76.1487 232.377 76.1487 232.217V232.19C76.1487 231.842 76.0456 231.573 75.8394 231.382C75.6332 231.191 75.3362 231.096 74.9484 231.096C74.5391 231.096 74.2144 231.185 73.9743 231.363C73.7374 231.542 73.5773 231.753 73.4942 231.996L71.9339 231.774C72.057 231.343 72.2601 230.983 72.5432 230.694C72.8264 230.402 73.1726 230.183 73.5819 230.038C73.9913 229.891 74.4437 229.817 74.9392 229.817C75.2808 229.817 75.6209 229.857 75.9594 229.937C76.298 230.017 76.6073 230.149 76.8873 230.334C77.1674 230.515 77.3921 230.763 77.5613 231.077C77.7337 231.391 77.8199 231.783 77.8199 232.254V237H76.2133V236.026H76.1579C76.0564 236.223 75.9133 236.408 75.7286 236.58C75.547 236.749 75.3177 236.886 75.0407 236.991C74.7668 237.092 74.4452 237.143 74.0759 237.143ZM74.5099 235.915C74.8453 235.915 75.1362 235.849 75.3824 235.717C75.6286 235.581 75.8179 235.403 75.9502 235.181C76.0856 234.96 76.1533 234.718 76.1533 234.456V233.621C76.101 233.664 76.0117 233.704 75.8856 233.741C75.7625 233.778 75.624 233.81 75.4701 233.838C75.3162 233.865 75.1639 233.89 75.0131 233.912C74.8622 233.933 74.7314 233.952 74.6206 233.967C74.3714 234.001 74.1482 234.056 73.9513 234.133C73.7543 234.21 73.5989 234.318 73.485 234.456C73.3711 234.592 73.3142 234.767 73.3142 234.983C73.3142 235.29 73.4265 235.523 73.6512 235.68C73.8759 235.837 74.1621 235.915 74.5099 235.915ZM81.1714 232.845V237H79.5003V229.909H81.0976V231.114H81.1807C81.3438 230.717 81.6038 230.402 81.9608 230.168C82.3209 229.934 82.7657 229.817 83.295 229.817C83.7844 229.817 84.2106 229.921 84.5738 230.131C84.94 230.34 85.2232 230.643 85.4232 231.04C85.6263 231.437 85.7264 231.919 85.7233 232.485V237H84.0521V232.744C84.0521 232.27 83.929 231.899 83.6828 231.631C83.4397 231.363 83.1027 231.229 82.6718 231.229C82.3794 231.229 82.1193 231.294 81.8916 231.423C81.6669 231.549 81.49 231.733 81.3607 231.973C81.2345 232.213 81.1714 232.504 81.1714 232.845ZM90.5152 237.138C89.8227 237.138 89.2226 236.986 88.7148 236.681C88.2069 236.377 87.813 235.951 87.5329 235.403C87.2559 234.855 87.1175 234.215 87.1175 233.482C87.1175 232.75 87.2559 232.108 87.5329 231.557C87.813 231.006 88.2069 230.578 88.7148 230.274C89.2226 229.969 89.8227 229.817 90.5152 229.817C91.2077 229.817 91.8078 229.969 92.3156 230.274C92.8234 230.578 93.2158 231.006 93.4928 231.557C93.7729 232.108 93.9129 232.75 93.9129 233.482C93.9129 234.215 93.7729 234.855 93.4928 235.403C93.2158 235.951 92.8234 236.377 92.3156 236.681C91.8078 236.986 91.2077 237.138 90.5152 237.138ZM90.5244 235.8C90.8999 235.8 91.2138 235.697 91.4662 235.49C91.7185 235.281 91.9063 235.001 92.0294 234.65C92.1556 234.299 92.2187 233.908 92.2187 233.478C92.2187 233.044 92.1556 232.651 92.0294 232.3C91.9063 231.946 91.7185 231.665 91.4662 231.456C91.2138 231.246 90.8999 231.142 90.5244 231.142C90.1397 231.142 89.8196 231.246 89.5642 231.456C89.3118 231.665 89.1225 231.946 88.9964 232.3C88.8733 232.651 88.8117 233.044 88.8117 233.478C88.8117 233.908 88.8733 234.299 88.9964 234.65C89.1225 235.001 89.3118 235.281 89.5642 235.49C89.8196 235.697 90.1397 235.8 90.5244 235.8Z" fill="white"/>
<path d="M44.5881 258.091V247.182H45.2869V258.091H44.5881ZM46.6037 250.672C46.5639 250.3 46.3963 250.01 46.1009 249.803C45.8082 249.595 45.4276 249.491 44.9588 249.491C44.6293 249.491 44.3466 249.541 44.1108 249.641C43.875 249.74 43.6946 249.875 43.5696 250.045C43.4446 250.216 43.3807 250.411 43.3778 250.629C43.3778 250.811 43.419 250.969 43.5014 251.102C43.5866 251.236 43.7017 251.349 43.8466 251.443C43.9915 251.534 44.152 251.611 44.3281 251.673C44.5043 251.736 44.6818 251.788 44.8608 251.831L45.679 252.036C46.0085 252.112 46.3253 252.216 46.6293 252.347C46.9361 252.477 47.2102 252.642 47.4517 252.841C47.696 253.04 47.8892 253.28 48.0312 253.561C48.1733 253.842 48.2443 254.172 48.2443 254.55C48.2443 255.061 48.1136 255.511 47.8523 255.901C47.5909 256.287 47.2131 256.589 46.7188 256.808C46.2273 257.024 45.6321 257.132 44.9332 257.132C44.2543 257.132 43.6648 257.027 43.1648 256.817C42.6676 256.607 42.2784 256.3 41.9972 255.896C41.7188 255.493 41.5682 255.001 41.5455 254.422H43.1009C43.1236 254.726 43.2173 254.979 43.3821 255.18C43.5469 255.382 43.7614 255.533 44.0256 255.632C44.2926 255.732 44.5909 255.781 44.9205 255.781C45.2642 255.781 45.5653 255.73 45.8239 255.628C46.0852 255.523 46.2898 255.378 46.4375 255.193C46.5852 255.006 46.6605 254.787 46.6634 254.537C46.6605 254.31 46.5938 254.122 46.4631 253.974C46.3324 253.824 46.1491 253.699 45.9134 253.599C45.6804 253.497 45.4077 253.406 45.0952 253.327L44.1023 253.071C43.3835 252.886 42.8153 252.607 42.3977 252.232C41.983 251.854 41.7756 251.352 41.7756 250.727C41.7756 250.213 41.9148 249.763 42.1932 249.376C42.4744 248.99 42.8565 248.69 43.3395 248.477C43.8224 248.261 44.3693 248.153 44.9801 248.153C45.5994 248.153 46.142 248.261 46.608 248.477C47.0767 248.69 47.4446 248.987 47.7116 249.368C47.9787 249.746 48.1165 250.18 48.125 250.672H46.6037ZM53.1183 248.273V257H51.5373V249.811H51.4862L49.445 251.115V249.666L51.614 248.273H53.1183ZM55.821 257.094C55.5625 257.094 55.3409 257.003 55.1562 256.821C54.9716 256.639 54.8807 256.418 54.8835 256.156C54.8807 255.901 54.9716 255.682 55.1562 255.5C55.3409 255.318 55.5625 255.227 55.821 255.227C56.071 255.227 56.2884 255.318 56.473 255.5C56.6605 255.682 56.7557 255.901 56.7585 256.156C56.7557 256.33 56.7102 256.487 56.6222 256.629C56.5369 256.771 56.4233 256.885 56.2812 256.97C56.142 257.053 55.9886 257.094 55.821 257.094ZM61.2202 257.166C60.5185 257.166 59.9162 256.989 59.4134 256.634C58.9134 256.276 58.5284 255.76 58.2585 255.087C57.9915 254.411 57.858 253.597 57.858 252.645C57.8608 251.693 57.9957 250.884 58.2628 250.216C58.5327 249.545 58.9176 249.034 59.4176 248.682C59.9205 248.33 60.5213 248.153 61.2202 248.153C61.919 248.153 62.5199 248.33 63.0227 248.682C63.5256 249.034 63.9105 249.545 64.1776 250.216C64.4474 250.886 64.5824 251.696 64.5824 252.645C64.5824 253.599 64.4474 254.415 64.1776 255.091C63.9105 255.764 63.5256 256.278 63.0227 256.634C62.5227 256.989 61.9219 257.166 61.2202 257.166ZM61.2202 255.832C61.7656 255.832 62.196 255.564 62.5114 255.027C62.8295 254.487 62.9886 253.693 62.9886 252.645C62.9886 251.952 62.9162 251.369 62.7713 250.898C62.6264 250.426 62.4219 250.071 62.1577 249.832C61.8935 249.591 61.581 249.47 61.2202 249.47C60.6776 249.47 60.2486 249.74 59.9332 250.28C59.6179 250.817 59.4588 251.605 59.456 252.645C59.4531 253.341 59.5227 253.926 59.6648 254.401C59.8097 254.875 60.0142 255.233 60.2784 255.474C60.5426 255.713 60.8565 255.832 61.2202 255.832ZM69.5479 248.273V257H67.967V249.811H67.9158L65.8746 251.115V249.666L68.0437 248.273H69.5479ZM90.7408 255.347V249.947H91.4695V255.347H90.7408ZM88.4055 253.011V252.283H93.8047V253.011H88.4055ZM95.5732 257V256.416L98.424 253.212C98.7962 252.791 99.0959 252.432 99.3232 252.134C99.5504 251.835 99.7152 251.56 99.8175 251.307C99.9226 251.054 99.9751 250.791 99.9751 250.518C99.9751 250.186 99.897 249.896 99.7408 249.649C99.5874 249.399 99.3757 249.205 99.1058 249.065C98.8359 248.926 98.532 248.857 98.1939 248.857C97.8359 248.857 97.522 248.933 97.2521 249.087C96.9851 249.24 96.7777 249.45 96.63 249.717C96.4822 249.984 96.4084 250.291 96.4084 250.638H95.6456C95.6456 250.155 95.7564 249.727 95.978 249.355C96.2024 248.98 96.5078 248.686 96.8942 248.473C97.2834 248.26 97.7237 248.153 98.2152 248.153C98.701 248.153 99.1328 248.259 99.5107 248.469C99.8885 248.676 100.185 248.959 100.401 249.317C100.617 249.675 100.725 250.075 100.725 250.518C100.725 250.839 100.668 251.151 100.555 251.452C100.444 251.753 100.252 252.088 99.9794 252.457C99.7067 252.827 99.3288 253.278 98.8459 253.812L96.6811 256.229V256.284H100.998V257H95.5732ZM103.532 257.064C103.365 257.064 103.22 257.004 103.098 256.885C102.978 256.763 102.919 256.618 102.919 256.45C102.919 256.28 102.978 256.135 103.098 256.016C103.22 255.896 103.365 255.837 103.532 255.837C103.703 255.837 103.848 255.896 103.967 256.016C104.086 256.135 104.146 256.28 104.146 256.45C104.146 256.561 104.118 256.663 104.061 256.757C104.007 256.851 103.933 256.926 103.839 256.983C103.748 257.037 103.646 257.064 103.532 257.064ZM107.794 248.273V257H106.997V249.108H106.946L104.9 250.467V249.641L106.963 248.273H107.794ZM110.444 257V256.416L113.295 253.212C113.667 252.791 113.967 252.432 114.194 252.134C114.422 251.835 114.586 251.56 114.689 251.307C114.794 251.054 114.846 250.791 114.846 250.518C114.846 250.186 114.768 249.896 114.612 249.649C114.458 249.399 114.247 249.205 113.977 249.065C113.707 248.926 113.403 248.857 113.065 248.857C112.707 248.857 112.393 248.933 112.123 249.087C111.856 249.24 111.649 249.45 111.501 249.717C111.353 249.984 111.279 250.291 111.279 250.638H110.517C110.517 250.155 110.627 249.727 110.849 249.355C111.074 248.98 111.379 248.686 111.765 248.473C112.154 248.26 112.595 248.153 113.086 248.153C113.572 248.153 114.004 248.259 114.382 248.469C114.76 248.676 115.056 248.959 115.272 249.317C115.488 249.675 115.596 250.075 115.596 250.518C115.596 250.839 115.539 251.151 115.426 251.452C115.315 251.753 115.123 252.088 114.85 252.457C114.578 252.827 114.2 253.278 113.717 253.812L111.552 256.229V256.284H115.869V257H110.444ZM122.183 255.381V254.984C122.183 254.658 122.249 254.364 122.379 254.102C122.51 253.838 122.696 253.629 122.938 253.476C123.179 253.322 123.466 253.246 123.798 253.246C124.134 253.246 124.42 253.322 124.659 253.476C124.898 253.629 125.081 253.838 125.209 254.102C125.337 254.364 125.401 254.658 125.401 254.984V255.381C125.401 255.707 125.335 256.001 125.205 256.263C125.077 256.524 124.893 256.733 124.655 256.889C124.416 257.043 124.131 257.119 123.798 257.119C123.46 257.119 123.17 257.043 122.929 256.889C122.69 256.733 122.506 256.524 122.375 256.263C122.247 256.001 122.183 255.707 122.183 255.381ZM122.852 254.984V255.381C122.852 255.702 122.93 255.976 123.087 256.203C123.246 256.428 123.483 256.54 123.798 256.54C124.105 256.54 124.337 256.428 124.493 256.203C124.649 255.976 124.727 255.702 124.727 255.381V254.984C124.727 254.663 124.651 254.391 124.497 254.166C124.344 253.939 124.111 253.825 123.798 253.825C123.489 253.825 123.253 253.939 123.091 254.166C122.932 254.391 122.852 254.663 122.852 254.984ZM117.786 250.288V249.892C117.786 249.565 117.851 249.271 117.982 249.01C118.112 248.749 118.298 248.541 118.54 248.388C118.781 248.232 119.068 248.153 119.401 248.153C119.736 248.153 120.023 248.232 120.261 248.388C120.5 248.541 120.683 248.749 120.811 249.01C120.939 249.271 121.003 249.565 121.003 249.892V250.288C121.003 250.615 120.938 250.911 120.807 251.175C120.679 251.436 120.496 251.643 120.257 251.797C120.018 251.95 119.733 252.027 119.401 252.027C119.063 252.027 118.773 251.95 118.531 251.797C118.293 251.643 118.108 251.436 117.977 251.175C117.849 250.911 117.786 250.615 117.786 250.288ZM118.455 249.892V250.288C118.455 250.609 118.533 250.884 118.689 251.111C118.848 251.335 119.085 251.447 119.401 251.447C119.707 251.447 119.939 251.335 120.095 251.111C120.251 250.884 120.33 250.609 120.33 250.288V249.892C120.33 249.571 120.253 249.298 120.099 249.074C119.946 248.847 119.713 248.733 119.401 248.733C119.091 248.733 118.855 248.847 118.693 249.074C118.534 249.298 118.455 249.571 118.455 249.892ZM118.178 257L124.173 248.273H124.928L118.932 257H118.178Z" fill="#34C759"/>
<path d="M79.805 245.46V259.812H78.3732V245.46H79.805Z" fill="white"/>
<path d="M245 228.432C256.786 228.432 258.291 243.425 270.077 243.425C281.863 243.425 279.909 255.338 291.695 255.338C303.481 255.338 303.256 238.496 315.042 238.496C326.828 238.496 327.468 230.007 339.254 230.007" stroke="url(#paint6_linear_337_1494)" stroke-opacity="0.1" stroke-width="8.82" stroke-linecap="round"/>
<path d="M245 228C256.786 228 258.291 242.994 270.077 242.994C281.863 242.994 279.909 254.906 291.695 254.906C303.481 254.906 303.256 238.064 315.042 238.064C326.828 238.064 327.468 229.575 339.254 229.575" stroke="url(#paint7_linear_337_1494)" stroke-width="2.82" stroke-linecap="round"/>
<path d="M24 286V286C25.1046 286 26 286.895 26 288V324C26 325.105 25.1046 326 24 326V326V286Z" fill="white"/>
<path d="M41.9325 301V291.545H45.5518C46.2351 291.545 46.8029 291.653 47.2553 291.869C47.7108 292.081 48.0509 292.372 48.2756 292.741C48.5033 293.11 48.6172 293.529 48.6172 293.997C48.6172 294.382 48.5433 294.711 48.3956 294.985C48.2479 295.256 48.0494 295.476 47.8001 295.645C47.5508 295.814 47.2723 295.936 46.9645 296.01V296.102C47.3 296.12 47.6216 296.223 47.9293 296.411C48.2402 296.596 48.4941 296.857 48.6911 297.196C48.888 297.535 48.9865 297.944 48.9865 298.424C48.9865 298.913 48.868 299.353 48.631 299.744C48.3941 300.132 48.0371 300.438 47.56 300.663C47.083 300.888 46.4828 301 45.7596 301H41.9325ZM43.6452 299.569H45.4872C46.1089 299.569 46.5567 299.45 46.8306 299.213C47.1076 298.973 47.2461 298.666 47.2461 298.29C47.2461 298.01 47.1768 297.758 47.0384 297.533C46.8999 297.305 46.7029 297.127 46.4474 296.998C46.192 296.865 45.8873 296.799 45.5334 296.799H43.6452V299.569ZM43.6452 295.566H45.3395C45.6349 295.566 45.9012 295.513 46.1381 295.405C46.3751 295.294 46.5613 295.139 46.6967 294.939C46.8352 294.735 46.9045 294.495 46.9045 294.218C46.9045 293.852 46.7752 293.551 46.5167 293.314C46.2612 293.077 45.8812 292.958 45.3764 292.958H43.6452V295.566ZM50.4026 301V293.909H52.0738V301H50.4026ZM51.2428 292.903C50.9781 292.903 50.7504 292.815 50.5596 292.64C50.3688 292.461 50.2733 292.247 50.2733 291.998C50.2733 291.746 50.3688 291.532 50.5596 291.356C50.7504 291.178 50.9781 291.088 51.2428 291.088C51.5106 291.088 51.7383 291.178 51.926 291.356C52.1169 291.532 52.2123 291.746 52.2123 291.998C52.2123 292.247 52.1169 292.461 51.926 292.64C51.7383 292.815 51.5106 292.903 51.2428 292.903ZM55.4634 296.845V301H53.7923V293.909H55.3896V295.114H55.4727C55.6358 294.717 55.8958 294.402 56.2528 294.168C56.6129 293.934 57.0576 293.817 57.587 293.817C58.0763 293.817 58.5026 293.921 58.8658 294.131C59.232 294.34 59.5152 294.643 59.7152 295.04C59.9183 295.437 60.0183 295.919 60.0153 296.485V301H58.3441V296.744C58.3441 296.27 58.221 295.899 57.9748 295.631C57.7317 295.363 57.3946 295.229 56.9638 295.229C56.6714 295.229 56.4113 295.294 56.1836 295.423C55.9589 295.549 55.782 295.733 55.6527 295.973C55.5265 296.213 55.4634 296.504 55.4634 296.845ZM63.7546 301.143C63.3053 301.143 62.9006 301.063 62.5405 300.903C62.1835 300.74 61.9003 300.5 61.6911 300.183C61.4848 299.866 61.3817 299.475 61.3817 299.01C61.3817 298.61 61.4556 298.279 61.6033 298.018C61.7511 297.756 61.9527 297.547 62.2081 297.39C62.4635 297.233 62.7513 297.114 63.0714 297.034C63.3945 296.951 63.7285 296.891 64.0732 296.854C64.4886 296.811 64.8256 296.773 65.0842 296.739C65.3427 296.702 65.5304 296.647 65.6474 296.573C65.7674 296.496 65.8274 296.377 65.8274 296.217V296.19C65.8274 295.842 65.7243 295.573 65.5181 295.382C65.3119 295.191 65.0149 295.096 64.6271 295.096C64.2178 295.096 63.8931 295.185 63.6531 295.363C63.4161 295.542 63.256 295.753 63.1729 295.996L61.6126 295.774C61.7357 295.343 61.9388 294.983 62.2219 294.694C62.5051 294.402 62.8513 294.183 63.2607 294.038C63.67 293.891 64.1224 293.817 64.6179 293.817C64.9595 293.817 65.2996 293.857 65.6381 293.937C65.9767 294.017 66.286 294.149 66.5661 294.334C66.8461 294.515 67.0708 294.763 67.2401 295.077C67.4124 295.391 67.4986 295.783 67.4986 296.254V301H65.892V300.026H65.8366C65.7351 300.223 65.592 300.408 65.4073 300.58C65.2257 300.749 64.9964 300.886 64.7195 300.991C64.4455 301.092 64.1239 301.143 63.7546 301.143ZM64.1886 299.915C64.524 299.915 64.8149 299.849 65.0611 299.717C65.3073 299.581 65.4966 299.403 65.6289 299.181C65.7643 298.96 65.832 298.718 65.832 298.456V297.621C65.7797 297.664 65.6905 297.704 65.5643 297.741C65.4412 297.778 65.3027 297.81 65.1488 297.838C64.9949 297.865 64.8426 297.89 64.6918 297.912C64.541 297.933 64.4102 297.952 64.2994 297.967C64.0501 298.001 63.8269 298.056 63.63 298.133C63.433 298.21 63.2776 298.318 63.1637 298.456C63.0498 298.592 62.9929 298.767 62.9929 298.983C62.9929 299.29 63.1052 299.523 63.3299 299.68C63.5546 299.837 63.8408 299.915 64.1886 299.915ZM70.8501 296.845V301H69.179V293.909H70.7763V295.114H70.8594C71.0225 294.717 71.2826 294.402 71.6396 294.168C71.9996 293.934 72.4444 293.817 72.9737 293.817C73.4631 293.817 73.8893 293.921 74.2525 294.131C74.6187 294.34 74.9019 294.643 75.1019 295.04C75.305 295.437 75.4051 295.919 75.402 296.485V301H73.7308V296.744C73.7308 296.27 73.6077 295.899 73.3615 295.631C73.1184 295.363 72.7814 295.229 72.3505 295.229C72.0581 295.229 71.7981 295.294 71.5703 295.423C71.3456 295.549 71.1687 295.733 71.0394 295.973C70.9132 296.213 70.8501 296.504 70.8501 296.845ZM80.1939 301.138C79.486 301.138 78.8782 300.983 78.3704 300.672C77.8656 300.361 77.4763 299.932 77.2024 299.384C76.9316 298.833 76.7962 298.199 76.7962 297.482C76.7962 296.762 76.9347 296.127 77.2116 295.576C77.4886 295.022 77.8795 294.591 78.3842 294.283C78.892 293.972 79.4922 293.817 80.1847 293.817C80.7602 293.817 81.2695 293.923 81.7127 294.135C82.159 294.345 82.5144 294.642 82.7791 295.026C83.0438 295.408 83.1946 295.854 83.2315 296.365H81.6342C81.5696 296.023 81.4157 295.739 81.1726 295.511C80.9325 295.28 80.6109 295.165 80.2077 295.165C79.8661 295.165 79.5661 295.257 79.3075 295.442C79.049 295.623 78.8474 295.885 78.7028 296.227C78.5612 296.568 78.4904 296.978 78.4904 297.455C78.4904 297.938 78.5612 298.353 78.7028 298.701C78.8443 299.046 79.0429 299.312 79.2983 299.5C79.5568 299.684 79.86 299.777 80.2077 299.777C80.454 299.777 80.674 299.73 80.8679 299.638C81.0649 299.543 81.2295 299.406 81.3619 299.227C81.4942 299.049 81.585 298.832 81.6342 298.576H83.2315C83.1915 299.078 83.0438 299.523 82.7884 299.911C82.5329 300.295 82.1851 300.597 81.745 300.815C81.3049 301.031 80.7879 301.138 80.1939 301.138ZM87.743 301.138C87.032 301.138 86.4181 300.991 85.901 300.695C85.387 300.397 84.9916 299.975 84.7146 299.43C84.4376 298.883 84.2991 298.238 84.2991 297.496C84.2991 296.767 84.4376 296.127 84.7146 295.576C84.9946 295.022 85.3855 294.591 85.8872 294.283C86.3888 293.972 86.9782 293.817 87.6553 293.817C88.0923 293.817 88.5047 293.888 88.8925 294.029C89.2834 294.168 89.628 294.383 89.9266 294.675C90.2282 294.968 90.4652 295.34 90.6375 295.793C90.8099 296.242 90.896 296.777 90.896 297.399V297.912H85.0839V296.785H89.2941C89.291 296.465 89.2218 296.18 89.0864 295.931C88.951 295.679 88.7617 295.48 88.5186 295.336C88.2785 295.191 87.9984 295.119 87.6784 295.119C87.3367 295.119 87.0367 295.202 86.7781 295.368C86.5196 295.531 86.318 295.746 86.1734 296.014C86.0318 296.279 85.9595 296.57 85.9564 296.887V297.87C85.9564 298.282 86.0318 298.636 86.1826 298.932C86.3334 299.224 86.5442 299.449 86.8151 299.606C87.0859 299.76 87.4029 299.837 87.7661 299.837C88.0092 299.837 88.2293 299.803 88.4262 299.735C88.6232 299.664 88.794 299.561 88.9387 299.426C89.0833 299.29 89.1926 299.123 89.2664 298.923L90.8268 299.098C90.7283 299.51 90.5406 299.871 90.2636 300.178C89.9897 300.483 89.6388 300.72 89.211 300.889C88.7832 301.055 88.2939 301.138 87.743 301.138Z" fill="white"/>
<path d="M44.5881 322.091V311.182H45.2869V322.091H44.5881ZM46.6037 314.672C46.5639 314.3 46.3963 314.01 46.1009 313.803C45.8082 313.595 45.4276 313.491 44.9588 313.491C44.6293 313.491 44.3466 313.541 44.1108 313.641C43.875 313.74 43.6946 313.875 43.5696 314.045C43.4446 314.216 43.3807 314.411 43.3778 314.629C43.3778 314.811 43.419 314.969 43.5014 315.102C43.5866 315.236 43.7017 315.349 43.8466 315.443C43.9915 315.534 44.152 315.611 44.3281 315.673C44.5043 315.736 44.6818 315.788 44.8608 315.831L45.679 316.036C46.0085 316.112 46.3253 316.216 46.6293 316.347C46.9361 316.477 47.2102 316.642 47.4517 316.841C47.696 317.04 47.8892 317.28 48.0312 317.561C48.1733 317.842 48.2443 318.172 48.2443 318.55C48.2443 319.061 48.1136 319.511 47.8523 319.901C47.5909 320.287 47.2131 320.589 46.7188 320.808C46.2273 321.024 45.6321 321.132 44.9332 321.132C44.2543 321.132 43.6648 321.027 43.1648 320.817C42.6676 320.607 42.2784 320.3 41.9972 319.896C41.7188 319.493 41.5682 319.001 41.5455 318.422H43.1009C43.1236 318.726 43.2173 318.979 43.3821 319.18C43.5469 319.382 43.7614 319.533 44.0256 319.632C44.2926 319.732 44.5909 319.781 44.9205 319.781C45.2642 319.781 45.5653 319.73 45.8239 319.628C46.0852 319.523 46.2898 319.378 46.4375 319.193C46.5852 319.006 46.6605 318.787 46.6634 318.537C46.6605 318.31 46.5938 318.122 46.4631 317.974C46.3324 317.824 46.1491 317.699 45.9134 317.599C45.6804 317.497 45.4077 317.406 45.0952 317.327L44.1023 317.071C43.3835 316.886 42.8153 316.607 42.3977 316.232C41.983 315.854 41.7756 315.352 41.7756 314.727C41.7756 314.213 41.9148 313.763 42.1932 313.376C42.4744 312.99 42.8565 312.69 43.3395 312.477C43.8224 312.261 44.3693 312.153 44.9801 312.153C45.5994 312.153 46.142 312.261 46.608 312.477C47.0767 312.69 47.4446 312.987 47.7116 313.368C47.9787 313.746 48.1165 314.18 48.125 314.672H46.6037ZM52.7006 321.119C52.087 321.119 51.5415 321.014 51.0643 320.804C50.5898 320.594 50.2148 320.301 49.9393 319.926C49.6637 319.551 49.5174 319.118 49.5004 318.626H51.1026C51.1168 318.862 51.195 319.068 51.337 319.244C51.479 319.418 51.668 319.553 51.9038 319.649C52.1396 319.746 52.4038 319.794 52.6964 319.794C53.0089 319.794 53.2859 319.74 53.5273 319.632C53.7688 319.521 53.9577 319.368 54.0941 319.172C54.2305 318.976 54.2972 318.75 54.2944 318.494C54.2972 318.23 54.229 317.997 54.0898 317.795C53.9506 317.594 53.7489 317.436 53.4847 317.322C53.2234 317.209 52.908 317.152 52.5387 317.152H51.7674V315.933H52.5387C52.8427 315.933 53.1083 315.881 53.3356 315.776C53.5657 315.67 53.7461 315.523 53.8768 315.332C54.0075 315.139 54.0714 314.916 54.0685 314.663C54.0714 314.416 54.016 314.202 53.9023 314.02C53.7915 313.835 53.6339 313.692 53.4293 313.589C53.2276 313.487 52.9904 313.436 52.7177 313.436C52.4506 313.436 52.2035 313.484 51.9762 313.581C51.7489 313.678 51.5657 313.815 51.4265 313.994C51.2873 314.17 51.2134 314.381 51.2049 314.625H49.6836C49.695 314.136 49.8356 313.707 50.1055 313.338C50.3782 312.966 50.7418 312.676 51.1964 312.469C51.6509 312.259 52.1609 312.153 52.7262 312.153C53.3086 312.153 53.8143 312.263 54.2433 312.482C54.6751 312.697 55.0089 312.989 55.2447 313.355C55.4805 313.722 55.5984 314.126 55.5984 314.57C55.6012 315.061 55.4563 315.473 55.1637 315.805C54.8739 316.138 54.4933 316.355 54.0217 316.457V316.526C54.6353 316.611 55.1055 316.838 55.4322 317.207C55.7617 317.574 55.9251 318.03 55.9222 318.575C55.9222 319.064 55.783 319.501 55.5046 319.888C55.229 320.271 54.8484 320.572 54.3626 320.791C53.8796 321.01 53.3256 321.119 52.7006 321.119ZM57.7045 321L61.4162 313.653V313.594H57.108V312.273H63.0526V313.624L59.3452 321H57.7045ZM67.9776 312.273V321H66.3967V313.811H66.3455L64.3043 315.115V313.666L66.4734 312.273H67.9776ZM70.6804 321.094C70.4219 321.094 70.2003 321.003 70.0156 320.821C69.831 320.639 69.7401 320.418 69.7429 320.156C69.7401 319.901 69.831 319.682 70.0156 319.5C70.2003 319.318 70.4219 319.227 70.6804 319.227C70.9304 319.227 71.1477 319.318 71.3324 319.5C71.5199 319.682 71.6151 319.901 71.6179 320.156C71.6151 320.33 71.5696 320.487 71.4815 320.629C71.3963 320.771 71.2827 320.885 71.1406 320.97C71.0014 321.053 70.848 321.094 70.6804 321.094ZM73.1935 321V319.858L76.2234 316.888C76.5131 316.595 76.7546 316.335 76.9478 316.108C77.141 315.881 77.2859 315.661 77.3825 315.447C77.479 315.234 77.5273 315.007 77.5273 314.766C77.5273 314.49 77.4648 314.254 77.3398 314.058C77.2148 313.859 77.043 313.706 76.8242 313.598C76.6055 313.49 76.3569 313.436 76.0785 313.436C75.7915 313.436 75.5401 313.496 75.3242 313.615C75.1083 313.732 74.9407 313.898 74.8214 314.114C74.7049 314.33 74.6467 314.587 74.6467 314.885H73.1424C73.1424 314.331 73.2688 313.849 73.5217 313.44C73.7745 313.031 74.1225 312.714 74.5657 312.49C75.0117 312.266 75.5231 312.153 76.0998 312.153C76.685 312.153 77.1992 312.263 77.6424 312.482C78.0856 312.7 78.4293 313 78.6737 313.381C78.9208 313.761 79.0444 314.196 79.0444 314.685C79.0444 315.011 78.9819 315.332 78.8569 315.648C78.7319 315.963 78.5117 316.312 78.1964 316.696C77.8839 317.08 77.445 317.544 76.8796 318.089L75.3754 319.619V319.679H79.1765V321H73.1935ZM83.6808 321.119C83.1126 321.119 82.604 321.013 82.1552 320.8C81.7063 320.584 81.3498 320.288 81.0856 319.913C80.8242 319.538 80.685 319.109 80.668 318.626H82.2021C82.2305 318.984 82.3853 319.277 82.6665 319.504C82.9478 319.729 83.2859 319.841 83.6808 319.841C83.9904 319.841 84.266 319.77 84.5075 319.628C84.7489 319.486 84.9393 319.288 85.0785 319.036C85.2177 318.783 85.2859 318.494 85.283 318.17C85.2859 317.841 85.2163 317.548 85.0742 317.293C84.9322 317.037 84.7376 316.837 84.4904 316.692C84.2433 316.544 83.9592 316.47 83.6381 316.47C83.3768 316.467 83.1197 316.516 82.8668 316.615C82.614 316.714 82.4137 316.845 82.266 317.007L80.8384 316.773L81.2944 312.273H86.3569V313.594H82.6026L82.3512 315.908H82.4023C82.5643 315.717 82.793 315.56 83.0884 315.435C83.3839 315.307 83.7077 315.243 84.06 315.243C84.5884 315.243 85.06 315.368 85.4748 315.618C85.8896 315.865 86.2163 316.206 86.4549 316.641C86.6935 317.075 86.8129 317.572 86.8129 318.132C86.8129 318.709 86.6793 319.223 86.4123 319.675C86.1481 320.124 85.7802 320.477 85.3086 320.736C84.8398 320.991 84.2972 321.119 83.6808 321.119ZM108.206 316.278V316.994H104.575V316.278H108.206ZM112.774 312.273V321H111.977V313.108H111.926L109.881 314.467V313.641L111.943 312.273H112.774ZM115.544 321.064C115.376 321.064 115.232 321.004 115.109 320.885C114.99 320.763 114.93 320.618 114.93 320.45C114.93 320.28 114.99 320.135 115.109 320.016C115.232 319.896 115.376 319.837 115.544 319.837C115.714 319.837 115.859 319.896 115.979 320.016C116.098 320.135 116.158 320.28 116.158 320.45C116.158 320.561 116.129 320.663 116.072 320.757C116.018 320.851 115.945 320.926 115.851 320.983C115.76 321.037 115.658 321.064 115.544 321.064ZM119.805 312.273V321H119.009V313.108H118.957L116.912 314.467V313.641L118.974 312.273H119.805ZM125.153 321.119C124.597 321.119 124.101 321.014 123.666 320.804C123.232 320.594 122.891 320.307 122.643 319.943C122.396 319.577 122.273 319.163 122.273 318.703C122.273 318.342 122.348 318.006 122.499 317.693C122.649 317.378 122.857 317.114 123.121 316.901C123.385 316.685 123.682 316.544 124.011 316.479V316.432C123.582 316.307 123.237 316.061 122.976 315.695C122.714 315.325 122.585 314.906 122.588 314.438C122.585 314.003 122.696 313.614 122.92 313.27C123.145 312.926 123.45 312.655 123.837 312.456C124.226 312.254 124.665 312.153 125.153 312.153C125.639 312.153 126.075 312.254 126.462 312.456C126.848 312.655 127.153 312.926 127.378 313.27C127.605 313.614 127.72 314.003 127.723 314.438C127.72 314.903 127.588 315.322 127.327 315.695C127.065 316.064 126.722 316.31 126.295 316.432V316.479C126.625 316.541 126.92 316.68 127.182 316.896C127.443 317.112 127.651 317.378 127.804 317.693C127.957 318.006 128.034 318.342 128.034 318.703C128.034 319.163 127.909 319.577 127.659 319.943C127.412 320.307 127.071 320.594 126.636 320.804C126.205 321.014 125.71 321.119 125.153 321.119ZM125.153 320.403C125.568 320.403 125.932 320.33 126.244 320.182C126.56 320.031 126.805 319.825 126.982 319.564C127.161 319.303 127.25 319.003 127.25 318.665C127.25 318.315 127.158 318.004 126.973 317.732C126.788 317.456 126.538 317.239 126.223 317.08C125.908 316.918 125.551 316.837 125.153 316.837C124.756 316.837 124.398 316.918 124.08 317.08C123.764 317.239 123.514 317.456 123.33 317.732C123.148 318.004 123.057 318.315 123.057 318.665C123.057 319.003 123.143 319.303 123.317 319.564C123.493 319.825 123.739 320.031 124.054 320.182C124.372 320.33 124.739 320.403 125.153 320.403ZM125.153 316.155C125.494 316.155 125.8 316.082 126.07 315.938C126.339 315.793 126.553 315.595 126.709 315.345C126.868 315.092 126.949 314.805 126.952 314.484C126.949 314.166 126.869 313.885 126.713 313.641C126.557 313.393 126.344 313.202 126.074 313.065C125.807 312.926 125.5 312.857 125.153 312.857C124.807 312.857 124.497 312.926 124.224 313.065C123.955 313.202 123.741 313.393 123.585 313.641C123.432 313.885 123.357 314.166 123.359 314.484C123.357 314.805 123.433 315.092 123.589 315.345C123.749 315.595 123.963 315.793 124.233 315.938C124.506 316.082 124.813 316.155 125.153 316.155ZM134.218 319.381V318.984C134.218 318.658 134.284 318.364 134.414 318.102C134.545 317.838 134.731 317.629 134.973 317.476C135.214 317.322 135.501 317.246 135.833 317.246C136.169 317.246 136.456 317.322 136.694 317.476C136.933 317.629 137.116 317.838 137.244 318.102C137.372 318.364 137.436 318.658 137.436 318.984V319.381C137.436 319.707 137.37 320.001 137.24 320.263C137.112 320.524 136.929 320.733 136.69 320.889C136.451 321.043 136.166 321.119 135.833 321.119C135.495 321.119 135.206 321.043 134.964 320.889C134.725 320.733 134.541 320.524 134.41 320.263C134.282 320.001 134.218 319.707 134.218 319.381ZM134.887 318.984V319.381C134.887 319.702 134.966 319.976 135.122 320.203C135.281 320.428 135.518 320.54 135.833 320.54C136.14 320.54 136.372 320.428 136.528 320.203C136.684 319.976 136.762 319.702 136.762 319.381V318.984C136.762 318.663 136.686 318.391 136.532 318.166C136.379 317.939 136.146 317.825 135.833 317.825C135.524 317.825 135.288 317.939 135.126 318.166C134.967 318.391 134.887 318.663 134.887 318.984ZM129.821 314.288V313.892C129.821 313.565 129.886 313.271 130.017 313.01C130.147 312.749 130.333 312.541 130.575 312.388C130.816 312.232 131.103 312.153 131.436 312.153C131.771 312.153 132.058 312.232 132.297 312.388C132.535 312.541 132.718 312.749 132.846 313.01C132.974 313.271 133.038 313.565 133.038 313.892V314.288C133.038 314.615 132.973 314.911 132.842 315.175C132.714 315.436 132.531 315.643 132.292 315.797C132.054 315.95 131.768 316.027 131.436 316.027C131.098 316.027 130.808 315.95 130.566 315.797C130.328 315.643 130.143 315.436 130.012 315.175C129.885 314.911 129.821 314.615 129.821 314.288ZM130.49 313.892V314.288C130.49 314.609 130.568 314.884 130.724 315.111C130.883 315.335 131.12 315.447 131.436 315.447C131.743 315.447 131.974 315.335 132.13 315.111C132.287 314.884 132.365 314.609 132.365 314.288V313.892C132.365 313.571 132.288 313.298 132.135 313.074C131.981 312.847 131.748 312.733 131.436 312.733C131.126 312.733 130.89 312.847 130.728 313.074C130.569 313.298 130.49 313.571 130.49 313.892ZM130.213 321L136.208 312.273H136.963L130.967 321H130.213Z" fill="#FF3B30"/>
<path d="M96.2816 309.46V323.812H94.8498V309.46H96.2816Z" fill="white"/>
<path d="M245 318.906C256.786 318.906 258.291 303.913 270.077 303.913C281.863 303.913 279.909 292 291.695 292C303.481 292 303.256 308.842 315.042 308.842C326.828 308.842 327.468 317.331 339.254 317.331" stroke="url(#paint8_linear_337_1494)" stroke-opacity="0.1" stroke-width="8.82" stroke-linecap="round"/>
<path d="M245 319.338C256.786 319.338 258.291 304.344 270.077 304.344C281.863 304.344 279.909 292.432 291.695 292.432C303.481 292.432 303.256 309.274 315.042 309.274C326.828 309.274 327.468 317.762 339.254 317.762" stroke="url(#paint9_linear_337_1494)" stroke-width="2.82" stroke-linecap="round"/>
</g>
<defs>
<filter id="filter0_bdd_337_1494" x="-396" y="-400" width="1160" height="1163" filterUnits="userSpaceOnUse" color-interpolation-filters="sRGB">
<feFlood flood-opacity="0" result="BackgroundImageFix"/>
<feGaussianBlur in="BackgroundImageFix" stdDeviation="200"/>
<feComposite in2="SourceAlpha" operator="in" result="effect1_backgroundBlur_337_1494"/>
<feColorMatrix in="SourceAlpha" type="matrix" values="0 0 0 0 0 0 0 0 0 0 0 0 0 0 0 0 0 0 127 0" result="hardAlpha"/>
<feOffset dy="4"/>
<feGaussianBlur stdDeviation="2"/>
<feComposite in2="hardAlpha" operator="out"/>
<feColorMatrix type="matrix" values="0 0 0 0 0 0 0 0 0 0 0 0 0 0 0 0 0 0 0.25 0"/>
<feBlend mode="normal" in2="effect1_backgroundBlur_337_1494" result="effect2_dropShadow_337_1494"/>
<feColorMatrix in="SourceAlpha" type="matrix" values="0 0 0 0 0 0 0 0 0 0 0 0 0 0 0 0 0 0 127 0" result="hardAlpha"/>
<feOffset dy="4"/>
<feGaussianBlur stdDeviation="2"/>
<feComposite in2="hardAlpha" operator="out"/>
<feColorMatrix type="matrix" values="0 0 0 0 0 0 0 0 0 0 0 0 0 0 0 0 0 0 0.25 0"/>
<feBlend mode="normal" in2="effect2_dropShadow_337_1494" result="effect3_dropShadow_337_1494"/>
<feBlend mode="normal" in="SourceGraphic" in2="effect3_dropShadow_337_1494" result="shape"/>
</filter>
<linearGradient id="paint0_linear_337_1494" x1="184" y1="0" x2="184" y2="363" gradientUnits="userSpaceOnUse">
<stop stop-color="#181B23"/>
<stop offset="1" stop-color="#181B23" stop-opacity="0"/>
</linearGradient>
<linearGradient id="paint1_linear_337_1494" x1="327.168" y1="111.534" x2="251.028" y2="113.636" gradientUnits="userSpaceOnUse">
<stop stop-color="#EF7C89"/>
<stop offset="1" stop-color="#C99100" stop-opacity="0"/>
</linearGradient>
<linearGradient id="paint2_linear_337_1494" x1="339.254" y1="110.392" x2="242.965" y2="112.58" gradientUnits="userSpaceOnUse">
<stop stop-color="#FF5F50"/>
<stop offset="0.53125" stop-color="#F866C6"/>
<stop offset="1" stop-color="white" stop-opacity="0"/>
</linearGradient>
<linearGradient id="paint3_linear_337_1494" x1="327.168" y1="179.804" x2="251.028" y2="177.701" gradientUnits="userSpaceOnUse">
<stop stop-color="#48D277"/>
<stop offset="1" stop-color="#00BDC9" stop-opacity="0"/>
</linearGradient>
<linearGradient id="paint4_linear_337_1494" x1="339.254" y1="180.946" x2="242.965" y2="178.758" gradientUnits="userSpaceOnUse">
<stop stop-color="#48D277"/>
<stop offset="0.53125" stop-color="#66F8EF"/>
<stop offset="1" stop-color="white" stop-opacity="0"/>
</linearGradient>
<linearGradient id="paint5_linear_337_1494" x1="160" y1="0" x2="160" y2="64" gradientUnits="userSpaceOnUse">
<stop stop-color="#181B23"/>
<stop stop-color="#181B23" stop-opacity="0"/>
</linearGradient>
<linearGradient id="paint6_linear_337_1494" x1="327.168" y1="243.804" x2="251.028" y2="241.701" gradientUnits="userSpaceOnUse">
<stop stop-color="#48D277"/>
<stop offset="1" stop-color="#00BDC9" stop-opacity="0"/>
</linearGradient>
<linearGradient id="paint7_linear_337_1494" x1="339.254" y1="244.946" x2="242.965" y2="242.758" gradientUnits="userSpaceOnUse">
<stop stop-color="#48D277"/>
<stop offset="0.53125" stop-color="#66F8EF"/>
<stop offset="1" stop-color="white" stop-opacity="0"/>
</linearGradient>
<linearGradient id="paint8_linear_337_1494" x1="327.168" y1="303.534" x2="251.028" y2="305.636" gradientUnits="userSpaceOnUse">
<stop stop-color="#EF7C89"/>
<stop offset="1" stop-color="#C99100" stop-opacity="0"/>
</linearGradient>
<linearGradient id="paint9_linear_337_1494" x1="339.254" y1="302.392" x2="242.965" y2="304.58" gradientUnits="userSpaceOnUse">
<stop stop-color="#FF5F50"/>
<stop offset="0.53125" stop-color="#F866C6"/>
<stop offset="1" stop-color="white" stop-opacity="0"/>
</linearGradient>
</defs>
</svg>
