<svg width="275" height="104" viewBox="0 0 275 104" fill="none" xmlns="http://www.w3.org/2000/svg">
<g filter="url(#filter0_bdd_337_1539)">
<rect x="4" width="267" height="95.2456" rx="11.7105" fill="url(#paint0_linear_337_1539)" shape-rendering="crispEdges"/>
<g clip-path="url(#clip0_337_1539)">
<path d="M20.342 33.4211V26.04H23.1676C23.7011 26.04 24.1444 26.1241 24.4976 26.2922C24.8532 26.458 25.1187 26.6851 25.2941 26.9734C25.4719 27.2617 25.5608 27.5885 25.5608 27.9537C25.5608 28.2541 25.5031 28.5112 25.3878 28.725C25.2724 28.9365 25.1175 29.1082 24.9228 29.2404C24.7282 29.3725 24.5108 29.4675 24.2705 29.5251V29.5972C24.5324 29.6116 24.7835 29.6921 25.0238 29.8387C25.2664 29.9828 25.4647 30.1871 25.6184 30.4514C25.7722 30.7157 25.8491 31.0352 25.8491 31.4101C25.8491 31.7921 25.7566 32.1357 25.5716 32.4408C25.3866 32.7436 25.1079 32.9826 24.7354 33.158C24.363 33.3334 23.8945 33.4211 23.3298 33.4211H20.342ZM21.6792 32.3039H23.1172C23.6025 32.3039 23.9521 32.2114 24.166 32.0264C24.3822 31.8389 24.4904 31.5987 24.4904 31.3055C24.4904 31.0869 24.4363 30.8899 24.3282 30.7145C24.22 30.5367 24.0663 30.3973 23.8668 30.2964C23.6674 30.1931 23.4295 30.1414 23.1532 30.1414H21.6792V32.3039ZM21.6792 29.1791H23.0019C23.2325 29.1791 23.4404 29.1371 23.6254 29.053C23.8104 28.9665 23.9557 28.8451 24.0615 28.689C24.1696 28.5304 24.2236 28.343 24.2236 28.1267C24.2236 27.8408 24.1227 27.6053 23.9209 27.4203C23.7215 27.2353 23.4247 27.1428 23.0307 27.1428H21.6792V29.1791ZM26.9546 33.4211V27.8853H28.2593V33.4211H26.9546ZM27.6106 27.0996C27.404 27.0996 27.2262 27.0311 27.0772 26.8941C26.9282 26.7548 26.8537 26.5878 26.8537 26.3932C26.8537 26.1961 26.9282 26.0291 27.0772 25.8922C27.2262 25.7528 27.404 25.6832 27.6106 25.6832C27.8196 25.6832 27.9974 25.7528 28.144 25.8922C28.293 26.0291 28.3675 26.1961 28.3675 26.3932C28.3675 26.5878 28.293 26.7548 28.144 26.8941C27.9974 27.0311 27.8196 27.0996 27.6106 27.0996ZM32.3653 27.8853V28.8944H29.1829V27.8853H32.3653ZM29.9686 26.559H31.2733V31.7561C31.2733 31.9315 31.2997 32.066 31.3525 32.1597C31.4078 32.251 31.4799 32.3135 31.5688 32.3471C31.6577 32.3808 31.7562 32.3976 31.8643 32.3976C31.946 32.3976 32.0205 32.3916 32.0878 32.3796C32.1575 32.3675 32.2103 32.3567 32.2464 32.3471L32.4662 33.3671C32.3965 33.3911 32.2968 33.4175 32.1671 33.4464C32.0397 33.4752 31.8835 33.492 31.6985 33.4968C31.3718 33.5064 31.0774 33.4572 30.8155 33.3491C30.5536 33.2385 30.3458 33.0679 30.192 32.8373C30.0407 32.6066 29.9662 32.3183 29.9686 31.9723V26.559ZM35.8117 33.5293C35.2591 33.5293 34.7845 33.4079 34.3881 33.1653C33.994 32.9226 33.6901 32.5874 33.4763 32.1597C33.2648 31.7296 33.1591 31.2347 33.1591 30.6748C33.1591 30.1126 33.2672 29.6164 33.4835 29.1863C33.6997 28.7538 34.0049 28.4175 34.3989 28.1772C34.7954 27.9345 35.2639 27.8132 35.8045 27.8132C36.2538 27.8132 36.6515 27.8961 36.9975 28.0619C37.3458 28.2252 37.6234 28.4571 37.83 28.7574C38.0366 29.0554 38.1544 29.4038 38.1832 29.8026H36.9362C36.8857 29.5359 36.7656 29.3137 36.5758 29.1359C36.3884 28.9557 36.1373 28.8656 35.8225 28.8656C35.5558 28.8656 35.3215 28.9377 35.1197 29.0818C34.9179 29.2236 34.7605 29.4278 34.6476 29.6945C34.5371 29.9612 34.4818 30.2808 34.4818 30.6532C34.4818 31.0304 34.5371 31.3548 34.6476 31.6263C34.7581 31.8954 34.9131 32.1032 35.1125 32.2498C35.3143 32.394 35.551 32.4661 35.8225 32.4661C36.0147 32.4661 36.1865 32.43 36.3379 32.3579C36.4917 32.2835 36.6202 32.1765 36.7235 32.0372C36.8269 31.8978 36.8977 31.7284 36.9362 31.529H38.1832C38.152 31.9206 38.0366 32.2678 37.8372 32.5706C37.6378 32.8709 37.3663 33.1064 37.0227 33.277C36.6791 33.4452 36.2754 33.5293 35.8117 33.5293ZM41.6693 33.5293C41.1286 33.5293 40.6601 33.4103 40.2637 33.1725C39.8672 32.9346 39.5597 32.6018 39.341 32.1741C39.1248 31.7464 39.0166 31.2467 39.0166 30.6748C39.0166 30.103 39.1248 29.602 39.341 29.1719C39.5597 28.7418 39.8672 28.4079 40.2637 28.17C40.6601 27.9321 41.1286 27.8132 41.6693 27.8132C42.2099 27.8132 42.6784 27.9321 43.0749 28.17C43.4713 28.4079 43.7776 28.7418 43.9939 29.1719C44.2125 29.602 44.3219 30.103 44.3219 30.6748C44.3219 31.2467 44.2125 31.7464 43.9939 32.1741C43.7776 32.6018 43.4713 32.9346 43.0749 33.1725C42.6784 33.4103 42.2099 33.5293 41.6693 33.5293ZM41.6765 32.4841C41.9696 32.4841 42.2147 32.4036 42.4117 32.2426C42.6087 32.0792 42.7553 31.8606 42.8514 31.5867C42.9499 31.3127 42.9992 31.0076 42.9992 30.6712C42.9992 30.3324 42.9499 30.0261 42.8514 29.7522C42.7553 29.4759 42.6087 29.256 42.4117 29.0926C42.2147 28.9292 41.9696 28.8475 41.6765 28.8475C41.3761 28.8475 41.1262 28.9292 40.9268 29.0926C40.7298 29.256 40.582 29.4759 40.4835 29.7522C40.3874 30.0261 40.3393 30.3324 40.3393 30.6712C40.3393 31.0076 40.3874 31.3127 40.4835 31.5867C40.582 31.8606 40.7298 32.0792 40.9268 32.2426C41.1262 32.4036 41.3761 32.4841 41.6765 32.4841ZM45.4292 33.4211V27.8853H46.7339V33.4211H45.4292ZM46.0852 27.0996C45.8785 27.0996 45.7007 27.0311 45.5518 26.8941C45.4028 26.7548 45.3283 26.5878 45.3283 26.3932C45.3283 26.1961 45.4028 26.0291 45.5518 25.8922C45.7007 25.7528 45.8785 25.6832 46.0852 25.6832C46.2942 25.6832 46.472 25.7528 46.6186 25.8922C46.7675 26.0291 46.842 26.1961 46.842 26.3932C46.842 26.5878 46.7675 26.7548 46.6186 26.8941C46.472 27.0311 46.2942 27.0996 46.0852 27.0996ZM49.3802 30.1775V33.4211H48.0755V27.8853H49.3225V28.8259H49.3874C49.5148 28.516 49.7178 28.2697 49.9965 28.0871C50.2776 27.9045 50.6248 27.8132 51.0381 27.8132C51.4201 27.8132 51.7529 27.8949 52.0364 28.0583C52.3223 28.2216 52.5434 28.4583 52.6996 28.7683C52.8582 29.0782 52.9362 29.4542 52.9338 29.8963V33.4211H51.6292V30.0982C51.6292 29.7281 51.5331 29.4386 51.3408 29.2296C51.151 29.0205 50.8879 28.916 50.5515 28.916C50.3233 28.916 50.1202 28.9665 49.9424 29.0674C49.767 29.1659 49.6289 29.3089 49.528 29.4963C49.4295 29.6837 49.3802 29.9108 49.3802 30.1775Z" fill="white"/>
<path d="M22.4152 49.1764V40.6596H22.9608V49.1764H22.4152ZM23.9888 43.3843C23.9578 43.0938 23.8269 42.8676 23.5963 42.7057C23.3678 42.5437 23.0706 42.4628 22.7047 42.4628C22.4474 42.4628 22.2267 42.5016 22.0426 42.5792C21.8585 42.6569 21.7177 42.7622 21.6201 42.8953C21.5225 43.0284 21.4726 43.1803 21.4704 43.3511C21.4704 43.493 21.5026 43.6161 21.5669 43.7203C21.6334 43.8246 21.7232 43.9133 21.8364 43.9865C21.9495 44.0575 22.0748 44.1173 22.2123 44.1661C22.3498 44.2149 22.4884 44.256 22.6281 44.2892L23.2669 44.4489C23.5242 44.5088 23.7715 44.5898 24.0088 44.6918C24.2483 44.7938 24.4623 44.9224 24.6509 45.0777C24.8416 45.233 24.9924 45.4204 25.1033 45.6399C25.2142 45.8595 25.2697 46.1168 25.2697 46.4118C25.2697 46.811 25.1676 47.1625 24.9636 47.4664C24.7595 47.768 24.4646 48.0042 24.0787 48.175C23.695 48.3436 23.2303 48.4278 22.6847 48.4278C22.1546 48.4278 21.6944 48.3458 21.3041 48.1817C20.9159 48.0175 20.6121 47.778 20.3925 47.4631C20.1751 47.1481 20.0576 46.7644 20.0399 46.312H21.2542C21.2719 46.5493 21.3451 46.7467 21.4737 46.9041C21.6024 47.0616 21.7698 47.1792 21.9761 47.2568C22.1846 47.3344 22.4174 47.3732 22.6747 47.3732C22.9431 47.3732 23.1782 47.3333 23.38 47.2535C23.5841 47.1714 23.7437 47.0583 23.8591 46.9141C23.9744 46.7677 24.0332 46.597 24.0354 46.4018C24.0332 46.2244 23.9811 46.078 23.879 45.9626C23.777 45.8451 23.634 45.7475 23.4499 45.6699C23.268 45.59 23.0551 45.5191 22.8111 45.457L22.036 45.2573C21.4748 45.1132 21.0313 44.8947 20.7052 44.602C20.3814 44.307 20.2195 43.9155 20.2195 43.4276C20.2195 43.0261 20.3282 42.6746 20.5455 42.373C20.7651 42.0713 21.0634 41.8373 21.4405 41.671C21.8175 41.5024 22.2444 41.4182 22.7213 41.4182C23.2048 41.4182 23.6284 41.5024 23.9922 41.671C24.3581 41.8373 24.6453 42.0691 24.8538 42.3663C25.0623 42.6613 25.1699 43.0006 25.1765 43.3843H23.9888ZM28.7487 48.4179C28.2697 48.4179 27.8438 48.3358 27.4712 48.1717C27.1008 48.0075 26.8081 47.7791 26.5929 47.4863C26.3778 47.1936 26.2636 46.8553 26.2503 46.4716H27.5012C27.5122 46.6557 27.5732 46.8165 27.6841 46.954C27.795 47.0893 27.9425 47.1947 28.1266 47.2701C28.3107 47.3455 28.517 47.3832 28.7454 47.3832C28.9894 47.3832 29.2056 47.3411 29.3941 47.2568C29.5827 47.1703 29.7301 47.0505 29.8366 46.8975C29.9431 46.7445 29.9952 46.5681 29.993 46.3685C29.9952 46.1623 29.942 45.9804 29.8333 45.8229C29.7246 45.6654 29.5671 45.5423 29.3609 45.4536C29.1568 45.3649 28.9106 45.3206 28.6223 45.3206H28.0201V44.3691H28.6223C28.8596 44.3691 29.067 44.328 29.2444 44.246C29.4241 44.1639 29.5649 44.0486 29.6669 43.9C29.769 43.7492 29.8189 43.5751 29.8166 43.3777C29.8189 43.1847 29.7756 43.0173 29.6869 42.8753C29.6004 42.7312 29.4773 42.6192 29.3176 42.5393C29.1601 42.4595 28.975 42.4195 28.762 42.4195C28.5535 42.4195 28.3606 42.4572 28.1832 42.5327C28.0057 42.6081 27.8627 42.7156 27.754 42.8554C27.6453 42.9929 27.5877 43.157 27.581 43.3477H26.3933C26.4022 42.9663 26.512 42.6314 26.7227 42.343C26.9356 42.0525 27.2195 41.8263 27.5743 41.6643C27.9292 41.5002 28.3273 41.4182 28.7687 41.4182C29.2234 41.4182 29.6181 41.5035 29.953 41.6743C30.2902 41.8429 30.5508 42.0702 30.7349 42.3563C30.9189 42.6424 31.011 42.9585 31.011 43.3045C31.0132 43.6882 30.9001 44.0098 30.6716 44.2693C30.4454 44.5288 30.1482 44.6984 29.78 44.7783V44.8315C30.2591 44.898 30.6262 45.0755 30.8812 45.3638C31.1385 45.6499 31.266 46.0059 31.2638 46.4317C31.2638 46.8132 31.1551 47.1548 30.9378 47.4564C30.7227 47.7558 30.4255 47.9909 30.0462 48.1617C29.6692 48.3325 29.2367 48.4179 28.7487 48.4179ZM34.8277 48.4179C34.3331 48.4179 33.894 48.3347 33.5103 48.1683C33.1288 48.002 32.8294 47.7747 32.612 47.4863C32.3969 47.1958 32.2904 46.8664 32.2927 46.4983C32.2904 46.2122 32.3525 45.9493 32.479 45.7098C32.6054 45.4703 32.7762 45.2707 32.9913 45.111C33.2086 44.9491 33.4504 44.8459 33.7165 44.8016V44.755C33.3661 44.6774 33.0822 44.4988 32.8649 44.2194C32.6497 43.9377 32.5433 43.6128 32.5455 43.2446C32.5433 42.8942 32.6409 42.5814 32.8383 42.3064C33.0357 42.0314 33.3062 41.8152 33.65 41.6577C33.9938 41.498 34.3864 41.4182 34.8277 41.4182C35.2646 41.4182 35.6539 41.498 35.9954 41.6577C36.3392 41.8152 36.6098 42.0314 36.8072 42.3064C37.0068 42.5814 37.1066 42.8942 37.1066 43.2446C37.1066 43.6128 36.9968 43.9377 36.7773 44.2194C36.5599 44.4988 36.2793 44.6774 35.9356 44.755V44.8016C36.2017 44.8459 36.4412 44.9491 36.6542 45.111C36.8693 45.2707 37.0401 45.4703 37.1665 45.7098C37.2951 45.9493 37.3595 46.2122 37.3595 46.4983C37.3595 46.8664 37.2508 47.1958 37.0334 47.4863C36.8161 47.7747 36.5167 48.002 36.1352 48.1683C35.7559 48.3347 35.3201 48.4179 34.8277 48.4179ZM34.8277 47.4664C35.0828 47.4664 35.3046 47.4231 35.4931 47.3366C35.6816 47.2479 35.828 47.1237 35.9322 46.964C36.0365 46.8043 36.0897 46.6202 36.0919 46.4118C36.0897 46.1944 36.0331 46.0026 35.9223 45.8362C35.8136 45.6677 35.6639 45.5357 35.4731 45.4403C35.2846 45.345 35.0695 45.2973 34.8277 45.2973C34.5837 45.2973 34.3664 45.345 34.1757 45.4403C33.9849 45.5357 33.8341 45.6677 33.7232 45.8362C33.6145 46.0026 33.5613 46.1944 33.5635 46.4118C33.5613 46.6202 33.6123 46.8043 33.7165 46.964C33.8208 47.1215 33.9672 47.2446 34.1557 47.3333C34.3464 47.422 34.5704 47.4664 34.8277 47.4664ZM34.8277 44.3624C35.0362 44.3624 35.2203 44.3203 35.38 44.236C35.5419 44.1517 35.6694 44.0342 35.7626 43.8834C35.8557 43.7325 35.9034 43.5584 35.9056 43.361C35.9034 43.1659 35.8568 42.9951 35.7659 42.8487C35.675 42.7001 35.5485 42.5859 35.3866 42.506C35.2247 42.424 35.0384 42.3829 34.8277 42.3829C34.6126 42.3829 34.423 42.424 34.2588 42.506C34.0969 42.5859 33.9705 42.7001 33.8796 42.8487C33.7908 42.9951 33.7476 43.1659 33.7498 43.361C33.7476 43.5584 33.792 43.7325 33.8829 43.8834C33.976 44.032 34.1036 44.1495 34.2655 44.236C34.4296 44.3203 34.617 44.3624 34.8277 44.3624ZM39.6791 47.3932L39.6359 47.7591C39.6048 48.0386 39.5494 48.3225 39.4695 48.6108C39.3919 48.9014 39.3098 49.1686 39.2233 49.4126C39.1368 49.6566 39.067 49.8484 39.0137 49.9881H38.202C38.233 49.8528 38.2752 49.6688 38.3284 49.4359C38.3838 49.203 38.4371 48.9413 38.4881 48.6507C38.5391 48.3602 38.5735 48.0652 38.5912 47.7658L38.6145 47.3932H39.6791ZM41.0448 48.3247L43.9425 42.5892V42.5426H40.579V41.5113H45.22V42.5659L42.3256 48.3247H41.0448ZM48.5676 41.4182C48.8937 41.4204 49.2108 41.478 49.5191 41.5912C49.8296 41.702 50.1091 41.8839 50.3575 42.1368C50.6059 42.3874 50.8033 42.7234 50.9497 43.1448C51.096 43.5662 51.1692 44.0874 51.1692 44.7084C51.1714 45.2939 51.1093 45.8174 50.9829 46.2787C50.8587 46.7378 50.6802 47.1259 50.4473 47.4431C50.2144 47.7603 49.9339 48.002 49.6056 48.1683C49.2774 48.3347 48.9081 48.4179 48.4978 48.4179C48.0675 48.4179 47.686 48.3336 47.3533 48.165C47.0229 47.9965 46.7556 47.7658 46.5516 47.473C46.3475 47.1803 46.2222 46.8454 46.1756 46.4683H47.3899C47.452 46.7389 47.5784 46.954 47.7692 47.1137C47.9621 47.2712 48.205 47.3499 48.4978 47.3499C48.9702 47.3499 49.3339 47.1448 49.589 46.7345C49.844 46.3242 49.9716 45.7542 49.9716 45.0245H49.925C49.8163 45.2196 49.6755 45.3882 49.5025 45.5301C49.3295 45.6699 49.1332 45.7774 48.9136 45.8529C48.6963 45.9283 48.4656 45.966 48.2216 45.966C47.8224 45.966 47.4631 45.8706 47.1437 45.6799C46.8266 45.4891 46.5748 45.2274 46.3885 44.8947C46.2045 44.562 46.1113 44.1817 46.1091 43.7536C46.1091 43.31 46.2111 42.9119 46.4152 42.5593C46.6214 42.2044 46.9086 41.9249 47.2768 41.7209C47.645 41.5146 48.0753 41.4137 48.5676 41.4182ZM48.571 42.4162C48.3314 42.4162 48.1152 42.475 47.9222 42.5925C47.7315 42.7079 47.5807 42.8653 47.4698 43.065C47.3611 43.2623 47.3067 43.483 47.3067 43.727C47.309 43.9687 47.3633 44.1883 47.4698 44.3857C47.5784 44.5831 47.7259 44.7395 47.9122 44.8548C48.1008 44.9701 48.3159 45.0278 48.5576 45.0278C48.7373 45.0278 48.9047 44.9934 49.06 44.9247C49.2153 44.8559 49.3505 44.7605 49.4659 44.6386C49.5834 44.5143 49.6744 44.3735 49.7387 44.216C49.8052 44.0586 49.8374 43.8922 49.8352 43.717C49.8352 43.4841 49.7797 43.269 49.6688 43.0716C49.5601 42.8742 49.4104 42.7156 49.2197 42.5959C49.0312 42.4761 48.8149 42.4162 48.571 42.4162ZM54.6458 48.4179C54.2022 48.4179 53.8052 48.3347 53.4548 48.1683C53.1043 47.9998 52.826 47.7691 52.6197 47.4764C52.4157 47.1836 52.307 46.8487 52.2937 46.4716H53.4914C53.5135 46.7511 53.6344 46.9795 53.854 47.157C54.0736 47.3322 54.3375 47.4198 54.6458 47.4198C54.8875 47.4198 55.1027 47.3644 55.2912 47.2535C55.4797 47.1426 55.6283 46.9884 55.737 46.791C55.8457 46.5936 55.8989 46.3685 55.8967 46.1157C55.8989 45.8584 55.8446 45.63 55.7337 45.4303C55.6228 45.2307 55.4708 45.0744 55.2779 44.9613C55.0849 44.8459 54.8631 44.7883 54.6125 44.7883C54.4085 44.786 54.2078 44.8237 54.0104 44.9014C53.813 44.979 53.6566 45.081 53.5413 45.2074L52.4268 45.0245L52.7828 41.5113H56.7351V42.5426H53.8041L53.6078 44.3491H53.6477C53.7742 44.2005 53.9527 44.0774 54.1834 43.9798C54.414 43.88 54.6669 43.8301 54.9419 43.8301C55.3544 43.8301 55.7226 43.9277 56.0464 44.1229C56.3702 44.3158 56.6253 44.582 56.8116 44.9213C56.9979 45.2607 57.091 45.6488 57.091 46.0857C57.091 46.536 56.9868 46.9374 56.7783 47.2901C56.572 47.6405 56.2848 47.9166 55.9166 48.1184C55.5507 48.3181 55.1271 48.4179 54.6458 48.4179ZM73.7927 44.6386V45.1975H70.9582V44.6386H73.7927ZM74.9363 48.3247V47.8689L77.1619 45.3671C77.4525 45.0389 77.6865 44.7583 77.8639 44.5254C78.0413 44.2926 78.17 44.0774 78.2498 43.88C78.3319 43.6826 78.3729 43.4775 78.3729 43.2646C78.3729 43.0051 78.3119 42.7788 78.1899 42.5859C78.0702 42.3907 77.9049 42.2388 77.6942 42.1301C77.4835 42.0214 77.2462 41.9671 76.9823 41.9671C76.7028 41.9671 76.4578 42.027 76.2471 42.1467C76.0386 42.2665 75.8767 42.4306 75.7613 42.6391C75.646 42.8476 75.5883 43.0871 75.5883 43.3577H74.9928C74.9928 42.9807 75.0793 42.6469 75.2523 42.3563C75.4275 42.0636 75.666 41.834 75.9676 41.6677C76.2715 41.5013 76.6152 41.4182 76.9989 41.4182C77.3782 41.4182 77.7153 41.5002 78.0103 41.6643C78.3053 41.8263 78.537 42.0469 78.7056 42.3264C78.8742 42.6058 78.9584 42.9186 78.9584 43.2646C78.9584 43.5152 78.9141 43.758 78.8254 43.9931C78.7389 44.2282 78.5892 44.49 78.3762 44.7783C78.1633 45.0666 77.8683 45.4193 77.4913 45.8362L75.8013 47.7225V47.7658H79.1714V48.3247H74.9363ZM81.15 48.3746C81.0192 48.3746 80.906 48.328 80.8107 48.2349C80.7175 48.1395 80.6709 48.0264 80.6709 47.8955C80.6709 47.7625 80.7175 47.6494 80.8107 47.5562C80.906 47.4631 81.0192 47.4165 81.15 47.4165C81.2831 47.4165 81.3962 47.4631 81.4893 47.5562C81.5825 47.6494 81.6291 47.7625 81.6291 47.8955C81.6291 47.982 81.6069 48.0619 81.5625 48.1351C81.5204 48.2083 81.4627 48.267 81.3895 48.3114C81.3186 48.3535 81.2387 48.3746 81.15 48.3746ZM85.1081 48.4179C84.6889 48.4179 84.3141 48.3425 83.9837 48.1916C83.6532 48.0386 83.3915 47.8268 83.1985 47.5562C83.0056 47.2856 82.9035 46.974 82.8924 46.6214H83.5212C83.5323 46.8698 83.6088 47.0871 83.7508 47.2734C83.8927 47.4575 84.0812 47.6017 84.3163 47.7059C84.5514 47.8079 84.8131 47.8589 85.1015 47.8589C85.4164 47.8589 85.6937 47.8002 85.9332 47.6826C86.1749 47.5651 86.3635 47.4043 86.4988 47.2002C86.6363 46.994 86.705 46.7611 86.705 46.5016C86.705 46.2266 86.6352 45.9837 86.4954 45.773C86.3557 45.5623 86.155 45.3982 85.8933 45.2806C85.6338 45.1631 85.3233 45.1043 84.9617 45.1043H84.5625V44.5454H84.9617C85.2567 44.5454 85.5173 44.4922 85.7436 44.3857C85.972 44.277 86.1517 44.1251 86.2825 43.9299C86.4134 43.7348 86.4788 43.5052 86.4788 43.2413C86.4788 42.9907 86.4222 42.77 86.3091 42.5792C86.196 42.3885 86.0363 42.2388 85.8301 42.1301C85.626 42.0214 85.3876 41.9671 85.1148 41.9671C84.8509 41.9671 84.6091 42.0181 84.3895 42.1201C84.17 42.2221 83.9925 42.3663 83.8572 42.5526C83.7242 42.7389 83.6532 42.9596 83.6443 43.2147H83.0422C83.051 42.8598 83.1486 42.5482 83.3349 42.2798C83.5234 42.0092 83.773 41.7985 84.0835 41.6477C84.3962 41.4947 84.7422 41.4182 85.1214 41.4182C85.5229 41.4182 85.87 41.5002 86.1627 41.6643C86.4555 41.8285 86.6817 42.0469 86.8414 42.3197C87.0033 42.5903 87.0843 42.8886 87.0843 43.2147C87.0843 43.6028 86.9789 43.9355 86.7682 44.2127C86.5575 44.4877 86.2736 44.6785 85.9166 44.7849V44.8282C86.3513 44.9147 86.6928 45.1076 86.9412 45.4071C87.1918 45.7043 87.3172 46.0691 87.3172 46.5016C87.3172 46.8653 87.2218 47.1925 87.0311 47.483C86.8403 47.7713 86.5786 47.9998 86.2459 48.1683C85.9154 48.3347 85.5362 48.4179 85.1081 48.4179ZM92.2343 47.0605V46.7511C92.2343 46.496 92.2853 46.2665 92.3873 46.0624C92.4893 45.8562 92.6346 45.6932 92.8231 45.5734C93.0116 45.4536 93.2356 45.3937 93.4951 45.3937C93.7568 45.3937 93.9808 45.4536 94.1672 45.5734C94.3535 45.6932 94.4965 45.8562 94.5963 46.0624C94.6961 46.2665 94.746 46.496 94.746 46.7511V47.0605C94.746 47.3156 94.695 47.5451 94.593 47.7492C94.4932 47.9532 94.3501 48.1162 94.1638 48.2382C93.9775 48.358 93.7546 48.4179 93.4951 48.4179C93.2312 48.4179 93.005 48.358 92.8164 48.2382C92.6301 48.1162 92.486 47.9532 92.384 47.7492C92.2842 47.5451 92.2343 47.3156 92.2343 47.0605ZM92.7566 46.7511V47.0605C92.7566 47.3111 92.8176 47.5252 92.9395 47.7026C93.0637 47.8778 93.2489 47.9654 93.4951 47.9654C93.7347 47.9654 93.9154 47.8778 94.0374 47.7026C94.1594 47.5252 94.2204 47.3111 94.2204 47.0605V46.7511C94.2204 46.5005 94.1605 46.2876 94.0407 46.1123C93.921 45.9349 93.7391 45.8462 93.4951 45.8462C93.2534 45.8462 93.0693 45.9349 92.9429 46.1123C92.8187 46.2876 92.7566 46.5005 92.7566 46.7511ZM88.8009 43.0849V42.7755C88.8009 42.5205 88.8519 42.2909 88.954 42.0869C89.056 41.8828 89.2013 41.7209 89.3898 41.6011C89.5783 41.4791 89.8023 41.4182 90.0618 41.4182C90.3235 41.4182 90.5475 41.4791 90.7338 41.6011C90.9201 41.7209 91.0632 41.8828 91.163 42.0869C91.2628 42.2909 91.3127 42.5205 91.3127 42.7755V43.0849C91.3127 43.34 91.2617 43.5706 91.1597 43.7769C91.0599 43.9809 90.9168 44.1429 90.7305 44.2626C90.5442 44.3824 90.3213 44.4423 90.0618 44.4423C89.7979 44.4423 89.5717 44.3824 89.3831 44.2626C89.1968 44.1429 89.0527 43.9809 88.9506 43.7769C88.8508 43.5706 88.8009 43.34 88.8009 43.0849ZM89.3233 42.7755V43.0849C89.3233 43.3355 89.3842 43.5496 89.5062 43.727C89.6304 43.9022 89.8156 43.9898 90.0618 43.9898C90.3013 43.9898 90.4821 43.9022 90.6041 43.727C90.7261 43.5496 90.7871 43.3355 90.7871 43.0849V42.7755C90.7871 42.5249 90.7272 42.312 90.6074 42.1368C90.4877 41.9593 90.3058 41.8706 90.0618 41.8706C89.8201 41.8706 89.636 41.9593 89.5096 42.1368C89.3854 42.312 89.3233 42.5249 89.3233 42.7755ZM89.107 48.3247L93.7879 41.5113H94.3767L89.6959 48.3247H89.107Z" fill="#FF3B30"/>
<path d="M64.4833 39.3156V50.5204H63.3655V39.3156H64.4833Z" fill="white"/>
<path d="M182.444 49.1109C191.128 49.1109 192.237 37.4054 200.921 37.4054C209.604 37.4054 208.165 28.1052 216.848 28.1052C225.532 28.1052 225.366 41.2539 234.05 41.2539C242.734 41.2539 243.205 47.881 251.889 47.881" stroke="url(#paint1_linear_337_1539)" stroke-opacity="0.1" stroke-width="6.88579" stroke-linecap="round"/>
<path d="M182.444 49.4478C191.128 49.4478 192.237 37.7424 200.921 37.7424C209.604 37.7424 208.165 28.4421 216.848 28.4421C225.532 28.4421 225.366 41.5908 234.05 41.5908C242.734 41.5908 243.205 48.2179 251.889 48.2179" stroke="url(#paint2_linear_337_1539)" stroke-width="2.20158" stroke-linecap="round"/>
</g>
<path d="M29.0189 72.1212L25.8597 68.9619L22.7004 72.1212" stroke="white" stroke-width="1.17105" stroke-miterlimit="10" stroke-linecap="round" stroke-linejoin="round"/>
<path d="M25.8596 77.81V69.0505" stroke="white" stroke-width="1.17105" stroke-miterlimit="10" stroke-linecap="round" stroke-linejoin="round"/>
<path d="M37.9427 77.7377V69.2209H38.4883V77.7377H37.9427ZM39.7792 71.7759C39.7392 71.4388 39.5773 71.1771 39.2934 70.9908C39.0096 70.8045 38.6613 70.7113 38.2488 70.7113C37.9472 70.7113 37.6832 70.7601 37.457 70.8577C37.233 70.9553 37.0578 71.0895 36.9314 71.2603C36.8072 71.4311 36.7451 71.6251 36.7451 71.8425C36.7451 72.0243 36.7883 72.1807 36.8748 72.3116C36.9635 72.4402 37.0766 72.5478 37.2142 72.6343C37.3517 72.7185 37.4958 72.7884 37.6467 72.8439C37.7975 72.8971 37.9361 72.9403 38.0625 72.9736L38.7545 73.1599C38.9319 73.2065 39.1293 73.2708 39.3467 73.3529C39.5662 73.4349 39.7758 73.5469 39.9754 73.6889C40.1773 73.8286 40.3436 74.0083 40.4745 74.2278C40.6053 74.4474 40.6708 74.7169 40.6708 75.0363C40.6708 75.4044 40.5743 75.7371 40.3813 76.0343C40.1906 76.3315 39.9111 76.5677 39.543 76.7429C39.177 76.9181 38.7323 77.0058 38.2089 77.0058C37.721 77.0058 37.2984 76.927 36.9414 76.7695C36.5865 76.6121 36.307 76.3925 36.103 76.1108C35.9012 75.8292 35.7869 75.502 35.7603 75.1294H36.612C36.6342 75.3867 36.7207 75.5996 36.8715 75.7682C37.0245 75.9345 37.2175 76.0587 37.4504 76.1408C37.6855 76.2206 37.9383 76.2605 38.2089 76.2605C38.5238 76.2605 38.8066 76.2095 39.0572 76.1075C39.3079 76.0033 39.5064 75.8591 39.6527 75.675C39.7991 75.4887 39.8723 75.2714 39.8723 75.0229C39.8723 74.7967 39.8091 74.6126 39.6827 74.4707C39.5563 74.3287 39.3899 74.2134 39.1837 74.1247C38.9774 74.036 38.7545 73.9584 38.515 73.8918L37.6766 73.6523C37.1443 73.4992 36.7229 73.2808 36.4124 72.9969C36.1019 72.713 35.9466 72.3415 35.9466 71.8824C35.9466 71.5009 36.0498 71.1682 36.256 70.8843C36.4645 70.5982 36.744 70.3764 37.0944 70.219C37.447 70.0593 37.8407 69.9794 38.2754 69.9794C38.7146 69.9794 39.1049 70.0582 39.4465 70.2156C39.788 70.3709 40.0586 70.5838 40.2582 70.8544C40.4601 71.125 40.5665 71.4322 40.5776 71.7759H39.7792ZM44.2097 76.9791C43.7706 76.9791 43.3791 76.9037 43.0353 76.7529C42.6938 76.6021 42.4221 76.3925 42.2202 76.1241C42.0206 75.8536 41.912 75.5397 41.8942 75.1826H42.7326C42.7503 75.4022 42.8257 75.5918 42.9588 75.7515C43.0919 75.909 43.266 76.031 43.4811 76.1175C43.6963 76.204 43.9347 76.2472 44.1964 76.2472C44.4892 76.2472 44.7487 76.1962 44.9749 76.0942C45.2011 75.9922 45.3785 75.8502 45.5072 75.6684C45.6358 75.4865 45.7001 75.2758 45.7001 75.0363C45.7001 74.7856 45.638 74.565 45.5138 74.3742C45.3896 74.1813 45.2078 74.0304 44.9682 73.9218C44.7287 73.8131 44.4359 73.7587 44.0899 73.7587H43.5443V73.0268H44.0899C44.3605 73.0268 44.5978 72.978 44.8019 72.8805C45.0081 72.7829 45.1689 72.6454 45.2843 72.4679C45.4018 72.2905 45.4606 72.082 45.4606 71.8425C45.4606 71.6118 45.4096 71.4111 45.3076 71.2403C45.2055 71.0695 45.0614 70.9365 44.8751 70.8411C44.691 70.7457 44.4736 70.698 44.223 70.698C43.9879 70.698 43.7661 70.7413 43.5576 70.8278C43.3514 70.9121 43.1828 71.0352 43.052 71.1971C42.9211 71.3568 42.8501 71.5497 42.839 71.7759H42.0406C42.0539 71.4189 42.1615 71.1061 42.3633 70.8378C42.5651 70.5672 42.8291 70.3565 43.1551 70.2057C43.4833 70.0548 43.8437 69.9794 44.2363 69.9794C44.6577 69.9794 45.0192 70.0648 45.3209 70.2356C45.6225 70.4042 45.8543 70.6271 46.0162 70.9043C46.1781 71.1815 46.259 71.481 46.259 71.8026C46.259 72.1863 46.1581 72.5134 45.9563 72.784C45.7567 73.0546 45.485 73.242 45.1412 73.3462V73.3994C45.5715 73.4704 45.9075 73.6534 46.1493 73.9484C46.391 74.2411 46.5119 74.6038 46.5119 75.0363C46.5119 75.4066 46.411 75.7393 46.2091 76.0343C46.0095 76.3271 45.7367 76.5577 45.3907 76.7263C45.0447 76.8949 44.6511 76.9791 44.2097 76.9791ZM50.055 76.9791C49.5981 76.9791 49.1944 76.8982 48.844 76.7363C48.4958 76.5722 48.2241 76.347 48.0289 76.0609C47.8338 75.7726 47.7373 75.4443 47.7395 75.0762C47.7373 74.7879 47.7938 74.5217 47.9092 74.2777C48.0245 74.0315 48.182 73.8264 48.3816 73.6623C48.5834 73.4959 48.8085 73.3906 49.0569 73.3462V73.3063C48.7309 73.222 48.4714 73.039 48.2784 72.7574C48.0855 72.4735 47.9901 72.1508 47.9923 71.7892C47.9901 71.4433 48.0777 71.1339 48.2552 70.8611C48.4326 70.5883 48.6766 70.3731 48.9871 70.2156C49.2998 70.0582 49.6558 69.9794 50.055 69.9794C50.4498 69.9794 50.8024 70.0582 51.1129 70.2156C51.4234 70.3731 51.6674 70.5883 51.8448 70.8611C52.0245 71.1339 52.1154 71.4433 52.1176 71.7892C52.1154 72.1508 52.0167 72.4735 51.8215 72.7574C51.6286 73.039 51.3724 73.222 51.053 73.3063V73.3462C51.2992 73.3906 51.521 73.4959 51.7184 73.6623C51.9158 73.8264 52.0733 74.0315 52.1908 74.2777C52.3084 74.5217 52.3683 74.7879 52.3705 75.0762C52.3683 75.4443 52.2685 75.7726 52.0711 76.0609C51.8759 76.347 51.6042 76.5722 51.256 76.7363C50.91 76.8982 50.5097 76.9791 50.055 76.9791ZM50.055 76.2472C50.3633 76.2472 50.6294 76.1973 50.8534 76.0975C51.0774 75.9977 51.2504 75.8569 51.3724 75.675C51.4944 75.4931 51.5565 75.2802 51.5587 75.0363C51.5565 74.779 51.49 74.5516 51.3591 74.3543C51.2283 74.1569 51.0497 74.0016 50.8235 73.8885C50.5995 73.7754 50.3433 73.7188 50.055 73.7188C49.7644 73.7188 49.5049 73.7754 49.2765 73.8885C49.0503 74.0016 48.8717 74.1569 48.7409 74.3543C48.6122 74.5516 48.549 74.779 48.5512 75.0363C48.549 75.2802 48.6078 75.4931 48.7276 75.675C48.8496 75.8569 49.0237 75.9977 49.2499 76.0975C49.4761 76.1973 49.7445 76.2472 50.055 76.2472ZM50.055 73.0135C50.299 73.0135 50.5152 72.9647 50.7037 72.8671C50.8945 72.7696 51.0442 72.6332 51.1528 72.4579C51.2615 72.2827 51.317 72.0776 51.3192 71.8425C51.317 71.6118 51.2626 71.4111 51.1562 71.2403C51.0497 71.0673 50.9022 70.9342 50.7137 70.8411C50.5252 70.7457 50.3056 70.698 50.055 70.698C49.7999 70.698 49.577 70.7457 49.3863 70.8411C49.1955 70.9342 49.0481 71.0673 48.9438 71.2403C48.8396 71.4111 48.7886 71.6118 48.7908 71.8425C48.7886 72.0776 48.8407 72.2827 48.9471 72.4579C49.0558 72.6332 49.2055 72.7696 49.3963 72.8671C49.587 72.9647 49.8066 73.0135 50.055 73.0135ZM54.6194 75.9545L54.5662 76.3138C54.5285 76.5666 54.4708 76.8372 54.3932 77.1255C54.3178 77.4138 54.2391 77.6855 54.157 77.9406C54.0749 78.1957 54.0073 78.3986 53.9541 78.5494H53.3552C53.3841 78.4075 53.4218 78.2201 53.4683 77.9872C53.5149 77.7543 53.5615 77.4937 53.6081 77.2054C53.6569 76.9193 53.6968 76.6265 53.7278 76.3271L53.7678 75.9545H54.6194ZM58.0328 76.9791C57.5759 76.9791 57.1722 76.8982 56.8218 76.7363C56.4736 76.5722 56.2019 76.347 56.0067 76.0609C55.8116 75.7726 55.7151 75.4443 55.7173 75.0762C55.7151 74.7879 55.7716 74.5217 55.887 74.2777C56.0023 74.0315 56.1598 73.8264 56.3594 73.6623C56.5612 73.4959 56.7863 73.3906 57.0347 73.3462V73.3063C56.7087 73.222 56.4492 73.039 56.2562 72.7574C56.0633 72.4735 55.9679 72.1508 55.9701 71.7892C55.9679 71.4433 56.0555 71.1339 56.233 70.8611C56.4104 70.5883 56.6544 70.3731 56.9649 70.2156C57.2776 70.0582 57.6336 69.9794 58.0328 69.9794C58.4276 69.9794 58.7802 70.0582 59.0907 70.2156C59.4012 70.3731 59.6452 70.5883 59.8226 70.8611C60.0023 71.1339 60.0932 71.4433 60.0954 71.7892C60.0932 72.1508 59.9945 72.4735 59.7993 72.7574C59.6064 73.039 59.3502 73.222 59.0308 73.3063V73.3462C59.277 73.3906 59.4988 73.4959 59.6962 73.6623C59.8936 73.8264 60.0511 74.0315 60.1686 74.2777C60.2862 74.5217 60.3461 74.7879 60.3483 75.0762C60.3461 75.4443 60.2462 75.7726 60.0489 76.0609C59.8537 76.347 59.582 76.5722 59.2338 76.7363C58.8878 76.8982 58.4875 76.9791 58.0328 76.9791ZM58.0328 76.2472C58.3411 76.2472 58.6072 76.1973 58.8312 76.0975C59.0552 75.9977 59.2282 75.8569 59.3502 75.675C59.4722 75.4931 59.5343 75.2802 59.5365 75.0363C59.5343 74.779 59.4678 74.5516 59.3369 74.3543C59.2061 74.1569 59.0275 74.0016 58.8013 73.8885C58.5773 73.7754 58.3211 73.7188 58.0328 73.7188C57.7422 73.7188 57.4827 73.7754 57.2543 73.8885C57.0281 74.0016 56.8495 74.1569 56.7187 74.3543C56.59 74.5516 56.5268 74.779 56.529 75.0363C56.5268 75.2802 56.5856 75.4931 56.7054 75.675C56.8274 75.8569 57.0015 75.9977 57.2277 76.0975C57.4539 76.1973 57.7223 76.2472 58.0328 76.2472ZM58.0328 73.0135C58.2768 73.0135 58.493 72.9647 58.6815 72.8671C58.8723 72.7696 59.022 72.6332 59.1306 72.4579C59.2393 72.2827 59.2948 72.0776 59.297 71.8425C59.2948 71.6118 59.2404 71.4111 59.134 71.2403C59.0275 71.0673 58.88 70.9342 58.6915 70.8411C58.503 70.7457 58.2834 70.698 58.0328 70.698C57.7777 70.698 57.5548 70.7457 57.3641 70.8411C57.1733 70.9342 57.0259 71.0673 56.9216 71.2403C56.8174 71.4111 56.7664 71.6118 56.7686 71.8425C56.7664 72.0776 56.8185 72.2827 56.9249 72.4579C57.0336 72.6332 57.1833 72.7696 57.3741 72.8671C57.5648 72.9647 57.7844 73.0135 58.0328 73.0135ZM63.7525 76.9791C63.3621 76.9791 63.0106 76.9015 62.6979 76.7463C62.3851 76.591 62.1345 76.3781 61.946 76.1075C61.7575 75.8369 61.6543 75.5286 61.6366 75.1826H62.435C62.4661 75.4909 62.6058 75.746 62.8542 75.9478C63.1048 76.1474 63.4043 76.2472 63.7525 76.2472C64.0319 76.2472 64.2803 76.1818 64.4977 76.0509C64.7173 75.9201 64.8892 75.7404 65.0134 75.512C65.1398 75.2813 65.203 75.0207 65.203 74.7302C65.203 74.433 65.1376 74.1679 65.0067 73.9351C64.8781 73.7 64.7006 73.5148 64.4744 73.3795C64.2482 73.2442 63.9898 73.1754 63.6992 73.1732C63.4908 73.171 63.2767 73.2032 63.0572 73.2697C62.8376 73.334 62.6568 73.4172 62.5149 73.5192L61.7431 73.4261L62.1556 70.0726H65.6954V70.8045H62.8476L62.608 72.8139H62.648C62.7877 72.703 62.9629 72.611 63.1736 72.5378C63.3843 72.4646 63.6039 72.428 63.8323 72.428C64.2493 72.428 64.6208 72.5278 64.9468 72.7274C65.2751 72.9248 65.5323 73.1954 65.7186 73.5392C65.9072 73.8829 66.0014 74.2755 66.0014 74.7169C66.0014 75.1516 65.9038 75.5397 65.7087 75.8813C65.5157 76.2206 65.2496 76.489 64.9102 76.6864C64.5709 76.8816 64.185 76.9791 63.7525 76.9791ZM69.4921 69.9794C69.7716 69.9817 70.051 70.0349 70.3305 70.1391C70.61 70.2434 70.865 70.4164 71.0957 70.6581C71.3263 70.8976 71.5115 71.2248 71.6513 71.6395C71.791 72.0543 71.8609 72.5744 71.8609 73.1998C71.8609 73.8053 71.8032 74.3432 71.6879 74.8134C71.5747 75.2813 71.4106 75.6761 71.1955 75.9977C70.9826 76.3193 70.7231 76.5633 70.417 76.7296C70.1131 76.896 69.7694 76.9791 69.3857 76.9791C69.0042 76.9791 68.6637 76.9037 68.3643 76.7529C68.0671 76.5999 67.8232 76.3881 67.6324 76.1175C67.4439 75.8447 67.323 75.5286 67.2698 75.1693H68.0815C68.1547 75.4821 68.3 75.7404 68.5174 75.9445C68.7369 76.1463 69.0264 76.2472 69.3857 76.2472C69.9113 76.2472 70.3261 76.0177 70.6299 75.5586C70.936 75.0995 71.089 74.4507 71.089 73.6124H71.0358C70.9116 73.7987 70.7641 73.9595 70.5933 74.0948C70.4225 74.23 70.2329 74.3343 70.0244 74.4075C69.8159 74.4807 69.5942 74.5173 69.3591 74.5173C68.9687 74.5173 68.6105 74.4208 68.2845 74.2278C67.9607 74.0327 67.7012 73.7654 67.506 73.4261C67.313 73.0845 67.2166 72.6941 67.2166 72.255C67.2166 71.838 67.3097 71.4566 67.496 71.1106C67.6845 70.7624 67.9485 70.4851 68.2878 70.2789C68.6294 70.0726 69.0308 69.9728 69.4921 69.9794ZM69.4921 70.7113C69.2127 70.7113 68.9609 70.7812 68.7369 70.9209C68.5151 71.0584 68.3388 71.2448 68.208 71.4798C68.0793 71.7127 68.015 71.9711 68.015 72.255C68.015 72.5389 68.0771 72.7973 68.2013 73.0302C68.3277 73.2608 68.4996 73.4449 68.717 73.5824C68.9365 73.7177 69.1861 73.7854 69.4655 73.7854C69.6762 73.7854 69.8725 73.7443 70.0544 73.6623C70.2362 73.578 70.3948 73.4638 70.5301 73.3196C70.6676 73.1732 70.7752 73.008 70.8528 72.8239C70.9304 72.6376 70.9693 72.4435 70.9693 72.2417C70.9693 71.9755 70.9049 71.726 70.7763 71.4932C70.6499 71.2603 70.4747 71.0718 70.2507 70.9276C70.0289 70.7834 69.776 70.7113 69.4921 70.7113Z" fill="white"/>
<path d="M89.2104 68.3115L89.2104 78.4606" stroke="white" stroke-width="0.780702"/>
<path d="M114.598 74.6508L111.439 77.8101L108.279 74.6508" stroke="white" stroke-width="1.17105" stroke-miterlimit="10" stroke-linecap="round" stroke-linejoin="round"/>
<path d="M111.438 68.962V77.7214" stroke="white" stroke-width="1.17105" stroke-miterlimit="10" stroke-linecap="round" stroke-linejoin="round"/>
<path d="M123.522 77.7377V69.2209H124.067V77.7377H123.522ZM125.358 71.7759C125.318 71.4388 125.156 71.1771 124.872 70.9908C124.588 70.8045 124.24 70.7113 123.828 70.7113C123.526 70.7113 123.262 70.7601 123.036 70.8577C122.812 70.9553 122.637 71.0895 122.51 71.2603C122.386 71.4311 122.324 71.6251 122.324 71.8425C122.324 72.0243 122.367 72.1807 122.454 72.3116C122.542 72.4402 122.656 72.5478 122.793 72.6343C122.931 72.7185 123.075 72.7884 123.226 72.8439C123.376 72.8971 123.515 72.9403 123.641 72.9736L124.333 73.1599C124.511 73.2065 124.708 73.2708 124.926 73.3529C125.145 73.4349 125.355 73.5469 125.554 73.6889C125.756 73.8286 125.922 74.0083 126.053 74.2278C126.184 74.4474 126.25 74.7169 126.25 75.0363C126.25 75.4044 126.153 75.7371 125.96 76.0343C125.769 76.3315 125.49 76.5677 125.122 76.7429C124.756 76.9181 124.311 77.0058 123.788 77.0058C123.3 77.0058 122.877 76.927 122.52 76.7695C122.165 76.6121 121.886 76.3925 121.682 76.1108C121.48 75.8292 121.366 75.502 121.339 75.1294H122.191C122.213 75.3867 122.3 75.5996 122.45 75.7682C122.603 75.9345 122.796 76.0587 123.029 76.1408C123.264 76.2206 123.517 76.2605 123.788 76.2605C124.103 76.2605 124.385 76.2095 124.636 76.1075C124.887 76.0033 125.085 75.8591 125.232 75.675C125.378 75.4887 125.451 75.2714 125.451 75.0229C125.451 74.7967 125.388 74.6126 125.262 74.4707C125.135 74.3287 124.969 74.2134 124.763 74.1247C124.556 74.036 124.333 73.9584 124.094 73.8918L123.255 73.6523C122.723 73.4992 122.302 73.2808 121.991 72.9969C121.681 72.713 121.525 72.3415 121.525 71.8824C121.525 71.5009 121.629 71.1682 121.835 70.8843C122.043 70.5982 122.323 70.3764 122.673 70.219C123.026 70.0593 123.42 69.9794 123.854 69.9794C124.293 69.9794 124.684 70.0582 125.025 70.2156C125.367 70.3709 125.637 70.5838 125.837 70.8544C126.039 71.125 126.145 71.4322 126.156 71.7759H125.358ZM129.789 76.9791C129.349 76.9791 128.958 76.9037 128.614 76.7529C128.273 76.6021 128.001 76.3925 127.799 76.1241C127.599 75.8536 127.491 75.5397 127.473 75.1826H128.311C128.329 75.4022 128.405 75.5918 128.538 75.7515C128.671 75.909 128.845 76.031 129.06 76.1175C129.275 76.204 129.514 76.2472 129.775 76.2472C130.068 76.2472 130.328 76.1962 130.554 76.0942C130.78 75.9922 130.957 75.8502 131.086 75.6684C131.215 75.4865 131.279 75.2758 131.279 75.0363C131.279 74.7856 131.217 74.565 131.093 74.3742C130.968 74.1813 130.787 74.0304 130.547 73.9218C130.308 73.8131 130.015 73.7587 129.669 73.7587H129.123V73.0268H129.669C129.939 73.0268 130.177 72.978 130.381 72.8805C130.587 72.7829 130.748 72.6454 130.863 72.4679C130.981 72.2905 131.039 72.082 131.039 71.8425C131.039 71.6118 130.988 71.4111 130.886 71.2403C130.784 71.0695 130.64 70.9365 130.454 70.8411C130.27 70.7457 130.052 70.698 129.802 70.698C129.567 70.698 129.345 70.7413 129.136 70.8278C128.93 70.9121 128.762 71.0352 128.631 71.1971C128.5 71.3568 128.429 71.5497 128.418 71.7759H127.619C127.633 71.4189 127.74 71.1061 127.942 70.8378C128.144 70.5672 128.408 70.3565 128.734 70.2057C129.062 70.0548 129.423 69.9794 129.815 69.9794C130.237 69.9794 130.598 70.0648 130.9 70.2356C131.201 70.4042 131.433 70.6271 131.595 70.9043C131.757 71.1815 131.838 71.481 131.838 71.8026C131.838 72.1863 131.737 72.5134 131.535 72.784C131.336 73.0546 131.064 73.242 130.72 73.3462V73.3994C131.15 73.4704 131.486 73.6534 131.728 73.9484C131.97 74.2411 132.091 74.6038 132.091 75.0363C132.091 75.4066 131.99 75.7393 131.788 76.0343C131.588 76.3271 131.316 76.5577 130.97 76.7263C130.624 76.8949 130.23 76.9791 129.789 76.9791ZM135.634 76.9791C135.177 76.9791 134.773 76.8982 134.423 76.7363C134.075 76.5722 133.803 76.347 133.608 76.0609C133.413 75.7726 133.316 75.4443 133.318 75.0762C133.316 74.7879 133.373 74.5217 133.488 74.2777C133.603 74.0315 133.761 73.8264 133.96 73.6623C134.162 73.4959 134.387 73.3906 134.636 73.3462V73.3063C134.31 73.222 134.05 73.039 133.857 72.7574C133.664 72.4735 133.569 72.1508 133.571 71.7892C133.569 71.4433 133.657 71.1339 133.834 70.8611C134.011 70.5883 134.255 70.3731 134.566 70.2156C134.879 70.0582 135.235 69.9794 135.634 69.9794C136.029 69.9794 136.381 70.0582 136.692 70.2156C137.002 70.3731 137.246 70.5883 137.424 70.8611C137.603 71.1339 137.694 71.4433 137.696 71.7892C137.694 72.1508 137.596 72.4735 137.4 72.7574C137.207 73.039 136.951 73.222 136.632 73.3063V73.3462C136.878 73.3906 137.1 73.4959 137.297 73.6623C137.495 73.8264 137.652 74.0315 137.77 74.2777C137.887 74.5217 137.947 74.7879 137.949 75.0762C137.947 75.4443 137.847 75.7726 137.65 76.0609C137.455 76.347 137.183 76.5722 136.835 76.7363C136.489 76.8982 136.089 76.9791 135.634 76.9791ZM135.634 76.2472C135.942 76.2472 136.208 76.1973 136.432 76.0975C136.656 75.9977 136.829 75.8569 136.951 75.675C137.073 75.4931 137.135 75.2802 137.138 75.0363C137.135 74.779 137.069 74.5516 136.938 74.3543C136.807 74.1569 136.629 74.0016 136.402 73.8885C136.178 73.7754 135.922 73.7188 135.634 73.7188C135.343 73.7188 135.084 73.7754 134.855 73.8885C134.629 74.0016 134.451 74.1569 134.32 74.3543C134.191 74.5516 134.128 74.779 134.13 75.0363C134.128 75.2802 134.187 75.4931 134.306 75.675C134.428 75.8569 134.603 75.9977 134.829 76.0975C135.055 76.1973 135.323 76.2472 135.634 76.2472ZM135.634 73.0135C135.878 73.0135 136.094 72.9647 136.283 72.8671C136.473 72.7696 136.623 72.6332 136.732 72.4579C136.84 72.2827 136.896 72.0776 136.898 71.8425C136.896 71.6118 136.841 71.4111 136.735 71.2403C136.629 71.0673 136.481 70.9342 136.293 70.8411C136.104 70.7457 135.884 70.698 135.634 70.698C135.379 70.698 135.156 70.7457 134.965 70.8411C134.774 70.9342 134.627 71.0673 134.523 71.2403C134.418 71.4111 134.367 71.6118 134.37 71.8425C134.367 72.0776 134.42 72.2827 134.526 72.4579C134.635 72.6332 134.784 72.7696 134.975 72.8671C135.166 72.9647 135.385 73.0135 135.634 73.0135ZM140.198 75.9545L140.145 76.3138C140.107 76.5666 140.05 76.8372 139.972 77.1255C139.897 77.4138 139.818 77.6855 139.736 77.9406C139.654 78.1957 139.586 78.3986 139.533 78.5494H138.934C138.963 78.4075 139.001 78.2201 139.047 77.9872C139.094 77.7543 139.14 77.4937 139.187 77.2054C139.236 76.9193 139.276 76.6265 139.307 76.3271L139.347 75.9545H140.198ZM143.632 76.9791C143.241 76.9791 142.89 76.9015 142.577 76.7463C142.264 76.591 142.014 76.3781 141.825 76.1075C141.637 75.8369 141.533 75.5286 141.516 75.1826H142.314C142.345 75.4909 142.485 75.746 142.733 75.9478C142.984 76.1474 143.283 76.2472 143.632 76.2472C143.911 76.2472 144.159 76.1818 144.377 76.0509C144.596 75.9201 144.768 75.7404 144.892 75.512C145.019 75.2813 145.082 75.0207 145.082 74.7302C145.082 74.433 145.017 74.1679 144.886 73.9351C144.757 73.7 144.58 73.5148 144.354 73.3795C144.127 73.2442 143.869 73.1754 143.578 73.1732C143.37 73.171 143.156 73.2032 142.936 73.2697C142.717 73.334 142.536 73.4172 142.394 73.5192L141.622 73.4261L142.035 70.0726H145.574V70.8045H142.727L142.487 72.8139H142.527C142.667 72.703 142.842 72.611 143.053 72.5378C143.263 72.4646 143.483 72.428 143.711 72.428C144.128 72.428 144.5 72.5278 144.826 72.7274C145.154 72.9248 145.411 73.1954 145.598 73.5392C145.786 73.8829 145.881 74.2755 145.881 74.7169C145.881 75.1516 145.783 75.5397 145.588 75.8813C145.395 76.2206 145.129 76.489 144.789 76.6864C144.45 76.8816 144.064 76.9791 143.632 76.9791ZM149.504 76.9791C149.065 76.9791 148.674 76.9037 148.33 76.7529C147.988 76.6021 147.717 76.3925 147.515 76.1241C147.315 75.8536 147.207 75.5397 147.189 75.1826H148.027C148.045 75.4022 148.12 75.5918 148.253 75.7515C148.387 75.909 148.561 76.031 148.776 76.1175C148.991 76.204 149.229 76.2472 149.491 76.2472C149.784 76.2472 150.043 76.1962 150.27 76.0942C150.496 75.9922 150.673 75.8502 150.802 75.6684C150.93 75.4865 150.995 75.2758 150.995 75.0363C150.995 74.7856 150.933 74.565 150.808 74.3742C150.684 74.1813 150.502 74.0304 150.263 73.9218C150.023 73.8131 149.731 73.7587 149.385 73.7587H148.839V73.0268H149.385C149.655 73.0268 149.892 72.978 150.097 72.8805C150.303 72.7829 150.464 72.6454 150.579 72.4679C150.696 72.2905 150.755 72.082 150.755 71.8425C150.755 71.6118 150.704 71.4111 150.602 71.2403C150.5 71.0695 150.356 70.9365 150.17 70.8411C149.986 70.7457 149.768 70.698 149.518 70.698C149.283 70.698 149.061 70.7413 148.852 70.8278C148.646 70.9121 148.477 71.0352 148.347 71.1971C148.216 71.3568 148.145 71.5497 148.134 71.7759H147.335C147.349 71.4189 147.456 71.1061 147.658 70.8378C147.86 70.5672 148.124 70.3565 148.45 70.2057C148.778 70.0548 149.138 69.9794 149.531 69.9794C149.952 69.9794 150.314 70.0648 150.615 70.2356C150.917 70.4042 151.149 70.6271 151.311 70.9043C151.473 71.1815 151.554 71.481 151.554 71.8026C151.554 72.1863 151.453 72.5134 151.251 72.784C151.051 73.0546 150.78 73.242 150.436 73.3462V73.3994C150.866 73.4704 151.202 73.6534 151.444 73.9484C151.686 74.2411 151.807 74.6038 151.807 75.0363C151.807 75.4066 151.706 75.7393 151.504 76.0343C151.304 76.3271 151.031 76.5577 150.685 76.7263C150.339 76.8949 149.946 76.9791 149.504 76.9791ZM153.167 76.886V76.2872L155.416 73.8253C155.68 73.537 155.897 73.2863 156.068 73.0734C156.239 72.8583 156.365 72.6564 156.447 72.4679C156.532 72.2772 156.574 72.0776 156.574 71.8691C156.574 71.6296 156.516 71.4222 156.401 71.247C156.288 71.0718 156.133 70.9365 155.935 70.8411C155.738 70.7457 155.516 70.698 155.27 70.698C155.008 70.698 154.78 70.7524 154.584 70.8611C154.391 70.9675 154.242 71.1172 154.135 71.3102C154.031 71.5031 153.979 71.7294 153.979 71.9889H153.194C153.194 71.5896 153.286 71.2392 153.47 70.9376C153.654 70.6359 153.905 70.4008 154.222 70.2323C154.541 70.0637 154.899 69.9794 155.296 69.9794C155.696 69.9794 156.049 70.0637 156.358 70.2323C156.666 70.4008 156.908 70.6282 157.083 70.9143C157.258 71.2004 157.346 71.5187 157.346 71.8691C157.346 72.1197 157.3 72.3648 157.209 72.6043C157.121 72.8416 156.965 73.1067 156.744 73.3994C156.524 73.69 156.219 74.0449 155.829 74.464L154.298 76.1008V76.1541H157.465V76.886H153.167Z" fill="white"/>
<path d="M174.79 68.3115L174.79 78.4606" stroke="white" stroke-width="0.780702"/>
<path d="M200.307 73.386C201.66 73.386 202.222 72.8656 201.723 71.1584C201.384 70.0082 200.395 69.0193 199.245 68.681C197.538 68.1814 197.018 68.7435 197.018 70.0967V71.5956C197.018 72.8656 197.538 73.386 198.579 73.386H200.307Z" stroke="white" stroke-width="1.17105" stroke-linecap="round" stroke-linejoin="round"/>
<path d="M201.181 74.7913C200.697 77.2011 198.386 78.9499 195.758 78.5231C193.786 78.2056 192.198 76.6182 191.875 74.6456C191.454 72.0277 193.192 69.7168 195.592 69.2275" stroke="white" stroke-width="1.17105" stroke-linecap="round" stroke-linejoin="round"/>
<path d="M209.101 77.7377V69.2209H209.646V77.7377H209.101ZM210.937 71.7759C210.897 71.4388 210.735 71.1771 210.451 70.9908C210.168 70.8045 209.819 70.7113 209.407 70.7113C209.105 70.7113 208.841 70.7601 208.615 70.8577C208.391 70.9553 208.216 71.0895 208.089 71.2603C207.965 71.4311 207.903 71.6251 207.903 71.8425C207.903 72.0243 207.946 72.1807 208.033 72.3116C208.121 72.4402 208.235 72.5478 208.372 72.6343C208.51 72.7185 208.654 72.7884 208.805 72.8439C208.955 72.8971 209.094 72.9403 209.22 72.9736L209.912 73.1599C210.09 73.2065 210.287 73.2708 210.505 73.3529C210.724 73.4349 210.934 73.5469 211.133 73.6889C211.335 73.8286 211.502 74.0083 211.632 74.2278C211.763 74.4474 211.829 74.7169 211.829 75.0363C211.829 75.4044 211.732 75.7371 211.539 76.0343C211.349 76.3315 211.069 76.5677 210.701 76.7429C210.335 76.9181 209.89 77.0058 209.367 77.0058C208.879 77.0058 208.456 76.927 208.099 76.7695C207.744 76.6121 207.465 76.3925 207.261 76.1108C207.059 75.8292 206.945 75.502 206.918 75.1294H207.77C207.792 75.3867 207.879 75.5996 208.029 75.7682C208.182 75.9345 208.375 76.0587 208.608 76.1408C208.843 76.2206 209.096 76.2605 209.367 76.2605C209.682 76.2605 209.965 76.2095 210.215 76.1075C210.466 76.0033 210.664 75.8591 210.811 75.675C210.957 75.4887 211.03 75.2714 211.03 75.0229C211.03 74.7967 210.967 74.6126 210.841 74.4707C210.714 74.3287 210.548 74.2134 210.342 74.1247C210.135 74.036 209.912 73.9584 209.673 73.8918L208.835 73.6523C208.302 73.4992 207.881 73.2808 207.57 72.9969C207.26 72.713 207.105 72.3415 207.105 71.8824C207.105 71.5009 207.208 71.1682 207.414 70.8843C207.622 70.5982 207.902 70.3764 208.252 70.219C208.605 70.0593 208.999 69.9794 209.433 69.9794C209.873 69.9794 210.263 70.0582 210.604 70.2156C210.946 70.3709 211.217 70.5838 211.416 70.8544C211.618 71.125 211.724 71.4322 211.736 71.7759H210.937ZM215.368 76.9791C214.929 76.9791 214.537 76.9037 214.193 76.7529C213.852 76.6021 213.58 76.3925 213.378 76.1241C213.179 75.8536 213.07 75.5397 213.052 75.1826H213.891C213.908 75.4022 213.984 75.5918 214.117 75.7515C214.25 75.909 214.424 76.031 214.639 76.1175C214.854 76.204 215.093 76.2472 215.354 76.2472C215.647 76.2472 215.907 76.1962 216.133 76.0942C216.359 75.9922 216.536 75.8502 216.665 75.6684C216.794 75.4865 216.858 75.2758 216.858 75.0363C216.858 74.7856 216.796 74.565 216.672 74.3742C216.548 74.1813 216.366 74.0304 216.126 73.9218C215.887 73.8131 215.594 73.7587 215.248 73.7587H214.702V73.0268H215.248C215.518 73.0268 215.756 72.978 215.96 72.8805C216.166 72.7829 216.327 72.6454 216.442 72.4679C216.56 72.2905 216.619 72.082 216.619 71.8425C216.619 71.6118 216.568 71.4111 216.466 71.2403C216.363 71.0695 216.219 70.9365 216.033 70.8411C215.849 70.7457 215.632 70.698 215.381 70.698C215.146 70.698 214.924 70.7413 214.716 70.8278C214.509 70.9121 214.341 71.0352 214.21 71.1971C214.079 71.3568 214.008 71.5497 213.997 71.7759H213.199C213.212 71.4189 213.319 71.1061 213.521 70.8378C213.723 70.5672 213.987 70.3565 214.313 70.2057C214.641 70.0548 215.002 69.9794 215.394 69.9794C215.816 69.9794 216.177 70.0648 216.479 70.2356C216.78 70.4042 217.012 70.6271 217.174 70.9043C217.336 71.1815 217.417 71.481 217.417 71.8026C217.417 72.1863 217.316 72.5134 217.114 72.784C216.915 73.0546 216.643 73.242 216.299 73.3462V73.3994C216.729 73.4704 217.065 73.6534 217.307 73.9484C217.549 74.2411 217.67 74.6038 217.67 75.0363C217.67 75.4066 217.569 75.7393 217.367 76.0343C217.167 76.3271 216.895 76.5577 216.549 76.7263C216.203 76.8949 215.809 76.9791 215.368 76.9791ZM221.213 76.9791C220.756 76.9791 220.352 76.8982 220.002 76.7363C219.654 76.5722 219.382 76.347 219.187 76.0609C218.992 75.7726 218.895 75.4443 218.897 75.0762C218.895 74.7879 218.952 74.5217 219.067 74.2777C219.182 74.0315 219.34 73.8264 219.54 73.6623C219.741 73.4959 219.966 73.3906 220.215 73.3462V73.3063C219.889 73.222 219.629 73.039 219.436 72.7574C219.243 72.4735 219.148 72.1508 219.15 71.7892C219.148 71.4433 219.236 71.1339 219.413 70.8611C219.591 70.5883 219.835 70.3731 220.145 70.2156C220.458 70.0582 220.814 69.9794 221.213 69.9794C221.608 69.9794 221.96 70.0582 222.271 70.2156C222.581 70.3731 222.825 70.5883 223.003 70.8611C223.182 71.1339 223.273 71.4433 223.276 71.7892C223.273 72.1508 223.175 72.4735 222.98 72.7574C222.787 73.039 222.53 73.222 222.211 73.3063V73.3462C222.457 73.3906 222.679 73.4959 222.876 73.6623C223.074 73.8264 223.231 74.0315 223.349 74.2777C223.466 74.5217 223.526 74.7879 223.528 75.0762C223.526 75.4443 223.426 75.7726 223.229 76.0609C223.034 76.347 222.762 76.5722 222.414 76.7363C222.068 76.8982 221.668 76.9791 221.213 76.9791ZM221.213 76.2472C221.521 76.2472 221.787 76.1973 222.011 76.0975C222.235 75.9977 222.408 75.8569 222.53 75.675C222.652 75.4931 222.714 75.2802 222.717 75.0363C222.714 74.779 222.648 74.5516 222.517 74.3543C222.386 74.1569 222.208 74.0016 221.981 73.8885C221.757 73.7754 221.501 73.7188 221.213 73.7188C220.922 73.7188 220.663 73.7754 220.434 73.8885C220.208 74.0016 220.03 74.1569 219.899 74.3543C219.77 74.5516 219.707 74.779 219.709 75.0363C219.707 75.2802 219.766 75.4931 219.886 75.675C220.008 75.8569 220.182 75.9977 220.408 76.0975C220.634 76.1973 220.902 76.2472 221.213 76.2472ZM221.213 73.0135C221.457 73.0135 221.673 72.9647 221.862 72.8671C222.052 72.7696 222.202 72.6332 222.311 72.4579C222.419 72.2827 222.475 72.0776 222.477 71.8425C222.475 71.6118 222.421 71.4111 222.314 71.2403C222.208 71.0673 222.06 70.9342 221.872 70.8411C221.683 70.7457 221.464 70.698 221.213 70.698C220.958 70.698 220.735 70.7457 220.544 70.8411C220.354 70.9342 220.206 71.0673 220.102 71.2403C219.998 71.4111 219.947 71.6118 219.949 71.8425C219.947 72.0776 219.999 72.2827 220.105 72.4579C220.214 72.6332 220.363 72.7696 220.554 72.8671C220.745 72.9647 220.965 73.0135 221.213 73.0135ZM225.777 75.9545L225.724 76.3138C225.686 76.5666 225.629 76.8372 225.551 77.1255C225.476 77.4138 225.397 77.6855 225.315 77.9406C225.233 78.1957 225.165 78.3986 225.112 78.5494H224.513C224.542 78.4075 224.58 78.2201 224.626 77.9872C224.673 77.7543 224.719 77.4937 224.766 77.2054C224.815 76.9193 224.855 76.6265 224.886 76.3271L224.926 75.9545H225.777ZM229.211 76.9791C228.82 76.9791 228.469 76.9015 228.156 76.7463C227.843 76.591 227.593 76.3781 227.404 76.1075C227.216 75.8369 227.113 75.5286 227.095 75.1826H227.893C227.924 75.4909 228.064 75.746 228.312 75.9478C228.563 76.1474 228.862 76.2472 229.211 76.2472C229.49 76.2472 229.739 76.1818 229.956 76.0509C230.175 75.9201 230.347 75.7404 230.472 75.512C230.598 75.2813 230.661 75.0207 230.661 74.7302C230.661 74.433 230.596 74.1679 230.465 73.9351C230.336 73.7 230.159 73.5148 229.933 73.3795C229.706 73.2442 229.448 73.1754 229.157 73.1732C228.949 73.171 228.735 73.2032 228.515 73.2697C228.296 73.334 228.115 73.4172 227.973 73.5192L227.201 73.4261L227.614 70.0726H231.154V70.8045H228.306L228.066 72.8139H228.106C228.246 72.703 228.421 72.611 228.632 72.5378C228.843 72.4646 229.062 72.428 229.291 72.428C229.708 72.428 230.079 72.5278 230.405 72.7274C230.733 72.9248 230.991 73.1954 231.177 73.5392C231.365 73.8829 231.46 74.2755 231.46 74.7169C231.46 75.1516 231.362 75.5397 231.167 75.8813C230.974 76.2206 230.708 76.489 230.368 76.6864C230.029 76.8816 229.643 76.9791 229.211 76.9791ZM235.083 76.9791C234.644 76.9791 234.253 76.9037 233.909 76.7529C233.567 76.6021 233.296 76.3925 233.094 76.1241C232.894 75.8536 232.786 75.5397 232.768 75.1826H233.606C233.624 75.4022 233.699 75.5918 233.833 75.7515C233.966 75.909 234.14 76.031 234.355 76.1175C234.57 76.204 234.808 76.2472 235.07 76.2472C235.363 76.2472 235.622 76.1962 235.849 76.0942C236.075 75.9922 236.252 75.8502 236.381 75.6684C236.51 75.4865 236.574 75.2758 236.574 75.0363C236.574 74.7856 236.512 74.565 236.388 74.3742C236.263 74.1813 236.081 74.0304 235.842 73.9218C235.602 73.8131 235.31 73.7587 234.964 73.7587H234.418V73.0268H234.964C235.234 73.0268 235.472 72.978 235.676 72.8805C235.882 72.7829 236.043 72.6454 236.158 72.4679C236.276 72.2905 236.334 72.082 236.334 71.8425C236.334 71.6118 236.283 71.4111 236.181 71.2403C236.079 71.0695 235.935 70.9365 235.749 70.8411C235.565 70.7457 235.347 70.698 235.097 70.698C234.862 70.698 234.64 70.7413 234.431 70.8278C234.225 70.9121 234.057 71.0352 233.926 71.1971C233.795 71.3568 233.724 71.5497 233.713 71.7759H232.914C232.928 71.4189 233.035 71.1061 233.237 70.8378C233.439 70.5672 233.703 70.3565 234.029 70.2057C234.357 70.0548 234.717 69.9794 235.11 69.9794C235.531 69.9794 235.893 70.0648 236.195 70.2356C236.496 70.4042 236.728 70.6271 236.89 70.9043C237.052 71.1815 237.133 71.481 237.133 71.8026C237.133 72.1863 237.032 72.5134 236.83 72.784C236.63 73.0546 236.359 73.242 236.015 73.3462V73.3994C236.445 73.4704 236.781 73.6534 237.023 73.9484C237.265 74.2411 237.386 74.6038 237.386 75.0363C237.386 75.4066 237.285 75.7393 237.083 76.0343C236.883 76.3271 236.61 76.5577 236.264 76.7263C235.918 76.8949 235.525 76.9791 235.083 76.9791ZM238.746 76.886V76.2872L240.995 73.8253C241.259 73.537 241.477 73.2863 241.647 73.0734C241.818 72.8583 241.945 72.6564 242.027 72.4679C242.111 72.2772 242.153 72.0776 242.153 71.8691C242.153 71.6296 242.095 71.4222 241.98 71.247C241.867 71.0718 241.712 70.9365 241.514 70.8411C241.317 70.7457 241.095 70.698 240.849 70.698C240.587 70.698 240.359 70.7524 240.164 70.8611C239.971 70.9675 239.821 71.1172 239.714 71.3102C239.61 71.5031 239.558 71.7294 239.558 71.9889H238.773C238.773 71.5896 238.865 71.2392 239.049 70.9376C239.233 70.6359 239.484 70.4008 239.801 70.2323C240.12 70.0637 240.478 69.9794 240.875 69.9794C241.275 69.9794 241.628 70.0637 241.937 70.2323C242.245 70.4008 242.487 70.6282 242.662 70.9143C242.837 71.2004 242.925 71.5187 242.925 71.8691C242.925 72.1197 242.879 72.3648 242.788 72.6043C242.7 72.8416 242.544 73.1067 242.323 73.3994C242.103 73.69 241.798 74.0449 241.408 74.464L239.877 76.1008V76.1541H243.045V76.886H238.746ZM247.173 70.0726H248.158L250.473 75.7282H250.553L252.869 70.0726H253.854V76.886H253.082V71.7094H253.015L250.886 76.886H250.141L248.012 71.7094H247.945V76.886H247.173V70.0726Z" fill="white"/>
</g>
<defs>
<filter id="filter0_bdd_337_1539" x="-396" y="-400" width="1067" height="895.246" filterUnits="userSpaceOnUse" color-interpolation-filters="sRGB">
<feFlood flood-opacity="0" result="BackgroundImageFix"/>
<feGaussianBlur in="BackgroundImageFix" stdDeviation="200"/>
<feComposite in2="SourceAlpha" operator="in" result="effect1_backgroundBlur_337_1539"/>
<feColorMatrix in="SourceAlpha" type="matrix" values="0 0 0 0 0 0 0 0 0 0 0 0 0 0 0 0 0 0 127 0" result="hardAlpha"/>
<feOffset dy="4"/>
<feGaussianBlur stdDeviation="2"/>
<feComposite in2="hardAlpha" operator="out"/>
<feColorMatrix type="matrix" values="0 0 0 0 0 0 0 0 0 0 0 0 0 0 0 0 0 0 0.25 0"/>
<feBlend mode="normal" in2="effect1_backgroundBlur_337_1539" result="effect2_dropShadow_337_1539"/>
<feColorMatrix in="SourceAlpha" type="matrix" values="0 0 0 0 0 0 0 0 0 0 0 0 0 0 0 0 0 0 127 0" result="hardAlpha"/>
<feOffset dy="4"/>
<feGaussianBlur stdDeviation="2"/>
<feComposite in2="hardAlpha" operator="out"/>
<feColorMatrix type="matrix" values="0 0 0 0 0 0 0 0 0 0 0 0 0 0 0 0 0 0 0.25 0"/>
<feBlend mode="normal" in2="effect2_dropShadow_337_1539" result="effect3_dropShadow_337_1539"/>
<feBlend mode="normal" in="SourceGraphic" in2="effect3_dropShadow_337_1539" result="shape"/>
</filter>
<linearGradient id="paint0_linear_337_1539" x1="137.5" y1="0" x2="137.5" y2="95.2456" gradientUnits="userSpaceOnUse">
<stop stop-color="#181B23"/>
<stop offset="1" stop-color="#181B23" stop-opacity="0"/>
</linearGradient>
<linearGradient id="paint1_linear_337_1539" x1="242.984" y1="37.1095" x2="186.881" y2="38.5719" gradientUnits="userSpaceOnUse">
<stop stop-color="#EF7C89"/>
<stop offset="1" stop-color="#C99100" stop-opacity="0"/>
</linearGradient>
<linearGradient id="paint2_linear_337_1539" x1="251.889" y1="36.2185" x2="180.941" y2="37.7398" gradientUnits="userSpaceOnUse">
<stop stop-color="#FF5F50"/>
<stop offset="0.53125" stop-color="#F866C6"/>
<stop offset="1" stop-color="white" stop-opacity="0"/>
</linearGradient>
<clipPath id="clip0_337_1539">
<rect width="235.772" height="49.9649" fill="white" transform="translate(19.614 14.0527)"/>
</clipPath>
</defs>
</svg>
