<svg width="307" height="154" viewBox="0 0 307 154" fill="none" xmlns="http://www.w3.org/2000/svg">
<g filter="url(#filter0_d_98_7600)">
<rect x="40" y="14" width="267" height="95.2456" rx="11.7105" fill="url(#paint0_linear_98_7600)" shape-rendering="crispEdges"/>
<g clip-path="url(#clip0_98_7600)">
<path d="M56.3423 47.4209V40.0397H59.1679C59.7013 40.0397 60.1446 40.1238 60.4978 40.292C60.8534 40.4578 61.1189 40.6849 61.2943 40.9732C61.4721 41.2615 61.561 41.5883 61.561 41.9535C61.561 42.2538 61.5033 42.5109 61.388 42.7248C61.2727 42.9362 61.1177 43.108 60.9231 43.2402C60.7285 43.3723 60.511 43.4672 60.2707 43.5249V43.597C60.5326 43.6114 60.7837 43.6919 61.024 43.8384C61.2667 43.9826 61.4649 44.1868 61.6187 44.4511C61.7724 44.7154 61.8493 45.035 61.8493 45.4098C61.8493 45.7918 61.7568 46.1354 61.5718 46.4406C61.3868 46.7433 61.1081 46.9824 60.7357 47.1578C60.3632 47.3332 59.8947 47.4209 59.3301 47.4209H56.3423ZM57.6794 46.3036H59.1174C59.6028 46.3036 59.9524 46.2111 60.1662 46.0261C60.3825 45.8387 60.4906 45.5984 60.4906 45.3053C60.4906 45.0866 60.4365 44.8896 60.3284 44.7142C60.2203 44.5364 60.0665 44.3971 59.8671 44.2962C59.6677 44.1928 59.4298 44.1412 59.1535 44.1412H57.6794V46.3036ZM57.6794 43.1789H59.0021C59.2328 43.1789 59.4406 43.1368 59.6256 43.0527C59.8106 42.9662 59.956 42.8449 60.0617 42.6887C60.1698 42.5301 60.2239 42.3427 60.2239 42.1265C60.2239 41.8406 60.123 41.6051 59.9211 41.4201C59.7217 41.2351 59.425 41.1426 59.0309 41.1426H57.6794V43.1789ZM62.9549 47.4209V41.885H64.2596V47.4209H62.9549ZM63.6108 41.0993C63.4042 41.0993 63.2264 41.0308 63.0774 40.8939C62.9285 40.7545 62.854 40.5875 62.854 40.3929C62.854 40.1959 62.9285 40.0289 63.0774 39.8919C63.2264 39.7526 63.4042 39.6829 63.6108 39.6829C63.8199 39.6829 63.9977 39.7526 64.1442 39.8919C64.2932 40.0289 64.3677 40.1959 64.3677 40.3929C64.3677 40.5875 64.2932 40.7545 64.1442 40.8939C63.9977 41.0308 63.8199 41.0993 63.6108 41.0993ZM68.3655 41.885V42.8942H65.1831V41.885H68.3655ZM65.9688 40.5587H67.2735V45.7558C67.2735 45.9312 67.2999 46.0658 67.3528 46.1595C67.408 46.2508 67.4801 46.3132 67.569 46.3469C67.6579 46.3805 67.7564 46.3973 67.8646 46.3973C67.9463 46.3973 68.0207 46.3913 68.088 46.3793C68.1577 46.3673 68.2106 46.3565 68.2466 46.3469L68.4665 47.3668C68.3968 47.3909 68.2971 47.4173 68.1673 47.4461C68.04 47.475 67.8838 47.4918 67.6988 47.4966C67.372 47.5062 67.0777 47.4569 66.8158 47.3488C66.5539 47.2383 66.346 47.0677 66.1923 46.837C66.0409 46.6064 65.9664 46.318 65.9688 45.9721V40.5587ZM71.8119 47.529C71.2593 47.529 70.7848 47.4077 70.3883 47.165C69.9943 46.9223 69.6903 46.5872 69.4765 46.1595C69.2651 45.7294 69.1593 45.2344 69.1593 44.6746C69.1593 44.1123 69.2675 43.6162 69.4837 43.1861C69.7 42.7536 70.0051 42.4172 70.3991 42.1769C70.7956 41.9343 71.2641 41.8129 71.8047 41.8129C72.2541 41.8129 72.6517 41.8958 72.9977 42.0616C73.3461 42.225 73.6236 42.4569 73.8302 42.7572C74.0369 43.0551 74.1546 43.4035 74.1834 43.8024H72.9364C72.886 43.5357 72.7658 43.3134 72.576 43.1356C72.3886 42.9554 72.1375 42.8653 71.8228 42.8653C71.5561 42.8653 71.3218 42.9374 71.12 43.0816C70.9181 43.2233 70.7608 43.4276 70.6478 43.6943C70.5373 43.961 70.482 44.2805 70.482 44.653C70.482 45.0302 70.5373 45.3546 70.6478 45.6261C70.7584 45.8952 70.9133 46.103 71.1128 46.2496C71.3146 46.3937 71.5513 46.4658 71.8228 46.4658C72.015 46.4658 72.1868 46.4298 72.3381 46.3577C72.4919 46.2832 72.6205 46.1763 72.7238 46.0369C72.8271 45.8976 72.898 45.7282 72.9364 45.5287H74.1834C74.1522 45.9204 74.0369 46.2676 73.8374 46.5703C73.638 46.8707 73.3665 47.1061 73.0229 47.2767C72.6793 47.4449 72.2757 47.529 71.8119 47.529ZM77.6695 47.529C77.1289 47.529 76.6604 47.4101 76.2639 47.1722C75.8675 46.9343 75.5599 46.6016 75.3413 46.1739C75.125 45.7462 75.0169 45.2464 75.0169 44.6746C75.0169 44.1027 75.125 43.6018 75.3413 43.1717C75.5599 42.7416 75.8675 42.4076 76.2639 42.1697C76.6604 41.9319 77.1289 41.8129 77.6695 41.8129C78.2101 41.8129 78.6786 41.9319 79.0751 42.1697C79.4715 42.4076 79.7779 42.7416 79.9941 43.1717C80.2128 43.6018 80.3221 44.1027 80.3221 44.6746C80.3221 45.2464 80.2128 45.7462 79.9941 46.1739C79.7779 46.6016 79.4715 46.9343 79.0751 47.1722C78.6786 47.4101 78.2101 47.529 77.6695 47.529ZM77.6767 46.4838C77.9698 46.4838 78.2149 46.4033 78.4119 46.2424C78.609 46.079 78.7555 45.8603 78.8516 45.5864C78.9502 45.3125 78.9994 45.0074 78.9994 44.671C78.9994 44.3322 78.9502 44.0258 78.8516 43.7519C78.7555 43.4756 78.609 43.2558 78.4119 43.0924C78.2149 42.929 77.9698 42.8473 77.6767 42.8473C77.3764 42.8473 77.1265 42.929 76.9271 43.0924C76.73 43.2558 76.5823 43.4756 76.4838 43.7519C76.3876 44.0258 76.3396 44.3322 76.3396 44.671C76.3396 45.0074 76.3876 45.3125 76.4838 45.5864C76.5823 45.8603 76.73 46.079 76.9271 46.2424C77.1265 46.4033 77.3764 46.4838 77.6767 46.4838ZM81.4295 47.4209V41.885H82.7342V47.4209H81.4295ZM82.0854 41.0993C81.8788 41.0993 81.701 41.0308 81.552 40.8939C81.403 40.7545 81.3286 40.5875 81.3286 40.3929C81.3286 40.1959 81.403 40.0289 81.552 39.8919C81.701 39.7526 81.8788 39.6829 82.0854 39.6829C82.2945 39.6829 82.4723 39.7526 82.6188 39.8919C82.7678 40.0289 82.8423 40.1959 82.8423 40.3929C82.8423 40.5875 82.7678 40.7545 82.6188 40.8939C82.4723 41.0308 82.2945 41.0993 82.0854 41.0993ZM85.3805 44.1772V47.4209H84.0758V41.885H85.3228V42.8257H85.3877C85.515 42.5157 85.718 42.2694 85.9968 42.0868C86.2779 41.9042 86.6251 41.8129 87.0383 41.8129C87.4204 41.8129 87.7531 41.8946 88.0367 42.058C88.3226 42.2214 88.5436 42.4581 88.6998 42.768C88.8584 43.078 88.9365 43.454 88.9341 43.8961V47.4209H87.6294V44.0979C87.6294 43.7279 87.5333 43.4384 87.3411 43.2293C87.1513 43.0203 86.8882 42.9158 86.5518 42.9158C86.3235 42.9158 86.1205 42.9662 85.9427 43.0672C85.7673 43.1657 85.6291 43.3086 85.5282 43.496C85.4297 43.6835 85.3805 43.9105 85.3805 44.1772Z" fill="white"/>
<path d="M58.4155 63.1761V54.6593H58.9611V63.1761H58.4155ZM59.9891 57.384C59.958 57.0935 59.8272 56.8673 59.5965 56.7053C59.3681 56.5434 59.0709 56.4625 58.7049 56.4625C58.4476 56.4625 58.2269 56.5013 58.0429 56.5789C57.8588 56.6566 57.7179 56.7619 57.6204 56.895C57.5228 57.028 57.4729 57.18 57.4706 57.3508C57.4706 57.4927 57.5028 57.6158 57.5671 57.72C57.6337 57.8243 57.7235 57.913 57.8366 57.9862C57.9497 58.0572 58.075 58.117 58.2125 58.1658C58.35 58.2146 58.4887 58.2557 58.6284 58.2889L59.2671 58.4486C59.5244 58.5085 59.7717 58.5895 60.009 58.6915C60.2486 58.7935 60.4626 58.9221 60.6511 59.0774C60.8419 59.2326 60.9927 59.4201 61.1036 59.6396C61.2145 59.8592 61.2699 60.1165 61.2699 60.4115C61.2699 60.8107 61.1679 61.1622 60.9638 61.4661C60.7598 61.7677 60.4648 62.0039 60.0789 62.1747C59.6952 62.3433 59.2305 62.4275 58.6849 62.4275C58.1549 62.4275 57.6947 62.3455 57.3043 62.1813C56.9162 62.0172 56.6123 61.7777 56.3927 61.4627C56.1754 61.1478 56.0578 60.7641 56.0401 60.3117H57.2544C57.2721 60.549 57.3453 60.7464 57.474 60.9038C57.6026 61.0613 57.7701 61.1789 57.9763 61.2565C58.1848 61.3341 58.4177 61.3729 58.675 61.3729C58.9433 61.3729 59.1784 61.333 59.3803 61.2532C59.5843 61.1711 59.744 61.058 59.8593 60.9138C59.9747 60.7674 60.0334 60.5967 60.0356 60.4015C60.0334 60.224 59.9813 60.0777 59.8793 59.9623C59.7773 59.8448 59.6342 59.7472 59.4501 59.6696C59.2683 59.5897 59.0553 59.5188 58.8114 59.4567L58.0362 59.257C57.4751 59.1129 57.0315 58.8944 56.7055 58.6017C56.3817 58.3067 56.2197 57.9152 56.2197 57.4273C56.2197 57.0258 56.3284 56.6743 56.5458 56.3727C56.7653 56.071 57.0637 55.837 57.4407 55.6707C57.8177 55.5021 58.2447 55.4179 58.7215 55.4179C59.205 55.4179 59.6287 55.5021 59.9924 55.6707C60.3584 55.837 60.6456 56.0688 60.8541 56.366C61.0625 56.661 61.1701 57.0003 61.1768 57.384H59.9891ZM64.749 62.4176C64.2699 62.4176 63.8441 62.3355 63.4715 62.1714C63.1011 62.0072 62.8083 61.7788 62.5932 61.486C62.378 61.1933 62.2638 60.855 62.2505 60.4713H63.5014C63.5125 60.6554 63.5735 60.8162 63.6844 60.9537C63.7953 61.089 63.9428 61.1944 64.1268 61.2698C64.3109 61.3452 64.5172 61.3829 64.7456 61.3829C64.9896 61.3829 65.2059 61.3408 65.3944 61.2565C65.5829 61.17 65.7304 61.0502 65.8368 60.8972C65.9433 60.7441 65.9954 60.5678 65.9932 60.3682C65.9954 60.1619 65.9422 59.9801 65.8335 59.8226C65.7248 59.6651 65.5674 59.542 65.3611 59.4533C65.1571 59.3646 64.9109 59.3203 64.6225 59.3203H64.0204V58.3688H64.6225C64.8599 58.3688 65.0672 58.3277 65.2447 58.2457C65.4243 58.1636 65.5652 58.0483 65.6672 57.8997C65.7692 57.7489 65.8191 57.5748 65.8169 57.3774C65.8191 57.1844 65.7759 57.017 65.6871 56.875C65.6006 56.7309 65.4775 56.6188 65.3179 56.539C65.1604 56.4592 64.9752 56.4192 64.7623 56.4192C64.5538 56.4192 64.3608 56.4569 64.1834 56.5323C64.006 56.6078 63.8629 56.7153 63.7542 56.8551C63.6456 56.9926 63.5879 57.1567 63.5812 57.3474H62.3936C62.4024 56.9659 62.5122 56.631 62.7229 56.3427C62.9358 56.0522 63.2197 55.8259 63.5746 55.664C63.9295 55.4999 64.3276 55.4179 64.7689 55.4179C65.2236 55.4179 65.6184 55.5032 65.9533 55.674C66.2904 55.8426 66.551 56.0699 66.7351 56.356C66.9192 56.6421 67.0112 56.9582 67.0112 57.3042C67.0134 57.6879 66.9003 58.0095 66.6719 58.269C66.4457 58.5285 66.1485 58.6981 65.7803 58.778V58.8312C66.2594 58.8977 66.6264 59.0752 66.8815 59.3635C67.1388 59.6496 67.2663 60.0056 67.2641 60.4314C67.2641 60.8129 67.1554 61.1545 66.938 61.4561C66.7229 61.7555 66.4257 61.9906 66.0464 62.1614C65.6694 62.3322 65.2369 62.4176 64.749 62.4176ZM70.828 62.4176C70.3334 62.4176 69.8942 62.3344 69.5105 62.168C69.129 62.0017 68.8296 61.7744 68.6123 61.486C68.3971 61.1955 68.2907 60.8661 68.2929 60.498C68.2907 60.2118 68.3528 59.949 68.4792 59.7095C68.6056 59.47 68.7764 59.2703 68.9915 59.1107C69.2089 58.9488 69.4506 58.8456 69.7168 58.8013V58.7547C69.3664 58.6771 69.0825 58.4985 68.8651 58.2191C68.65 57.9374 68.5435 57.6125 68.5457 57.2443C68.5435 56.8939 68.6411 56.5811 68.8385 56.3061C69.0359 56.0311 69.3065 55.8149 69.6503 55.6574C69.994 55.4977 70.3866 55.4179 70.828 55.4179C71.2649 55.4179 71.6541 55.4977 71.9957 55.6574C72.3395 55.8149 72.61 56.0311 72.8074 56.3061C73.0071 56.5811 73.1069 56.8939 73.1069 57.2443C73.1069 57.6125 72.9971 57.9374 72.7775 58.2191C72.5601 58.4985 72.2796 58.6771 71.9358 58.7547V58.8013C72.202 58.8456 72.4415 58.9488 72.6544 59.1107C72.8695 59.2703 73.0403 59.47 73.1667 59.7095C73.2954 59.949 73.3597 60.2118 73.3597 60.498C73.3597 60.8661 73.251 61.1955 73.0337 61.486C72.8163 61.7744 72.5169 62.0017 72.1354 62.168C71.7562 62.3344 71.3203 62.4176 70.828 62.4176ZM70.828 61.4661C71.083 61.4661 71.3048 61.4228 71.4933 61.3363C71.6819 61.2476 71.8282 61.1234 71.9325 60.9637C72.0367 60.804 72.0899 60.6199 72.0922 60.4115C72.0899 60.1941 72.0334 60.0023 71.9225 59.8359C71.8138 59.6674 71.6641 59.5354 71.4734 59.44C71.2849 59.3446 71.0697 59.297 70.828 59.297C70.584 59.297 70.3666 59.3446 70.1759 59.44C69.9852 59.5354 69.8343 59.6674 69.7234 59.8359C69.6148 60.0023 69.5615 60.1941 69.5638 60.4115C69.5615 60.6199 69.6126 60.804 69.7168 60.9637C69.821 61.1212 69.9674 61.2443 70.1559 61.333C70.3467 61.4217 70.5707 61.4661 70.828 61.4661ZM70.828 58.3621C71.0364 58.3621 71.2205 58.32 71.3802 58.2357C71.5421 58.1514 71.6697 58.0339 71.7628 57.8831C71.856 57.7322 71.9036 57.5581 71.9059 57.3607C71.9036 57.1656 71.8571 56.9948 71.7661 56.8484C71.6752 56.6998 71.5488 56.5856 71.3869 56.5057C71.225 56.4237 71.0387 56.3826 70.828 56.3826C70.6128 56.3826 70.4232 56.4237 70.2591 56.5057C70.0972 56.5856 69.9707 56.6998 69.8798 56.8484C69.7911 56.9948 69.7478 57.1656 69.7501 57.3607C69.7478 57.5581 69.7922 57.7322 69.8831 57.8831C69.9763 58.0317 70.1038 58.1492 70.2657 58.2357C70.4298 58.32 70.6173 58.3621 70.828 58.3621ZM75.6793 61.3929L75.6361 61.7588C75.605 62.0383 75.5496 62.3222 75.4698 62.6105C75.3921 62.9011 75.3101 63.1683 75.2236 63.4123C75.1371 63.6563 75.0672 63.8481 75.014 63.9878H74.2022C74.2333 63.8525 74.2754 63.6685 74.3286 63.4356C74.3841 63.2027 74.4373 62.941 74.4883 62.6504C74.5393 62.3599 74.5737 62.0649 74.5915 61.7655L74.6148 61.3929H75.6793ZM77.045 62.3244L79.9427 56.5889V56.5423H76.5793V55.511H81.2202V56.5656L78.3259 62.3244H77.045ZM84.5679 55.4179C84.8939 55.4201 85.2111 55.4777 85.5194 55.5908C85.8299 55.7017 86.1093 55.8836 86.3577 56.1365C86.6061 56.3871 86.8035 56.7231 86.9499 57.1445C87.0963 57.5659 87.1695 58.0871 87.1695 58.7081C87.1717 59.2936 87.1096 59.8171 86.9832 60.2784C86.859 60.7375 86.6804 61.1256 86.4475 61.4428C86.2147 61.7599 85.9341 62.0017 85.6059 62.168C85.2776 62.3344 84.9083 62.4176 84.498 62.4176C84.0677 62.4176 83.6863 62.3333 83.3536 62.1647C83.0231 61.9962 82.7558 61.7655 82.5518 61.4727C82.3478 61.18 82.2224 60.8451 82.1759 60.468H83.3902C83.4523 60.7386 83.5787 60.9537 83.7694 61.1134C83.9624 61.2709 84.2052 61.3496 84.498 61.3496C84.9704 61.3496 85.3342 61.1445 85.5892 60.7342C85.8443 60.3239 85.9718 59.7539 85.9718 59.0242H85.9252C85.8166 59.2193 85.6757 59.3879 85.5027 59.5298C85.3297 59.6696 85.1334 59.7771 84.9139 59.8525C84.6965 59.928 84.4658 59.9657 84.2219 59.9657C83.8227 59.9657 83.4634 59.8703 83.144 59.6796C82.8268 59.4888 82.5751 59.2271 82.3888 58.8944C82.2047 58.5617 82.1115 58.1814 82.1093 57.7533C82.1093 57.3097 82.2113 56.9116 82.4154 56.559C82.6217 56.2041 82.9089 55.9246 83.2771 55.7206C83.6452 55.5143 84.0755 55.4134 84.5679 55.4179ZM84.5712 56.4159C84.3317 56.4159 84.1154 56.4747 83.9225 56.5922C83.7317 56.7076 83.5809 56.865 83.47 57.0646C83.3613 57.262 83.307 57.4827 83.307 57.7267C83.3092 57.9684 83.3636 58.188 83.47 58.3854C83.5787 58.5828 83.7262 58.7392 83.9125 58.8545C84.101 58.9698 84.3161 59.0275 84.5579 59.0275C84.7375 59.0275 84.905 58.9931 85.0602 58.9244C85.2155 58.8556 85.3508 58.7602 85.4661 58.6382C85.5837 58.514 85.6746 58.3732 85.7389 58.2157C85.8055 58.0583 85.8376 57.8919 85.8354 57.7167C85.8354 57.4838 85.78 57.2687 85.6691 57.0713C85.5604 56.8739 85.4107 56.7153 85.2199 56.5956C85.0314 56.4758 84.8152 56.4159 84.5712 56.4159ZM90.646 62.4176C90.2025 62.4176 89.8054 62.3344 89.455 62.168C89.1046 61.9995 88.8262 61.7688 88.62 61.4761C88.4159 61.1833 88.3073 60.8484 88.2939 60.4713H89.4916C89.5138 60.7508 89.6347 60.9792 89.8542 61.1567C90.0738 61.3319 90.3377 61.4195 90.646 61.4195C90.8878 61.4195 91.1029 61.364 91.2914 61.2532C91.48 61.1423 91.6286 60.9881 91.7372 60.7907C91.8459 60.5933 91.8991 60.3682 91.8969 60.1154C91.8991 59.8581 91.8448 59.6296 91.7339 59.43C91.623 59.2304 91.4711 59.0741 91.2781 58.961C91.0852 58.8456 90.8634 58.788 90.6128 58.788C90.4087 58.7857 90.208 58.8234 90.0106 58.9011C89.8132 58.9787 89.6568 59.0807 89.5415 59.2071L88.427 59.0242L88.783 55.511H92.7353V56.5423H89.8043L89.6081 58.3488H89.648C89.7744 58.2002 89.9529 58.0771 90.1836 57.9795C90.4143 57.8797 90.6671 57.8298 90.9421 57.8298C91.3547 57.8298 91.7228 57.9274 92.0466 58.1226C92.3705 58.3155 92.6255 58.5817 92.8118 58.921C92.9981 59.2604 93.0913 59.6485 93.0913 60.0854C93.0913 60.5357 92.987 60.9371 92.7785 61.2898C92.5723 61.6402 92.2851 61.9163 91.9169 62.1181C91.5509 62.3177 91.1273 62.4176 90.646 62.4176ZM109.793 58.6382V59.1972H106.958V58.6382H109.793ZM110.937 62.3244V61.8686L113.162 59.3668C113.453 59.0386 113.687 58.758 113.864 58.5251C114.042 58.2923 114.17 58.0771 114.25 57.8797C114.332 57.6823 114.373 57.4772 114.373 57.2643C114.373 57.0048 114.312 56.7785 114.19 56.5856C114.07 56.3904 113.905 56.2385 113.694 56.1298C113.484 56.0211 113.246 55.9668 112.983 55.9668C112.703 55.9668 112.458 56.0267 112.247 56.1464C112.039 56.2662 111.877 56.4303 111.762 56.6388C111.646 56.8473 111.589 57.0868 111.589 57.3574H110.993C110.993 56.9804 111.08 56.6466 111.253 56.356C111.428 56.0633 111.666 55.8337 111.968 55.6674C112.272 55.501 112.615 55.4179 112.999 55.4179C113.378 55.4179 113.716 55.4999 114.011 55.664C114.306 55.8259 114.537 56.0466 114.706 56.3261C114.874 56.6055 114.959 56.9183 114.959 57.2643C114.959 57.5149 114.914 57.7577 114.826 57.9928C114.739 58.2279 114.589 58.4896 114.376 58.778C114.164 59.0663 113.869 59.4189 113.492 59.8359L111.801 61.7222V61.7655H115.172V62.3244H110.937ZM117.15 62.3743C117.019 62.3743 116.906 62.3277 116.811 62.2346C116.718 62.1392 116.671 62.0261 116.671 61.8952C116.671 61.7622 116.718 61.6491 116.811 61.5559C116.906 61.4627 117.019 61.4162 117.15 61.4162C117.283 61.4162 117.396 61.4627 117.49 61.5559C117.583 61.6491 117.629 61.7622 117.629 61.8952C117.629 61.9817 117.607 62.0616 117.563 62.1348C117.521 62.208 117.463 62.2667 117.39 62.3111C117.319 62.3532 117.239 62.3743 117.15 62.3743ZM121.108 62.4176C120.689 62.4176 120.314 62.3421 119.984 62.1913C119.653 62.0383 119.392 61.8265 119.199 61.5559C119.006 61.2853 118.904 60.9737 118.893 60.6211H119.521C119.533 60.8695 119.609 61.0868 119.751 61.2731C119.893 61.4572 120.081 61.6014 120.317 61.7056C120.552 61.8076 120.813 61.8586 121.102 61.8586C121.417 61.8586 121.694 61.7999 121.933 61.6823C122.175 61.5648 122.364 61.404 122.499 61.1999C122.637 60.9937 122.705 60.7608 122.705 60.5013C122.705 60.2263 122.635 59.9834 122.496 59.7727C122.356 59.562 122.155 59.3979 121.894 59.2803C121.634 59.1628 121.324 59.104 120.962 59.104H120.563V58.5451H120.962C121.257 58.5451 121.518 58.4919 121.744 58.3854C121.972 58.2767 122.152 58.1248 122.283 57.9296C122.414 57.7345 122.479 57.5049 122.479 57.241C122.479 56.9903 122.422 56.7697 122.309 56.5789C122.196 56.3882 122.037 56.2385 121.83 56.1298C121.626 56.0211 121.388 55.9668 121.115 55.9668C120.851 55.9668 120.609 56.0178 120.39 56.1198C120.17 56.2218 119.993 56.366 119.857 56.5523C119.724 56.7386 119.653 56.9593 119.645 57.2144H119.042C119.051 56.8595 119.149 56.5479 119.335 56.2795C119.524 56.0089 119.773 55.7982 120.084 55.6474C120.396 55.4944 120.742 55.4179 121.122 55.4179C121.523 55.4179 121.87 55.4999 122.163 55.664C122.456 55.8282 122.682 56.0466 122.842 56.3194C123.004 56.59 123.085 56.8883 123.085 57.2144C123.085 57.6025 122.979 57.9352 122.768 58.2124C122.558 58.4874 122.274 58.6782 121.917 58.7846V58.8279C122.352 58.9144 122.693 59.1073 122.941 59.4068C123.192 59.7039 123.317 60.0688 123.317 60.5013C123.317 60.865 123.222 61.1922 123.031 61.4827C122.841 61.771 122.579 61.9995 122.246 62.168C121.916 62.3344 121.536 62.4176 121.108 62.4176ZM128.234 61.0602V60.7508C128.234 60.4957 128.286 60.2662 128.388 60.0621C128.49 59.8559 128.635 59.6929 128.823 59.5731C129.012 59.4533 129.236 59.3934 129.495 59.3934C129.757 59.3934 129.981 59.4533 130.167 59.5731C130.354 59.6929 130.497 59.8559 130.597 60.0621C130.696 60.2662 130.746 60.4957 130.746 60.7508V61.0602C130.746 61.3153 130.695 61.5448 130.593 61.7489C130.493 61.9529 130.35 62.1159 130.164 62.2379C129.978 62.3577 129.755 62.4176 129.495 62.4176C129.231 62.4176 129.005 62.3577 128.817 62.2379C128.63 62.1159 128.486 61.9529 128.384 61.7489C128.284 61.5448 128.234 61.3153 128.234 61.0602ZM128.757 60.7508V61.0602C128.757 61.3108 128.818 61.5248 128.94 61.7023C129.064 61.8775 129.249 61.9651 129.495 61.9651C129.735 61.9651 129.916 61.8775 130.038 61.7023C130.16 61.5248 130.221 61.3108 130.221 61.0602V60.7508C130.221 60.5002 130.161 60.2873 130.041 60.112C129.921 59.9346 129.739 59.8459 129.495 59.8459C129.254 59.8459 129.07 59.9346 128.943 60.112C128.819 60.2873 128.757 60.5002 128.757 60.7508ZM124.801 57.0846V56.7752C124.801 56.5202 124.852 56.2906 124.954 56.0866C125.056 55.8825 125.202 55.7206 125.39 55.6008C125.579 55.4788 125.803 55.4179 126.062 55.4179C126.324 55.4179 126.548 55.4788 126.734 55.6008C126.92 55.7206 127.063 55.8825 127.163 56.0866C127.263 56.2906 127.313 56.5202 127.313 56.7752V57.0846C127.313 57.3397 127.262 57.5703 127.16 57.7766C127.06 57.9806 126.917 58.1425 126.731 58.2623C126.544 58.3821 126.322 58.442 126.062 58.442C125.798 58.442 125.572 58.3821 125.383 58.2623C125.197 58.1425 125.053 57.9806 124.951 57.7766C124.851 57.5703 124.801 57.3397 124.801 57.0846ZM125.323 56.7752V57.0846C125.323 57.3352 125.384 57.5493 125.506 57.7267C125.631 57.9019 125.816 57.9895 126.062 57.9895C126.302 57.9895 126.482 57.9019 126.604 57.7267C126.726 57.5493 126.787 57.3352 126.787 57.0846V56.7752C126.787 56.5246 126.727 56.3117 126.608 56.1365C126.488 55.959 126.306 55.8703 126.062 55.8703C125.82 55.8703 125.636 55.959 125.51 56.1365C125.386 56.3117 125.323 56.5246 125.323 56.7752ZM125.107 62.3244L129.788 55.511H130.377L125.696 62.3244H125.107Z" fill="#FF3B30"/>
<path d="M100.484 53.3153V64.5201H99.3657V53.3153H100.484Z" fill="white"/>
<path d="M218.444 63.1108C227.128 63.1108 228.237 51.4053 236.921 51.4053C245.605 51.4053 244.165 42.1051 252.849 42.1051C261.532 42.1051 261.366 55.2538 270.05 55.2538C278.734 55.2538 279.205 61.8809 287.889 61.8809" stroke="url(#paint1_linear_98_7600)" stroke-opacity="0.1" stroke-width="6.88579" stroke-linecap="round"/>
<path d="M218.444 63.4478C227.128 63.4478 228.237 51.7424 236.921 51.7424C245.605 51.7424 244.165 42.4421 252.849 42.4421C261.532 42.4421 261.366 55.5908 270.05 55.5908C278.734 55.5908 279.205 62.2179 287.889 62.2179" stroke="url(#paint2_linear_98_7600)" stroke-width="2.20158" stroke-linecap="round"/>
</g>
<path d="M65.0192 86.1212L61.8599 82.9619L58.7007 86.1212" stroke="white" stroke-width="1.17105" stroke-miterlimit="10" stroke-linecap="round" stroke-linejoin="round"/>
<path d="M61.8599 91.8099V83.0504" stroke="white" stroke-width="1.17105" stroke-miterlimit="10" stroke-linecap="round" stroke-linejoin="round"/>
<path d="M73.9432 91.7376V83.2209H74.4888V91.7376H73.9432ZM75.7797 85.7759C75.7397 85.4388 75.5778 85.177 75.2939 84.9907C75.01 84.8044 74.6618 84.7113 74.2493 84.7113C73.9477 84.7113 73.6837 84.7601 73.4575 84.8577C73.2335 84.9553 73.0583 85.0894 72.9319 85.2602C72.8077 85.431 72.7456 85.6251 72.7456 85.8424C72.7456 86.0243 72.7888 86.1806 72.8753 86.3115C72.964 86.4401 73.0771 86.5477 73.2146 86.6342C73.3522 86.7185 73.4963 86.7883 73.6471 86.8438C73.798 86.897 73.9366 86.9403 74.063 86.9735L74.755 87.1598C74.9324 87.2064 75.1298 87.2707 75.3472 87.3528C75.5667 87.4349 75.7763 87.5469 75.9759 87.6888C76.1778 87.8285 76.3441 88.0082 76.475 88.2278C76.6058 88.4473 76.6712 88.7168 76.6712 89.0362C76.6712 89.4044 76.5748 89.7371 76.3818 90.0343C76.1911 90.3314 75.9116 90.5677 75.5434 90.7429C75.1775 90.9181 74.7328 91.0057 74.2094 91.0057C73.7214 91.0057 73.2989 90.927 72.9418 90.7695C72.587 90.612 72.3075 90.3924 72.1035 90.1108C71.9016 89.8291 71.7874 89.502 71.7608 89.1293H72.6125C72.6347 89.3866 72.7212 89.5995 72.872 89.7681C73.025 89.9344 73.218 90.0586 73.4509 90.1407C73.686 90.2206 73.9388 90.2605 74.2094 90.2605C74.5243 90.2605 74.8071 90.2095 75.0577 90.1074C75.3083 90.0032 75.5069 89.859 75.6532 89.675C75.7996 89.4886 75.8728 89.2713 75.8728 89.0229C75.8728 88.7967 75.8096 88.6126 75.6832 88.4706C75.5568 88.3287 75.3904 88.2134 75.1841 88.1246C74.9779 88.0359 74.755 87.9583 74.5154 87.8918L73.6771 87.6522C73.1448 87.4992 72.7234 87.2807 72.4129 86.9968C72.1024 86.7129 71.9471 86.3414 71.9471 85.8823C71.9471 85.5009 72.0502 85.1682 72.2565 84.8843C72.465 84.5982 72.7445 84.3764 73.0949 84.2189C73.4475 84.0592 73.8412 83.9794 74.2759 83.9794C74.7151 83.9794 75.1054 84.0581 75.447 84.2156C75.7885 84.3708 76.0591 84.5838 76.2587 84.8543C76.4605 85.1249 76.567 85.4321 76.5781 85.7759H75.7797ZM80.2102 90.9791C79.771 90.9791 79.3796 90.9037 79.0358 90.7529C78.6943 90.602 78.4226 90.3924 78.2207 90.1241C78.0211 89.8535 77.9124 89.5397 77.8947 89.1826H78.7331C78.7508 89.4021 78.8262 89.5918 78.9593 89.7515C79.0924 89.9089 79.2665 90.0309 79.4816 90.1174C79.6967 90.2039 79.9352 90.2472 80.1969 90.2472C80.4896 90.2472 80.7491 90.1962 80.9754 90.0941C81.2016 89.9921 81.379 89.8502 81.5077 89.6683C81.6363 89.4864 81.7006 89.2757 81.7006 89.0362C81.7006 88.7856 81.6385 88.5649 81.5143 88.3742C81.3901 88.1812 81.2082 88.0304 80.9687 87.9217C80.7292 87.813 80.4364 87.7587 80.0904 87.7587H79.5448V87.0268H80.0904C80.361 87.0268 80.5983 86.978 80.8024 86.8804C81.0086 86.7828 81.1694 86.6453 81.2848 86.4679C81.4023 86.2904 81.4611 86.0819 81.4611 85.8424C81.4611 85.6118 81.4101 85.411 81.3081 85.2403C81.206 85.0695 81.0619 84.9364 80.8756 84.841C80.6915 84.7457 80.4741 84.698 80.2235 84.698C79.9884 84.698 79.7666 84.7412 79.5581 84.8277C79.3519 84.912 79.1833 85.0351 79.0524 85.197C78.9216 85.3567 78.8506 85.5497 78.8395 85.7759H78.0411C78.0544 85.4188 78.162 85.1061 78.3638 84.8377C78.5656 84.5671 78.8295 84.3564 79.1556 84.2056C79.4838 84.0548 79.8442 83.9794 80.2368 83.9794C80.6582 83.9794 81.0197 84.0648 81.3214 84.2355C81.623 84.4041 81.8548 84.627 82.0167 84.9042C82.1786 85.1815 82.2595 85.4809 82.2595 85.8025C82.2595 86.1862 82.1586 86.5133 81.9568 86.7839C81.7572 87.0545 81.4855 87.2419 81.1417 87.3462V87.3994C81.572 87.4704 81.908 87.6533 82.1497 87.9483C82.3915 88.2411 82.5124 88.6037 82.5124 89.0362C82.5124 89.4066 82.4115 89.7393 82.2096 90.0343C82.01 90.327 81.7372 90.5577 81.3912 90.7262C81.0452 90.8948 80.6516 90.9791 80.2102 90.9791ZM86.0555 90.9791C85.5986 90.9791 85.1949 90.8981 84.8445 90.7362C84.4963 90.5721 84.2246 90.347 84.0294 90.0609C83.8342 89.7725 83.7378 89.4443 83.74 89.0761C83.7378 88.7878 83.7943 88.5216 83.9097 88.2777C84.025 88.0315 84.1825 87.8263 84.3821 87.6622C84.5839 87.4959 84.809 87.3905 85.0574 87.3462V87.3062C84.7314 87.2219 84.4719 87.039 84.2789 86.7573C84.086 86.4734 83.9906 86.1507 83.9928 85.7892C83.9906 85.4432 84.0782 85.1338 84.2556 84.861C84.4331 84.5882 84.677 84.3731 84.9876 84.2156C85.3003 84.0581 85.6563 83.9794 86.0555 83.9794C86.4503 83.9794 86.8029 84.0581 87.1134 84.2156C87.4239 84.3731 87.6679 84.5882 87.8453 84.861C88.025 85.1338 88.1159 85.4432 88.1181 85.7892C88.1159 86.1507 88.0172 86.4734 87.822 86.7573C87.6291 87.039 87.3729 87.2219 87.0535 87.3062V87.3462C87.2997 87.3905 87.5215 87.4959 87.7189 87.6622C87.9163 87.8263 88.0738 88.0315 88.1913 88.2777C88.3089 88.5216 88.3687 88.7878 88.371 89.0761C88.3687 89.4443 88.2689 89.7725 88.0715 90.0609C87.8764 90.347 87.6047 90.5721 87.2565 90.7362C86.9105 90.8981 86.5101 90.9791 86.0555 90.9791ZM86.0555 90.2472C86.3638 90.2472 86.6299 90.1973 86.8539 90.0975C87.0779 89.9977 87.2509 89.8568 87.3729 89.675C87.4949 89.4931 87.557 89.2802 87.5592 89.0362C87.557 88.7789 87.4905 88.5516 87.3596 88.3542C87.2287 88.1568 87.0502 88.0015 86.824 87.8884C86.6 87.7753 86.3438 87.7188 86.0555 87.7188C85.7649 87.7188 85.5054 87.7753 85.277 87.8884C85.0508 88.0015 84.8722 88.1568 84.7414 88.3542C84.6127 88.5516 84.5495 88.7789 84.5517 89.0362C84.5495 89.2802 84.6083 89.4931 84.7281 89.675C84.85 89.8568 85.0241 89.9977 85.2504 90.0975C85.4766 90.1973 85.745 90.2472 86.0555 90.2472ZM86.0555 87.0135C86.2994 87.0135 86.5157 86.9647 86.7042 86.8671C86.8949 86.7695 87.0447 86.6331 87.1533 86.4579C87.262 86.2827 87.3175 86.0775 87.3197 85.8424C87.3175 85.6118 87.2631 85.411 87.1567 85.2403C87.0502 85.0673 86.9027 84.9342 86.7142 84.841C86.5257 84.7457 86.3061 84.698 86.0555 84.698C85.8004 84.698 85.5775 84.7457 85.3868 84.841C85.196 84.9342 85.0485 85.0673 84.9443 85.2403C84.8401 85.411 84.7891 85.6118 84.7913 85.8424C84.7891 86.0775 84.8412 86.2827 84.9476 86.4579C85.0563 86.6331 85.206 86.7695 85.3968 86.8671C85.5875 86.9647 85.8071 87.0135 86.0555 87.0135ZM90.6199 89.9544L90.5667 90.3137C90.529 90.5665 90.4713 90.8371 90.3937 91.1255C90.3183 91.4138 90.2395 91.6855 90.1575 91.9405C90.0754 92.1956 90.0078 92.3985 89.9545 92.5494H89.3557C89.3845 92.4074 89.4223 92.22 89.4688 91.9871C89.5154 91.7542 89.562 91.4936 89.6086 91.2053C89.6573 90.9192 89.6973 90.6264 89.7283 90.327L89.7682 89.9544H90.6199ZM94.0333 90.9791C93.5764 90.9791 93.1727 90.8981 92.8223 90.7362C92.4741 90.5721 92.2024 90.347 92.0072 90.0609C91.812 89.7725 91.7156 89.4443 91.7178 89.0761C91.7156 88.7878 91.7721 88.5216 91.8874 88.2777C92.0028 88.0315 92.1603 87.8263 92.3599 87.6622C92.5617 87.4959 92.7868 87.3905 93.0352 87.3462V87.3062C92.7092 87.2219 92.4497 87.039 92.2567 86.7573C92.0638 86.4734 91.9684 86.1507 91.9706 85.7892C91.9684 85.4432 92.056 85.1338 92.2334 84.861C92.4109 84.5882 92.6548 84.3731 92.9654 84.2156C93.2781 84.0581 93.634 83.9794 94.0333 83.9794C94.4281 83.9794 94.7807 84.0581 95.0912 84.2156C95.4017 84.3731 95.6457 84.5882 95.8231 84.861C96.0028 85.1338 96.0937 85.4432 96.0959 85.7892C96.0937 86.1507 95.995 86.4734 95.7998 86.7573C95.6069 87.039 95.3507 87.2219 95.0313 87.3062V87.3462C95.2775 87.3905 95.4993 87.4959 95.6967 87.6622C95.8941 87.8263 96.0516 88.0315 96.1691 88.2777C96.2867 88.5216 96.3465 88.7878 96.3488 89.0761C96.3465 89.4443 96.2467 89.7725 96.0493 90.0609C95.8542 90.347 95.5825 90.5721 95.2343 90.7362C94.8883 90.8981 94.4879 90.9791 94.0333 90.9791ZM94.0333 90.2472C94.3416 90.2472 94.6077 90.1973 94.8317 90.0975C95.0557 89.9977 95.2287 89.8568 95.3507 89.675C95.4727 89.4931 95.5348 89.2802 95.537 89.0362C95.5348 88.7789 95.4683 88.5516 95.3374 88.3542C95.2065 88.1568 95.028 88.0015 94.8018 87.8884C94.5778 87.7753 94.3216 87.7188 94.0333 87.7188C93.7427 87.7188 93.4832 87.7753 93.2548 87.8884C93.0286 88.0015 92.85 88.1568 92.7192 88.3542C92.5905 88.5516 92.5273 88.7789 92.5295 89.0362C92.5273 89.2802 92.5861 89.4931 92.7059 89.675C92.8278 89.8568 93.0019 89.9977 93.2282 90.0975C93.4544 90.1973 93.7228 90.2472 94.0333 90.2472ZM94.0333 87.0135C94.2772 87.0135 94.4935 86.9647 94.682 86.8671C94.8727 86.7695 95.0225 86.6331 95.1311 86.4579C95.2398 86.2827 95.2953 86.0775 95.2975 85.8424C95.2953 85.6118 95.2409 85.411 95.1345 85.2403C95.028 85.0673 94.8805 84.9342 94.692 84.841C94.5035 84.7457 94.2839 84.698 94.0333 84.698C93.7782 84.698 93.5553 84.7457 93.3646 84.841C93.1738 84.9342 93.0263 85.0673 92.9221 85.2403C92.8179 85.411 92.7668 85.6118 92.7691 85.8424C92.7668 86.0775 92.819 86.2827 92.9254 86.4579C93.0341 86.6331 93.1838 86.7695 93.3746 86.8671C93.5653 86.9647 93.7849 87.0135 94.0333 87.0135ZM99.753 90.9791C99.3626 90.9791 99.0111 90.9015 98.6984 90.7462C98.3856 90.5909 98.135 90.378 97.9465 90.1074C97.758 89.8369 97.6548 89.5286 97.6371 89.1826H98.4355C98.4666 89.4909 98.6063 89.7459 98.8547 89.9478C99.1053 90.1474 99.4048 90.2472 99.753 90.2472C100.032 90.2472 100.281 90.1817 100.498 90.0509C100.718 89.92 100.89 89.7404 101.014 89.5119C101.14 89.2813 101.203 89.0207 101.203 88.7301C101.203 88.4329 101.138 88.1679 101.007 87.935C100.879 87.6999 100.701 87.5147 100.475 87.3794C100.249 87.2441 99.9903 87.1754 99.6997 87.1732C99.4913 87.1709 99.2772 87.2031 99.0577 87.2696C98.8381 87.334 98.6573 87.4171 98.5154 87.5191L97.7435 87.426L98.1561 84.0725H101.696V84.8044H98.8481L98.6085 86.8139H98.6484C98.7882 86.703 98.9634 86.6109 99.1741 86.5377C99.3848 86.4645 99.6044 86.4279 99.8328 86.4279C100.25 86.4279 100.621 86.5277 100.947 86.7274C101.276 86.9248 101.533 87.1953 101.719 87.5391C101.908 87.8829 102.002 88.2755 102.002 88.7168C102.002 89.1515 101.904 89.5397 101.709 89.8812C101.516 90.2206 101.25 90.4889 100.911 90.6863C100.571 90.8815 100.185 90.9791 99.753 90.9791ZM105.493 83.9794C105.772 83.9816 106.052 84.0348 106.331 84.1391C106.61 84.2433 106.866 84.4163 107.096 84.6581C107.327 84.8976 107.512 85.2247 107.652 85.6395C107.791 86.0542 107.861 86.5743 107.861 87.1998C107.861 87.8053 107.804 88.3431 107.688 88.8133C107.575 89.2813 107.411 89.6761 107.196 89.9977C106.983 90.3193 106.724 90.5632 106.417 90.7296C106.114 90.8959 105.77 90.9791 105.386 90.9791C105.005 90.9791 104.664 90.9037 104.365 90.7529C104.068 90.5998 103.824 90.388 103.633 90.1174C103.444 89.8446 103.324 89.5286 103.27 89.1693H104.082C104.155 89.482 104.3 89.7404 104.518 89.9444C104.737 90.1463 105.027 90.2472 105.386 90.2472C105.912 90.2472 106.327 90.0176 106.63 89.5585C106.936 89.0994 107.09 88.4507 107.09 87.6123H107.036C106.912 87.7986 106.765 87.9594 106.594 88.0947C106.423 88.23 106.233 88.3342 106.025 88.4074C105.816 88.4806 105.595 88.5172 105.36 88.5172C104.969 88.5172 104.611 88.4207 104.285 88.2278C103.961 88.0326 103.702 87.7653 103.506 87.426C103.314 87.0844 103.217 86.6941 103.217 86.2549C103.217 85.838 103.31 85.4565 103.497 85.1105C103.685 84.7623 103.949 84.4851 104.288 84.2788C104.63 84.0725 105.031 83.9727 105.493 83.9794ZM105.493 84.7113C105.213 84.7113 104.961 84.7811 104.737 84.9209C104.516 85.0584 104.339 85.2447 104.208 85.4798C104.08 85.7127 104.015 85.9711 104.015 86.2549C104.015 86.5388 104.078 86.7972 104.202 87.0301C104.328 87.2608 104.5 87.4448 104.717 87.5824C104.937 87.7177 105.187 87.7853 105.466 87.7853C105.677 87.7853 105.873 87.7443 106.055 87.6622C106.237 87.5779 106.395 87.4637 106.531 87.3195C106.668 87.1732 106.776 87.0079 106.853 86.8238C106.931 86.6375 106.97 86.4435 106.97 86.2416C106.97 85.9755 106.905 85.726 106.777 85.4931C106.65 85.2602 106.475 85.0717 106.251 84.9275C106.029 84.7834 105.777 84.7113 105.493 84.7113Z" fill="white"/>
<path d="M125.211 82.3114L125.211 92.4605" stroke="white" stroke-width="0.780702"/>
<path d="M150.598 88.6507L147.439 91.8099L144.28 88.6507" stroke="white" stroke-width="1.17105" stroke-miterlimit="10" stroke-linecap="round" stroke-linejoin="round"/>
<path d="M147.439 82.962V91.7214" stroke="white" stroke-width="1.17105" stroke-miterlimit="10" stroke-linecap="round" stroke-linejoin="round"/>
<path d="M159.522 91.7376V83.2209H160.068V91.7376H159.522ZM161.359 85.7759C161.319 85.4388 161.157 85.177 160.873 84.9907C160.589 84.8044 160.241 84.7113 159.828 84.7113C159.527 84.7113 159.263 84.7601 159.037 84.8577C158.813 84.9553 158.637 85.0894 158.511 85.2602C158.387 85.431 158.325 85.6251 158.325 85.8424C158.325 86.0243 158.368 86.1806 158.454 86.3115C158.543 86.4401 158.656 86.5477 158.794 86.6342C158.931 86.7185 159.075 86.7883 159.226 86.8438C159.377 86.897 159.516 86.9403 159.642 86.9735L160.334 87.1598C160.512 87.2064 160.709 87.2707 160.926 87.3528C161.146 87.4349 161.355 87.5469 161.555 87.6888C161.757 87.8285 161.923 88.0082 162.054 88.2278C162.185 88.4473 162.25 88.7168 162.25 89.0362C162.25 89.4044 162.154 89.7371 161.961 90.0343C161.77 90.3314 161.491 90.5677 161.123 90.7429C160.757 90.9181 160.312 91.0057 159.788 91.0057C159.301 91.0057 158.878 90.927 158.521 90.7695C158.166 90.612 157.887 90.3924 157.683 90.1108C157.481 89.8291 157.367 89.502 157.34 89.1293H158.192C158.214 89.3866 158.3 89.5995 158.451 89.7681C158.604 89.9344 158.797 90.0586 159.03 90.1407C159.265 90.2206 159.518 90.2605 159.788 90.2605C160.103 90.2605 160.386 90.2095 160.637 90.1074C160.887 90.0032 161.086 89.859 161.232 89.675C161.379 89.4886 161.452 89.2713 161.452 89.0229C161.452 88.7967 161.389 88.6126 161.262 88.4706C161.136 88.3287 160.97 88.2134 160.763 88.1246C160.557 88.0359 160.334 87.9583 160.095 87.8918L159.256 87.6522C158.724 87.4992 158.302 87.2807 157.992 86.9968C157.681 86.7129 157.526 86.3414 157.526 85.8823C157.526 85.5009 157.629 85.1682 157.836 84.8843C158.044 84.5982 158.324 84.3764 158.674 84.2189C159.027 84.0592 159.42 83.9794 159.855 83.9794C160.294 83.9794 160.685 84.0581 161.026 84.2156C161.368 84.3708 161.638 84.5838 161.838 84.8543C162.04 85.1249 162.146 85.4321 162.157 85.7759H161.359ZM165.789 90.9791C165.35 90.9791 164.959 90.9037 164.615 90.7529C164.273 90.602 164.002 90.3924 163.8 90.1241C163.6 89.8535 163.492 89.5397 163.474 89.1826H164.312C164.33 89.4021 164.405 89.5918 164.538 89.7515C164.671 89.9089 164.846 90.0309 165.061 90.1174C165.276 90.2039 165.514 90.2472 165.776 90.2472C166.069 90.2472 166.328 90.1962 166.554 90.0941C166.781 89.9921 166.958 89.8502 167.087 89.6683C167.215 89.4864 167.28 89.2757 167.28 89.0362C167.28 88.7856 167.218 88.5649 167.093 88.3742C166.969 88.1812 166.787 88.0304 166.548 87.9217C166.308 87.813 166.016 87.7587 165.67 87.7587H165.124V87.0268H165.67C165.94 87.0268 166.177 86.978 166.381 86.8804C166.588 86.7828 166.749 86.6453 166.864 86.4679C166.981 86.2904 167.04 86.0819 167.04 85.8424C167.04 85.6118 166.989 85.411 166.887 85.2403C166.785 85.0695 166.641 84.9364 166.455 84.841C166.271 84.7457 166.053 84.698 165.803 84.698C165.568 84.698 165.346 84.7412 165.137 84.8277C164.931 84.912 164.762 85.0351 164.632 85.197C164.501 85.3567 164.43 85.5497 164.419 85.7759H163.62C163.633 85.4188 163.741 85.1061 163.943 84.8377C164.145 84.5671 164.409 84.3564 164.735 84.2056C165.063 84.0548 165.423 83.9794 165.816 83.9794C166.237 83.9794 166.599 84.0648 166.9 84.2355C167.202 84.4041 167.434 84.627 167.596 84.9042C167.758 85.1815 167.839 85.4809 167.839 85.8025C167.839 86.1862 167.738 86.5133 167.536 86.7839C167.336 87.0545 167.065 87.2419 166.721 87.3462V87.3994C167.151 87.4704 167.487 87.6533 167.729 87.9483C167.971 88.2411 168.091 88.6037 168.091 89.0362C168.091 89.4066 167.991 89.7393 167.789 90.0343C167.589 90.327 167.316 90.5577 166.97 90.7262C166.624 90.8948 166.231 90.9791 165.789 90.9791ZM171.635 90.9791C171.178 90.9791 170.774 90.8981 170.424 90.7362C170.075 90.5721 169.804 90.347 169.609 90.0609C169.413 89.7725 169.317 89.4443 169.319 89.0761C169.317 88.7878 169.373 88.5216 169.489 88.2777C169.604 88.0315 169.762 87.8263 169.961 87.6622C170.163 87.4959 170.388 87.3905 170.637 87.3462V87.3062C170.31 87.2219 170.051 87.039 169.858 86.7573C169.665 86.4734 169.57 86.1507 169.572 85.7892C169.57 85.4432 169.657 85.1338 169.835 84.861C170.012 84.5882 170.256 84.3731 170.567 84.2156C170.879 84.0581 171.235 83.9794 171.635 83.9794C172.029 83.9794 172.382 84.0581 172.693 84.2156C173.003 84.3731 173.247 84.5882 173.424 84.861C173.604 85.1338 173.695 85.4432 173.697 85.7892C173.695 86.1507 173.596 86.4734 173.401 86.7573C173.208 87.039 172.952 87.2219 172.633 87.3062V87.3462C172.879 87.3905 173.101 87.4959 173.298 87.6622C173.495 87.8263 173.653 88.0315 173.77 88.2777C173.888 88.5216 173.948 88.7878 173.95 89.0761C173.948 89.4443 173.848 89.7725 173.651 90.0609C173.455 90.347 173.184 90.5721 172.836 90.7362C172.49 90.8981 172.089 90.9791 171.635 90.9791ZM171.635 90.2472C171.943 90.2472 172.209 90.1973 172.433 90.0975C172.657 89.9977 172.83 89.8568 172.952 89.675C173.074 89.4931 173.136 89.2802 173.138 89.0362C173.136 88.7789 173.07 88.5516 172.939 88.3542C172.808 88.1568 172.629 88.0015 172.403 87.8884C172.179 87.7753 171.923 87.7188 171.635 87.7188C171.344 87.7188 171.085 87.7753 170.856 87.8884C170.63 88.0015 170.451 88.1568 170.32 88.3542C170.192 88.5516 170.129 88.7789 170.131 89.0362C170.129 89.2802 170.187 89.4931 170.307 89.675C170.429 89.8568 170.603 89.9977 170.829 90.0975C171.056 90.1973 171.324 90.2472 171.635 90.2472ZM171.635 87.0135C171.879 87.0135 172.095 86.9647 172.283 86.8671C172.474 86.7695 172.624 86.6331 172.732 86.4579C172.841 86.2827 172.897 86.0775 172.899 85.8424C172.897 85.6118 172.842 85.411 172.736 85.2403C172.629 85.0673 172.482 84.9342 172.293 84.841C172.105 84.7457 171.885 84.698 171.635 84.698C171.38 84.698 171.157 84.7457 170.966 84.841C170.775 84.9342 170.628 85.0673 170.523 85.2403C170.419 85.411 170.368 85.6118 170.37 85.8424C170.368 86.0775 170.42 86.2827 170.527 86.4579C170.635 86.6331 170.785 86.7695 170.976 86.8671C171.167 86.9647 171.386 87.0135 171.635 87.0135ZM176.199 89.9544L176.146 90.3137C176.108 90.5665 176.05 90.8371 175.973 91.1255C175.897 91.4138 175.819 91.6855 175.737 91.9405C175.655 92.1956 175.587 92.3985 175.534 92.5494H174.935C174.964 92.4074 175.001 92.22 175.048 91.9871C175.095 91.7542 175.141 91.4936 175.188 91.2053C175.236 90.9192 175.276 90.6264 175.307 90.327L175.347 89.9544H176.199ZM179.632 90.9791C179.242 90.9791 178.89 90.9015 178.578 90.7462C178.265 90.5909 178.014 90.378 177.826 90.1074C177.637 89.8369 177.534 89.5286 177.516 89.1826H178.315C178.346 89.4909 178.486 89.7459 178.734 89.9478C178.985 90.1474 179.284 90.2472 179.632 90.2472C179.912 90.2472 180.16 90.1817 180.378 90.0509C180.597 89.92 180.769 89.7404 180.893 89.5119C181.02 89.2813 181.083 89.0207 181.083 88.7301C181.083 88.4329 181.017 88.1679 180.887 87.935C180.758 87.6999 180.58 87.5147 180.354 87.3794C180.128 87.2441 179.87 87.1754 179.579 87.1732C179.371 87.1709 179.157 87.2031 178.937 87.2696C178.717 87.334 178.537 87.4171 178.395 87.5191L177.623 87.426L178.035 84.0725H181.575V84.8044H178.727L178.488 86.8139H178.528C178.668 86.703 178.843 86.6109 179.053 86.5377C179.264 86.4645 179.484 86.4279 179.712 86.4279C180.129 86.4279 180.501 86.5277 180.827 86.7274C181.155 86.9248 181.412 87.1953 181.599 87.5391C181.787 87.8829 181.881 88.2755 181.881 88.7168C181.881 89.1515 181.784 89.5397 181.589 89.8812C181.396 90.2206 181.129 90.4889 180.79 90.6863C180.451 90.8815 180.065 90.9791 179.632 90.9791ZM185.505 90.9791C185.066 90.9791 184.674 90.9037 184.331 90.7529C183.989 90.602 183.717 90.3924 183.516 90.1241C183.316 89.8535 183.207 89.5397 183.19 89.1826H184.028C184.046 89.4021 184.121 89.5918 184.254 89.7515C184.387 89.9089 184.561 90.0309 184.776 90.1174C184.992 90.2039 185.23 90.2472 185.492 90.2472C185.785 90.2472 186.044 90.1962 186.27 90.0941C186.496 89.9921 186.674 89.8502 186.803 89.6683C186.931 89.4864 186.995 89.2757 186.995 89.0362C186.995 88.7856 186.933 88.5649 186.809 88.3742C186.685 88.1812 186.503 88.0304 186.264 87.9217C186.024 87.813 185.731 87.7587 185.385 87.7587H184.84V87.0268H185.385C185.656 87.0268 185.893 86.978 186.097 86.8804C186.304 86.7828 186.464 86.6453 186.58 86.4679C186.697 86.2904 186.756 86.0819 186.756 85.8424C186.756 85.6118 186.705 85.411 186.603 85.2403C186.501 85.0695 186.357 84.9364 186.17 84.841C185.986 84.7457 185.769 84.698 185.518 84.698C185.283 84.698 185.061 84.7412 184.853 84.8277C184.647 84.912 184.478 85.0351 184.347 85.197C184.216 85.3567 184.145 85.5497 184.134 85.7759H183.336C183.349 85.4188 183.457 85.1061 183.659 84.8377C183.86 84.5671 184.124 84.3564 184.45 84.2056C184.779 84.0548 185.139 83.9794 185.532 83.9794C185.953 83.9794 186.315 84.0648 186.616 84.2355C186.918 84.4041 187.15 84.627 187.312 84.9042C187.473 85.1815 187.554 85.4809 187.554 85.8025C187.554 86.1862 187.453 86.5133 187.252 86.7839C187.052 87.0545 186.78 87.2419 186.437 87.3462V87.3994C186.867 87.4704 187.203 87.6533 187.445 87.9483C187.686 88.2411 187.807 88.6037 187.807 89.0362C187.807 89.4066 187.706 89.7393 187.505 90.0343C187.305 90.327 187.032 90.5577 186.686 90.7262C186.34 90.8948 185.946 90.9791 185.505 90.9791ZM189.168 90.8859V90.2871L191.417 87.8252C191.681 87.5369 191.898 87.2863 192.069 87.0734C192.24 86.8582 192.366 86.6564 192.448 86.4679C192.532 86.2771 192.575 86.0775 192.575 85.869C192.575 85.6295 192.517 85.4221 192.402 85.2469C192.289 85.0717 192.133 84.9364 191.936 84.841C191.738 84.7457 191.517 84.698 191.27 84.698C191.009 84.698 190.78 84.7523 190.585 84.861C190.392 84.9675 190.243 85.1172 190.136 85.3101C190.032 85.5031 189.98 85.7293 189.98 85.9888H189.195C189.195 85.5896 189.287 85.2391 189.471 84.9375C189.655 84.6359 189.905 84.4008 190.223 84.2322C190.542 84.0637 190.9 83.9794 191.297 83.9794C191.696 83.9794 192.05 84.0637 192.358 84.2322C192.667 84.4008 192.908 84.6281 193.084 84.9142C193.259 85.2003 193.346 85.5186 193.346 85.869C193.346 86.1197 193.301 86.3647 193.21 86.6043C193.121 86.8416 192.966 87.1066 192.744 87.3994C192.525 87.6899 192.22 88.0448 191.829 88.464L190.299 90.1008V90.154H193.466V90.8859H189.168Z" fill="white"/>
<path d="M210.79 82.3114L210.79 92.4605" stroke="white" stroke-width="0.780702"/>
<path d="M236.307 87.3859C237.66 87.3859 238.222 86.8655 237.723 85.1583C237.384 84.0081 236.395 83.0192 235.245 82.6809C233.538 82.1812 233.018 82.7434 233.018 84.0966V85.5955C233.018 86.8655 233.538 87.3859 234.579 87.3859H236.307Z" stroke="white" stroke-width="1.17105" stroke-linecap="round" stroke-linejoin="round"/>
<path d="M237.182 88.7912C236.698 91.201 234.387 92.9498 231.758 92.523C229.786 92.2055 228.198 90.6181 227.876 88.6455C227.454 86.0275 229.192 83.7167 231.592 83.2274" stroke="white" stroke-width="1.17105" stroke-linecap="round" stroke-linejoin="round"/>
<path d="M245.101 91.7376V83.2209H245.647V91.7376H245.101ZM246.937 85.7759C246.897 85.4388 246.736 85.177 246.452 84.9907C246.168 84.8044 245.82 84.7113 245.407 84.7113C245.105 84.7113 244.841 84.7601 244.615 84.8577C244.391 84.9553 244.216 85.0894 244.09 85.2602C243.965 85.431 243.903 85.6251 243.903 85.8424C243.903 86.0243 243.947 86.1806 244.033 86.3115C244.122 86.4401 244.235 86.5477 244.372 86.6342C244.51 86.7185 244.654 86.7883 244.805 86.8438C244.956 86.897 245.094 86.9403 245.221 86.9735L245.913 87.1598C246.09 87.2064 246.288 87.2707 246.505 87.3528C246.724 87.4349 246.934 87.5469 247.134 87.6888C247.335 87.8285 247.502 88.0082 247.633 88.2278C247.764 88.4473 247.829 88.7168 247.829 89.0362C247.829 89.4044 247.732 89.7371 247.54 90.0343C247.349 90.3314 247.069 90.5677 246.701 90.7429C246.335 90.9181 245.891 91.0057 245.367 91.0057C244.879 91.0057 244.457 90.927 244.1 90.7695C243.745 90.612 243.465 90.3924 243.261 90.1108C243.059 89.8291 242.945 89.502 242.919 89.1293H243.77C243.792 89.3866 243.879 89.5995 244.03 89.7681C244.183 89.9344 244.376 90.0586 244.609 90.1407C244.844 90.2206 245.097 90.2605 245.367 90.2605C245.682 90.2605 245.965 90.2095 246.215 90.1074C246.466 90.0032 246.665 89.859 246.811 89.675C246.957 89.4886 247.031 89.2713 247.031 89.0229C247.031 88.7967 246.967 88.6126 246.841 88.4706C246.714 88.3287 246.548 88.2134 246.342 88.1246C246.136 88.0359 245.913 87.9583 245.673 87.8918L244.835 87.6522C244.302 87.4992 243.881 87.2807 243.571 86.9968C243.26 86.7129 243.105 86.3414 243.105 85.8823C243.105 85.5009 243.208 85.1682 243.414 84.8843C243.623 84.5982 243.902 84.3764 244.253 84.2189C244.605 84.0592 244.999 83.9794 245.434 83.9794C245.873 83.9794 246.263 84.0581 246.605 84.2156C246.946 84.3708 247.217 84.5838 247.416 84.8543C247.618 85.1249 247.725 85.4321 247.736 85.7759H246.937ZM251.368 90.9791C250.929 90.9791 250.537 90.9037 250.194 90.7529C249.852 90.602 249.58 90.3924 249.378 90.1241C249.179 89.8535 249.07 89.5397 249.052 89.1826H249.891C249.909 89.4021 249.984 89.5918 250.117 89.7515C250.25 89.9089 250.424 90.0309 250.639 90.1174C250.854 90.2039 251.093 90.2472 251.355 90.2472C251.647 90.2472 251.907 90.1962 252.133 90.0941C252.359 89.9921 252.537 89.8502 252.665 89.6683C252.794 89.4864 252.858 89.2757 252.858 89.0362C252.858 88.7856 252.796 88.5649 252.672 88.3742C252.548 88.1812 252.366 88.0304 252.126 87.9217C251.887 87.813 251.594 87.7587 251.248 87.7587H250.703V87.0268H251.248C251.519 87.0268 251.756 86.978 251.96 86.8804C252.166 86.7828 252.327 86.6453 252.442 86.4679C252.56 86.2904 252.619 86.0819 252.619 85.8424C252.619 85.6118 252.568 85.411 252.466 85.2403C252.364 85.0695 252.22 84.9364 252.033 84.841C251.849 84.7457 251.632 84.698 251.381 84.698C251.146 84.698 250.924 84.7412 250.716 84.8277C250.51 84.912 250.341 85.0351 250.21 85.197C250.079 85.3567 250.008 85.5497 249.997 85.7759H249.199C249.212 85.4188 249.32 85.1061 249.522 84.8377C249.723 84.5671 249.987 84.3564 250.313 84.2056C250.642 84.0548 251.002 83.9794 251.395 83.9794C251.816 83.9794 252.177 84.0648 252.479 84.2355C252.781 84.4041 253.012 84.627 253.174 84.9042C253.336 85.1815 253.417 85.4809 253.417 85.8025C253.417 86.1862 253.316 86.5133 253.115 86.7839C252.915 87.0545 252.643 87.2419 252.299 87.3462V87.3994C252.73 87.4704 253.066 87.6533 253.307 87.9483C253.549 88.2411 253.67 88.6037 253.67 89.0362C253.67 89.4066 253.569 89.7393 253.367 90.0343C253.168 90.327 252.895 90.5577 252.549 90.7262C252.203 90.8948 251.809 90.9791 251.368 90.9791ZM257.213 90.9791C256.756 90.9791 256.353 90.8981 256.002 90.7362C255.654 90.5721 255.382 90.347 255.187 90.0609C254.992 89.7725 254.895 89.4443 254.898 89.0761C254.895 88.7878 254.952 88.5216 255.067 88.2777C255.183 88.0315 255.34 87.8263 255.54 87.6622C255.742 87.4959 255.967 87.3905 256.215 87.3462V87.3062C255.889 87.2219 255.63 87.039 255.437 86.7573C255.244 86.4734 255.148 86.1507 255.151 85.7892C255.148 85.4432 255.236 85.1338 255.413 84.861C255.591 84.5882 255.835 84.3731 256.145 84.2156C256.458 84.0581 256.814 83.9794 257.213 83.9794C257.608 83.9794 257.961 84.0581 258.271 84.2156C258.582 84.3731 258.826 84.5882 259.003 84.861C259.183 85.1338 259.274 85.4432 259.276 85.7892C259.274 86.1507 259.175 86.4734 258.98 86.7573C258.787 87.039 258.531 87.2219 258.211 87.3062V87.3462C258.457 87.3905 258.679 87.4959 258.877 87.6622C259.074 87.8263 259.231 88.0315 259.349 88.2777C259.467 88.5216 259.526 88.7878 259.529 89.0761C259.526 89.4443 259.427 89.7725 259.229 90.0609C259.034 90.347 258.762 90.5721 258.414 90.7362C258.068 90.8981 257.668 90.9791 257.213 90.9791ZM257.213 90.2472C257.521 90.2472 257.788 90.1973 258.012 90.0975C258.236 89.9977 258.409 89.8568 258.531 89.675C258.653 89.4931 258.715 89.2802 258.717 89.0362C258.715 88.7789 258.648 88.5516 258.517 88.3542C258.386 88.1568 258.208 88.0015 257.982 87.8884C257.758 87.7753 257.502 87.7188 257.213 87.7188C256.923 87.7188 256.663 87.7753 256.435 87.8884C256.208 88.0015 256.03 88.1568 255.899 88.3542C255.77 88.5516 255.707 88.7789 255.709 89.0362C255.707 89.2802 255.766 89.4931 255.886 89.675C256.008 89.8568 256.182 89.9977 256.408 90.0975C256.634 90.1973 256.903 90.2472 257.213 90.2472ZM257.213 87.0135C257.457 87.0135 257.673 86.9647 257.862 86.8671C258.053 86.7695 258.202 86.6331 258.311 86.4579C258.42 86.2827 258.475 86.0775 258.477 85.8424C258.475 85.6118 258.421 85.411 258.314 85.2403C258.208 85.0673 258.06 84.9342 257.872 84.841C257.683 84.7457 257.464 84.698 257.213 84.698C256.958 84.698 256.735 84.7457 256.544 84.841C256.354 84.9342 256.206 85.0673 256.102 85.2403C255.998 85.411 255.947 85.6118 255.949 85.8424C255.947 86.0775 255.999 86.2827 256.105 86.4579C256.214 86.6331 256.364 86.7695 256.554 86.8671C256.745 86.9647 256.965 87.0135 257.213 87.0135ZM261.778 89.9544L261.724 90.3137C261.687 90.5665 261.629 90.8371 261.551 91.1255C261.476 91.4138 261.397 91.6855 261.315 91.9405C261.233 92.1956 261.165 92.3985 261.112 92.5494H260.513C260.542 92.4074 260.58 92.22 260.627 91.9871C260.673 91.7542 260.72 91.4936 260.766 91.2053C260.815 90.9192 260.855 90.6264 260.886 90.327L260.926 89.9544H261.778ZM265.211 90.9791C264.821 90.9791 264.469 90.9015 264.156 90.7462C263.844 90.5909 263.593 90.378 263.404 90.1074C263.216 89.8369 263.113 89.5286 263.095 89.1826H263.894C263.925 89.4909 264.064 89.7459 264.313 89.9478C264.563 90.1474 264.863 90.2472 265.211 90.2472C265.49 90.2472 265.739 90.1817 265.956 90.0509C266.176 89.92 266.348 89.7404 266.472 89.5119C266.598 89.2813 266.661 89.0207 266.661 88.7301C266.661 88.4329 266.596 88.1679 266.465 87.935C266.337 87.6999 266.159 87.5147 265.933 87.3794C265.707 87.2441 265.448 87.1754 265.158 87.1732C264.949 87.1709 264.735 87.2031 264.516 87.2696C264.296 87.334 264.115 87.4171 263.973 87.5191L263.202 87.426L263.614 84.0725H267.154V84.8044H264.306L264.067 86.8139H264.106C264.246 86.703 264.421 86.6109 264.632 86.5377C264.843 86.4645 265.062 86.4279 265.291 86.4279C265.708 86.4279 266.079 86.5277 266.405 86.7274C266.734 86.9248 266.991 87.1953 267.177 87.5391C267.366 87.8829 267.46 88.2755 267.46 88.7168C267.46 89.1515 267.362 89.5397 267.167 89.8812C266.974 90.2206 266.708 90.4889 266.369 90.6863C266.029 90.8815 265.643 90.9791 265.211 90.9791ZM271.084 90.9791C270.645 90.9791 270.253 90.9037 269.909 90.7529C269.568 90.602 269.296 90.3924 269.094 90.1241C268.895 89.8535 268.786 89.5397 268.768 89.1826H269.607C269.624 89.4021 269.7 89.5918 269.833 89.7515C269.966 89.9089 270.14 90.0309 270.355 90.1174C270.57 90.2039 270.809 90.2472 271.07 90.2472C271.363 90.2472 271.623 90.1962 271.849 90.0941C272.075 89.9921 272.253 89.8502 272.381 89.6683C272.51 89.4864 272.574 89.2757 272.574 89.0362C272.574 88.7856 272.512 88.5649 272.388 88.3742C272.264 88.1812 272.082 88.0304 271.842 87.9217C271.603 87.813 271.31 87.7587 270.964 87.7587H270.418V87.0268H270.964C271.234 87.0268 271.472 86.978 271.676 86.8804C271.882 86.7828 272.043 86.6453 272.158 86.4679C272.276 86.2904 272.335 86.0819 272.335 85.8424C272.335 85.6118 272.284 85.411 272.182 85.2403C272.08 85.0695 271.935 84.9364 271.749 84.841C271.565 84.7457 271.348 84.698 271.097 84.698C270.862 84.698 270.64 84.7412 270.432 84.8277C270.225 84.912 270.057 85.0351 269.926 85.197C269.795 85.3567 269.724 85.5497 269.713 85.7759H268.915C268.928 85.4188 269.035 85.1061 269.237 84.8377C269.439 84.5671 269.703 84.3564 270.029 84.2056C270.357 84.0548 270.718 83.9794 271.11 83.9794C271.532 83.9794 271.893 84.0648 272.195 84.2355C272.496 84.4041 272.728 84.627 272.89 84.9042C273.052 85.1815 273.133 85.4809 273.133 85.8025C273.133 86.1862 273.032 86.5133 272.83 86.7839C272.631 87.0545 272.359 87.2419 272.015 87.3462V87.3994C272.445 87.4704 272.781 87.6533 273.023 87.9483C273.265 88.2411 273.386 88.6037 273.386 89.0362C273.386 89.4066 273.285 89.7393 273.083 90.0343C272.884 90.327 272.611 90.5577 272.265 90.7262C271.919 90.8948 271.525 90.9791 271.084 90.9791ZM274.747 90.8859V90.2871L276.995 87.8252C277.259 87.5369 277.477 87.2863 277.648 87.0734C277.818 86.8582 277.945 86.6564 278.027 86.4679C278.111 86.2771 278.153 86.0775 278.153 85.869C278.153 85.6295 278.096 85.4221 277.98 85.2469C277.867 85.0717 277.712 84.9364 277.514 84.841C277.317 84.7457 277.095 84.698 276.849 84.698C276.587 84.698 276.359 84.7523 276.164 84.861C275.971 84.9675 275.821 85.1172 275.715 85.3101C275.61 85.5031 275.558 85.7293 275.558 85.9888H274.773C274.773 85.5896 274.865 85.2391 275.049 84.9375C275.233 84.6359 275.484 84.4008 275.801 84.2322C276.121 84.0637 276.479 83.9794 276.876 83.9794C277.275 83.9794 277.629 84.0637 277.937 84.2322C278.245 84.4008 278.487 84.6281 278.662 84.9142C278.837 85.2003 278.925 85.5186 278.925 85.869C278.925 86.1197 278.88 86.3647 278.789 86.6043C278.7 86.8416 278.545 87.1066 278.323 87.3994C278.103 87.6899 277.798 88.0448 277.408 88.464L275.878 90.1008V90.154H279.045V90.8859H274.747ZM283.173 84.0725H284.158L286.474 89.7282H286.554L288.869 84.0725H289.854V90.8859H289.082V85.7093H289.015L286.886 90.8859H286.141L284.012 85.7093H283.945V90.8859H283.173V84.0725Z" fill="white"/>
</g>
<defs>
<filter id="filter0_d_98_7600" x="0" y="-22" width="347" height="175.246" filterUnits="userSpaceOnUse" color-interpolation-filters="sRGB">
<feFlood flood-opacity="0" result="BackgroundImageFix"/>
<feColorMatrix in="SourceAlpha" type="matrix" values="0 0 0 0 0 0 0 0 0 0 0 0 0 0 0 0 0 0 127 0" result="hardAlpha"/>
<feOffset dy="4"/>
<feGaussianBlur stdDeviation="20"/>
<feComposite in2="hardAlpha" operator="out"/>
<feColorMatrix type="matrix" values="0 0 0 0 0.0392157 0 0 0 0 0.0431373 0 0 0 0 0.0862745 0 0 0 1 0"/>
<feBlend mode="normal" in2="BackgroundImageFix" result="effect1_dropShadow_98_7600"/>
<feBlend mode="normal" in="SourceGraphic" in2="effect1_dropShadow_98_7600" result="shape"/>
</filter>
<linearGradient id="paint0_linear_98_7600" x1="173.5" y1="14" x2="173.5" y2="109.246" gradientUnits="userSpaceOnUse">
<stop stop-color="#181B23"/>
<stop offset="1" stop-color="#181B23" stop-opacity="0"/>
</linearGradient>
<linearGradient id="paint1_linear_98_7600" x1="278.984" y1="51.1093" x2="222.881" y2="52.5717" gradientUnits="userSpaceOnUse">
<stop stop-color="#EF7C89"/>
<stop offset="1" stop-color="#C99100" stop-opacity="0"/>
</linearGradient>
<linearGradient id="paint2_linear_98_7600" x1="287.889" y1="50.2185" x2="216.941" y2="51.7398" gradientUnits="userSpaceOnUse">
<stop stop-color="#FF5F50"/>
<stop offset="0.53125" stop-color="#F866C6"/>
<stop offset="1" stop-color="white" stop-opacity="0"/>
</linearGradient>
<clip-path id="clip0_98_7600">
<rect width="235.772" height="49.9649" fill="white" transform="translate(55.6143 28.0526)"/>
</clip-path>
</defs>
</svg>
