<svg width="330" height="50" viewBox="0 0 330 50" fill="none" xmlns="http://www.w3.org/2000/svg">
<path fill-rule="evenodd" clip-rule="evenodd" d="M0 0H8.99792V22.3609H18.1394V22.3588H41.0988C44.5027 22.3588 47.1724 21.6247 49.1079 20.2898C51.0434 18.955 52.0446 17.4866 52.0446 15.1507V14.3497C52.0446 11.947 51.0434 10.4119 49.1746 9.14383C47.2391 7.80898 44.5027 7.2083 41.0321 7.2083H18.1394V0.000107597H41.833C45.1701 0.000107597 48.1068 0.400566 50.7097 1.13473C53.3127 1.93564 55.4484 3.07026 57.117 4.47186C58.5853 5.73996 59.6532 7.14156 60.3874 8.81012C61.1883 10.4119 61.522 11.947 61.522 13.8825V14.6835C61.4553 18.421 60.3206 21.024 57.9846 23.2932C55.7154 25.5625 52.6453 27.1643 48.9077 28.032L67.3782 49.3056H56.4324L39.2773 29.8292H38.0484V29.8312H0V0ZM39.2773 42.3833H0V49.5488H39.2773H45.5397L45.4026 49.3837L39.2773 42.3833Z" fill="white"/>
<path d="M86.9226 41.7948L81.7922 49.5672H125.787V41.7948H86.9226ZM86.9226 20.6774V28.4498H125.787V20.6774H86.9226ZM81.7922 0L86.9226 7.919L125.787 7.77234V0H81.7922Z" fill="white"/>
<path d="M146.139 7.77234H177.105L183.845 0H140.437L146.139 7.77234ZM140.437 49.5672H150.703V29.403H178.735L183.845 21.4107H140.437V49.5672Z" fill="white"/>
<path d="M198.509 49.5672H208.775V0H198.509V49.5672Z" fill="white"/>
<path d="M223.428 49.5672H233.474V14.2982L265.736 49.5672H274.315V7.77234V0H264.197V34.2424L232.887 0H223.428V49.5672Z" fill="white"/>
<path d="M324.089 41.7948L329.219 49.5672H285.225V41.7948H324.089ZM324.089 20.6774V28.4498H285.225V20.6774H324.089ZM329.219 0L324.089 7.91902L285.225 7.77236V0H329.219Z" fill="white"/>
</svg>
