<svg width="16" height="16" viewBox="0 0 16 16" fill="none" xmlns="http://www.w3.org/2000/svg">
<path d="M5.33301 3.83337C5.05967 3.83337 4.83301 3.60671 4.83301 3.33337V1.33337C4.83301 1.06004 5.05967 0.833374 5.33301 0.833374C5.60634 0.833374 5.83301 1.06004 5.83301 1.33337V3.33337C5.83301 3.60671 5.60634 3.83337 5.33301 3.83337Z" fill="#84858A"/>
<path d="M10.667 3.83337C10.3937 3.83337 10.167 3.60671 10.167 3.33337V1.33337C10.167 1.06004 10.3937 0.833374 10.667 0.833374C10.9403 0.833374 11.167 1.06004 11.167 1.33337V3.33337C11.167 3.60671 10.9403 3.83337 10.667 3.83337Z" fill="#84858A"/>
<path d="M5.66667 9.66667C5.58 9.66667 5.49333 9.64668 5.41333 9.61335C5.32667 9.58001 5.26 9.53333 5.19333 9.47333C5.07333 9.34667 5 9.18 5 9C5 8.91334 5.02 8.82667 5.05333 8.74667C5.08667 8.66667 5.13333 8.59334 5.19333 8.52668C5.26 8.46668 5.32667 8.42 5.41333 8.38666C5.65333 8.28666 5.95333 8.34001 6.14 8.52668C6.26 8.65334 6.33333 8.82667 6.33333 9C6.33333 9.04 6.32667 9.08668 6.32 9.13335C6.31333 9.17335 6.3 9.21334 6.28 9.25334C6.26667 9.29334 6.24667 9.33334 6.22 9.37334C6.2 9.40667 6.16667 9.44 6.14 9.47333C6.01333 9.59333 5.84 9.66667 5.66667 9.66667Z" fill="#84858A"/>
<path d="M7.99967 9.6667C7.91301 9.6667 7.82634 9.64671 7.74634 9.61338C7.65967 9.58005 7.59301 9.53337 7.52634 9.47337C7.40634 9.3467 7.33301 9.18004 7.33301 9.00004C7.33301 8.91337 7.35301 8.8267 7.38634 8.7467C7.41968 8.6667 7.46634 8.59338 7.52634 8.52671C7.59301 8.46671 7.65967 8.42003 7.74634 8.3867C7.98634 8.28003 8.28634 8.34004 8.47301 8.52671C8.59301 8.65338 8.66634 8.8267 8.66634 9.00004C8.66634 9.04004 8.65967 9.08671 8.65301 9.13338C8.64634 9.17338 8.63301 9.21337 8.61301 9.25337C8.59967 9.29337 8.57968 9.33337 8.55301 9.37337C8.53301 9.4067 8.49967 9.44003 8.47301 9.47337C8.34634 9.59337 8.17301 9.6667 7.99967 9.6667Z" fill="#84858A"/>
<path d="M10.3337 9.6667C10.247 9.6667 10.1603 9.64671 10.0803 9.61338C9.99366 9.58005 9.92699 9.53337 9.86033 9.47337C9.83366 9.44003 9.80699 9.4067 9.78032 9.37337C9.75366 9.33337 9.73366 9.29337 9.72033 9.25337C9.70033 9.21337 9.68699 9.17338 9.68033 9.13338C9.67366 9.08671 9.66699 9.04004 9.66699 9.00004C9.66699 8.8267 9.74033 8.65338 9.86033 8.52671C9.92699 8.46671 9.99366 8.42003 10.0803 8.3867C10.327 8.28003 10.6203 8.34004 10.807 8.52671C10.927 8.65338 11.0003 8.8267 11.0003 9.00004C11.0003 9.04004 10.9937 9.08671 10.987 9.13338C10.9803 9.17338 10.967 9.21337 10.947 9.25337C10.9337 9.29337 10.9137 9.33337 10.887 9.37337C10.867 9.4067 10.8337 9.44003 10.807 9.47337C10.6803 9.59337 10.507 9.6667 10.3337 9.6667Z" fill="#84858A"/>
<path d="M5.66667 12C5.58 12 5.49333 11.9801 5.41333 11.9467C5.33333 11.9134 5.26 11.8667 5.19333 11.8067C5.07333 11.68 5 11.5067 5 11.3334C5 11.2467 5.02 11.16 5.05333 11.08C5.08667 10.9934 5.13333 10.92 5.19333 10.86C5.44 10.6134 5.89333 10.6134 6.14 10.86C6.26 10.9867 6.33333 11.16 6.33333 11.3334C6.33333 11.5067 6.26 11.68 6.14 11.8067C6.01333 11.9267 5.84 12 5.66667 12Z" fill="#84858A"/>
<path d="M7.99967 12C7.82634 12 7.65301 11.9267 7.52634 11.8067C7.40634 11.68 7.33301 11.5067 7.33301 11.3334C7.33301 11.2467 7.35301 11.16 7.38634 11.08C7.41968 10.9934 7.46634 10.92 7.52634 10.86C7.77301 10.6134 8.22634 10.6134 8.47301 10.86C8.53301 10.92 8.57967 10.9934 8.61301 11.08C8.64634 11.16 8.66634 11.2467 8.66634 11.3334C8.66634 11.5067 8.59301 11.68 8.47301 11.8067C8.34634 11.9267 8.17301 12 7.99967 12Z" fill="#84858A"/>
<path d="M10.3337 12.0001C10.1603 12.0001 9.98699 11.9267 9.86033 11.8067C9.80033 11.7467 9.75366 11.6734 9.72033 11.5867C9.68699 11.5067 9.66699 11.4201 9.66699 11.3334C9.66699 11.2467 9.68699 11.1601 9.72033 11.0801C9.75366 10.9934 9.80033 10.9201 9.86033 10.8601C10.0137 10.7067 10.247 10.6334 10.4603 10.6801C10.507 10.6867 10.547 10.7001 10.587 10.7201C10.627 10.7334 10.667 10.7534 10.707 10.7801C10.7403 10.8001 10.7737 10.8334 10.807 10.8601C10.927 10.9867 11.0003 11.1601 11.0003 11.3334C11.0003 11.5067 10.927 11.6801 10.807 11.8067C10.6803 11.9267 10.507 12.0001 10.3337 12.0001Z" fill="#84858A"/>
<path d="M13.6663 6.55994H2.33301C2.05967 6.55994 1.83301 6.33327 1.83301 6.05994C1.83301 5.7866 2.05967 5.55994 2.33301 5.55994H13.6663C13.9397 5.55994 14.1663 5.7866 14.1663 6.05994C14.1663 6.33327 13.9397 6.55994 13.6663 6.55994Z" fill="#84858A"/>
<path d="M10.6667 15.1667H5.33333C2.9 15.1667 1.5 13.7667 1.5 11.3334V5.66671C1.5 3.23337 2.9 1.83337 5.33333 1.83337H10.6667C13.1 1.83337 14.5 3.23337 14.5 5.66671V11.3334C14.5 13.7667 13.1 15.1667 10.6667 15.1667ZM5.33333 2.83337C3.42667 2.83337 2.5 3.76004 2.5 5.66671V11.3334C2.5 13.24 3.42667 14.1667 5.33333 14.1667H10.6667C12.5733 14.1667 13.5 13.24 13.5 11.3334V5.66671C13.5 3.76004 12.5733 2.83337 10.6667 2.83337H5.33333Z" fill="#84858A"/>
</svg>
