<svg width="18" height="18" viewBox="0 0 18 18" fill="none" xmlns="http://www.w3.org/2000/svg">
<path d="M8.4963 8.51412V2.44887C6.17097 2.69656 4.01341 4.19456 2.95227 6.29681L6.58773 6.27514V4.97013C6.30567 5.00855 6.01857 4.97883 5.75009 4.88344L7.20501 4.05317V7.19414L1.53776 7.19673C2.09159 4.98148 3.66719 3.049 5.7148 2.07373C7.76243 1.09845 10.2427 1.09897 12.2898 2.07373C14.3369 3.04848 15.9078 4.98665 16.4617 7.2009H10.7914V4.05782L12.2448 4.8788C11.9741 4.97546 11.6842 5.0045 11.4 4.96343C11.4 5.40032 11.4 5.83721 11.4 6.27411L15.0615 6.28443C14.6238 5.63218 14.1829 4.97581 13.6363 4.41335C12.5307 3.28389 11.0597 2.59293 9.49145 2.46642C9.49145 4.48232 9.49057 6.49858 9.48886 8.5152H17.9999C17.8226 5.67707 16.2439 2.96747 13.8751 1.43077C11.5063 -0.10593 8.40627 -0.431537 5.77566 0.583985C3.78123 1.35285 2.09364 2.87665 1.06727 4.76373C0.787996 5.27538 0.55949 5.81362 0.385079 6.37063C0.172851 7.04968 0.119666 7.81547 0 8.51672H8.4963V8.51412Z" fill="url(#paint0_linear_813_545)"/>
<path d="M9.48791 9.62207V15.5563C10.8354 15.3937 12.0546 14.9551 13.1127 14.0903C13.1127 14.0903 13.7468 13.5402 14.0981 13.1227L15.0667 11.7367H11.3959V13.0366H12.2091C12.2208 13.0701 12.2331 13.1036 12.2453 13.1372L10.7827 13.9654V10.812H16.4546C16.177 11.9617 15.6368 13.03 14.877 13.9313C14.877 13.9313 14.3374 14.5563 13.8419 14.9086C11.4307 17.1549 6.93405 17.3923 4.11062 14.8906C3.8135 14.7358 3.07761 13.8797 3.07761 13.8797C2.34632 13.0197 1.83118 11.9956 1.53218 10.8074H7.20299V13.9577L5.74708 13.1398C5.75731 13.1083 5.76702 13.0768 5.77725 13.0453H6.5955V11.73H2.91806L3.89532 13.1263C4.10704 13.3575 4.89458 14.1068 4.89458 14.1068C5.91737 14.9474 7.13806 15.3927 8.49478 15.5584V9.62416H0.03125C0.280298 14.0103 4.00477 18.1152 9.21025 17.9976C14.2142 17.8846 17.7182 13.8663 17.9576 9.62416L9.48791 9.62207Z" fill="url(#paint1_linear_813_545)"/>
<defs>
<linearGradient id="paint0_linear_813_545" x1="6.65373" y1="20.1266" x2="10.8626" y2="-0.645503" gradientUnits="userSpaceOnUse">
<stop stop-color="#1D1D1B"/>
<stop offset="0.25" stop-color="#F39200"/>
<stop offset="0.51" stop-color="#F9B233"/>
<stop offset="0.94" stop-color="#FCEA10"/>
</linearGradient>
<linearGradient id="paint1_linear_813_545" x1="6.93455" y1="20.1834" x2="11.1434" y2="-0.588689" gradientUnits="userSpaceOnUse">
<stop stop-color="#1D1D1B"/>
<stop offset="0.25" stop-color="#F39200"/>
<stop offset="0.51" stop-color="#F9B233"/>
<stop offset="0.94" stop-color="#FCEA10"/>
</linearGradient>
</defs>
</svg>
