<svg id="SvgjsSvg1052" width="20" height="20" xmlns="http://www.w3.org/2000/svg" version="1.1" xmlns:xlink="http://www.w3.org/1999/xlink" xmlns:svgjs="http://svgjs.com/svgjs"><defs id="SvgjsDefs1053"></defs><g id="SvgjsG1054" transform="matrix(1,0,0,1,0,0)"><svg xmlns="http://www.w3.org/2000/svg" viewBox="0 0 24 24" width="20" height="20"><path style="line-height:normal;text-indent:0;text-align:start;text-decoration-line:none;text-decoration-style:solid;text-decoration-color:#000;text-transform:none;block-progression:tb;isolation:auto;mix-blend-mode:normal" d="M13.762 1a.772.772 0 0 0-.762.762V6.24c0 .414.35.76.762.76H14v2.717c-2.055 1.289-3.224 3.03-4.139 4.693-.959 1.745-1.725 3.364-3.101 4.41l-.028.022-.023.023a2.01 2.01 0 0 0 0 2.832 2.01 2.01 0 0 0 2.832 0l2.522-2.521v10.28c0 1.098.9 2 2 2 1.099 0 1.937-.927 1.937-2v-4.93c.316.181.651.349 1.031.349.86 0 1.464-.619 1.744-1.385.34.27.759.447 1.225.447.895 0 1.529-.66 1.781-1.476.344.279.745.508 1.219.508 1.1 0 2-.901 2-2v-7.252c-.045-1.76-1-3.447-1-5.176V7h.238A.77.77 0 0 0 25 6.24V1.762A.772.772 0 0 0 24.238 1Z" color="#000" font-family="sans-serif" font-weight="400" overflow="visible" fill="#f9b031" class="color000 svgShape"></path></svg></g></svg>