<svg width="65" height="65" viewBox="0 0 65 65" fill="none" xmlns="http://www.w3.org/2000/svg">
<g filter="url(#filter0_d_98_7544)">
<path d="M30.3209 30.3805V10.1629C22.5699 10.9885 15.378 15.9819 11.8409 22.9894L23.9592 22.9172V18.5671C23.0189 18.6952 22.0619 18.5961 21.167 18.2782L26.0167 15.5106V25.9806L7.12586 25.9892C8.97199 18.605 14.224 12.1633 21.0494 8.91244C27.8748 5.66152 36.1423 5.66324 42.966 8.91244C49.7897 12.1616 55.0263 18.6222 56.8724 26.003H37.9714V15.5261L42.816 18.2627C41.9136 18.5849 40.9474 18.6817 39.9999 18.5448C39.9999 20.0011 39.9999 21.4574 39.9999 22.9137L52.2051 22.9481C50.746 20.774 49.2766 18.5861 47.4543 16.7112C43.7691 12.9463 38.8657 10.6431 33.6382 10.2214C33.6382 16.9411 33.6353 23.662 33.6296 30.384H62C61.4085 20.9236 56.1463 11.8916 48.2504 6.76924C40.3545 1.6469 30.0209 0.56154 21.2522 3.94662C14.6041 6.50951 8.97881 11.5888 5.55759 17.8791C4.62666 19.5846 3.86497 21.3788 3.2836 23.2354C2.57617 25.499 2.39889 28.0515 2 30.3891H30.3209V30.3805Z" fill="white"/>
<path d="M33.6517 34V53.8327C38.1619 53.2895 42.2425 51.8236 45.7839 48.9332C45.7839 48.9332 47.9063 47.0948 49.0822 45.6996L52.3241 41.0674H40.0379V45.4116H42.7594C42.7988 45.5237 42.8398 45.6358 42.8809 45.7479L37.9856 48.5158V37.9769H56.9695C56.0405 41.8194 54.2321 45.3895 51.689 48.402C51.689 48.402 49.8833 50.4905 48.2247 51.6684C40.1543 59.1755 25.1038 59.9688 15.6538 51.608C14.6593 51.0906 12.1963 48.2296 12.1963 48.2296C9.74861 45.3552 8.02442 41.9325 7.02368 37.9614H26.0041V48.49L21.1311 45.7565C21.1653 45.6513 21.1978 45.5461 21.232 45.4409H23.9707V41.0449H11.6622L14.9332 45.7117C15.6418 46.4843 18.2777 48.9884 18.2777 48.9884C21.701 51.7977 25.7867 53.286 30.3277 53.8396V34.0069H2C2.83357 48.6659 15.2995 62.385 32.7223 61.9917C49.4708 61.6141 61.1989 48.1847 62 34.0069L33.6517 34Z" fill="white"/>
</g>
<defs>
<filter id="filter0_d_98_7544" x="0" y="0" width="68" height="68" filterUnits="userSpaceOnUse" color-interpolation-filters="sRGB">
<feFlood flood-opacity="0" result="BackgroundImageFix"/>
<feColorMatrix in="SourceAlpha" type="matrix" values="0 0 0 0 0 0 0 0 0 0 0 0 0 0 0 0 0 0 127 0" result="hardAlpha"/>
<feOffset dx="2" dy="2"/>
<feGaussianBlur stdDeviation="2"/>
<feComposite in2="hardAlpha" operator="out"/>
<feColorMatrix type="matrix" values="0 0 0 0 0.0392157 0 0 0 0 0.0431373 0 0 0 0 0.0862745 0 0 0 0.12 0"/>
<feBlend mode="normal" in2="BackgroundImageFix" result="effect1_dropShadow_98_7544"/>
<feBlend mode="normal" in="SourceGraphic" in2="effect1_dropShadow_98_7544" result="shape"/>
</filter>
</defs>
</svg>
