<svg width="23" height="22" viewBox="0 0 23 22" fill="none" xmlns="http://www.w3.org/2000/svg">
<path d="M7.49555 11C7.49555 8.97503 9.13764 7.33304 11.1638 7.33304C13.19 7.33304 14.833 8.97503 14.833 11C14.833 13.025 13.19 14.667 11.1638 14.667C9.13764 14.667 7.49555 13.025 7.49555 11ZM5.51207 11C5.51207 14.1196 8.04235 16.6484 11.1638 16.6484C14.2853 16.6484 16.8156 14.1196 16.8156 11C16.8156 7.8804 14.2853 5.35163 11.1638 5.35163C8.04235 5.35163 5.51207 7.8804 5.51207 11ZM15.7185 5.12767C15.7184 5.38874 15.7958 5.64398 15.9408 5.86111C16.0859 6.07824 16.2921 6.24751 16.5334 6.34752C16.7747 6.44752 17.0403 6.47377 17.2965 6.42294C17.5527 6.37211 17.7881 6.24649 17.9729 6.06195C18.1577 5.87742 18.2836 5.64227 18.3346 5.38624C18.3857 5.1302 18.3596 4.86478 18.2598 4.62355C18.1599 4.38231 17.9907 4.17608 17.7736 4.03095C17.5564 3.88582 17.3011 3.8083 17.0399 3.8082H17.0393C16.6892 3.80836 16.3534 3.94741 16.1058 4.19481C15.8581 4.44221 15.7188 4.77773 15.7185 5.12767V5.12767ZM6.71716 19.9537C5.64406 19.9049 5.0608 19.7263 4.67319 19.5753C4.15931 19.3754 3.79266 19.1373 3.40717 18.7525C3.02167 18.3678 2.78305 18.0017 2.58387 17.4882C2.43277 17.101 2.25403 16.5179 2.20525 15.4454C2.15189 14.2859 2.14123 13.9376 2.14123 11.0001C2.14123 8.06256 2.15277 7.71522 2.20525 6.55477C2.25412 5.48231 2.43418 4.90037 2.58387 4.51202C2.78393 3.99846 3.0222 3.63202 3.40717 3.24676C3.79213 2.8615 4.15843 2.62302 4.67319 2.42396C5.06062 2.27295 5.64406 2.09431 6.71716 2.04556C7.87734 1.99223 8.22586 1.98158 11.1638 1.98158C14.1018 1.98158 14.4507 1.99311 15.6118 2.04556C16.6849 2.0944 17.2672 2.27436 17.6558 2.42396C18.1697 2.62302 18.5363 2.86202 18.9218 3.24676C19.3073 3.6315 19.545 3.99846 19.7451 4.51202C19.8962 4.89922 20.0749 5.48231 20.1237 6.55477C20.1771 7.71522 20.1877 8.06256 20.1877 11.0001C20.1877 13.9376 20.1771 14.285 20.1237 15.4454C20.0749 16.5179 19.8952 17.1008 19.7451 17.4882C19.545 18.0017 19.3068 18.3682 18.9218 18.7525C18.5368 19.1369 18.1697 19.3754 17.6558 19.5753C17.2684 19.7263 16.6849 19.905 15.6118 19.9537C14.4516 20.0071 14.1031 20.0177 11.1638 20.0177C8.22454 20.0177 7.87699 20.0071 6.71716 19.9537V19.9537ZM6.62603 0.066616C5.45431 0.119944 4.65364 0.305624 3.95442 0.577544C3.23027 0.858352 2.61725 1.23508 2.00466 1.84633C1.39208 2.45758 1.01609 3.0712 0.735117 3.79491C0.463034 4.49416 0.277243 5.2939 0.223883 6.46492C0.169642 7.63778 0.157227 8.01275 0.157227 11C0.157227 13.9872 0.169642 14.3622 0.223883 15.5351C0.277243 16.7062 0.463034 17.5058 0.735117 18.2051C1.01609 18.9284 1.39217 19.5427 2.00466 20.1537C2.61716 20.7647 3.23027 21.1409 3.95442 21.4225C4.65496 21.6944 5.45431 21.8801 6.62603 21.9334C7.80021 21.9867 8.17479 22 11.1638 22C14.1529 22 14.5281 21.9876 15.7016 21.9334C16.8734 21.8801 17.6736 21.6944 18.3732 21.4225C19.0969 21.1409 19.7104 20.7649 20.323 20.1537C20.9356 19.5424 21.3108 18.9284 21.5925 18.2051C21.8646 17.5058 22.0513 16.7061 22.1038 15.5351C22.1571 14.3613 22.1695 13.9872 22.1695 11C22.1695 8.01275 22.1571 7.63778 22.1038 6.46492C22.0504 5.29382 21.8646 4.49372 21.5925 3.79491C21.3108 3.07164 20.9346 2.45854 20.323 1.84633C19.7114 1.23411 19.0969 0.858352 18.3741 0.577544C17.6736 0.305624 16.8733 0.119064 15.7025 0.066616C14.5289 0.013288 14.1537 0 11.1647 0C8.17567 0 7.80021 0.012408 6.62603 0.066616Z" fill="url(#paint0_linear_1192_8986)"/>
<path d="M7.49555 11C7.49555 8.97503 9.13764 7.33304 11.1638 7.33304C13.19 7.33304 14.833 8.97503 14.833 11C14.833 13.025 13.19 14.667 11.1638 14.667C9.13764 14.667 7.49555 13.025 7.49555 11ZM5.51207 11C5.51207 14.1196 8.04235 16.6484 11.1638 16.6484C14.2853 16.6484 16.8156 14.1196 16.8156 11C16.8156 7.8804 14.2853 5.35163 11.1638 5.35163C8.04235 5.35163 5.51207 7.8804 5.51207 11ZM15.7185 5.12767C15.7184 5.38874 15.7958 5.64398 15.9408 5.86111C16.0859 6.07824 16.2921 6.24751 16.5334 6.34752C16.7747 6.44752 17.0403 6.47377 17.2965 6.42294C17.5527 6.37211 17.7881 6.24649 17.9729 6.06195C18.1577 5.87742 18.2836 5.64227 18.3346 5.38624C18.3857 5.1302 18.3596 4.86478 18.2598 4.62355C18.1599 4.38231 17.9907 4.17608 17.7736 4.03095C17.5564 3.88582 17.3011 3.8083 17.0399 3.8082H17.0393C16.6892 3.80836 16.3534 3.94741 16.1058 4.19481C15.8581 4.44221 15.7188 4.77773 15.7185 5.12767V5.12767ZM6.71716 19.9537C5.64406 19.9049 5.0608 19.7263 4.67319 19.5753C4.15931 19.3754 3.79266 19.1373 3.40717 18.7525C3.02167 18.3678 2.78305 18.0017 2.58387 17.4882C2.43277 17.101 2.25403 16.5179 2.20525 15.4454C2.15189 14.2859 2.14123 13.9376 2.14123 11.0001C2.14123 8.06256 2.15277 7.71522 2.20525 6.55477C2.25412 5.48231 2.43418 4.90037 2.58387 4.51202C2.78393 3.99846 3.0222 3.63202 3.40717 3.24676C3.79213 2.8615 4.15843 2.62302 4.67319 2.42396C5.06062 2.27295 5.64406 2.09431 6.71716 2.04556C7.87734 1.99223 8.22586 1.98158 11.1638 1.98158C14.1018 1.98158 14.4507 1.99311 15.6118 2.04556C16.6849 2.0944 17.2672 2.27436 17.6558 2.42396C18.1697 2.62302 18.5363 2.86202 18.9218 3.24676C19.3073 3.6315 19.545 3.99846 19.7451 4.51202C19.8962 4.89922 20.0749 5.48231 20.1237 6.55477C20.1771 7.71522 20.1877 8.06256 20.1877 11.0001C20.1877 13.9376 20.1771 14.285 20.1237 15.4454C20.0749 16.5179 19.8952 17.1008 19.7451 17.4882C19.545 18.0017 19.3068 18.3682 18.9218 18.7525C18.5368 19.1369 18.1697 19.3754 17.6558 19.5753C17.2684 19.7263 16.6849 19.905 15.6118 19.9537C14.4516 20.0071 14.1031 20.0177 11.1638 20.0177C8.22454 20.0177 7.87699 20.0071 6.71716 19.9537V19.9537ZM6.62603 0.066616C5.45431 0.119944 4.65364 0.305624 3.95442 0.577544C3.23027 0.858352 2.61725 1.23508 2.00466 1.84633C1.39208 2.45758 1.01609 3.0712 0.735117 3.79491C0.463034 4.49416 0.277243 5.2939 0.223883 6.46492C0.169642 7.63778 0.157227 8.01275 0.157227 11C0.157227 13.9872 0.169642 14.3622 0.223883 15.5351C0.277243 16.7062 0.463034 17.5058 0.735117 18.2051C1.01609 18.9284 1.39217 19.5427 2.00466 20.1537C2.61716 20.7647 3.23027 21.1409 3.95442 21.4225C4.65496 21.6944 5.45431 21.8801 6.62603 21.9334C7.80021 21.9867 8.17479 22 11.1638 22C14.1529 22 14.5281 21.9876 15.7016 21.9334C16.8734 21.8801 17.6736 21.6944 18.3732 21.4225C19.0969 21.1409 19.7104 20.7649 20.323 20.1537C20.9356 19.5424 21.3108 18.9284 21.5925 18.2051C21.8646 17.5058 22.0513 16.7061 22.1038 15.5351C22.1571 14.3613 22.1695 13.9872 22.1695 11C22.1695 8.01275 22.1571 7.63778 22.1038 6.46492C22.0504 5.29382 21.8646 4.49372 21.5925 3.79491C21.3108 3.07164 20.9346 2.45854 20.323 1.84633C19.7114 1.23411 19.0969 0.858352 18.3741 0.577544C17.6736 0.305624 16.8733 0.119064 15.7025 0.066616C14.5289 0.013288 14.1537 0 11.1647 0C8.17567 0 7.80021 0.012408 6.62603 0.066616Z" fill="url(#paint1_linear_1192_8986)"/>
<defs>
<linearGradient id="paint0_linear_1192_8986" x1="21.9378" y1="0" x2="0.157227" y2="0" gradientUnits="userSpaceOnUse">
<stop stop-color="#FFE885"/>
<stop offset="0.3138" stop-color="#E8C15B"/>
<stop offset="1" stop-color="#C08424"/>
</linearGradient>
<linearGradient id="paint1_linear_1192_8986" x1="21.9378" y1="0" x2="0.157227" y2="0" gradientUnits="userSpaceOnUse">
<stop stop-color="#FFE885"/>
<stop offset="0.3138" stop-color="#E8C15B"/>
<stop offset="1" stop-color="#C08424"/>
</linearGradient>
</defs>
</svg>
