<svg width="94" height="18" viewBox="0 0 94 18" fill="none" xmlns="http://www.w3.org/2000/svg">
<path d="M8.4963 8.51412V2.44887C6.17097 2.69656 4.01341 4.19456 2.95227 6.29681L6.58773 6.27514V4.97013C6.30567 5.00855 6.01857 4.97883 5.75009 4.88344L7.20501 4.05317V7.19414L1.53776 7.19673C2.09159 4.98148 3.66719 3.049 5.7148 2.07373C7.76243 1.09845 10.2427 1.09897 12.2898 2.07373C14.3369 3.04848 15.9078 4.98665 16.4617 7.2009H10.7914V4.05782L12.2448 4.8788C11.9741 4.97546 11.6842 5.0045 11.4 4.96343C11.4 5.40032 11.4 5.83721 11.4 6.27411L15.0615 6.28443C14.6238 5.63218 14.1829 4.97581 13.6363 4.41335C12.5307 3.28389 11.0597 2.59293 9.49145 2.46642C9.49145 4.48232 9.49057 6.49858 9.48886 8.5152H17.9999C17.8226 5.67707 16.2439 2.96747 13.8751 1.43077C11.5063 -0.10593 8.40627 -0.431537 5.77566 0.583985C3.78123 1.35285 2.09364 2.87665 1.06727 4.76373C0.787996 5.27538 0.55949 5.81362 0.385079 6.37063C0.172851 7.04968 0.119666 7.81547 0 8.51672H8.4963V8.51412Z" fill="url(#paint0_linear_702_31169)"/>
<path d="M9.48791 9.62207V15.5563C10.8354 15.3937 12.0546 14.9551 13.1127 14.0903C13.1127 14.0903 13.7468 13.5402 14.0981 13.1227L15.0667 11.7367H11.3959V13.0366H12.2091C12.2208 13.0701 12.2331 13.1036 12.2453 13.1372L10.7827 13.9654V10.812H16.4546C16.177 11.9617 15.6368 13.03 14.877 13.9313C14.877 13.9313 14.3374 14.5563 13.8419 14.9086C11.4307 17.1549 6.93405 17.3923 4.11062 14.8906C3.8135 14.7358 3.07761 13.8797 3.07761 13.8797C2.34632 13.0197 1.83118 11.9956 1.53218 10.8074H7.20299V13.9577L5.74708 13.1398C5.75731 13.1083 5.76702 13.0768 5.77725 13.0453H6.5955V11.73H2.91806L3.89532 13.1263C4.10704 13.3575 4.89458 14.1068 4.89458 14.1068C5.91737 14.9474 7.13806 15.3927 8.49478 15.5584V9.62416H0.03125C0.280298 14.0103 4.00477 18.1152 9.21025 17.9976C14.2142 17.8846 17.7182 13.8663 17.9576 9.62416L9.48791 9.62207Z" fill="url(#paint1_linear_702_31169)"/>
<path d="M26.6595 11.2174H32.6502V14.1768H26.6595C25.4238 14.1768 24.2386 13.6314 23.3647 12.6605C22.4909 11.6895 22 10.3727 22 8.99952C22 7.62644 22.4909 6.30957 23.3647 5.33865C24.2386 4.36772 25.4238 3.82227 26.6595 3.82227H33.9813L31.319 6.78031H26.6595C26.1385 6.79469 25.6433 7.03475 25.2794 7.44922C24.9155 7.86377 24.7119 8.4198 24.7119 8.99883C24.7119 9.57787 24.9155 10.134 25.2794 10.5484C25.6433 10.9629 26.1385 11.203 26.6595 11.2174Z" fill="white"/>
<path d="M39.3255 14.1768C38.0898 14.1768 36.9046 13.6314 36.0307 12.6605C35.1569 11.6895 34.666 10.3727 34.666 8.99952C34.666 7.62644 35.1569 6.30957 36.0307 5.33865C36.9046 4.36772 38.0898 3.82227 39.3255 3.82227H40.6579C41.8937 3.82227 43.0789 4.36772 43.9527 5.33865C44.8265 6.30957 45.3174 7.62644 45.3174 8.99952C45.3174 10.3727 44.8265 11.6895 43.9527 12.6605C43.0789 13.6314 41.8937 14.1768 40.6579 14.1768H39.3255ZM39.3255 6.77484C38.8046 6.78921 38.3093 7.02927 37.9454 7.44375C37.5815 7.85822 37.3779 8.41432 37.3779 8.99336C37.3779 9.57239 37.5815 10.1285 37.9454 10.543C38.3093 10.9574 38.8046 11.1975 39.3255 11.2119H40.6579C41.1789 11.1975 41.6741 10.9574 42.038 10.543C42.4019 10.1285 42.6055 9.57239 42.6055 8.99336C42.6055 8.41432 42.4019 7.85822 42.038 7.44375C41.6741 7.02927 41.1789 6.78921 40.6579 6.77484H39.3255Z" fill="white"/>
<path d="M48.6667 14.7314H46.002V6.22602L48.6667 3.2666V14.7314Z" fill="white"/>
<path d="M57.3345 9.86541V2.71289L59.9968 5.67231V14.1777H57.448L52.0138 8.13412V15.2866L49.3516 12.3286V3.82318H51.9015L57.3345 9.86541Z" fill="white"/>
<path d="M63.3419 10.4814V14.1824H60.6797V5.67426L63.3419 2.71484V7.522H68.6662V3.82103H71.3297V12.3264L68.6662 15.2845V10.4814H63.3419Z" fill="url(#paint2_linear_702_31169)"/>
<path d="M72.0156 9.55416V6.22602L74.6791 3.2666V9.55416C74.6798 10.1422 74.8906 10.7059 75.2643 11.1216C75.6388 11.5374 76.146 11.7713 76.6751 11.772H78.0065C78.5357 11.7709 79.0429 11.5369 79.4173 11.1213C79.7917 10.7057 80.0026 10.1422 80.0039 9.55416V4.3769H82.666V9.55416C82.6653 10.9272 82.1745 12.2438 81.3011 13.2146C80.427 14.1855 79.2421 14.7311 78.0065 14.7314H76.6751C75.4396 14.7311 74.2547 14.1855 73.3812 13.2146C72.5071 12.2438 72.0163 10.9272 72.0156 9.55416Z" fill="url(#paint3_linear_702_31169)"/>
<path d="M91.0046 3.26758C91.5467 3.26884 92.0786 3.43316 92.5427 3.74311C93.0075 4.05306 93.3881 4.49705 93.6441 5.02795C93.9001 5.55884 94.0219 6.15683 93.9966 6.75845C93.9713 7.36007 93.7995 7.9428 93.5003 8.44483C93.7995 8.94685 93.9713 9.52965 93.9966 10.1312C94.0219 10.7328 93.9001 11.3308 93.6441 11.8617C93.3881 12.3926 93.0075 12.8366 92.5427 13.1466C92.0786 13.4565 91.5467 13.6209 91.0046 13.6221H89.0071L86.3451 10.6627H91.0046C91.0497 10.6657 91.0956 10.6585 91.1381 10.6413C91.1812 10.6241 91.2202 10.5974 91.2531 10.5628C91.2859 10.5282 91.3126 10.4865 91.3304 10.4401C91.3489 10.3937 91.3578 10.3438 91.3578 10.2933C91.3578 10.2428 91.3489 10.1928 91.3304 10.1465C91.3126 10.1001 91.2859 10.0584 91.2531 10.0237C91.2202 9.98917 91.1812 9.9624 91.1381 9.94522C91.0956 9.92811 91.0497 9.92079 91.0046 9.92387H86.0117V14.731L83.3496 11.773V3.26758H91.0046ZM86.0117 6.22562V6.96442H91.0046C91.0497 6.9675 91.0956 6.96025 91.1381 6.94307C91.1812 6.92589 91.2202 6.89919 91.2531 6.86455C91.2859 6.82998 91.3126 6.78823 91.3304 6.74189C91.3489 6.69548 91.3578 6.64551 91.3578 6.59506C91.3578 6.54454 91.3489 6.49457 91.3304 6.44823C91.3126 6.40189 91.2859 6.36013 91.2531 6.3255C91.2202 6.29093 91.1812 6.26416 91.1381 6.24698C91.0956 6.2298 91.0497 6.22254 91.0046 6.22562H86.0117Z" fill="url(#paint4_linear_702_31169)"/>
<defs>
<linearGradient id="paint0_linear_702_31169" x1="6.65373" y1="20.1266" x2="10.8626" y2="-0.645503" gradientUnits="userSpaceOnUse">
<stop stop-color="#1D1D1B"/>
<stop offset="0.25" stop-color="#F39200"/>
<stop offset="0.51" stop-color="#F9B233"/>
<stop offset="0.94" stop-color="#FCEA10"/>
</linearGradient>
<linearGradient id="paint1_linear_702_31169" x1="6.93455" y1="20.1834" x2="11.1434" y2="-0.588689" gradientUnits="userSpaceOnUse">
<stop stop-color="#1D1D1B"/>
<stop offset="0.25" stop-color="#F39200"/>
<stop offset="0.51" stop-color="#F9B233"/>
<stop offset="0.94" stop-color="#FCEA10"/>
</linearGradient>
<linearGradient id="paint2_linear_702_31169" x1="66.0042" y1="23.5212" x2="66.0042" y2="-1.17942" gradientUnits="userSpaceOnUse">
<stop stop-color="#1D1D1B"/>
<stop offset="0.25" stop-color="#F39200"/>
<stop offset="0.51" stop-color="#F9B233"/>
<stop offset="0.94" stop-color="#FCEA10"/>
</linearGradient>
<linearGradient id="paint3_linear_702_31169" x1="77.3419" y1="24.073" x2="77.3419" y2="-0.627661" gradientUnits="userSpaceOnUse">
<stop stop-color="#1D1D1B"/>
<stop offset="0.25" stop-color="#F39200"/>
<stop offset="0.51" stop-color="#F9B233"/>
<stop offset="0.94" stop-color="#FCEA10"/>
</linearGradient>
<linearGradient id="paint4_linear_702_31169" x1="88.6752" y1="22.9637" x2="88.6752" y2="-1.73698" gradientUnits="userSpaceOnUse">
<stop stop-color="#1D1D1B"/>
<stop offset="0.25" stop-color="#F39200"/>
<stop offset="0.51" stop-color="#F9B233"/>
<stop offset="0.94" stop-color="#FCEA10"/>
</linearGradient>
</defs>
</svg>
