<svg width="138" height="29" viewBox="0 0 138 29" fill="none" xmlns="http://www.w3.org/2000/svg">
<path d="M13.4391 13.4673V3.87353C9.76099 4.26531 6.34825 6.63478 4.66978 9.96005L10.4202 9.92577V7.86156C9.97406 7.92232 9.51994 7.87532 9.09527 7.72443L11.3966 6.41114V11.3794L2.43236 11.3835C3.3084 7.87951 5.80062 4.82279 9.03945 3.28014C12.2783 1.73749 16.2015 1.73831 19.4395 3.28014C22.6775 4.82197 25.1624 7.88768 26.0385 11.3901H17.0694V6.41849L19.3683 7.71709C18.9401 7.86999 18.4816 7.91592 18.032 7.85095C18.032 8.54201 18.032 9.23307 18.032 9.92413L23.8237 9.94046C23.1313 8.90876 22.434 7.87053 21.5693 6.98086C19.8206 5.19433 17.4938 4.1014 15.0132 3.90128C15.0132 7.08996 15.0118 10.2792 15.0091 13.469H28.4716C28.191 8.97977 25.6939 4.69382 21.9471 2.26313C18.2002 -0.167556 13.2967 -0.682588 9.13571 0.923724C5.981 2.13989 3.31164 4.55017 1.68817 7.53507C1.24642 8.34439 0.884979 9.19575 0.609103 10.0768C0.273409 11.1509 0.189283 12.3622 0 13.4714H13.4391V13.4673Z" fill="url(#paint0_linear_116_3762)"/>
<path d="M15.0084 15.2198V24.6063C17.1398 24.3492 19.0683 23.6554 20.7419 22.2874C20.7419 22.2874 21.7449 21.4173 22.3006 20.757L23.8327 18.5647H18.0264V20.6207H19.3126C19.3312 20.6738 19.3506 20.7268 19.37 20.7799L17.0565 22.0899V17.102H26.028C25.589 18.9206 24.7344 20.6103 23.5326 22.036C23.5326 22.036 22.6792 23.0245 21.8954 23.5819C18.0814 27.1349 10.9688 27.5104 6.50282 23.5534C6.03285 23.3085 4.86884 21.9544 4.86884 21.9544C3.71212 20.5941 2.89729 18.9741 2.42435 17.0947H11.3942V22.0777L9.0913 20.784C9.10748 20.7342 9.12285 20.6844 9.13903 20.6346H10.4333V18.5541H4.61647L6.16227 20.7627C6.49716 21.1284 7.74286 22.3135 7.74286 22.3135C9.36066 23.6432 11.2915 24.3476 13.4375 24.6096V15.2231H0.0502319C0.444166 22.1609 6.33538 28.6539 14.5692 28.4678C22.4842 28.2891 28.0268 21.9332 28.4054 15.2231L15.0084 15.2198Z" fill="url(#paint1_linear_116_3762)"/>
<path d="M40.8361 17.9811H49.5878V22.3044H40.8361C39.0308 22.3044 37.2994 21.5076 36.0228 20.0892C34.7462 18.6707 34.0291 16.747 34.0291 14.741C34.0291 12.7351 34.7462 10.8113 36.0228 9.3929C37.2994 7.97449 39.0308 7.17764 40.8361 7.17764H51.5324L47.6431 11.499H40.8361C40.075 11.52 39.3515 11.8707 38.8199 12.4762C38.2883 13.0818 37.9908 13.8941 37.9908 14.74C37.9908 15.5859 38.2883 16.3983 38.8199 17.0038C39.3515 17.6093 40.075 17.96 40.8361 17.9811Z" fill="white"/>
<path d="M57.3663 22.3044C55.561 22.3044 53.8296 21.5076 52.553 20.0892C51.2764 18.6707 50.5593 16.747 50.5593 14.741C50.5593 12.7351 51.2764 10.8113 52.553 9.3929C53.8296 7.97449 55.561 7.17764 57.3663 7.17764H59.3127C61.1181 7.17764 62.8495 7.97449 64.126 9.3929C65.4026 10.8113 66.1198 12.7351 66.1198 14.741C66.1198 16.747 65.4026 18.6707 64.126 20.0892C62.8495 21.5076 61.1181 22.3044 59.3127 22.3044H57.3663ZM57.3663 11.491C56.6053 11.512 55.8817 11.8627 55.3501 12.4682C54.8185 13.0737 54.521 13.8861 54.521 14.732C54.521 15.5779 54.8185 16.3903 55.3501 16.9958C55.8817 17.6013 56.6053 17.952 57.3663 17.973H59.3127C60.0738 17.952 60.7973 17.6013 61.3289 16.9958C61.8605 16.3903 62.158 15.5779 62.158 14.732C62.158 13.8861 61.8605 13.0737 61.3289 12.4682C60.7973 11.8627 60.0738 11.512 59.3127 11.491H57.3663Z" fill="white"/>
<path d="M70.984 22.3047H67.0911V9.87927L70.984 5.55591V22.3047Z" fill="white"/>
<path d="M83.623 16.0049V5.55591L87.5122 9.87927V22.3047H83.7888L75.85 13.4757V23.9247L71.9608 19.6033V7.17792H75.686L83.623 16.0049Z" fill="white"/>
<path d="M92.3748 16.902V22.3087H88.4856V9.87927L92.3748 5.55591V12.5786H100.153V7.17192H104.044V19.5973L100.153 23.9187V16.902H92.3748Z" fill="url(#paint2_linear_116_3762)"/>
<path d="M105.015 14.7413V9.87927L108.906 5.55591V14.7413C108.907 15.6003 109.215 16.4238 109.761 17.0312C110.308 17.6386 111.049 17.9803 111.822 17.9813H113.767C114.54 17.9797 115.281 17.6379 115.828 17.0307C116.375 16.4235 116.683 15.6003 116.685 14.7413V7.17792H120.574V14.7413C120.573 16.7471 119.856 18.6705 118.58 20.0888C117.303 21.5071 115.572 22.3042 113.767 22.3047H111.822C110.017 22.3042 108.286 21.5071 107.01 20.0888C105.733 18.6705 105.016 16.7471 105.015 14.7413Z" fill="url(#paint3_linear_116_3762)"/>
<path d="M132.73 7.17764C133.522 7.17948 134.299 7.41954 134.977 7.87233C135.656 8.32513 136.212 8.97375 136.586 9.74934C136.96 10.5249 137.138 11.3985 137.101 12.2774C137.064 13.1563 136.813 14.0076 136.376 14.741C136.813 15.4744 137.064 16.3258 137.101 17.2046C137.138 18.0835 136.96 18.9571 136.586 19.7327C136.212 20.5083 135.656 21.1569 134.977 21.6097C134.299 22.0625 133.522 22.3026 132.73 22.3044H129.812L125.923 17.9811H132.73C132.796 17.9855 132.863 17.9749 132.925 17.9498C132.988 17.9247 133.045 17.8857 133.093 17.8351C133.141 17.7846 133.18 17.7236 133.206 17.6559C133.233 17.5881 133.246 17.5152 133.246 17.4414C133.246 17.3676 133.233 17.2946 133.206 17.2269C133.18 17.1592 133.141 17.0982 133.093 17.0476C133.045 16.9971 132.988 16.958 132.925 16.9329C132.863 16.9079 132.796 16.8972 132.73 16.9017H125.436V23.9244L121.547 19.6031V7.17764H132.73ZM125.436 11.499V12.5783H132.73C132.796 12.5828 132.863 12.5722 132.925 12.5471C132.988 12.522 133.045 12.483 133.093 12.4324C133.141 12.3819 133.18 12.3209 133.206 12.2532C133.233 12.1854 133.246 12.1124 133.246 12.0387C133.246 11.9649 133.233 11.8919 133.206 11.8242C133.18 11.7565 133.141 11.6955 133.093 11.6449C133.045 11.5944 132.988 11.5553 132.925 11.5302C132.863 11.5051 132.796 11.4945 132.73 11.499H125.436Z" fill="url(#paint4_linear_116_3762)"/>
<defs>
<linearGradient id="paint0_linear_116_3762" x1="10.5246" y1="31.8354" x2="17.182" y2="-1.02103" gradientUnits="userSpaceOnUse">
<stop stop-color="#1D1D1B"/>
<stop offset="0.25" stop-color="#F39200"/>
<stop offset="0.51" stop-color="#F9B233"/>
<stop offset="0.94" stop-color="#FCEA10"/>
</linearGradient>
<linearGradient id="paint1_linear_116_3762" x1="10.9696" y1="31.9253" x2="17.627" y2="-0.931171" gradientUnits="userSpaceOnUse">
<stop stop-color="#1D1D1B"/>
<stop offset="0.25" stop-color="#F39200"/>
<stop offset="0.51" stop-color="#F9B233"/>
<stop offset="0.94" stop-color="#FCEA10"/>
</linearGradient>
<linearGradient id="paint2_linear_116_3762" x1="96.2641" y1="35.9516" x2="96.2641" y2="-0.133153" gradientUnits="userSpaceOnUse">
<stop stop-color="#1D1D1B"/>
<stop offset="0.25" stop-color="#F39200"/>
<stop offset="0.51" stop-color="#F9B233"/>
<stop offset="0.94" stop-color="#FCEA10"/>
</linearGradient>
<linearGradient id="paint3_linear_116_3762" x1="112.796" y1="35.9516" x2="112.796" y2="-0.133153" gradientUnits="userSpaceOnUse">
<stop stop-color="#1D1D1B"/>
<stop offset="0.25" stop-color="#F39200"/>
<stop offset="0.51" stop-color="#F9B233"/>
<stop offset="0.94" stop-color="#FCEA10"/>
</linearGradient>
<linearGradient id="paint4_linear_116_3762" x1="129.327" y1="35.9514" x2="129.327" y2="-0.133431" gradientUnits="userSpaceOnUse">
<stop stop-color="#1D1D1B"/>
<stop offset="0.25" stop-color="#F39200"/>
<stop offset="0.51" stop-color="#F9B233"/>
<stop offset="0.94" stop-color="#FCEA10"/>
</linearGradient>
</defs>
</svg>
