<svg width="23" height="22" viewBox="0 0 23 22" fill="none" xmlns="http://www.w3.org/2000/svg">
<path d="M8.43184 19.108C7.77636 19.108 7.8878 18.8605 7.66172 18.2364L5.73438 11.8935L20.5705 3.0918" fill="#AAAAAA"/>
<path d="M8.43184 19.108C7.77636 19.108 7.8878 18.8605 7.66172 18.2364L5.73438 11.8935L20.5705 3.0918" fill="url(#paint0_linear_1192_8990)"/>
<path d="M8.43164 19.1079C8.93742 19.1079 9.1608 18.8766 9.44319 18.6022L12.1407 15.9792L8.77591 13.9502" fill="#AAAAAA"/>
<path d="M8.43164 19.1079C8.93742 19.1079 9.1608 18.8766 9.44319 18.6022L12.1407 15.9792L8.77591 13.9502" fill="url(#paint1_linear_1192_8990)"/>
<path d="M8.77586 13.9508L16.929 19.9744C17.8594 20.4878 18.5308 20.2219 18.7626 19.1108L22.0813 3.47167C22.421 2.10944 21.562 1.49139 20.6719 1.8955L1.18434 9.40981C-0.145845 9.9434 -0.137921 10.6855 0.94191 11.0161L5.94285 12.5771L17.5206 5.2729C18.0671 4.94145 18.5689 5.11948 18.1572 5.48499" fill="url(#paint2_linear_1192_8990)"/>
<defs>
<linearGradient id="paint0_linear_1192_8990" x1="18.0978" y1="21.9394" x2="23.9273" y2="6.01529" gradientUnits="userSpaceOnUse">
<stop stop-color="#D0A568"/>
<stop offset="1" stop-color="#A8774B"/>
<stop offset="1" stop-color="#8B633F"/>
</linearGradient>
<linearGradient id="paint1_linear_1192_8990" x1="11.5225" y1="20.0197" x2="13.7659" y2="15.2623" gradientUnits="userSpaceOnUse">
<stop stop-color="#D0A568"/>
<stop offset="1" stop-color="#A8774B"/>
<stop offset="1" stop-color="#8B633F"/>
</linearGradient>
<linearGradient id="paint2_linear_1192_8990" x1="21.9256" y1="1.77344" x2="0.157227" y2="1.77344" gradientUnits="userSpaceOnUse">
<stop stop-color="#FFE885"/>
<stop offset="0.3138" stop-color="#E8C15B"/>
<stop offset="1" stop-color="#C08424"/>
</linearGradient>
</defs>
</svg>
