<svg width="23" height="22" viewBox="0 0 23 22" fill="none" xmlns="http://www.w3.org/2000/svg">
<g clip-path="url(#clip0_1192_8995)">
<path d="M7.0753 19.9377C15.3772 19.9377 19.918 13.0596 19.918 7.09495C19.918 6.89959 19.918 6.70511 19.9048 6.51151C20.7882 5.87255 21.5507 5.0814 22.1567 4.17511C21.333 4.54031 20.4591 4.7797 19.5643 4.88527C20.5066 4.32123 21.2118 3.43399 21.5487 2.38871C20.6627 2.91452 19.6933 3.28505 18.6825 3.48431C18.002 2.76067 17.1019 2.2815 16.1216 2.12094C15.1413 1.96037 14.1354 2.12738 13.2595 2.59611C12.3837 3.06483 11.6868 3.80915 11.2766 4.71388C10.8664 5.6186 10.7658 6.6333 10.9904 7.60095C9.19589 7.51093 7.44035 7.04456 5.83774 6.23211C4.23513 5.41966 2.82127 4.2793 1.68794 2.88503C1.11074 3.87869 0.933955 5.05499 1.19358 6.17441C1.4532 7.29384 2.12972 8.27224 3.08538 8.91039C2.36703 8.88934 1.66433 8.69555 1.03674 8.34543V8.40263C1.03702 9.44474 1.39777 10.4547 2.05779 11.2611C2.7178 12.0676 3.63646 12.6209 4.65794 12.8273C3.99343 13.0085 3.29621 13.035 2.61986 12.9047C2.9084 13.8015 3.46996 14.5857 4.22604 15.1477C4.98212 15.7097 5.89491 16.0214 6.83682 16.0393C5.90097 16.7749 4.82928 17.3187 3.68304 17.6398C2.5368 17.9608 1.33852 18.0527 0.156738 17.9101C2.22092 19.2347 4.62267 19.9374 7.0753 19.9341" fill="url(#paint0_linear_1192_8995)"/>
</g>
<defs>
<linearGradient id="paint0_linear_1192_8995" x1="21.9252" y1="2.06152" x2="0.156738" y2="2.06152" gradientUnits="userSpaceOnUse">
<stop stop-color="#FFE885"/>
<stop offset="0.3138" stop-color="#E8C15B"/>
<stop offset="1" stop-color="#C08424"/>
</linearGradient>
<clipPath id="clip0_1192_8995">
<rect width="22" height="22" fill="white" transform="translate(0.156738)"/>
</clipPath>
</defs>
</svg>
