<svg width="91" height="84" viewBox="0 0 91 84" fill="none" xmlns="http://www.w3.org/2000/svg">
<g filter="url(#filter0_dd_98_7253)">
<path d="M32 35.3333C32 34.4493 32.3512 33.6014 32.9763 32.9763C33.6014 32.3512 34.4493 32 35.3333 32H55.3333C56.2174 32 57.0652 32.3512 57.6904 32.9763C58.3155 33.6014 58.6667 34.4493 58.6667 35.3333V37H32V35.3333ZM32 40.3333V48.6667C32 49.5507 32.3512 50.3986 32.9763 51.0237C33.6014 51.6488 34.4493 52 35.3333 52H55.3333C56.2174 52 57.0652 51.6488 57.6904 51.0237C58.3155 50.3986 58.6667 49.5507 58.6667 48.6667V40.3333H32ZM37 43.6667H38.6667C39.1087 43.6667 39.5326 43.8423 39.8452 44.1548C40.1577 44.4674 40.3333 44.8913 40.3333 45.3333V47C40.3333 47.442 40.1577 47.8659 39.8452 48.1785C39.5326 48.4911 39.1087 48.6667 38.6667 48.6667H37C36.558 48.6667 36.134 48.4911 35.8215 48.1785C35.5089 47.8659 35.3333 47.442 35.3333 47V45.3333C35.3333 44.8913 35.5089 44.4674 35.8215 44.1548C36.134 43.8423 36.558 43.6667 37 43.6667Z" fill="url(#paint0_linear_98_7253)"/>
</g>
<defs>
<filter id="filter0_dd_98_7253" x="0" y="0" width="90.6665" height="84" filterUnits="userSpaceOnUse" color-interpolation-filters="sRGB">
<feFlood flood-opacity="0" result="BackgroundImageFix"/>
<feColorMatrix in="SourceAlpha" type="matrix" values="0 0 0 0 0 0 0 0 0 0 0 0 0 0 0 0 0 0 127 0" result="hardAlpha"/>
<feOffset/>
<feGaussianBlur stdDeviation="16"/>
<feComposite in2="hardAlpha" operator="out"/>
<feColorMatrix type="matrix" values="0 0 0 0 0.678431 0 0 0 0 0.705882 0 0 0 0 0.921569 0 0 0 1 0"/>
<feBlend mode="normal" in2="BackgroundImageFix" result="effect1_dropShadow_98_7253"/>
<feColorMatrix in="SourceAlpha" type="matrix" values="0 0 0 0 0 0 0 0 0 0 0 0 0 0 0 0 0 0 127 0" result="hardAlpha"/>
<feOffset dx="3" dy="2"/>
<feGaussianBlur stdDeviation="4"/>
<feComposite in2="hardAlpha" operator="out"/>
<feColorMatrix type="matrix" values="0 0 0 0 0.0470588 0 0 0 0 0.0470588 0 0 0 0 0.0862745 0 0 0 0.12 0"/>
<feBlend mode="normal" in2="effect1_dropShadow_98_7253" result="effect2_dropShadow_98_7253"/>
<feBlend mode="normal" in="SourceGraphic" in2="effect2_dropShadow_98_7253" result="shape"/>
</filter>
<linearGradient id="paint0_linear_98_7253" x1="32" y1="34.4" x2="59.7622" y2="38.9762" gradientUnits="userSpaceOnUse">
<stop stop-color="#8088DC"/>
<stop offset="1" stop-color="#BDC4F0"/>
</linearGradient>
</defs>
</svg>
