<svg width="94" height="88" viewBox="0 0 94 88" fill="none" xmlns="http://www.w3.org/2000/svg">
<g filter="url(#filter0_dd_98_7219)">
<path d="M36.8132 48.6276C36.3925 48.6276 36.0768 49.0119 36.1591 49.4245C36.3735 50.5 36.7497 52.3927 36.9356 53.3606C37.2046 54.7602 38.0128 55.2943 39.1261 55.2943C40.3453 55.2943 41.3336 54.3059 41.3336 53.0868V49.2943C41.3336 48.9261 41.0352 48.6276 40.667 48.6276H36.8132Z" fill="url(#paint0_linear_98_7219)"/>
<path d="M36 37.9609C33.7909 37.9609 32 39.7518 32 41.9609C32 44.1701 33.7909 45.9609 36 45.9609C38 45.9609 38.6667 45.9609 40.6667 45.9609C41.0349 45.9609 41.3333 45.6625 41.3333 45.2943V38.6276C41.3333 38.2594 41.0349 37.9609 40.6667 37.9609C38.6667 37.9609 38 37.9609 36 37.9609Z" fill="url(#paint1_linear_98_7219)"/>
<path d="M44.4124 36.8012C44.1649 36.9118 44 37.1545 44 37.4256V46.4962C44 46.7674 44.1649 47.0101 44.4124 47.1207C44.899 47.3381 45.3736 47.5851 45.8335 47.861L51.9613 51.5378C53.7387 52.6042 56 51.3239 56 49.2511V34.6708C56 32.598 53.7387 31.3177 51.9613 32.3841L45.8335 36.0608C45.3736 36.3368 44.899 36.5838 44.4124 36.8012Z" fill="url(#paint2_linear_98_7219)"/>
<path d="M58.6665 40.6276C58.6665 39.8912 59.2635 39.2943 59.9998 39.2943C60.7362 39.2943 61.3332 39.8912 61.3332 40.6276V43.2943C61.3332 44.0307 60.7362 44.6276 59.9998 44.6276C59.2635 44.6276 58.6665 44.0307 58.6665 43.2943V40.6276Z" fill="url(#paint3_linear_98_7219)"/>
</g>
<defs>
<filter id="filter0_dd_98_7219" x="0" y="0" width="93.333" height="87.2943" filterUnits="userSpaceOnUse" color-interpolation-filters="sRGB">
<feFlood flood-opacity="0" result="BackgroundImageFix"/>
<feColorMatrix in="SourceAlpha" type="matrix" values="0 0 0 0 0 0 0 0 0 0 0 0 0 0 0 0 0 0 127 0" result="hardAlpha"/>
<feOffset/>
<feGaussianBlur stdDeviation="16"/>
<feComposite in2="hardAlpha" operator="out"/>
<feColorMatrix type="matrix" values="0 0 0 0 0.905882 0 0 0 0 0.368627 0 0 0 0 0.670588 0 0 0 1 0"/>
<feBlend mode="normal" in2="BackgroundImageFix" result="effect1_dropShadow_98_7219"/>
<feColorMatrix in="SourceAlpha" type="matrix" values="0 0 0 0 0 0 0 0 0 0 0 0 0 0 0 0 0 0 127 0" result="hardAlpha"/>
<feOffset dx="3" dy="2"/>
<feGaussianBlur stdDeviation="4"/>
<feComposite in2="hardAlpha" operator="out"/>
<feColorMatrix type="matrix" values="0 0 0 0 0.0470588 0 0 0 0 0.0470588 0 0 0 0 0.0862745 0 0 0 0.12 0"/>
<feBlend mode="normal" in2="effect1_dropShadow_98_7219" result="effect2_dropShadow_98_7219"/>
<feBlend mode="normal" in="SourceGraphic" in2="effect2_dropShadow_98_7219" result="shape"/>
</filter>
<linearGradient id="paint0_linear_98_7219" x1="36.765" y1="49.3431" x2="42.6073" y2="52.1038" gradientUnits="userSpaceOnUse">
<stop stop-color="#ED9859"/>
<stop offset="1" stop-color="#E656B6"/>
</linearGradient>
<linearGradient id="paint1_linear_98_7219" x1="34.8636" y1="34.1381" x2="56.4008" y2="49.8943" gradientUnits="userSpaceOnUse">
<stop stop-color="#ED9859"/>
<stop offset="1" stop-color="#E656B6"/>
</linearGradient>
<linearGradient id="paint2_linear_98_7219" x1="34.8636" y1="34.1381" x2="56.4008" y2="49.8943" gradientUnits="userSpaceOnUse">
<stop stop-color="#ED9859"/>
<stop offset="1" stop-color="#E656B6"/>
</linearGradient>
<linearGradient id="paint3_linear_98_7219" x1="58.9847" y1="39.8667" x2="62.3484" y2="40.888" gradientUnits="userSpaceOnUse">
<stop stop-color="#ED9859"/>
<stop offset="1" stop-color="#E656B6"/>
</linearGradient>
</defs>
</svg>
