<svg width="91" height="86" viewBox="0 0 91 86" fill="none" xmlns="http://www.w3.org/2000/svg">
<g filter="url(#filter0_dd_98_7257)">
<path d="M38.6667 42.6667H33.3333C32.597 42.6667 32 43.2636 32 44V52C32 52.7364 32.597 53.3333 33.3333 53.3333H38.6667C39.403 53.3333 40 52.7364 40 52V44C40 43.2636 39.403 42.6667 38.6667 42.6667Z" fill="url(#paint0_linear_98_7257)"/>
<path d="M57.3337 37.3333H52.0003C51.2639 37.3333 50.667 37.9303 50.667 38.6667V52C50.667 52.7364 51.2639 53.3333 52.0003 53.3333H57.3337C58.07 53.3333 58.667 52.7364 58.667 52V38.6667C58.667 37.9303 58.07 37.3333 57.3337 37.3333Z" fill="url(#paint1_linear_98_7257)"/>
<path d="M48.0002 32H42.6668C41.9304 32 41.3335 32.597 41.3335 33.3333V52C41.3335 52.7364 41.9304 53.3333 42.6668 53.3333H48.0002C48.7365 53.3333 49.3335 52.7364 49.3335 52V33.3333C49.3335 32.597 48.7365 32 48.0002 32Z" fill="url(#paint2_linear_98_7257)"/>
</g>
<defs>
<filter id="filter0_dd_98_7257" x="0" y="0" width="90.667" height="85.3333" filterUnits="userSpaceOnUse" color-interpolation-filters="sRGB">
<feFlood flood-opacity="0" result="BackgroundImageFix"/>
<feColorMatrix in="SourceAlpha" type="matrix" values="0 0 0 0 0 0 0 0 0 0 0 0 0 0 0 0 0 0 127 0" result="hardAlpha"/>
<feOffset/>
<feGaussianBlur stdDeviation="16"/>
<feComposite in2="hardAlpha" operator="out"/>
<feColorMatrix type="matrix" values="0 0 0 0 0.0941176 0 0 0 0 0.690196 0 0 0 0 0.960784 0 0 0 1 0"/>
<feBlend mode="normal" in2="BackgroundImageFix" result="effect1_dropShadow_98_7257"/>
<feColorMatrix in="SourceAlpha" type="matrix" values="0 0 0 0 0 0 0 0 0 0 0 0 0 0 0 0 0 0 127 0" result="hardAlpha"/>
<feOffset dx="3" dy="2"/>
<feGaussianBlur stdDeviation="4"/>
<feComposite in2="hardAlpha" operator="out"/>
<feColorMatrix type="matrix" values="0 0 0 0 0.0470588 0 0 0 0 0.0470588 0 0 0 0 0.0862745 0 0 0 0.12 0"/>
<feBlend mode="normal" in2="effect1_dropShadow_98_7257" result="effect2_dropShadow_98_7257"/>
<feBlend mode="normal" in="SourceGraphic" in2="effect2_dropShadow_98_7257" result="shape"/>
</filter>
<linearGradient id="paint0_linear_98_7257" x1="32" y1="43.9467" x2="40.482" y2="44.7331" gradientUnits="userSpaceOnUse">
<stop stop-color="#3483F9"/>
<stop offset="1" stop-color="#00D5F2"/>
</linearGradient>
<linearGradient id="paint1_linear_98_7257" x1="50.667" y1="39.2533" x2="59.1894" y2="39.7801" gradientUnits="userSpaceOnUse">
<stop stop-color="#3483F9"/>
<stop offset="1" stop-color="#00D5F2"/>
</linearGradient>
<linearGradient id="paint2_linear_98_7257" x1="41.3335" y1="34.56" x2="49.8701" y2="34.9558" gradientUnits="userSpaceOnUse">
<stop stop-color="#3483F9"/>
<stop offset="1" stop-color="#00D5F2"/>
</linearGradient>
</defs>
</svg>
