<svg width="93" height="94" viewBox="0 0 93 94" fill="none" xmlns="http://www.w3.org/2000/svg">
<g filter="url(#filter0_dd_98_7211)">
<path d="M58.7534 32.002C58.4728 31.9193 54.3907 34.4196 52.4898 35.861C50.5892 37.3026 47.0428 40.1153 46.9089 40.4089C46.7749 40.7021 46.7622 41.2316 46.6029 42.5646C46.4434 43.8977 45.8886 44.4781 45.8886 44.4781C45.8886 44.4781 45.6206 44.2741 45.4738 43.8403C45.327 43.4065 45.2315 42.1945 45.1422 42.1692C45.053 42.1435 42.6631 44.3699 42.6631 44.3699C42.6631 44.3699 42.4931 45.4835 42.1275 47.6949C41.7616 49.9062 41.2004 50.831 41.0792 50.8438C40.958 50.8566 40.6964 49.9891 40.6072 49.1087C40.5181 48.2287 40.5818 46.1428 40.4861 46.0792C40.3903 46.0153 39.1341 47.3378 39.1341 47.3378C39.1341 47.3378 39.3039 48.9111 39.4314 50.9692C39.5591 53.0271 39.3636 54.4411 39.1531 54.5751C38.9425 54.709 38.6239 54.2051 38.158 53.1015C37.6925 51.998 37.6606 51.1243 37.4438 51.0478C37.2268 50.9712 36.7741 52.0491 36.6402 53.1209C36.5062 54.1922 36.6082 55.8189 36.6082 55.8189C36.6082 55.8189 35.9831 54.6581 35.5876 54.052C35.1921 53.4462 34.2737 52.2341 34.1591 52.3234C34.0439 52.4127 34.5479 53.395 34.854 54.269C35.1602 55.1429 35.5684 56.4376 35.5684 56.4376C35.5684 56.4376 34.5032 55.3979 34.0185 55.0535C33.5336 54.709 32.1243 53.9118 32.0094 54.1606C31.8947 54.4092 32.864 55.143 33.2852 55.5637C33.7062 55.9846 34.6056 56.9477 34.6056 56.9477C34.6056 56.9477 34.1525 57.4198 34.0378 58.064C33.9229 58.7082 34.2036 59.314 34.2036 59.314C34.2036 59.314 34.9499 57.7705 35.3773 57.7452C35.8046 57.7197 35.964 58.5935 35.8365 59.1673C35.7089 59.7415 33.8274 61.7146 33.9229 61.9804C34.0186 62.2462 36.4168 59.7245 36.6422 59.244C37.1184 59.8223 39.6527 60.8087 39.7974 60.7575C39.9419 60.7067 38.8192 59.9329 38.377 59.516C37.935 59.0995 37.4248 57.8662 37.6033 57.7049C37.7819 57.5431 38.0114 58.5295 39.2956 59.1504C40.5798 59.7713 42.5444 59.9073 42.5783 59.8221C42.6123 59.7369 41.073 59.2782 40.163 58.6997C39.2531 58.1214 38.7937 56.9223 38.7937 56.9223C38.7937 56.9223 40.112 57.1857 43.4119 57.3645C46.7117 57.5432 48.7866 56.4206 48.7866 56.4206C48.7866 56.4206 45.8949 56.3865 44.0157 56.3015C42.1359 56.2165 39.4403 55.9785 39.4403 55.9785C39.4403 55.9785 40.1525 54.9195 42.049 54.5371C43.9452 54.1541 46.9839 54.3626 47.2557 54.3202C47.5281 54.2776 51.8907 48.1205 51.8907 48.1205C51.8907 48.1205 49.1948 48.2308 49.3818 47.7715C49.7977 46.7507 52.1288 46.9806 52.4774 46.9468C52.8259 46.9125 53.9145 45.3138 55.1905 43.817C56.466 42.3201 59.953 38.4506 60.1314 35.9503C60.3099 33.4499 59.0342 32.0851 58.7534 32.002ZM49.237 45.6199C47.0938 48.1542 42.1784 53.0528 42.1784 53.0528C42.1784 53.0528 45.461 48.5796 47.9105 45.705C50.3597 42.8303 55.2921 37.4215 55.2921 37.4215C55.2921 37.4215 51.3801 43.0856 49.237 45.6199Z" fill="url(#paint0_linear_98_7211)"/>
</g>
<defs>
<filter id="filter0_dd_98_7211" x="0" y="0" width="92.1484" height="94" filterUnits="userSpaceOnUse" color-interpolation-filters="sRGB">
<feFlood flood-opacity="0" result="BackgroundImageFix"/>
<feColorMatrix in="SourceAlpha" type="matrix" values="0 0 0 0 0 0 0 0 0 0 0 0 0 0 0 0 0 0 127 0" result="hardAlpha"/>
<feOffset/>
<feGaussianBlur stdDeviation="16"/>
<feComposite in2="hardAlpha" operator="out"/>
<feColorMatrix type="matrix" values="0 0 0 0 0.905882 0 0 0 0 0.368627 0 0 0 0 0.670588 0 0 0 1 0"/>
<feBlend mode="normal" in2="BackgroundImageFix" result="effect1_dropShadow_98_7211"/>
<feColorMatrix in="SourceAlpha" type="matrix" values="0 0 0 0 0 0 0 0 0 0 0 0 0 0 0 0 0 0 127 0" result="hardAlpha"/>
<feOffset dx="3" dy="2"/>
<feGaussianBlur stdDeviation="4"/>
<feComposite in2="hardAlpha" operator="out"/>
<feColorMatrix type="matrix" values="0 0 0 0 0.0470588 0 0 0 0 0.0470588 0 0 0 0 0.0862745 0 0 0 0.12 0"/>
<feBlend mode="normal" in2="effect1_dropShadow_98_7211" result="effect2_dropShadow_98_7211"/>
<feBlend mode="normal" in="SourceGraphic" in2="effect2_dropShadow_98_7211" result="shape"/>
</filter>
<linearGradient id="paint0_linear_98_7211" x1="35.3586" y1="35.2197" x2="64.6336" y2="51.9003" gradientUnits="userSpaceOnUse">
<stop stop-color="#ED9859"/>
<stop offset="1" stop-color="#E656B6"/>
</linearGradient>
</defs>
</svg>
