<svg width="319" height="80" viewBox="0 0 319 80" fill="none" xmlns="http://www.w3.org/2000/svg">
<rect width="319" height="80" rx="16" fill="url(#paint0_linear_101_1888)"/>
<g clip-path="url(#clip0_101_1888)">
<path d="M231.936 43H237.408V42.0508H233.4V41.957L235.322 39.9707C236.852 38.3945 237.268 37.6914 237.268 36.7246V36.7129C237.268 35.3477 236.137 34.3457 234.66 34.3457C233.043 34.3457 231.883 35.4238 231.877 36.9238L231.889 36.9297L232.896 36.9355L232.902 36.9238C232.902 35.9277 233.576 35.2656 234.59 35.2656C235.586 35.2656 236.189 35.9336 236.189 36.8242V36.8359C236.189 37.5742 235.873 38.0137 234.795 39.1797L231.936 42.2734V43ZM242.166 43.1992C243.871 43.1992 245.125 41.9746 245.125 40.2871V40.2754C245.125 38.6523 243.941 37.4453 242.354 37.4453C241.211 37.4453 240.414 38.0605 240.104 38.752H239.992C240.016 36.9004 240.631 35.2891 242.225 35.2891C243.08 35.2891 243.672 35.7285 243.93 36.4375L243.953 36.502H245.014L244.996 36.4258C244.709 35.1777 243.654 34.3457 242.236 34.3457C240.186 34.3457 238.984 36.0332 238.984 38.916V38.9277C238.984 42.1094 240.619 43.1992 242.166 43.1992ZM240.244 40.2754V40.2695C240.244 39.168 241.076 38.3652 242.172 38.3652C243.268 38.3652 244.064 39.1738 244.064 40.2988V40.3105C244.064 41.4062 243.215 42.2676 242.154 42.2676C241.082 42.2676 240.244 41.3887 240.244 40.2754ZM249.531 34.1758H248.547L245.875 45.1094H246.859L249.531 34.1758ZM253.305 43.1992C255.174 43.1992 256.299 41.4941 256.299 38.7754V38.7637C256.299 36.0449 255.174 34.3457 253.305 34.3457C251.436 34.3457 250.322 36.0449 250.322 38.7637V38.7754C250.322 41.4941 251.436 43.1992 253.305 43.1992ZM253.305 42.2793C252.092 42.2793 251.383 40.9316 251.383 38.7754V38.7637C251.383 36.6074 252.092 35.2715 253.305 35.2715C254.518 35.2715 255.238 36.6074 255.238 38.7637V38.7754C255.238 40.9316 254.518 42.2793 253.305 42.2793ZM258.15 43H259.258L263.02 35.5234V34.5449H257.424V35.4883H261.947V35.5703L258.15 43ZM266.992 34.1758H266.008L263.336 45.1094H264.32L266.992 34.1758ZM267.936 43H273.408V42.0508H269.4V41.957L271.322 39.9707C272.852 38.3945 273.268 37.6914 273.268 36.7246V36.7129C273.268 35.3477 272.137 34.3457 270.66 34.3457C269.043 34.3457 267.883 35.4238 267.877 36.9238L267.889 36.9297L268.896 36.9355L268.902 36.9238C268.902 35.9277 269.576 35.2656 270.59 35.2656C271.586 35.2656 272.189 35.9336 272.189 36.8242V36.8359C272.189 37.5742 271.873 38.0137 270.795 39.1797L267.936 42.2734V43ZM278.008 43.1992C279.877 43.1992 281.002 41.4941 281.002 38.7754V38.7637C281.002 36.0449 279.877 34.3457 278.008 34.3457C276.139 34.3457 275.025 36.0449 275.025 38.7637V38.7754C275.025 41.4941 276.139 43.1992 278.008 43.1992ZM278.008 42.2793C276.795 42.2793 276.086 40.9316 276.086 38.7754V38.7637C276.086 36.6074 276.795 35.2715 278.008 35.2715C279.221 35.2715 279.941 36.6074 279.941 38.7637V38.7754C279.941 40.9316 279.221 42.2793 278.008 42.2793ZM284.805 43H285.859V34.5449H284.811L282.561 36.1621V37.2754L284.711 35.7168H284.805V43ZM291.068 34.3457C289.363 34.3457 288.109 35.5703 288.109 37.2578V37.2695C288.109 38.8926 289.293 40.0996 290.881 40.0996C292.023 40.0996 292.82 39.4844 293.131 38.793H293.242C293.219 40.6445 292.604 42.2559 291.01 42.2559C290.154 42.2559 289.562 41.8164 289.305 41.1074L289.281 41.043H288.221L288.238 41.1191C288.525 42.3672 289.58 43.1992 290.998 43.1992C293.049 43.1992 294.25 41.5117 294.25 38.6289V38.6172C294.25 35.4355 292.615 34.3457 291.068 34.3457ZM291.062 39.1797C289.967 39.1797 289.17 38.3711 289.17 37.2461V37.2344C289.17 36.1387 290.02 35.2773 291.08 35.2773C292.152 35.2773 292.99 36.1562 292.99 37.2695V37.2754C292.99 38.377 292.158 39.1797 291.062 39.1797Z" fill="#F7F7F7"/>
<path d="M166.703 58H168.473V54.9355H169.891L171.467 58H173.471L171.689 54.6719C172.627 54.3027 173.219 53.377 173.219 52.2637V52.252C173.219 50.5527 172.094 49.5449 170.195 49.5449H166.703V58ZM168.473 53.5938V50.9277H169.979C170.852 50.9277 171.408 51.4434 171.408 52.252V52.2637C171.408 53.0957 170.881 53.5938 170.002 53.5938H168.473ZM177.045 58.1289C178.838 58.1289 179.705 57.0684 179.898 56.1426L179.916 56.0781H178.346L178.334 56.1133C178.211 56.4648 177.783 56.8516 177.08 56.8516C176.207 56.8516 175.662 56.2656 175.645 55.2637H179.969V54.7363C179.969 52.8379 178.814 51.5898 176.975 51.5898C175.135 51.5898 173.957 52.8672 173.957 54.8652V54.8711C173.957 56.8809 175.123 58.1289 177.045 58.1289ZM177.004 52.8672C177.713 52.8672 178.223 53.3184 178.328 54.1855H175.662C175.773 53.3359 176.301 52.8672 177.004 52.8672ZM183.725 58.1289C185.4 58.1289 186.484 57.0859 186.566 55.7148V55.6797H184.973L184.967 55.7324C184.85 56.3652 184.422 56.7871 183.736 56.7871C182.893 56.7871 182.365 56.0898 182.365 54.8594V54.8535C182.365 53.6523 182.893 52.9316 183.73 52.9316C184.439 52.9316 184.855 53.3887 184.961 53.9863L184.973 54.0391H186.561V53.998C186.496 52.6387 185.412 51.5898 183.707 51.5898C181.826 51.5898 180.625 52.8379 180.625 54.8477V54.8535C180.625 56.8809 181.809 58.1289 183.725 58.1289ZM190.252 58.1289C192.045 58.1289 192.912 57.0684 193.105 56.1426L193.123 56.0781H191.553L191.541 56.1133C191.418 56.4648 190.99 56.8516 190.287 56.8516C189.414 56.8516 188.869 56.2656 188.852 55.2637H193.176V54.7363C193.176 52.8379 192.021 51.5898 190.182 51.5898C188.342 51.5898 187.164 52.8672 187.164 54.8652V54.8711C187.164 56.8809 188.33 58.1289 190.252 58.1289ZM190.211 52.8672C190.92 52.8672 191.43 53.3184 191.535 54.1855H188.869C188.98 53.3359 189.508 52.8672 190.211 52.8672ZM194.951 50.9102C195.467 50.9102 195.865 50.5059 195.865 50.0195C195.865 49.5332 195.467 49.1289 194.951 49.1289C194.436 49.1289 194.037 49.5332 194.037 50.0195C194.037 50.5059 194.436 50.9102 194.951 50.9102ZM194.096 58H195.807V51.7188H194.096V58ZM198.613 58H200.541L202.697 51.7188H200.91L199.615 56.4883H199.58L198.268 51.7188H196.439L198.613 58ZM205.932 58.1289C207.725 58.1289 208.592 57.0684 208.785 56.1426L208.803 56.0781H207.232L207.221 56.1133C207.098 56.4648 206.67 56.8516 205.967 56.8516C205.094 56.8516 204.549 56.2656 204.531 55.2637H208.855V54.7363C208.855 52.8379 207.701 51.5898 205.861 51.5898C204.021 51.5898 202.844 52.8672 202.844 54.8652V54.8711C202.844 56.8809 204.01 58.1289 205.932 58.1289ZM205.891 52.8672C206.6 52.8672 207.109 53.3184 207.215 54.1855H204.549C204.66 53.3359 205.188 52.8672 205.891 52.8672ZM212.066 58.1289C212.975 58.1289 213.666 57.6719 214 56.9277H214.035V58H215.746V49.5449H214.035V52.8086H214C213.66 52.0469 212.957 51.5898 212.066 51.5898C210.484 51.5898 209.512 52.8086 209.512 54.8535V54.8594C209.512 56.8984 210.484 58.1289 212.066 58.1289ZM212.641 56.7109C211.785 56.7109 211.252 56.002 211.252 54.8594V54.8535C211.252 53.7051 211.791 53.0078 212.641 53.0078C213.467 53.0078 214.041 53.7227 214.041 54.8535V54.8594C214.041 55.9961 213.473 56.7109 212.641 56.7109Z" fill="#00A7FF"/>
<path d="M73.6797 55.0703H76.3047V57.6953H77.2539V55.0703H79.8789V54.1211H77.2539V51.4961H76.3047V54.1211H73.6797V55.0703ZM84.332 58.1992C86.2012 58.1992 87.3262 56.4941 87.3262 53.7754V53.7637C87.3262 51.0449 86.2012 49.3457 84.332 49.3457C82.4629 49.3457 81.3496 51.0449 81.3496 53.7637V53.7754C81.3496 56.4941 82.4629 58.1992 84.332 58.1992ZM84.332 57.2793C83.1191 57.2793 82.4102 55.9316 82.4102 53.7754V53.7637C82.4102 51.6074 83.1191 50.2715 84.332 50.2715C85.5449 50.2715 86.2656 51.6074 86.2656 53.7637V53.7754C86.2656 55.9316 85.5449 57.2793 84.332 57.2793ZM89.4297 58.0586C89.8516 58.0586 90.1914 57.7129 90.1914 57.2969C90.1914 56.875 89.8516 56.5352 89.4297 56.5352C89.0137 56.5352 88.668 56.875 88.668 57.2969C88.668 57.7129 89.0137 58.0586 89.4297 58.0586ZM94.6797 58.1406C96.373 58.1406 97.6152 57.0977 97.6152 55.6855V55.6738C97.6152 54.4727 96.7773 53.7051 95.5469 53.5996V53.5762C96.6016 53.3535 97.3398 52.6387 97.3398 51.5957V51.584C97.3398 50.3008 96.2793 49.4043 94.668 49.4043C93.0859 49.4043 91.9961 50.3242 91.8613 51.7012L91.8555 51.7598H92.8691L92.875 51.7012C92.9629 50.8457 93.6719 50.3184 94.668 50.3184C95.6992 50.3184 96.2793 50.8281 96.2793 51.7129V51.7246C96.2793 52.5684 95.5762 53.1895 94.5684 53.1895H93.5547V54.0801H94.6152C95.7988 54.0801 96.543 54.6602 96.543 55.6973V55.709C96.543 56.6055 95.7871 57.2266 94.6797 57.2266C93.5547 57.2266 92.7871 56.6523 92.7051 55.8203L92.6992 55.7617H91.6855L91.6914 55.832C91.8027 57.168 92.9336 58.1406 94.6797 58.1406ZM102.156 58.1992C104.025 58.1992 105.15 56.4941 105.15 53.7754V53.7637C105.15 51.0449 104.025 49.3457 102.156 49.3457C100.287 49.3457 99.1738 51.0449 99.1738 53.7637V53.7754C99.1738 56.4941 100.287 58.1992 102.156 58.1992ZM102.156 57.2793C100.943 57.2793 100.234 55.9316 100.234 53.7754V53.7637C100.234 51.6074 100.943 50.2715 102.156 50.2715C103.369 50.2715 104.09 51.6074 104.09 53.7637V53.7754C104.09 55.9316 103.369 57.2793 102.156 57.2793ZM110.746 58H111.777V56.248H112.979V55.3047H111.777V49.5449H110.248C109.064 51.3086 107.77 53.3711 106.627 55.2871V56.248H110.746V58ZM107.705 55.3105V55.2402C108.625 53.6875 109.732 51.9414 110.682 50.5234H110.752V55.3105H107.705ZM117.385 58.1992C119.102 58.1992 120.326 57.0098 120.326 55.3047V55.293C120.326 53.6582 119.184 52.4688 117.596 52.4688C116.828 52.4688 116.166 52.7793 115.791 53.3477H115.697L115.984 50.4883H119.857V49.5449H115.152L114.707 54.4023H115.621C115.727 54.2031 115.861 54.0391 116.008 53.8984C116.371 53.5527 116.852 53.3828 117.414 53.3828C118.51 53.3828 119.295 54.1855 119.295 55.3105V55.3223C119.295 56.4648 118.521 57.2676 117.396 57.2676C116.406 57.2676 115.674 56.623 115.574 55.8145L115.568 55.7676H114.555L114.561 55.832C114.684 57.1855 115.809 58.1992 117.385 58.1992ZM124.803 58.1992C126.52 58.1992 127.744 57.0098 127.744 55.3047V55.293C127.744 53.6582 126.602 52.4688 125.014 52.4688C124.246 52.4688 123.584 52.7793 123.209 53.3477H123.115L123.402 50.4883H127.275V49.5449H122.57L122.125 54.4023H123.039C123.145 54.2031 123.279 54.0391 123.426 53.8984C123.789 53.5527 124.27 53.3828 124.832 53.3828C125.928 53.3828 126.713 54.1855 126.713 55.3105V55.3223C126.713 56.4648 125.939 57.2676 124.814 57.2676C123.824 57.2676 123.092 56.623 122.992 55.8145L122.986 55.7676H121.973L121.979 55.832C122.102 57.1855 123.227 58.1992 124.803 58.1992ZM132.965 58H136.264C138.062 58 139.129 57.1152 139.129 55.6328V55.6211C139.129 54.5078 138.396 53.7168 137.242 53.5703V53.4766C138.057 53.3301 138.701 52.5332 138.701 51.6602V51.6484C138.701 50.3594 137.752 49.5449 136.199 49.5449H132.965V58ZM135.977 50.4766C137.025 50.4766 137.635 50.9746 137.635 51.8301V51.8418C137.635 52.7324 136.984 53.1895 135.707 53.1895H134.02V50.4766H135.977ZM136.006 54.0977C137.354 54.0977 138.045 54.5957 138.045 55.5684V55.5801C138.045 56.5527 137.377 57.0684 136.105 57.0684H134.02V54.0977H136.006ZM143.049 58H144.104V50.4941H146.828V49.5449H140.324V50.4941H143.049V58ZM151.51 58.1992C153.309 58.1992 154.645 57.1973 154.926 55.6504V55.6387H153.859L153.848 55.6504C153.584 56.623 152.688 57.2266 151.51 57.2266C149.881 57.2266 148.861 55.8965 148.861 53.7812V53.7695C148.861 51.6543 149.881 50.3184 151.504 50.3184C152.67 50.3184 153.572 51.0039 153.854 52.0879L153.859 52.0996H154.92L154.926 52.0879C154.674 50.4648 153.285 49.3457 151.504 49.3457C149.207 49.3457 147.777 51.0449 147.777 53.7695V53.7812C147.777 56.5 149.213 58.1992 151.51 58.1992Z" fill="#F7F7F7"/>
<path d="M73.8203 31H78.1885C80.2939 31 81.5996 29.9131 81.5996 28.1768V28.1631C81.5996 26.8643 80.6084 25.8867 79.2344 25.7842V25.7432C80.3145 25.5996 81.1279 24.6836 81.1279 23.6104V23.5967C81.1279 22.0859 79.9658 21.1357 78.1133 21.1357H73.8203V31ZM77.5801 22.667C78.5371 22.667 79.0977 23.1182 79.0977 23.8975V23.9111C79.0977 24.7314 78.4688 25.2168 77.3682 25.2168H75.8848V22.667H77.5801ZM77.6143 26.6182C78.8311 26.6182 79.4941 27.1104 79.4941 28.0264V28.04C79.4941 28.9697 78.8447 29.4619 77.6621 29.4619H75.8848V26.6182H77.6143ZM83.6436 22.7285C84.2451 22.7285 84.71 22.2568 84.71 21.6895C84.71 21.1221 84.2451 20.6504 83.6436 20.6504C83.042 20.6504 82.5771 21.1221 82.5771 21.6895C82.5771 22.2568 83.042 22.7285 83.6436 22.7285ZM82.6455 31H84.6416V23.6719H82.6455V31ZM88.8936 31.1504C89.3105 31.1504 89.6318 31.1094 89.8574 31.0752V29.6123C89.7344 29.626 89.6045 29.6465 89.4268 29.6465C88.8252 29.6465 88.5176 29.4141 88.5176 28.7305V25.1758H89.8574V23.6719H88.5176V21.8809H86.501V23.6719H85.4824V25.1758H86.501V28.9492C86.501 30.5215 87.2666 31.1504 88.8936 31.1504ZM94.1982 31.1504C96.1533 31.1504 97.418 29.9336 97.5137 28.334V28.293H95.6543L95.6475 28.3545C95.5107 29.0928 95.0117 29.585 94.2119 29.585C93.2275 29.585 92.6123 28.7715 92.6123 27.3359V27.3291C92.6123 25.9277 93.2275 25.0869 94.2051 25.0869C95.0322 25.0869 95.5176 25.6201 95.6406 26.3174L95.6543 26.3789H97.5068V26.3311C97.4316 24.7451 96.167 23.5215 94.1777 23.5215C91.9834 23.5215 90.582 24.9775 90.582 27.3223V27.3291C90.582 29.6943 91.9629 31.1504 94.1982 31.1504ZM101.841 31.1504C104.056 31.1504 105.471 29.7285 105.471 27.3359V27.3223C105.471 24.9502 104.028 23.5215 101.834 23.5215C99.6465 23.5215 98.2109 24.9639 98.2109 27.3223V27.3359C98.2109 29.7217 99.6123 31.1504 101.841 31.1504ZM101.848 29.585C100.863 29.585 100.241 28.7715 100.241 27.3359V27.3223C100.241 25.9072 100.87 25.0869 101.834 25.0869C102.805 25.0869 103.44 25.9072 103.44 27.3223V27.3359C103.44 28.7646 102.818 29.585 101.848 29.585ZM107.542 22.7285C108.144 22.7285 108.608 22.2568 108.608 21.6895C108.608 21.1221 108.144 20.6504 107.542 20.6504C106.94 20.6504 106.476 21.1221 106.476 21.6895C106.476 22.2568 106.94 22.7285 107.542 22.7285ZM106.544 31H108.54V23.6719H106.544V31ZM109.88 31H111.876V26.7891C111.876 25.832 112.443 25.1758 113.339 25.1758C114.234 25.1758 114.686 25.7227 114.686 26.6797V31H116.682V26.2695C116.682 24.5537 115.766 23.5215 114.152 23.5215C113.045 23.5215 112.293 24.0342 111.917 24.875H111.876V23.6719H109.88V31Z" fill="#FEFEFE"/>
</g>
<ellipse cx="40.5" cy="40" rx="16.5" ry="16" fill="#F7931A"/>
<rect x="24" y="24" width="33" height="32" rx="10" fill="#F7931A"/>
<path fill-rule="evenodd" clip-rule="evenodd" d="M47.9135 38.0202C48.2369 35.9239 46.591 34.797 44.3404 34.0453L45.0704 31.2057L43.2879 30.7749L42.5771 33.5397C42.1085 33.4265 41.6273 33.3196 41.149 33.2138L41.8649 30.4308L40.0834 30L39.3528 32.8386C38.9649 32.753 38.5841 32.6683 38.2145 32.5792L38.2166 32.5703L35.7583 31.9751L35.2841 33.8213C35.2841 33.8213 36.6067 34.1152 36.5788 34.1334C37.3007 34.3082 37.4312 34.7714 37.4093 35.1387L36.5777 38.3737C36.6275 38.386 36.692 38.4037 36.7631 38.4313L36.7026 38.4166C36.6613 38.4066 36.6184 38.3962 36.5747 38.386L35.409 42.9177C35.3207 43.1303 35.0968 43.4494 34.5922 43.3282C34.6099 43.3534 33.2965 43.0146 33.2965 43.0146L32.4116 44.9932L34.7313 45.554C34.9903 45.6169 35.2463 45.6816 35.4996 45.7457C35.6682 45.7883 35.8356 45.8307 36.002 45.872L35.2643 48.7441L37.0448 49.1749L37.7754 46.3333C38.2618 46.4613 38.7339 46.5794 39.1959 46.6907L38.4679 49.519L40.2504 49.9498L40.9881 47.0831C44.0276 47.6409 46.3133 47.4159 47.2753 44.75C48.0506 42.6036 47.2367 41.3654 45.6375 40.558C46.8022 40.2976 47.6795 39.5547 47.9135 38.0202ZM43.8408 43.5582C43.3354 45.5274 40.1566 44.7133 38.7022 44.3408L38.702 44.3407C38.5712 44.3072 38.4544 44.2773 38.3547 44.2533L39.3335 40.4482C39.4549 40.4776 39.6033 40.5099 39.7714 40.5465C41.2758 40.8738 44.3586 41.5446 43.8408 43.5582ZM40.0737 38.7807C41.2863 39.0945 43.9314 39.779 44.3921 37.9892C44.8626 36.1584 42.2918 35.6066 41.0363 35.337C40.8951 35.3067 40.7705 35.28 40.6687 35.2554L39.7813 38.7065C39.8651 38.7267 39.9635 38.7522 40.0737 38.7807Z" fill="white"/>
<defs>
<linearGradient id="paint0_linear_101_1888" x1="159.5" y1="0" x2="159.5" y2="80" gradientUnits="userSpaceOnUse">
<stop stop-color="#181B23"/>
<stop offset="1" stop-color="#181B23" stop-opacity="0"/>
</linearGradient>
<clipPath id="clip0_101_1888">
<rect width="222" height="48" fill="white" transform="translate(73 16)"/>
</clipPath>
</defs>
</svg>
