<svg width="400" height="381" viewBox="0 0 400 381" fill="none" xmlns="http://www.w3.org/2000/svg">
<rect width="376.963" height="380.105" rx="15" fill="url(#paint0_linear_101_1885)"/>
<g clip-path="url(#clip0_101_1885)">
<path opacity="0.2" d="M367.539 200H57.5918" stroke="white" stroke-dasharray="2"/>
<path opacity="0.2" d="M224.608 25.6544V270.681" stroke="white" stroke-dasharray="2"/>
<g opacity="0.3">
<path d="M20.6748 113.131H21.5244V111.666H22.5205V110.895H21.5244V106.085H20.2256C18.5605 108.473 17.7354 109.757 17.1348 110.87V111.666H20.6748V113.131ZM18.0039 110.875C18.5605 109.898 19.3271 108.722 20.6602 106.817H20.6748V110.895H18.0039V110.875ZM26.7295 113.131H27.5791V111.666H28.5752V110.895H27.5791V106.085H26.2803C24.6152 108.473 23.79 109.757 23.1895 110.87V111.666H26.7295V113.131ZM24.0586 110.875C24.6152 109.898 25.3818 108.722 26.7148 106.817H26.7295V110.895H24.0586V110.875ZM29.9961 114.532L30.665 112.047H29.7617L29.2881 114.532H29.9961ZM33.3701 109.879H34.2539C35.2598 109.879 35.8848 110.392 35.8848 111.222C35.8848 111.959 35.2158 112.486 34.2832 112.486C33.3359 112.486 32.7354 111.988 32.6572 111.266H31.8125C31.876 112.433 32.8184 113.248 34.293 113.248C35.6748 113.248 36.7783 112.403 36.7783 111.192C36.7783 110.201 36.0947 109.542 35.0303 109.479V109.459C35.9092 109.303 36.4756 108.668 36.4756 107.784C36.4756 106.725 35.5234 105.968 34.2637 105.968C32.9404 105.968 32.0518 106.734 31.9541 107.931H32.7988C32.877 107.193 33.4141 106.729 34.2246 106.729C35.1182 106.729 35.5918 107.203 35.5918 107.901C35.5918 108.614 35.0254 109.137 34.2148 109.137H33.3701V109.879Z" fill="white"/>
<path d="M20.6748 149.131H21.5244V147.666H22.5205V146.895H21.5244V142.085H20.2256C18.5605 144.473 17.7354 145.757 17.1348 146.87V147.666H20.6748V149.131ZM18.0039 146.875C18.5605 145.898 19.3271 144.722 20.6602 142.817H20.6748V146.895H18.0039V146.875ZM26.7295 149.131H27.5791V147.666H28.5752V146.895H27.5791V142.085H26.2803C24.6152 144.473 23.79 145.757 23.1895 146.87V147.666H26.7295V149.131ZM24.0586 146.875C24.6152 145.898 25.3818 144.722 26.7148 142.817H26.7295V146.895H24.0586V146.875ZM29.9961 150.532L30.665 148.047H29.7617L29.2881 150.532H29.9961ZM31.9297 144.116V144.121H32.7793V144.116C32.7793 143.33 33.4043 142.734 34.2295 142.734C35.0059 142.734 35.626 143.276 35.626 143.955C35.626 144.541 35.4014 144.917 34.4541 145.913L31.9736 148.525V149.131H36.6221V148.35H33.1895V148.33L34.9717 146.489C36.1484 145.273 36.5049 144.688 36.5049 143.901C36.5049 142.822 35.5137 141.968 34.2539 141.968C32.9258 141.968 31.9297 142.886 31.9297 144.116Z" fill="white"/>
<path d="M20.6748 185.131H21.5244V183.666H22.5205V182.895H21.5244V178.085H20.2256C18.5605 180.473 17.7354 181.757 17.1348 182.87V183.666H20.6748V185.131ZM18.0039 182.875C18.5605 181.898 19.3271 180.722 20.6602 178.817H20.6748V182.895H18.0039V182.875ZM26.7295 185.131H27.5791V183.666H28.5752V182.895H27.5791V178.085H26.2803C24.6152 180.473 23.79 181.757 23.1895 182.87V183.666H26.7295V185.131ZM24.0586 182.875C24.6152 181.898 25.3818 180.722 26.7148 178.817H26.7295V182.895H24.0586V182.875ZM29.9961 186.532L30.665 184.047H29.7617L29.2881 186.532H29.9961ZM33.1846 185.131H34.0342V178.085H33.1748L31.2998 179.433V180.36L33.165 179.018H33.1846V185.131Z" fill="white"/>
<path d="M20.6748 221.131H21.5244V219.666H22.5205V218.895H21.5244V214.085H20.2256C18.5605 216.473 17.7354 217.757 17.1348 218.87V219.666H20.6748V221.131ZM18.0039 218.875C18.5605 217.898 19.3271 216.722 20.6602 214.817H20.6748V218.895H18.0039V218.875ZM26.7295 221.131H27.5791V219.666H28.5752V218.895H27.5791V214.085H26.2803C24.6152 216.473 23.79 217.757 23.1895 218.87V219.666H26.7295V221.131ZM24.0586 218.875C24.6152 217.898 25.3818 216.722 26.7148 214.817H26.7295V218.895H24.0586V218.875ZM29.9961 222.532L30.665 220.047H29.7617L29.2881 222.532H29.9961ZM34.4395 221.248C36.0801 221.248 37.0273 219.827 37.0273 217.601C37.0273 215.389 36.0752 213.968 34.4395 213.968C32.8037 213.968 31.8418 215.398 31.8418 217.605C31.8418 219.832 32.7939 221.248 34.4395 221.248ZM34.4395 220.481C33.3359 220.481 32.7256 219.358 32.7256 217.601C32.7256 215.882 33.3506 214.739 34.4395 214.739C35.5283 214.739 36.1436 215.872 36.1436 217.605C36.1436 219.363 35.5381 220.481 34.4395 220.481Z" fill="white"/>
<path d="M20.6748 257.131H21.5244V255.666H22.5205V254.895H21.5244V250.085H20.2256C18.5605 252.473 17.7354 253.757 17.1348 254.87V255.666H20.6748V257.131ZM18.0039 254.875C18.5605 253.898 19.3271 252.722 20.6602 250.817H20.6748V254.895H18.0039V254.875ZM24.8154 253.879H25.6992C26.7051 253.879 27.3301 254.392 27.3301 255.222C27.3301 255.959 26.6611 256.486 25.7285 256.486C24.7812 256.486 24.1807 255.988 24.1025 255.266H23.2578C23.3213 256.433 24.2637 257.248 25.7383 257.248C27.1201 257.248 28.2236 256.403 28.2236 255.192C28.2236 254.201 27.54 253.542 26.4756 253.479V253.459C27.3545 253.303 27.9209 252.668 27.9209 251.784C27.9209 250.725 26.9688 249.968 25.709 249.968C24.3857 249.968 23.4971 250.734 23.3994 251.931H24.2441C24.3223 251.193 24.8594 250.729 25.6699 250.729C26.5635 250.729 27.0371 251.203 27.0371 251.901C27.0371 252.614 26.4707 253.137 25.6602 253.137H24.8154V253.879ZM29.7129 258.532L30.3818 256.047H29.4785L29.0049 258.532H29.7129ZM34.0293 257.248C35.7529 257.248 36.7588 255.861 36.7588 253.488C36.7588 252.722 36.6465 252.087 36.4121 251.545C35.9824 250.534 35.1426 249.963 34.083 249.963C32.6377 249.963 31.5879 250.979 31.5879 252.37C31.5879 253.708 32.584 254.699 33.9268 254.699C34.8252 254.699 35.5967 254.245 35.8945 253.547C35.8994 253.547 35.8994 253.547 35.9043 253.547H35.9092C35.8848 255.417 35.2109 256.481 34.0391 256.481C33.3408 256.481 32.7695 256.062 32.584 255.422H31.6904C31.9053 256.525 32.8281 257.248 34.0293 257.248ZM34.0781 253.928C33.1553 253.928 32.4766 253.259 32.4766 252.341C32.4766 251.457 33.1895 250.754 34.0928 250.754C35.001 250.754 35.7041 251.462 35.7041 252.365C35.7041 253.264 35.0107 253.928 34.0781 253.928Z" fill="white"/>
<path d="M20.6748 293.131H21.5244V291.666H22.5205V290.895H21.5244V286.085H20.2256C18.5605 288.473 17.7354 289.757 17.1348 290.87V291.666H20.6748V293.131ZM18.0039 290.875C18.5605 289.898 19.3271 288.722 20.6602 286.817H20.6748V290.895H18.0039V290.875ZM24.8154 289.879H25.6992C26.7051 289.879 27.3301 290.392 27.3301 291.222C27.3301 291.959 26.6611 292.486 25.7285 292.486C24.7812 292.486 24.1807 291.988 24.1025 291.266H23.2578C23.3213 292.433 24.2637 293.248 25.7383 293.248C27.1201 293.248 28.2236 292.403 28.2236 291.192C28.2236 290.201 27.54 289.542 26.4756 289.479V289.459C27.3545 289.303 27.9209 288.668 27.9209 287.784C27.9209 286.725 26.9688 285.968 25.709 285.968C24.3857 285.968 23.4971 286.734 23.3994 287.931H24.2441C24.3223 287.193 24.8594 286.729 25.6699 286.729C26.5635 286.729 27.0371 287.203 27.0371 287.901C27.0371 288.614 26.4707 289.137 25.6602 289.137H24.8154V289.879ZM29.7129 294.532L30.3818 292.047H29.4785L29.0049 294.532H29.7129ZM34.1123 293.248C35.6064 293.248 36.6709 292.408 36.6709 291.227C36.6709 290.353 36.0654 289.63 35.1523 289.415V289.396C35.9189 289.151 36.3828 288.556 36.3828 287.823C36.3828 286.749 35.4307 285.968 34.1123 285.968C32.8037 285.968 31.8369 286.754 31.8369 287.818C31.8369 288.561 32.3105 289.161 33.0723 289.396V289.415C32.1641 289.625 31.5586 290.348 31.5586 291.227C31.5586 292.403 32.623 293.248 34.1123 293.248ZM34.1123 292.481C33.1455 292.481 32.4521 291.93 32.4521 291.163C32.4521 290.392 33.1455 289.84 34.1123 289.84C35.084 289.84 35.7725 290.387 35.7725 291.163C35.7725 291.93 35.084 292.481 34.1123 292.481ZM34.1123 289.068C33.2871 289.068 32.7109 288.585 32.7109 287.901C32.7109 287.213 33.2871 286.725 34.1123 286.725C34.9375 286.725 35.5137 287.208 35.5137 287.901C35.5137 288.585 34.9326 289.068 34.1123 289.068Z" fill="white"/>
</g>
<g opacity="0.3">
<path d="M59.96 322.042H60.8096V314.996H59.9502L58.0752 316.344V317.271L59.9404 315.929H59.96V322.042ZM65.9463 322.042H66.7959V320.577H67.792V319.806H66.7959V314.996H65.4971C63.832 317.384 63.0068 318.668 62.4062 319.781V320.577H65.9463V322.042ZM63.2754 319.786C63.832 318.809 64.5986 317.633 65.9316 315.728H65.9463V319.806H63.2754V319.786ZM69.3496 320.87C69.6621 320.87 69.9062 320.626 69.9062 320.313C69.9062 320.001 69.6621 319.757 69.3496 319.757C69.0371 319.757 68.793 320.001 68.793 320.313C68.793 320.626 69.0371 320.87 69.3496 320.87ZM69.3496 317.276C69.6621 317.276 69.9062 317.032 69.9062 316.72C69.9062 316.407 69.6621 316.163 69.3496 316.163C69.0371 316.163 68.793 316.407 68.793 316.72C68.793 317.032 69.0371 317.276 69.3496 317.276ZM73.6123 322.159C75.082 322.159 76.1221 321.168 76.1221 319.752C76.1221 318.385 75.1455 317.393 73.793 317.393C73.1191 317.393 72.5332 317.647 72.2158 318.072H72.1963L72.4111 315.777H75.7217V314.996H71.6885L71.3027 318.941H72.1279C72.416 318.448 72.9775 318.15 73.6367 318.15C74.5742 318.15 75.2432 318.829 75.2432 319.776C75.2432 320.724 74.5791 321.388 73.6221 321.388C72.7773 321.388 72.1377 320.87 72.0596 320.118H71.1953C71.2686 321.319 72.2646 322.159 73.6123 322.159ZM79.5059 322.159C81.1465 322.159 82.0938 320.738 82.0938 318.512C82.0938 316.3 81.1416 314.879 79.5059 314.879C77.8701 314.879 76.9082 316.309 76.9082 318.516C76.9082 320.743 77.8604 322.159 79.5059 322.159ZM79.5059 321.392C78.4023 321.392 77.792 320.269 77.792 318.512C77.792 316.793 78.417 315.65 79.5059 315.65C80.5947 315.65 81.21 316.783 81.21 318.516C81.21 320.274 80.6045 321.392 79.5059 321.392Z" fill="white"/>
</g>
<g opacity="0.3" clip-path="url(#clip1_101_1885)">
<path d="M122.787 322.042H123.637V314.996H122.777L120.902 316.344V317.271L122.768 315.929H122.787V322.042ZM127.846 322.159C129.34 322.159 130.404 321.319 130.404 320.138C130.404 319.264 129.799 318.541 128.886 318.326V318.307C129.652 318.062 130.116 317.467 130.116 316.734C130.116 315.66 129.164 314.879 127.846 314.879C126.537 314.879 125.57 315.665 125.57 316.729C125.57 317.472 126.044 318.072 126.806 318.307V318.326C125.897 318.536 125.292 319.259 125.292 320.138C125.292 321.314 126.356 322.159 127.846 322.159ZM127.846 321.392C126.879 321.392 126.186 320.841 126.186 320.074C126.186 319.303 126.879 318.751 127.846 318.751C128.817 318.751 129.506 319.298 129.506 320.074C129.506 320.841 128.817 321.392 127.846 321.392ZM127.846 317.979C127.021 317.979 126.444 317.496 126.444 316.812C126.444 316.124 127.021 315.636 127.846 315.636C128.671 315.636 129.247 316.119 129.247 316.812C129.247 317.496 128.666 317.979 127.846 317.979ZM132.118 320.87C132.431 320.87 132.675 320.626 132.675 320.313C132.675 320.001 132.431 319.757 132.118 319.757C131.806 319.757 131.562 320.001 131.562 320.313C131.562 320.626 131.806 320.87 132.118 320.87ZM132.118 317.276C132.431 317.276 132.675 317.032 132.675 316.72C132.675 316.407 132.431 316.163 132.118 316.163C131.806 316.163 131.562 316.407 131.562 316.72C131.562 317.032 131.806 317.276 132.118 317.276ZM137.309 322.042H138.158V320.577H139.154V319.806H138.158V314.996H136.859C135.194 317.384 134.369 318.668 133.769 319.781V320.577H137.309V322.042ZM134.638 319.786C135.194 318.809 135.961 317.633 137.294 315.728H137.309V319.806H134.638V319.786ZM142.479 322.159C144.12 322.159 145.067 320.738 145.067 318.512C145.067 316.3 144.115 314.879 142.479 314.879C140.844 314.879 139.882 316.309 139.882 318.516C139.882 320.743 140.834 322.159 142.479 322.159ZM142.479 321.392C141.376 321.392 140.766 320.269 140.766 318.512C140.766 316.793 141.391 315.65 142.479 315.65C143.568 315.65 144.184 316.783 144.184 318.516C144.184 320.274 143.578 321.392 142.479 321.392Z" fill="white"/>
</g>
<g opacity="0.3" clip-path="url(#clip2_101_1885)">
<path d="M183.773 317.027V317.032H184.623V317.027C184.623 316.241 185.248 315.645 186.073 315.645C186.85 315.645 187.47 316.187 187.47 316.866C187.47 317.452 187.245 317.828 186.298 318.824L183.817 321.436V322.042H188.466V321.261H185.033V321.241L186.815 319.4C187.992 318.184 188.349 317.599 188.349 316.812C188.349 315.733 187.357 314.879 186.098 314.879C184.77 314.879 183.773 315.797 183.773 317.027ZM189.438 317.027V317.032H190.287V317.027C190.287 316.241 190.912 315.645 191.737 315.645C192.514 315.645 193.134 316.187 193.134 316.866C193.134 317.452 192.909 317.828 191.962 318.824L189.481 321.436V322.042H194.13V321.261H190.697V321.241L192.479 319.4C193.656 318.184 194.013 317.599 194.013 316.812C194.013 315.733 193.021 314.879 191.762 314.879C190.434 314.879 189.438 315.797 189.438 317.027ZM195.844 320.87C196.156 320.87 196.4 320.626 196.4 320.313C196.4 320.001 196.156 319.757 195.844 319.757C195.531 319.757 195.287 320.001 195.287 320.313C195.287 320.626 195.531 320.87 195.844 320.87ZM195.844 317.276C196.156 317.276 196.4 317.032 196.4 316.72C196.4 316.407 196.156 316.163 195.844 316.163C195.531 316.163 195.287 316.407 195.287 316.72C195.287 317.032 195.531 317.276 195.844 317.276ZM199.12 318.79H200.004C201.01 318.79 201.635 319.303 201.635 320.133C201.635 320.87 200.966 321.397 200.033 321.397C199.086 321.397 198.485 320.899 198.407 320.177H197.562C197.626 321.344 198.568 322.159 200.043 322.159C201.425 322.159 202.528 321.314 202.528 320.103C202.528 319.112 201.845 318.453 200.78 318.39V318.37C201.659 318.214 202.226 317.579 202.226 316.695C202.226 315.636 201.273 314.879 200.014 314.879C198.69 314.879 197.802 315.645 197.704 316.842H198.549C198.627 316.104 199.164 315.641 199.975 315.641C200.868 315.641 201.342 316.114 201.342 316.812C201.342 317.525 200.775 318.048 199.965 318.048H199.12V318.79ZM205.399 322.042H206.249V314.996H205.39L203.515 316.344V317.271L205.38 315.929H205.399V322.042Z" fill="white"/>
</g>
<g opacity="0.3" clip-path="url(#clip3_101_1885)">
<path d="M249.11 322.159C250.751 322.159 251.698 320.738 251.698 318.512C251.698 316.3 250.746 314.879 249.11 314.879C247.475 314.879 246.513 316.309 246.513 318.516C246.513 320.743 247.465 322.159 249.11 322.159ZM249.11 321.392C248.007 321.392 247.396 320.269 247.396 318.512C247.396 316.793 248.021 315.65 249.11 315.65C250.199 315.65 250.814 316.783 250.814 318.516C250.814 320.274 250.209 321.392 249.11 321.392ZM252.567 317.027V317.032H253.417V317.027C253.417 316.241 254.042 315.645 254.867 315.645C255.644 315.645 256.264 316.187 256.264 316.866C256.264 317.452 256.039 317.828 255.092 318.824L252.611 321.436V322.042H257.26V321.261H253.827V321.241L255.609 319.4C256.786 318.184 257.143 317.599 257.143 316.812C257.143 315.733 256.151 314.879 254.892 314.879C253.563 314.879 252.567 315.797 252.567 317.027ZM258.974 320.87C259.286 320.87 259.53 320.626 259.53 320.313C259.53 320.001 259.286 319.757 258.974 319.757C258.661 319.757 258.417 320.001 258.417 320.313C258.417 320.626 258.661 320.87 258.974 320.87ZM258.974 317.276C259.286 317.276 259.53 317.032 259.53 316.72C259.53 316.407 259.286 316.163 258.974 316.163C258.661 316.163 258.417 316.407 258.417 316.72C258.417 317.032 258.661 317.276 258.974 317.276ZM260.771 317.027V317.032H261.62V317.027C261.62 316.241 262.245 315.645 263.07 315.645C263.847 315.645 264.467 316.187 264.467 316.866C264.467 317.452 264.242 317.828 263.295 318.824L260.814 321.436V322.042H265.463V321.261H262.03V321.241L263.812 319.4C264.989 318.184 265.346 317.599 265.346 316.812C265.346 315.733 264.354 314.879 263.095 314.879C261.767 314.879 260.771 315.797 260.771 317.027ZM268.275 322.042H269.125V314.996H268.266L266.391 316.344V317.271L268.256 315.929H268.275V322.042Z" fill="white"/>
</g>
<g opacity="0.3">
<path d="M310.891 322.159C312.531 322.159 313.479 320.738 313.479 318.512C313.479 316.3 312.526 314.879 310.891 314.879C309.255 314.879 308.293 316.309 308.293 318.516C308.293 320.743 309.245 322.159 310.891 322.159ZM310.891 321.392C309.787 321.392 309.177 320.269 309.177 318.512C309.177 316.793 309.802 315.65 310.891 315.65C311.979 315.65 312.595 316.783 312.595 318.516C312.595 320.274 311.989 321.392 310.891 321.392ZM317.038 322.164C318.483 322.164 319.533 321.148 319.533 319.757C319.533 318.419 318.537 317.428 317.194 317.428C316.32 317.428 315.544 317.882 315.227 318.57H315.212C315.241 316.695 315.91 315.65 317.087 315.65C317.785 315.65 318.352 316.06 318.542 316.7H319.436C319.211 315.592 318.293 314.874 317.097 314.874C315.373 314.874 314.362 316.266 314.362 318.639C314.362 319.4 314.475 320.035 314.709 320.577C315.144 321.593 315.983 322.164 317.038 322.164ZM317.028 321.383C316.125 321.383 315.422 320.665 315.422 319.762C315.422 318.863 316.11 318.199 317.043 318.199C317.976 318.199 318.64 318.863 318.64 319.786C318.64 320.675 317.927 321.383 317.028 321.383ZM321.174 320.87C321.486 320.87 321.73 320.626 321.73 320.313C321.73 320.001 321.486 319.757 321.174 319.757C320.861 319.757 320.617 320.001 320.617 320.313C320.617 320.626 320.861 320.87 321.174 320.87ZM321.174 317.276C321.486 317.276 321.73 317.032 321.73 316.72C321.73 316.407 321.486 316.163 321.174 316.163C320.861 316.163 320.617 316.407 320.617 316.72C320.617 317.032 320.861 317.276 321.174 317.276ZM324.812 322.042H325.661V314.996H324.802L322.927 316.344V317.271L324.792 315.929H324.812V322.042ZM327.404 317.027V317.032H328.254V317.027C328.254 316.241 328.879 315.645 329.704 315.645C330.48 315.645 331.101 316.187 331.101 316.866C331.101 317.452 330.876 317.828 329.929 318.824L327.448 321.436V322.042H332.097V321.261H328.664V321.241L330.446 319.4C331.623 318.184 331.979 317.599 331.979 316.812C331.979 315.733 330.988 314.879 329.729 314.879C328.4 314.879 327.404 315.797 327.404 317.027Z" fill="white"/>
</g>
<path d="M357.068 72.882L341.468 91.2103L329.648 46.0732L313.702 91.2103L305.508 72.6332L283.51 115.263L256.134 80.719L241.535 198.72L222.011 215.255L204.214 198.72L165.474 270.157L119.595 106.826L113.469 175.953L105.275 138.426L97.5069 164.552L87.9379 115.263L80.3586 215.254L72.7948 198.719L58.6387 270.153" stroke="white" stroke-width="2" stroke-linecap="round" stroke-linejoin="round"/>
<rect x="194.764" y="157.068" width="58.6387" height="31.4136" rx="2" fill="url(#paint1_linear_101_1885)"/>
<path d="M212.185 177.131H213.867V175.625H214.969V174.207H213.867V168.676H211.371C209.637 171.23 208.717 172.713 207.978 174.119V175.625H212.185V177.131ZM209.531 174.213C210.217 172.889 210.955 171.734 212.185 169.93H212.221V174.26H209.531V174.213ZM217.992 173.439H219.035C219.99 173.439 220.57 173.908 220.57 174.682C220.57 175.396 219.949 175.895 219.064 175.895C218.133 175.895 217.547 175.426 217.494 174.711H215.801C215.883 176.27 217.131 177.318 219.041 177.318C220.992 177.318 222.369 176.311 222.369 174.793C222.369 173.621 221.555 172.859 220.295 172.754V172.719C221.332 172.531 222.041 171.781 222.041 170.744C222.041 169.391 220.84 168.488 219.082 168.488C217.248 168.488 216.029 169.508 215.965 171.072H217.594C217.641 170.334 218.185 169.848 219.006 169.848C219.885 169.848 220.371 170.299 220.371 170.984C220.371 171.682 219.826 172.162 219.017 172.162H217.992V173.439ZM224.619 178.982L225.404 175.678H223.775L223.336 178.982H224.619ZM230.057 177.318C232.09 177.318 233.484 176.311 233.484 174.846C233.484 173.732 232.682 172.871 231.498 172.672V172.637C232.482 172.402 233.139 171.646 233.139 170.727C233.139 169.426 231.873 168.488 230.057 168.488C228.246 168.488 226.969 169.432 226.969 170.721C226.969 171.652 227.631 172.408 228.615 172.637V172.672C227.437 172.865 226.629 173.727 226.629 174.84C226.629 176.305 228.006 177.318 230.057 177.318ZM230.057 176.029C229.125 176.029 228.475 175.473 228.475 174.711C228.475 173.949 229.125 173.393 230.057 173.393C230.988 173.393 231.633 173.949 231.633 174.711C231.633 175.473 230.988 176.029 230.057 176.029ZM230.057 172.104C229.271 172.104 228.721 171.611 228.721 170.938C228.721 170.264 229.271 169.766 230.057 169.766C230.836 169.766 231.392 170.258 231.392 170.938C231.392 171.611 230.836 172.104 230.057 172.104ZM237.943 177.324C239.836 177.324 241.189 176.076 241.189 174.336C241.189 172.73 240 171.547 238.394 171.547C237.316 171.547 236.484 172.098 236.144 172.924H236.109C236.068 171.014 236.783 169.883 237.961 169.883C238.623 169.883 239.168 170.258 239.338 170.82H241.078C240.844 169.438 239.584 168.482 237.973 168.482C235.787 168.482 234.428 170.17 234.428 172.971C234.428 174.096 234.668 175.051 235.137 175.766C235.728 176.773 236.73 177.324 237.943 177.324ZM237.926 175.912C237.058 175.912 236.385 175.232 236.385 174.371C236.385 173.516 237.053 172.877 237.932 172.877C238.816 172.877 239.467 173.516 239.467 174.389C239.467 175.238 238.787 175.912 237.926 175.912Z" fill="white"/>
<path fill-rule="evenodd" clip-rule="evenodd" d="M224.608 204.188C227.21 204.188 229.32 202.079 229.32 199.476C229.32 196.874 227.21 194.764 224.608 194.764C222.005 194.764 219.896 196.874 219.896 199.476C219.896 202.079 222.005 204.188 224.608 204.188Z" fill="url(#paint2_linear_101_1885)"/>
<path fill-rule="evenodd" clip-rule="evenodd" d="M224.608 203.141C226.632 203.141 228.273 201.501 228.273 199.476C228.273 197.452 226.632 195.812 224.608 195.812C222.584 195.812 220.943 197.452 220.943 199.476C220.943 201.501 222.584 203.141 224.608 203.141Z" stroke="white" stroke-width="2"/>
</g>
<defs>
<linearGradient id="paint0_linear_101_1885" x1="188.482" y1="0" x2="188.482" y2="380.105" gradientUnits="userSpaceOnUse">
<stop stop-color="#181B23"/>
<stop offset="1" stop-color="#181B23" stop-opacity="0"/>
</linearGradient>
<linearGradient id="paint1_linear_101_1885" x1="194.764" y1="160.838" x2="254.3" y2="174.577" gradientUnits="userSpaceOnUse">
<stop stop-color="#F29200"/>
<stop offset="1" stop-color="#F9B234"/>
</linearGradient>
<linearGradient id="paint2_linear_101_1885" x1="219.896" y1="195.895" x2="229.822" y2="197.122" gradientUnits="userSpaceOnUse">
<stop stop-color="#F29200"/>
<stop offset="1" stop-color="#F9B234"/>
</linearGradient>
<clip-path id="clip0_101_1885">
<rect width="383.246" height="299.476" fill="white" transform="translate(16.7539 25.1309)"/>
</clip-path>
<clip-path id="clip1_101_1885">
<rect width="27.2251" height="12.5654" fill="white" transform="translate(120.419 312.042)"/>
</clip-path>
<clip-path id="clip2_101_1885">
<rect width="26.178" height="12.5654" fill="white" transform="translate(183.246 312.042)"/>
</clip-path>
<clip-path id="clip3_101_1885">
<rect width="26.178" height="12.5654" fill="white" transform="translate(246.073 312.042)"/>
</clip-path>
</defs>
</svg>
