<svg width="104" height="88" viewBox="0 0 144 128" fill="none" xmlns="http://www.w3.org/2000/svg">
<rect width="143.628" height="128" rx="8.93023" fill="url(#paint0_linear_102_1954)"/>
<path d="M19.3911 108.529V103.645H20.2199V108.529H19.3911ZM17.3636 106.501V105.672H22.2473V106.501H17.3636ZM26.688 102.283V109.86H25.7705V103.245H25.7261L23.8762 104.474V103.541L25.7705 102.283H26.688ZM31.383 109.964C31.0723 109.959 30.7615 109.9 30.4507 109.786C30.1399 109.673 29.8563 109.482 29.5997 109.213C29.3432 108.942 29.1373 108.575 28.9819 108.114C28.8265 107.65 28.7488 107.068 28.7488 106.368C28.7488 105.697 28.8117 105.103 28.9375 104.585C29.0633 104.064 29.2458 103.626 29.485 103.271C29.7243 102.914 30.0129 102.642 30.3508 102.457C30.6912 102.272 31.0747 102.18 31.5014 102.18C31.9257 102.18 32.3031 102.265 32.6336 102.435C32.9665 102.603 33.2379 102.837 33.4475 103.138C33.6572 103.439 33.7928 103.785 33.8545 104.178H32.9518C32.8679 103.837 32.7051 103.555 32.4634 103.33C32.2217 103.106 31.901 102.994 31.5014 102.994C30.9144 102.994 30.4519 103.249 30.114 103.76C29.7786 104.27 29.6096 104.987 29.6071 105.909H29.6663C29.8045 105.699 29.9685 105.521 30.1584 105.373C30.3508 105.222 30.5629 105.106 30.7948 105.025C31.0266 104.943 31.272 104.903 31.531 104.903C31.9651 104.903 32.3623 105.011 32.7224 105.228C33.0825 105.443 33.3711 105.74 33.5881 106.12C33.8052 106.497 33.9137 106.93 33.9137 107.419C33.9137 107.887 33.8089 108.316 33.5992 108.706C33.3896 109.093 33.0948 109.402 32.715 109.631C32.3376 109.858 31.8936 109.969 31.383 109.964ZM31.383 109.15C31.6938 109.15 31.9725 109.072 32.2192 108.917C32.4683 108.762 32.6644 108.553 32.8075 108.292C32.953 108.03 33.0257 107.739 33.0257 107.419C33.0257 107.105 32.9554 106.82 32.8149 106.564C32.6767 106.305 32.4856 106.099 32.2414 105.946C31.9997 105.793 31.7234 105.717 31.4126 105.717C31.1783 105.717 30.96 105.764 30.7578 105.857C30.5555 105.949 30.3779 106.074 30.225 106.235C30.0745 106.395 29.9562 106.579 29.8698 106.786C29.7835 106.991 29.7403 107.206 29.7403 107.433C29.7403 107.734 29.8106 108.016 29.9512 108.277C30.0943 108.538 30.2891 108.749 30.5358 108.91C30.7849 109.07 31.0673 109.15 31.383 109.15ZM35.6637 109.92C35.4812 109.92 35.3245 109.854 35.1938 109.724C35.0631 109.593 34.9977 109.436 34.9977 109.254C34.9977 109.071 35.0631 108.915 35.1938 108.784C35.3245 108.653 35.4812 108.588 35.6637 108.588C35.8462 108.588 36.0028 108.653 36.1336 108.784C36.2643 108.915 36.3297 109.071 36.3297 109.254C36.3297 109.375 36.2988 109.486 36.2372 109.587C36.178 109.688 36.0978 109.769 35.9967 109.831C35.898 109.89 35.787 109.92 35.6637 109.92ZM37.7041 108.307V107.552L41.0339 102.283H41.5815V103.452H41.2115L38.6957 107.433V107.493H43.1798V108.307H37.7041ZM41.2707 109.86V108.077V107.726V102.283H42.1439V109.86H41.2707ZM47.0378 109.964C46.4803 109.964 46.0055 109.812 45.6134 109.509C45.2212 109.203 44.9215 108.76 44.7143 108.181C44.5071 107.599 44.4035 106.896 44.4035 106.072C44.4035 105.253 44.5071 104.554 44.7143 103.974C44.924 103.392 45.2249 102.948 45.6171 102.642C46.0117 102.334 46.4853 102.18 47.0378 102.18C47.5903 102.18 48.0626 102.334 48.4548 102.642C48.8494 102.948 49.1504 103.392 49.3575 103.974C49.5672 104.554 49.672 105.253 49.672 106.072C49.672 106.896 49.5684 107.599 49.3612 108.181C49.1541 108.76 48.8544 109.203 48.4622 109.509C48.07 109.812 47.5952 109.964 47.0378 109.964ZM47.0378 109.15C47.5903 109.15 48.0194 108.884 48.3253 108.351C48.6311 107.818 48.7841 107.058 48.7841 106.072C48.7841 105.416 48.7138 104.857 48.5732 104.396C48.4351 103.935 48.2353 103.583 47.9738 103.341C47.7148 103.1 47.4028 102.979 47.0378 102.979C46.4902 102.979 46.0623 103.249 45.7539 103.789C45.4456 104.327 45.2915 105.088 45.2915 106.072C45.2915 106.728 45.3605 107.285 45.4987 107.744C45.6368 108.203 45.8353 108.552 46.0943 108.791C46.3558 109.03 46.6703 109.15 47.0378 109.15ZM54.9405 108.44V108.04C54.9405 107.764 54.9973 107.511 55.1107 107.282C55.2266 107.05 55.3944 106.865 55.6139 106.727C55.8359 106.586 56.1047 106.516 56.4204 106.516C56.7411 106.516 57.0099 106.586 57.227 106.727C57.444 106.865 57.6081 107.05 57.7191 107.282C57.8301 107.511 57.8856 107.764 57.8856 108.04V108.44C57.8856 108.716 57.8288 108.97 57.7154 109.202C57.6044 109.431 57.4391 109.616 57.2196 109.757C57.0025 109.895 56.7362 109.964 56.4204 109.964C56.0998 109.964 55.8297 109.895 55.6102 109.757C55.3907 109.616 55.2242 109.431 55.1107 109.202C54.9973 108.97 54.9405 108.716 54.9405 108.44ZM55.6953 108.04V108.44C55.6953 108.669 55.7495 108.875 55.8581 109.058C55.9666 109.238 56.1541 109.328 56.4204 109.328C56.6794 109.328 56.8619 109.238 56.968 109.058C57.0765 108.875 57.1308 108.669 57.1308 108.44V108.04C57.1308 107.811 57.079 107.606 56.9754 107.426C56.8718 107.243 56.6868 107.152 56.4204 107.152C56.1615 107.152 55.9752 107.243 55.8618 107.426C55.7508 107.606 55.6953 107.811 55.6953 108.04ZM51.1667 104.104V103.704C51.1667 103.428 51.2235 103.175 51.3369 102.946C51.4529 102.714 51.6206 102.529 51.8401 102.391C52.0621 102.25 52.3309 102.18 52.6467 102.18C52.9673 102.18 53.2362 102.25 53.4532 102.391C53.6703 102.529 53.8343 102.714 53.9453 102.946C54.0563 103.175 54.1118 103.428 54.1118 103.704V104.104C54.1118 104.38 54.055 104.634 53.9416 104.866C53.8306 105.095 53.6653 105.28 53.4458 105.421C53.2288 105.559 52.9624 105.628 52.6467 105.628C52.326 105.628 52.0559 105.559 51.8364 105.421C51.6169 105.28 51.4504 105.095 51.3369 104.866C51.2235 104.634 51.1667 104.38 51.1667 104.104ZM51.9215 103.704V104.104C51.9215 104.333 51.9758 104.539 52.0843 104.721C52.1928 104.902 52.3803 104.992 52.6467 104.992C52.9056 104.992 53.0882 104.902 53.1942 104.721C53.3027 104.539 53.357 104.333 53.357 104.104V103.704C53.357 103.475 53.3052 103.27 53.2016 103.09C53.098 102.907 52.913 102.816 52.6467 102.816C52.3877 102.816 52.2014 102.907 52.088 103.09C51.977 103.27 51.9215 103.475 51.9215 103.704ZM51.4479 109.86L56.6572 102.283H57.5008L52.2915 109.86H51.4479Z" fill="#23E33E"/>
<path d="M67.6045 101.204V102.517H72.0107L64.2607 110.267L65.1982 111.204L72.9482 103.454V107.86H74.2607V101.204H67.6045Z" fill="#23E33E"/>
<path d="M18.3635 17.8879V17.074H24.0464V17.8879H21.6637V24.6511H20.7462V17.8879H18.3635ZM24.754 24.6511V18.9682H25.5975V19.8266H25.6567C25.7603 19.5454 25.9478 19.3173 26.2191 19.1421C26.4904 18.967 26.7963 18.8795 27.1366 18.8795C27.2008 18.8795 27.2809 18.8807 27.3771 18.8832C27.4733 18.8856 27.5461 18.8893 27.5954 18.8943V19.7822C27.5658 19.7748 27.498 19.7637 27.3919 19.7489C27.2883 19.7316 27.1786 19.723 27.0627 19.723C26.7864 19.723 26.5397 19.781 26.3227 19.8969C26.1081 20.0104 25.9379 20.1682 25.8121 20.3705C25.6888 20.5703 25.6271 20.7984 25.6271 21.0549V24.6511H24.754ZM30.8401 24.7695C30.2926 24.7695 29.8202 24.6487 29.4231 24.4069C29.0285 24.1628 28.7239 23.8224 28.5093 23.3858C28.2971 22.9468 28.1911 22.4362 28.1911 21.8541C28.1911 21.272 28.2971 20.7589 28.5093 20.315C28.7239 19.8685 29.0223 19.5207 29.4046 19.2716C29.7894 19.02 30.2383 18.8943 30.7513 18.8943C31.0473 18.8943 31.3396 18.9436 31.6282 19.0422C31.9168 19.1409 32.1795 19.3012 32.4162 19.5232C32.653 19.7427 32.8417 20.0338 32.9823 20.3964C33.1229 20.7589 33.1932 21.2054 33.1932 21.7357V22.1057H28.8127V21.3509H32.3053C32.3053 21.0303 32.2411 20.7441 32.1129 20.4926C31.9871 20.241 31.807 20.0424 31.5727 19.8969C31.3408 19.7514 31.0671 19.6786 30.7513 19.6786C30.4036 19.6786 30.1026 19.7649 29.8486 19.9376C29.597 20.1078 29.4034 20.3298 29.2677 20.6036C29.1321 20.8773 29.0642 21.1709 29.0642 21.4841V21.9873C29.0642 22.4165 29.1382 22.7803 29.2862 23.0787C29.4367 23.3747 29.6451 23.6004 29.9115 23.7558C30.1779 23.9087 30.4874 23.9852 30.8401 23.9852C31.0695 23.9852 31.2767 23.9531 31.4617 23.889C31.6492 23.8224 31.8107 23.7237 31.9464 23.593C32.082 23.4598 32.1869 23.2945 32.2609 23.0972L33.1044 23.334C33.0156 23.6201 32.8664 23.8717 32.6567 24.0888C32.4471 24.3033 32.1881 24.4711 31.8798 24.5919C31.5715 24.7103 31.2249 24.7695 30.8401 24.7695ZM35.3946 21.2325V24.6511H34.5214V18.9682H35.365V19.8562H35.439C35.5722 19.5676 35.7744 19.3358 36.0457 19.1606C36.3171 18.983 36.6673 18.8943 37.0965 18.8943C37.4813 18.8943 37.8179 18.9732 38.1065 19.131C38.3951 19.2864 38.6196 19.5232 38.7799 19.8414C38.9402 20.1571 39.0204 20.5567 39.0204 21.0401V24.6511H38.1472V21.0993C38.1472 20.6529 38.0313 20.3051 37.7994 20.056C37.5676 19.8044 37.2494 19.6786 36.8449 19.6786C36.5662 19.6786 36.3171 19.739 36.0975 19.8599C35.8805 19.9808 35.7091 20.1571 35.5833 20.389C35.4575 20.6208 35.3946 20.902 35.3946 21.2325ZM42.7618 24.7695C42.2882 24.7695 41.8701 24.6499 41.5076 24.4106C41.145 24.1689 40.8613 23.8285 40.6566 23.3895C40.4519 22.948 40.3495 22.4263 40.3495 21.8245C40.3495 21.2276 40.4519 20.7096 40.6566 20.2706C40.8613 19.8315 41.1462 19.4924 41.5113 19.2531C41.8763 19.0139 42.2981 18.8943 42.7766 18.8943C43.1466 18.8943 43.4388 18.9559 43.6534 19.0792C43.8705 19.2001 44.0357 19.3382 44.1492 19.4936C44.2651 19.6465 44.3552 19.7723 44.4193 19.871H44.4933V17.074H45.3664V24.6511H44.5229V23.778H44.4193C44.3552 23.8816 44.2639 24.0123 44.1455 24.1702C44.0271 24.3255 43.8582 24.4649 43.6386 24.5882C43.4191 24.7091 43.1268 24.7695 42.7618 24.7695ZM42.8802 23.9852C43.2304 23.9852 43.5264 23.8939 43.7681 23.7114C44.0098 23.5264 44.1936 23.2711 44.3194 22.9455C44.4452 22.6175 44.5081 22.2389 44.5081 21.8097C44.5081 21.3854 44.4464 21.0142 44.3231 20.696C44.1998 20.3754 44.0172 20.1263 43.7755 19.9487C43.5338 19.7686 43.2354 19.6786 42.8802 19.6786C42.5102 19.6786 42.2019 19.7736 41.9552 19.9635C41.711 20.1509 41.5273 20.4062 41.404 20.7293C41.2831 21.05 41.2227 21.4101 41.2227 21.8097C41.2227 22.2142 41.2843 22.5817 41.4077 22.9122C41.5335 23.2403 41.7184 23.5017 41.9626 23.6966C42.2093 23.889 42.5151 23.9852 42.8802 23.9852ZM47.0868 24.6511V18.9682H47.96V24.6511H47.0868ZM47.5308 18.0211C47.3606 18.0211 47.2139 17.9631 47.0905 17.8472C46.9697 17.7313 46.9092 17.5919 46.9092 17.4291C46.9092 17.2663 46.9697 17.127 47.0905 17.0111C47.2139 16.8951 47.3606 16.8372 47.5308 16.8372C47.701 16.8372 47.8465 16.8951 47.9674 17.0111C48.0907 17.127 48.1524 17.2663 48.1524 17.4291C48.1524 17.5919 48.0907 17.7313 47.9674 17.8472C47.8465 17.9631 47.701 18.0211 47.5308 18.0211ZM50.4324 21.2325V24.6511H49.5592V18.9682H50.4028V19.8562H50.4768C50.61 19.5676 50.8122 19.3358 51.0835 19.1606C51.3549 18.983 51.7051 18.8943 52.1343 18.8943C52.5191 18.8943 52.8557 18.9732 53.1443 19.131C53.4329 19.2864 53.6574 19.5232 53.8177 19.8414C53.978 20.1571 54.0582 20.5567 54.0582 21.0401V24.6511H53.185V21.0993C53.185 20.6529 53.0691 20.3051 52.8372 20.056C52.6054 19.8044 52.2872 19.6786 51.8827 19.6786C51.604 19.6786 51.3549 19.739 51.1353 19.8599C50.9183 19.9808 50.7469 20.1571 50.6211 20.389C50.4953 20.6208 50.4324 20.902 50.4324 21.2325ZM57.9476 26.9006C57.5258 26.9006 57.1632 26.8463 56.8598 26.7378C56.5564 26.6317 56.3036 26.4912 56.1014 26.316C55.9016 26.1434 55.7425 25.9584 55.6241 25.7611L56.3197 25.2727C56.3986 25.3763 56.4985 25.4947 56.6193 25.6279C56.7402 25.7635 56.9055 25.8807 57.1151 25.9793C57.3272 26.0805 57.6047 26.131 57.9476 26.131C58.4063 26.131 58.785 26.02 59.0834 25.7981C59.3819 25.5761 59.5311 25.2283 59.5311 24.7547V23.6004H59.4571C59.3929 23.704 59.3017 23.8322 59.1833 23.9852C59.0674 24.1356 58.8996 24.27 58.6801 24.3884C58.4631 24.5044 58.1696 24.5623 57.7996 24.5623C57.3408 24.5623 56.9289 24.4538 56.5638 24.2367C56.2013 24.0197 55.9139 23.704 55.7018 23.2896C55.4921 22.8752 55.3873 22.3721 55.3873 21.7801C55.3873 21.198 55.4897 20.6911 55.6944 20.2595C55.8991 19.8254 56.184 19.4899 56.549 19.2531C56.9141 19.0139 57.3359 18.8943 57.8144 18.8943C58.1844 18.8943 58.4779 18.9559 58.6949 19.0792C58.9144 19.2001 59.0822 19.3382 59.1981 19.4936C59.3165 19.6465 59.4077 19.7723 59.4719 19.871H59.5607V18.9682H60.4042V24.8139C60.4042 25.3023 60.2932 25.6994 60.0712 26.0052C59.8517 26.3136 59.5557 26.5392 59.1833 26.6823C58.8133 26.8278 58.4014 26.9006 57.9476 26.9006ZM57.918 23.778C58.2682 23.778 58.5642 23.6978 58.8059 23.5375C59.0476 23.3772 59.2314 23.1465 59.3572 22.8456C59.483 22.5447 59.5459 22.1846 59.5459 21.7653C59.5459 21.3558 59.4842 20.9945 59.3609 20.6812C59.2376 20.368 59.055 20.1226 58.8133 19.945C58.5716 19.7674 58.2731 19.6786 57.918 19.6786C57.548 19.6786 57.2397 19.7723 56.993 19.9598C56.7488 20.1472 56.5651 20.3988 56.4418 20.7145C56.3209 21.0303 56.2605 21.3805 56.2605 21.7653C56.2605 22.1599 56.3221 22.5089 56.4455 22.8123C56.5712 23.1132 56.7562 23.35 57.0004 23.5227C57.2471 23.6929 57.5529 23.778 57.918 23.778Z" fill="white"/>
<path d="M18.613 91.7441V83.0845H22.0802C22.7173 83.0845 23.2487 83.179 23.6743 83.3678C24.1 83.5567 24.4199 83.8188 24.6341 84.1543C24.8484 84.4869 24.9555 84.8703 24.9555 85.3044C24.9555 85.6427 24.8878 85.9401 24.7525 86.1966C24.6172 86.4503 24.4312 86.6589 24.1944 86.8224C23.9604 86.983 23.6926 87.0972 23.391 87.1649V87.2494C23.7208 87.2635 24.0295 87.3565 24.317 87.5285C24.6074 87.7004 24.8427 87.9415 25.0231 88.2515C25.2036 88.5588 25.2938 88.9253 25.2938 89.3509C25.2938 89.8104 25.1796 90.2205 24.9513 90.5813C24.7258 90.9393 24.3917 91.2226 23.9491 91.4312C23.5066 91.6398 22.9611 91.7441 22.3128 91.7441H18.613ZM20.4439 90.2473H21.9365C22.4467 90.2473 22.8188 90.1501 23.0527 89.9556C23.2867 89.7582 23.4037 89.4961 23.4037 89.1691C23.4037 88.9295 23.3459 88.7181 23.2303 88.5348C23.1148 88.3516 22.9499 88.2078 22.7356 88.1035C22.5242 87.9992 22.2719 87.9471 21.9787 87.9471H20.4439V90.2473ZM20.4439 86.7082H21.8012C22.052 86.7082 22.2747 86.6645 22.4692 86.5771C22.6666 86.4869 22.8216 86.3601 22.9343 86.1966C23.0499 86.0331 23.1077 85.8372 23.1077 85.6088C23.1077 85.2959 22.9964 85.0436 22.7737 84.852C22.5538 84.6603 22.2409 84.5644 21.835 84.5644H20.4439V86.7082ZM26.4513 91.7441V85.2494H28.2525V91.7441H26.4513ZM27.3561 84.4122C27.0883 84.4122 26.8586 84.3234 26.6669 84.1458C26.478 83.9654 26.3836 83.7498 26.3836 83.4989C26.3836 83.2508 26.478 83.038 26.6669 82.8604C26.8586 82.68 27.0883 82.5898 27.3561 82.5898C27.6239 82.5898 27.8522 82.68 28.0411 82.8604C28.2328 83.038 28.3286 83.2508 28.3286 83.4989C28.3286 83.7498 28.2328 83.9654 28.0411 84.1458C27.8522 84.3234 27.6239 84.4122 27.3561 84.4122ZM31.4967 87.9894V91.7441H29.6954V85.2494H31.4121V86.3953H31.4883C31.632 86.0176 31.873 85.7188 32.2113 85.4989C32.5496 85.2762 32.9597 85.1649 33.4417 85.1649C33.8928 85.1649 34.286 85.2635 34.6215 85.4608C34.9569 85.6582 35.2176 85.9401 35.4037 86.3065C35.5897 86.6701 35.6828 87.1043 35.6828 87.6088V91.7441H33.8815V87.9302C33.8843 87.5327 33.7828 87.2226 33.5771 87C33.3713 86.7744 33.088 86.6617 32.7272 86.6617C32.4847 86.6617 32.2705 86.7138 32.0845 86.8181C31.9012 86.9224 31.7575 87.0747 31.6532 87.2748C31.5517 87.4721 31.4995 87.7103 31.4967 87.9894ZM38.9544 91.8668C38.5401 91.8668 38.1708 91.7949 37.8466 91.6511C37.5224 91.5045 37.2659 91.2889 37.0771 91.0042C36.891 90.7167 36.798 90.3587 36.798 89.9302C36.798 89.5694 36.8642 89.2663 36.9967 89.0211C37.1292 88.7759 37.3096 88.5785 37.5379 88.4291C37.7663 88.2797 38.0256 88.167 38.316 88.0909C38.6091 88.0148 38.9164 87.9612 39.2377 87.9302C39.6155 87.8907 39.9199 87.8541 40.1511 87.8203C40.3822 87.7836 40.5499 87.73 40.6542 87.6596C40.7585 87.5891 40.8107 87.4848 40.8107 87.3467V87.3213C40.8107 87.0535 40.7261 86.8463 40.557 86.6997C40.3907 86.5532 40.1539 86.4799 39.8466 86.4799C39.5224 86.4799 39.2645 86.5518 39.0728 86.6955C38.8811 86.8365 38.7543 87.014 38.6923 87.2283L37.0263 87.093C37.1109 86.6983 37.2772 86.3572 37.5253 86.0697C37.7733 85.7794 38.0933 85.5567 38.4851 85.4016C38.8797 85.2438 39.3364 85.1649 39.8551 85.1649C40.2159 85.1649 40.5612 85.2071 40.891 85.2917C41.2236 85.3763 41.5182 85.5074 41.7747 85.6849C42.0341 85.8625 42.2384 86.0909 42.3878 86.3699C42.5372 86.6462 42.6119 86.9774 42.6119 87.3636V91.7441H40.9037V90.8435H40.853C40.7487 91.0465 40.6091 91.2255 40.4344 91.3805C40.2596 91.5327 40.0496 91.6525 39.8043 91.7399C39.5591 91.8245 39.2758 91.8668 38.9544 91.8668ZM39.4703 90.6236C39.7353 90.6236 39.9692 90.5715 40.1722 90.4672C40.3752 90.3601 40.5344 90.2163 40.65 90.0359C40.7656 89.8555 40.8234 89.6511 40.8234 89.4228V88.7336C40.767 88.7702 40.6895 88.804 40.5908 88.835C40.495 88.8632 40.3864 88.89 40.2652 88.9154C40.144 88.9379 40.0228 88.9591 39.9016 88.9788C39.7804 88.9957 39.6704 89.0112 39.5718 89.0253C39.3604 89.0563 39.1757 89.1057 39.0179 89.1733C38.86 89.241 38.7374 89.3326 38.65 89.4482C38.5626 89.5609 38.5189 89.7019 38.5189 89.871C38.5189 90.1162 38.6077 90.3037 38.7853 90.4334C38.9657 90.5602 39.194 90.6236 39.4703 90.6236ZM45.8107 87.9894V91.7441H44.0094V85.2494H45.7261V86.3953H45.8022C45.946 86.0176 46.187 85.7188 46.5253 85.4989C46.8635 85.2762 47.2737 85.1649 47.7557 85.1649C48.2067 85.1649 48.6 85.2635 48.9354 85.4608C49.2709 85.6582 49.5316 85.9401 49.7176 86.3065C49.9037 86.6701 49.9967 87.1043 49.9967 87.6088V91.7441H48.1954V87.9302C48.1983 87.5327 48.0968 87.2226 47.891 87C47.6852 86.7744 47.4019 86.6617 47.0411 86.6617C46.7987 86.6617 46.5845 86.7138 46.3984 86.8181C46.2152 86.9224 46.0714 87.0747 45.9671 87.2748C45.8656 87.4721 45.8135 87.7103 45.8107 87.9894ZM54.3508 91.871C53.6856 91.871 53.1133 91.73 52.6341 91.4482C52.1577 91.1634 51.7913 90.7688 51.5348 90.2642C51.2811 89.7596 51.1542 89.179 51.1542 88.5222C51.1542 87.8569 51.2825 87.2734 51.539 86.7716C51.7983 86.267 52.1662 85.8738 52.6426 85.5919C53.119 85.3072 53.6856 85.1649 54.3424 85.1649C54.909 85.1649 55.4051 85.2677 55.8308 85.4735C56.2564 85.6793 56.5933 85.9682 56.8413 86.3403C57.0894 86.7124 57.2261 87.1494 57.2515 87.6511H55.5517C55.5038 87.3269 55.3769 87.0662 55.1711 86.8689C54.9682 86.6687 54.7018 86.5687 54.372 86.5687C54.0929 86.5687 53.8491 86.6448 53.6405 86.797C53.4347 86.9464 53.274 87.1649 53.1585 87.4524C53.0429 87.7399 52.9851 88.088 52.9851 88.4968C52.9851 88.9112 53.0415 89.2635 53.1542 89.5539C53.2698 89.8442 53.4319 90.0655 53.6405 90.2177C53.8491 90.3699 54.0929 90.446 54.372 90.446C54.5778 90.446 54.7624 90.4038 54.9259 90.3192C55.0922 90.2346 55.2289 90.112 55.336 89.9513C55.446 89.7878 55.5179 89.5919 55.5517 89.3636H57.2515C57.2233 89.8597 57.088 90.2966 56.8456 90.6744C56.606 91.0493 56.2747 91.3424 55.8519 91.5539C55.4291 91.7653 54.9287 91.871 54.3508 91.871ZM61.3646 91.871C60.6965 91.871 60.1215 91.7357 59.6394 91.4651C59.1602 91.1916 58.7909 90.8055 58.5316 90.3065C58.2723 89.8047 58.1426 89.2114 58.1426 88.5264C58.1426 87.8583 58.2723 87.272 58.5316 86.7674C58.7909 86.2628 59.156 85.8696 59.6267 85.5877C60.1003 85.3058 60.6556 85.1649 61.2927 85.1649C61.7212 85.1649 62.12 85.2339 62.4893 85.372C62.8614 85.5074 63.1856 85.7117 63.4618 85.9852C63.7409 86.2586 63.958 86.6025 64.113 87.0169C64.268 87.4284 64.3456 87.9105 64.3456 88.463V88.9577H58.8614V87.8414H62.65C62.65 87.5821 62.5936 87.3523 62.4809 87.1522C62.3681 86.952 62.2117 86.7956 62.0115 86.6828C61.8142 86.5673 61.5845 86.5095 61.3223 86.5095C61.0489 86.5095 60.8064 86.5729 60.595 86.6997C60.3864 86.8238 60.2229 86.9915 60.1045 87.2029C59.9861 87.4115 59.9255 87.6441 59.9227 87.9006V88.9619C59.9227 89.2833 59.9819 89.5609 60.1003 89.7949C60.2215 90.0288 60.3921 90.2093 60.6119 90.3361C60.8318 90.463 61.0926 90.5264 61.3942 90.5264C61.5943 90.5264 61.7776 90.4982 61.9439 90.4418C62.1102 90.3854 62.2525 90.3009 62.3709 90.1881C62.4893 90.0754 62.5795 89.9372 62.6415 89.7737L64.3075 89.8837C64.2229 90.284 64.0496 90.6335 63.7874 90.9323C63.5281 91.2283 63.1926 91.4594 62.7811 91.6257C62.3723 91.7892 61.9002 91.871 61.3646 91.871Z" fill="white"/>
<path d="M70.2432 91.7441V84.167H72.8923C73.4201 84.167 73.8555 84.2582 74.1983 84.4408C74.5412 84.6208 74.7964 84.8638 74.9642 85.1696C75.1319 85.473 75.2157 85.8097 75.2157 86.1797C75.2157 86.5052 75.1578 86.7741 75.0419 86.9862C74.9284 87.1983 74.7779 87.3661 74.5905 87.4894C74.4055 87.6127 74.2045 87.704 73.9874 87.7632V87.8372C74.2193 87.852 74.4524 87.9334 74.6867 88.0813C74.921 88.2293 75.1171 88.4415 75.2749 88.7177C75.4328 88.994 75.5117 89.3319 75.5117 89.7315C75.5117 90.1113 75.4254 90.4529 75.2527 90.7563C75.0801 91.0597 74.8075 91.3002 74.4351 91.4778C74.0626 91.6553 73.578 91.7441 72.9811 91.7441H70.2432ZM71.1608 90.9302H72.9811C73.5804 90.9302 74.0059 90.8143 74.2575 90.5824C74.5116 90.3481 74.6386 90.0644 74.6386 89.7315C74.6386 89.4749 74.5732 89.2382 74.4425 89.0211C74.3118 88.8016 74.1255 88.6265 73.8838 88.4957C73.6421 88.3625 73.356 88.2959 73.0255 88.2959H71.1608V90.9302ZM71.1608 87.4968H72.8627C73.1389 87.4968 73.3881 87.4425 73.61 87.334C73.8345 87.2255 74.0121 87.0725 74.1428 86.8752C74.276 86.6779 74.3426 86.446 74.3426 86.1797C74.3426 85.8467 74.2267 85.5643 73.9948 85.3324C73.763 85.0981 73.3955 84.9809 72.8923 84.9809H71.1608V87.4968ZM81.9919 84.167H82.9095V89.1839C82.9095 89.7019 82.7874 90.1643 82.5432 90.5713C82.3015 90.9758 81.9598 91.2952 81.5183 91.5296C81.0768 91.7614 80.5589 91.8773 79.9644 91.8773C79.37 91.8773 78.852 91.7614 78.4105 91.5296C77.969 91.2952 77.6262 90.9758 77.382 90.5713C77.1403 90.1643 77.0194 89.7019 77.0194 89.1839V84.167H77.9369V89.1099C77.9369 89.4799 78.0183 89.8092 78.1811 90.0977C78.3439 90.3839 78.5758 90.6095 78.8767 90.7748C79.1801 90.9376 79.5427 91.019 79.9644 91.019C80.3862 91.019 80.7488 90.9376 81.0522 90.7748C81.3555 90.6095 81.5874 90.3839 81.7477 90.0977C81.9105 89.8092 81.9919 89.4799 81.9919 89.1099V84.167ZM88.8855 86.0613C88.8411 85.6864 88.6611 85.3953 88.3454 85.1881C88.0297 84.9809 87.6424 84.8773 87.1836 84.8773C86.8482 84.8773 86.5547 84.9316 86.3031 85.0401C86.054 85.1486 85.8591 85.2979 85.7185 85.4878C85.5804 85.6777 85.5113 85.8935 85.5113 86.1353C85.5113 86.3375 85.5594 86.5114 85.6556 86.6569C85.7543 86.8 85.8801 86.9196 86.033 87.0158C86.1859 87.1095 86.3463 87.1872 86.514 87.2489C86.6817 87.3081 86.8359 87.3562 86.9765 87.3932L87.746 87.6004C87.9433 87.6522 88.1629 87.7237 88.4046 87.815C88.6488 87.9062 88.8818 88.0308 89.1038 88.1886C89.3283 88.344 89.5133 88.5438 89.6588 88.788C89.8043 89.0322 89.8771 89.3319 89.8771 89.6871C89.8771 90.0965 89.7698 90.4665 89.5552 90.797C89.3431 91.1275 89.0323 91.3902 88.6229 91.585C88.2159 91.7799 87.7213 91.8773 87.1392 91.8773C86.5966 91.8773 86.1267 91.7898 85.7296 91.6146C85.335 91.4395 85.0242 91.1953 84.7973 90.8821C84.5728 90.5688 84.4458 90.205 84.4162 89.7907H85.3633C85.388 90.0768 85.4842 90.3136 85.6519 90.501C85.8221 90.686 86.0367 90.8241 86.2957 90.9154C86.5571 91.0042 86.8383 91.0486 87.1392 91.0486C87.4895 91.0486 87.804 90.9919 88.0827 90.8784C88.3614 90.7625 88.5822 90.6021 88.745 90.3974C88.9077 90.1902 88.9891 89.9485 88.9891 89.6723C88.9891 89.4207 88.9188 89.216 88.7782 89.0581C88.6377 88.9002 88.4527 88.772 88.2233 88.6733C87.9939 88.5747 87.746 88.4883 87.4796 88.4143L86.5473 88.1479C85.9553 87.9778 85.4867 87.7348 85.1414 87.4191C84.796 87.1034 84.6234 86.6902 84.6234 86.1797C84.6234 85.7554 84.7381 85.3854 84.9675 85.0697C85.1993 84.7515 85.5101 84.5049 85.8998 84.3298C86.292 84.1522 86.7298 84.0634 87.2132 84.0634C87.7016 84.0634 88.1357 84.1509 88.5156 84.3261C88.8954 84.4987 89.1963 84.7355 89.4183 85.0364C89.6428 85.3373 89.7612 85.679 89.7735 86.0613H88.8855ZM93.7239 91.7441H91.3857V84.167H93.8275C94.5626 84.167 95.1915 84.3187 95.7144 84.622C96.2373 84.923 96.6381 85.3558 96.9169 85.9207C97.1956 86.483 97.3349 87.1564 97.3349 87.9408C97.3349 88.73 97.1943 89.4096 96.9132 89.9793C96.632 90.5466 96.2225 90.9832 95.6848 91.2891C95.1471 91.5924 94.4935 91.7441 93.7239 91.7441ZM92.3032 90.9302H93.6647C94.2912 90.9302 94.8104 90.8093 95.2224 90.5676C95.6343 90.3259 95.9413 89.9818 96.1436 89.5354C96.3459 89.0889 96.447 88.5574 96.447 87.9408C96.447 87.3291 96.3471 86.8025 96.1473 86.3609C95.9475 85.917 95.6491 85.5766 95.252 85.3398C94.8548 85.1006 94.3603 84.9809 93.7683 84.9809H92.3032V90.9302Z" fill="white"/>
<path d="M31.2558 45.5814L34.1598 48.5465L26.8474 55.8372L23.9434 52.9419L31.2558 45.5814Z" fill="#F0B90B" stroke="#F0B90B" stroke-width="0.744186"/>
<path d="M35.6643 49.9768L38.5683 52.9419L26.8474 64.628L23.9434 61.7326L35.6643 49.9768Z" fill="#F0B90B" stroke="#F0B90B" stroke-width="0.744186"/>
<path d="M22.4391 54.3721L25.3431 57.3372L22.4391 60.2325L19.5352 57.3372L22.4391 54.3721Z" fill="#F0B90B" stroke="#F0B90B" stroke-width="0.744186"/>
<path d="M40.073 54.3721L42.977 57.3372L31.256 69.0232L28.3521 66.1279L40.073 54.3721Z" fill="#F0B90B" stroke="#F0B90B" stroke-width="0.744186"/>
<defs>
<linearGradient id="paint0_linear_102_1954" x1="71.814" y1="0" x2="71.814" y2="128" gradientUnits="userSpaceOnUse">
<stop stop-color="#181B23"/>
<stop offset="1" stop-color="#181B23" stop-opacity="0"/>
</linearGradient>
</defs>
</svg>
