<svg width="150" height="134" viewBox="0 0 150 134" fill="none" xmlns="http://www.w3.org/2000/svg">
<g filter="url(#filter0_bdd_102_1954)">
<rect x="3" width="143.628" height="128" rx="8.93023" fill="#181B23"/>
<path d="M22.3911 108.529V103.645H23.2199V108.529H22.3911ZM20.3636 106.501V105.672H25.2473V106.501H20.3636ZM29.688 102.283V109.86H28.7705V103.245H28.7261L26.8762 104.474V103.541L28.7705 102.283H29.688ZM34.383 109.964C34.0723 109.959 33.7615 109.9 33.4507 109.786C33.1399 109.673 32.8563 109.482 32.5997 109.213C32.3432 108.942 32.1373 108.575 31.9819 108.114C31.8265 107.65 31.7488 107.068 31.7488 106.368C31.7488 105.697 31.8117 105.103 31.9375 104.585C32.0633 104.064 32.2458 103.626 32.485 103.271C32.7243 102.914 33.0129 102.642 33.3508 102.457C33.6912 102.272 34.0747 102.18 34.5014 102.18C34.9257 102.18 35.3031 102.265 35.6336 102.435C35.9665 102.603 36.2379 102.837 36.4475 103.138C36.6572 103.439 36.7928 103.785 36.8545 104.178H35.9518C35.8679 103.837 35.7051 103.555 35.4634 103.33C35.2217 103.106 34.901 102.994 34.5014 102.994C33.9144 102.994 33.4519 103.249 33.114 103.76C32.7786 104.27 32.6096 104.987 32.6071 105.909H32.6663C32.8045 105.699 32.9685 105.521 33.1584 105.373C33.3508 105.222 33.5629 105.106 33.7948 105.025C34.0266 104.943 34.272 104.903 34.531 104.903C34.9651 104.903 35.3623 105.011 35.7224 105.228C36.0825 105.443 36.3711 105.74 36.5881 106.12C36.8052 106.497 36.9137 106.93 36.9137 107.419C36.9137 107.887 36.8089 108.316 36.5992 108.706C36.3896 109.093 36.0948 109.402 35.715 109.631C35.3376 109.858 34.8936 109.969 34.383 109.964ZM34.383 109.15C34.6938 109.15 34.9725 109.072 35.2192 108.917C35.4683 108.762 35.6644 108.553 35.8075 108.292C35.953 108.03 36.0257 107.739 36.0257 107.419C36.0257 107.105 35.9554 106.82 35.8149 106.564C35.6767 106.305 35.4856 106.099 35.2414 105.946C34.9997 105.793 34.7234 105.717 34.4126 105.717C34.1783 105.717 33.96 105.764 33.7578 105.857C33.5555 105.949 33.3779 106.074 33.225 106.235C33.0745 106.395 32.9562 106.579 32.8698 106.786C32.7835 106.991 32.7403 107.206 32.7403 107.433C32.7403 107.734 32.8106 108.016 32.9512 108.277C33.0943 108.538 33.2891 108.749 33.5358 108.91C33.7849 109.07 34.0673 109.15 34.383 109.15ZM38.6637 109.92C38.4812 109.92 38.3245 109.854 38.1938 109.724C38.0631 109.593 37.9977 109.436 37.9977 109.254C37.9977 109.071 38.0631 108.915 38.1938 108.784C38.3245 108.653 38.4812 108.588 38.6637 108.588C38.8462 108.588 39.0028 108.653 39.1336 108.784C39.2643 108.915 39.3297 109.071 39.3297 109.254C39.3297 109.375 39.2988 109.486 39.2372 109.587C39.178 109.688 39.0978 109.769 38.9967 109.831C38.898 109.89 38.787 109.92 38.6637 109.92ZM40.7041 108.307V107.552L44.0339 102.283H44.5815V103.452H44.2115L41.6957 107.433V107.493H46.1798V108.307H40.7041ZM44.2707 109.86V108.077V107.726V102.283H45.1439V109.86H44.2707ZM50.0378 109.964C49.4803 109.964 49.0055 109.812 48.6134 109.509C48.2212 109.203 47.9215 108.76 47.7143 108.181C47.5071 107.599 47.4035 106.896 47.4035 106.072C47.4035 105.253 47.5071 104.554 47.7143 103.974C47.924 103.392 48.2249 102.948 48.6171 102.642C49.0117 102.334 49.4853 102.18 50.0378 102.18C50.5903 102.18 51.0626 102.334 51.4548 102.642C51.8494 102.948 52.1504 103.392 52.3575 103.974C52.5672 104.554 52.672 105.253 52.672 106.072C52.672 106.896 52.5684 107.599 52.3612 108.181C52.1541 108.76 51.8544 109.203 51.4622 109.509C51.07 109.812 50.5952 109.964 50.0378 109.964ZM50.0378 109.15C50.5903 109.15 51.0194 108.884 51.3253 108.351C51.6311 107.818 51.7841 107.058 51.7841 106.072C51.7841 105.416 51.7138 104.857 51.5732 104.396C51.4351 103.935 51.2353 103.583 50.9738 103.341C50.7148 103.1 50.4028 102.979 50.0378 102.979C49.4902 102.979 49.0623 103.249 48.7539 103.789C48.4456 104.327 48.2915 105.088 48.2915 106.072C48.2915 106.728 48.3605 107.285 48.4987 107.744C48.6368 108.203 48.8353 108.552 49.0943 108.791C49.3558 109.03 49.6703 109.15 50.0378 109.15ZM57.9405 108.44V108.04C57.9405 107.764 57.9973 107.511 58.1107 107.282C58.2266 107.05 58.3944 106.865 58.6139 106.727C58.8359 106.586 59.1047 106.516 59.4204 106.516C59.7411 106.516 60.0099 106.586 60.227 106.727C60.444 106.865 60.6081 107.05 60.7191 107.282C60.8301 107.511 60.8856 107.764 60.8856 108.04V108.44C60.8856 108.716 60.8288 108.97 60.7154 109.202C60.6044 109.431 60.4391 109.616 60.2196 109.757C60.0025 109.895 59.7362 109.964 59.4204 109.964C59.0998 109.964 58.8297 109.895 58.6102 109.757C58.3907 109.616 58.2242 109.431 58.1107 109.202C57.9973 108.97 57.9405 108.716 57.9405 108.44ZM58.6953 108.04V108.44C58.6953 108.669 58.7495 108.875 58.8581 109.058C58.9666 109.238 59.1541 109.328 59.4204 109.328C59.6794 109.328 59.8619 109.238 59.968 109.058C60.0765 108.875 60.1308 108.669 60.1308 108.44V108.04C60.1308 107.811 60.079 107.606 59.9754 107.426C59.8718 107.243 59.6868 107.152 59.4204 107.152C59.1615 107.152 58.9752 107.243 58.8618 107.426C58.7508 107.606 58.6953 107.811 58.6953 108.04ZM54.1667 104.104V103.704C54.1667 103.428 54.2235 103.175 54.3369 102.946C54.4529 102.714 54.6206 102.529 54.8401 102.391C55.0621 102.25 55.3309 102.18 55.6467 102.18C55.9673 102.18 56.2362 102.25 56.4532 102.391C56.6703 102.529 56.8343 102.714 56.9453 102.946C57.0563 103.175 57.1118 103.428 57.1118 103.704V104.104C57.1118 104.38 57.055 104.634 56.9416 104.866C56.8306 105.095 56.6653 105.28 56.4458 105.421C56.2288 105.559 55.9624 105.628 55.6467 105.628C55.326 105.628 55.0559 105.559 54.8364 105.421C54.6169 105.28 54.4504 105.095 54.3369 104.866C54.2235 104.634 54.1667 104.38 54.1667 104.104ZM54.9215 103.704V104.104C54.9215 104.333 54.9758 104.539 55.0843 104.721C55.1928 104.902 55.3803 104.992 55.6467 104.992C55.9056 104.992 56.0882 104.902 56.1942 104.721C56.3027 104.539 56.357 104.333 56.357 104.104V103.704C56.357 103.475 56.3052 103.27 56.2016 103.09C56.098 102.907 55.913 102.816 55.6467 102.816C55.3877 102.816 55.2014 102.907 55.088 103.09C54.977 103.27 54.9215 103.475 54.9215 103.704ZM54.4479 109.86L59.6572 102.283H60.5008L55.2915 109.86H54.4479Z" fill="#23E33E"/>
<path d="M70.6045 101.204V102.517H75.0107L67.2607 110.267L68.1982 111.204L75.9482 103.454V107.86H77.2607V101.204H70.6045Z" fill="#23E33E"/>
<path d="M21.3635 17.8879V17.074H27.0464V17.8879H24.6637V24.6511H23.7462V17.8879H21.3635ZM27.754 24.6511V18.9682H28.5975V19.8266H28.6567C28.7603 19.5454 28.9478 19.3173 29.2191 19.1421C29.4904 18.967 29.7963 18.8795 30.1366 18.8795C30.2008 18.8795 30.2809 18.8807 30.3771 18.8832C30.4733 18.8856 30.5461 18.8893 30.5954 18.8943V19.7822C30.5658 19.7748 30.498 19.7637 30.3919 19.7489C30.2883 19.7316 30.1786 19.723 30.0627 19.723C29.7864 19.723 29.5397 19.781 29.3227 19.8969C29.1081 20.0104 28.9379 20.1682 28.8121 20.3705C28.6888 20.5703 28.6271 20.7984 28.6271 21.0549V24.6511H27.754ZM33.8401 24.7695C33.2926 24.7695 32.8202 24.6487 32.4231 24.4069C32.0285 24.1628 31.7239 23.8224 31.5093 23.3858C31.2971 22.9468 31.1911 22.4362 31.1911 21.8541C31.1911 21.272 31.2971 20.7589 31.5093 20.315C31.7239 19.8685 32.0223 19.5207 32.4046 19.2716C32.7894 19.02 33.2383 18.8943 33.7513 18.8943C34.0473 18.8943 34.3396 18.9436 34.6282 19.0422C34.9168 19.1409 35.1795 19.3012 35.4162 19.5232C35.653 19.7427 35.8417 20.0338 35.9823 20.3964C36.1229 20.7589 36.1932 21.2054 36.1932 21.7357V22.1057H31.8127V21.3509H35.3053C35.3053 21.0303 35.2411 20.7441 35.1129 20.4926C34.9871 20.241 34.807 20.0424 34.5727 19.8969C34.3408 19.7514 34.0671 19.6786 33.7513 19.6786C33.4036 19.6786 33.1026 19.7649 32.8486 19.9376C32.597 20.1078 32.4034 20.3298 32.2677 20.6036C32.1321 20.8773 32.0642 21.1709 32.0642 21.4841V21.9873C32.0642 22.4165 32.1382 22.7803 32.2862 23.0787C32.4367 23.3747 32.6451 23.6004 32.9115 23.7558C33.1779 23.9087 33.4874 23.9852 33.8401 23.9852C34.0695 23.9852 34.2767 23.9531 34.4617 23.889C34.6492 23.8224 34.8107 23.7237 34.9464 23.593C35.082 23.4598 35.1869 23.2945 35.2609 23.0972L36.1044 23.334C36.0156 23.6201 35.8664 23.8717 35.6567 24.0888C35.4471 24.3033 35.1881 24.4711 34.8798 24.5919C34.5715 24.7103 34.2249 24.7695 33.8401 24.7695ZM38.3946 21.2325V24.6511H37.5214V18.9682H38.365V19.8562H38.439C38.5722 19.5676 38.7744 19.3358 39.0457 19.1606C39.3171 18.983 39.6673 18.8943 40.0965 18.8943C40.4813 18.8943 40.8179 18.9732 41.1065 19.131C41.3951 19.2864 41.6196 19.5232 41.7799 19.8414C41.9402 20.1571 42.0204 20.5567 42.0204 21.0401V24.6511H41.1472V21.0993C41.1472 20.6529 41.0313 20.3051 40.7994 20.056C40.5676 19.8044 40.2494 19.6786 39.8449 19.6786C39.5662 19.6786 39.3171 19.739 39.0975 19.8599C38.8805 19.9808 38.7091 20.1571 38.5833 20.389C38.4575 20.6208 38.3946 20.902 38.3946 21.2325ZM45.7618 24.7695C45.2882 24.7695 44.8701 24.6499 44.5076 24.4106C44.145 24.1689 43.8613 23.8285 43.6566 23.3895C43.4519 22.948 43.3495 22.4263 43.3495 21.8245C43.3495 21.2276 43.4519 20.7096 43.6566 20.2706C43.8613 19.8315 44.1462 19.4924 44.5113 19.2531C44.8763 19.0139 45.2981 18.8943 45.7766 18.8943C46.1466 18.8943 46.4388 18.9559 46.6534 19.0792C46.8705 19.2001 47.0357 19.3382 47.1492 19.4936C47.2651 19.6465 47.3552 19.7723 47.4193 19.871H47.4933V17.074H48.3664V24.6511H47.5229V23.778H47.4193C47.3552 23.8816 47.2639 24.0123 47.1455 24.1702C47.0271 24.3255 46.8582 24.4649 46.6386 24.5882C46.4191 24.7091 46.1268 24.7695 45.7618 24.7695ZM45.8802 23.9852C46.2304 23.9852 46.5264 23.8939 46.7681 23.7114C47.0098 23.5264 47.1936 23.2711 47.3194 22.9455C47.4452 22.6175 47.5081 22.2389 47.5081 21.8097C47.5081 21.3854 47.4464 21.0142 47.3231 20.696C47.1998 20.3754 47.0172 20.1263 46.7755 19.9487C46.5338 19.7686 46.2354 19.6786 45.8802 19.6786C45.5102 19.6786 45.2019 19.7736 44.9552 19.9635C44.711 20.1509 44.5273 20.4062 44.404 20.7293C44.2831 21.05 44.2227 21.4101 44.2227 21.8097C44.2227 22.2142 44.2843 22.5817 44.4077 22.9122C44.5335 23.2403 44.7184 23.5017 44.9626 23.6966C45.2093 23.889 45.5151 23.9852 45.8802 23.9852ZM50.0868 24.6511V18.9682H50.96V24.6511H50.0868ZM50.5308 18.0211C50.3606 18.0211 50.2139 17.9631 50.0905 17.8472C49.9697 17.7313 49.9092 17.5919 49.9092 17.4291C49.9092 17.2663 49.9697 17.127 50.0905 17.0111C50.2139 16.8951 50.3606 16.8372 50.5308 16.8372C50.701 16.8372 50.8465 16.8951 50.9674 17.0111C51.0907 17.127 51.1524 17.2663 51.1524 17.4291C51.1524 17.5919 51.0907 17.7313 50.9674 17.8472C50.8465 17.9631 50.701 18.0211 50.5308 18.0211ZM53.4324 21.2325V24.6511H52.5592V18.9682H53.4028V19.8562H53.4768C53.61 19.5676 53.8122 19.3358 54.0835 19.1606C54.3549 18.983 54.7051 18.8943 55.1343 18.8943C55.5191 18.8943 55.8557 18.9732 56.1443 19.131C56.4329 19.2864 56.6574 19.5232 56.8177 19.8414C56.978 20.1571 57.0582 20.5567 57.0582 21.0401V24.6511H56.185V21.0993C56.185 20.6529 56.0691 20.3051 55.8372 20.056C55.6054 19.8044 55.2872 19.6786 54.8827 19.6786C54.604 19.6786 54.3549 19.739 54.1353 19.8599C53.9183 19.9808 53.7469 20.1571 53.6211 20.389C53.4953 20.6208 53.4324 20.902 53.4324 21.2325ZM60.9476 26.9006C60.5258 26.9006 60.1632 26.8463 59.8598 26.7378C59.5564 26.6317 59.3036 26.4912 59.1014 26.316C58.9016 26.1434 58.7425 25.9584 58.6241 25.7611L59.3197 25.2727C59.3986 25.3763 59.4985 25.4947 59.6193 25.6279C59.7402 25.7635 59.9055 25.8807 60.1151 25.9793C60.3272 26.0805 60.6047 26.131 60.9476 26.131C61.4063 26.131 61.785 26.02 62.0834 25.7981C62.3819 25.5761 62.5311 25.2283 62.5311 24.7547V23.6004H62.4571C62.3929 23.704 62.3017 23.8322 62.1833 23.9852C62.0674 24.1356 61.8996 24.27 61.6801 24.3884C61.4631 24.5044 61.1696 24.5623 60.7996 24.5623C60.3408 24.5623 59.9289 24.4538 59.5638 24.2367C59.2013 24.0197 58.9139 23.704 58.7018 23.2896C58.4921 22.8752 58.3873 22.3721 58.3873 21.7801C58.3873 21.198 58.4897 20.6911 58.6944 20.2595C58.8991 19.8254 59.184 19.4899 59.549 19.2531C59.9141 19.0139 60.3359 18.8943 60.8144 18.8943C61.1844 18.8943 61.4779 18.9559 61.6949 19.0792C61.9144 19.2001 62.0822 19.3382 62.1981 19.4936C62.3165 19.6465 62.4077 19.7723 62.4719 19.871H62.5607V18.9682H63.4042V24.8139C63.4042 25.3023 63.2932 25.6994 63.0712 26.0052C62.8517 26.3136 62.5557 26.5392 62.1833 26.6823C61.8133 26.8278 61.4014 26.9006 60.9476 26.9006ZM60.918 23.778C61.2682 23.778 61.5642 23.6978 61.8059 23.5375C62.0476 23.3772 62.2314 23.1465 62.3572 22.8456C62.483 22.5447 62.5459 22.1846 62.5459 21.7653C62.5459 21.3558 62.4842 20.9945 62.3609 20.6812C62.2376 20.368 62.055 20.1226 61.8133 19.945C61.5716 19.7674 61.2731 19.6786 60.918 19.6786C60.548 19.6786 60.2397 19.7723 59.993 19.9598C59.7488 20.1472 59.5651 20.3988 59.4418 20.7145C59.3209 21.0303 59.2605 21.3805 59.2605 21.7653C59.2605 22.1599 59.3221 22.5089 59.4455 22.8123C59.5712 23.1132 59.7562 23.35 60.0004 23.5227C60.2471 23.6929 60.5529 23.778 60.918 23.778Z" fill="white"/>
<path d="M21.613 91.7441V83.0845H25.0802C25.7173 83.0845 26.2487 83.179 26.6743 83.3678C27.1 83.5567 27.4199 83.8188 27.6341 84.1543C27.8484 84.4869 27.9555 84.8703 27.9555 85.3044C27.9555 85.6427 27.8878 85.9401 27.7525 86.1966C27.6172 86.4503 27.4312 86.6589 27.1944 86.8224C26.9604 86.983 26.6926 87.0972 26.391 87.1649V87.2494C26.7208 87.2635 27.0295 87.3565 27.317 87.5285C27.6074 87.7004 27.8427 87.9415 28.0231 88.2515C28.2036 88.5588 28.2938 88.9253 28.2938 89.3509C28.2938 89.8104 28.1796 90.2205 27.9513 90.5813C27.7258 90.9393 27.3917 91.2226 26.9491 91.4312C26.5066 91.6398 25.9611 91.7441 25.3128 91.7441H21.613ZM23.4439 90.2473H24.9365C25.4467 90.2473 25.8188 90.1501 26.0527 89.9556C26.2867 89.7582 26.4037 89.4961 26.4037 89.1691C26.4037 88.9295 26.3459 88.7181 26.2303 88.5348C26.1148 88.3516 25.9499 88.2078 25.7356 88.1035C25.5242 87.9992 25.2719 87.9471 24.9787 87.9471H23.4439V90.2473ZM23.4439 86.7082H24.8012C25.052 86.7082 25.2747 86.6645 25.4692 86.5771C25.6666 86.4869 25.8216 86.3601 25.9343 86.1966C26.0499 86.0331 26.1077 85.8372 26.1077 85.6088C26.1077 85.2959 25.9964 85.0436 25.7737 84.852C25.5538 84.6603 25.2409 84.5644 24.835 84.5644H23.4439V86.7082ZM29.4513 91.7441V85.2494H31.2525V91.7441H29.4513ZM30.3561 84.4122C30.0883 84.4122 29.8586 84.3234 29.6669 84.1458C29.478 83.9654 29.3836 83.7498 29.3836 83.4989C29.3836 83.2508 29.478 83.038 29.6669 82.8604C29.8586 82.68 30.0883 82.5898 30.3561 82.5898C30.6239 82.5898 30.8522 82.68 31.0411 82.8604C31.2328 83.038 31.3286 83.2508 31.3286 83.4989C31.3286 83.7498 31.2328 83.9654 31.0411 84.1458C30.8522 84.3234 30.6239 84.4122 30.3561 84.4122ZM34.4967 87.9894V91.7441H32.6954V85.2494H34.4121V86.3953H34.4883C34.632 86.0176 34.873 85.7188 35.2113 85.4989C35.5496 85.2762 35.9597 85.1649 36.4417 85.1649C36.8928 85.1649 37.286 85.2635 37.6215 85.4608C37.9569 85.6582 38.2176 85.9401 38.4037 86.3065C38.5897 86.6701 38.6828 87.1043 38.6828 87.6088V91.7441H36.8815V87.9302C36.8843 87.5327 36.7828 87.2226 36.5771 87C36.3713 86.7744 36.088 86.6617 35.7272 86.6617C35.4847 86.6617 35.2705 86.7138 35.0845 86.8181C34.9012 86.9224 34.7575 87.0747 34.6532 87.2748C34.5517 87.4721 34.4995 87.7103 34.4967 87.9894ZM41.9544 91.8668C41.5401 91.8668 41.1708 91.7949 40.8466 91.6511C40.5224 91.5045 40.2659 91.2889 40.0771 91.0042C39.891 90.7167 39.798 90.3587 39.798 89.9302C39.798 89.5694 39.8642 89.2663 39.9967 89.0211C40.1292 88.7759 40.3096 88.5785 40.5379 88.4291C40.7663 88.2797 41.0256 88.167 41.316 88.0909C41.6091 88.0148 41.9164 87.9612 42.2377 87.9302C42.6155 87.8907 42.9199 87.8541 43.1511 87.8203C43.3822 87.7836 43.5499 87.73 43.6542 87.6596C43.7585 87.5891 43.8107 87.4848 43.8107 87.3467V87.3213C43.8107 87.0535 43.7261 86.8463 43.557 86.6997C43.3907 86.5532 43.1539 86.4799 42.8466 86.4799C42.5224 86.4799 42.2645 86.5518 42.0728 86.6955C41.8811 86.8365 41.7543 87.014 41.6923 87.2283L40.0263 87.093C40.1109 86.6983 40.2772 86.3572 40.5253 86.0697C40.7733 85.7794 41.0933 85.5567 41.4851 85.4016C41.8797 85.2438 42.3364 85.1649 42.8551 85.1649C43.2159 85.1649 43.5612 85.2071 43.891 85.2917C44.2236 85.3763 44.5182 85.5074 44.7747 85.6849C45.0341 85.8625 45.2384 86.0909 45.3878 86.3699C45.5372 86.6462 45.6119 86.9774 45.6119 87.3636V91.7441H43.9037V90.8435H43.853C43.7487 91.0465 43.6091 91.2255 43.4344 91.3805C43.2596 91.5327 43.0496 91.6525 42.8043 91.7399C42.5591 91.8245 42.2758 91.8668 41.9544 91.8668ZM42.4703 90.6236C42.7353 90.6236 42.9692 90.5715 43.1722 90.4672C43.3752 90.3601 43.5344 90.2163 43.65 90.0359C43.7656 89.8555 43.8234 89.6511 43.8234 89.4228V88.7336C43.767 88.7702 43.6895 88.804 43.5908 88.835C43.495 88.8632 43.3864 88.89 43.2652 88.9154C43.144 88.9379 43.0228 88.9591 42.9016 88.9788C42.7804 88.9957 42.6704 89.0112 42.5718 89.0253C42.3604 89.0563 42.1757 89.1057 42.0179 89.1733C41.86 89.241 41.7374 89.3326 41.65 89.4482C41.5626 89.5609 41.5189 89.7019 41.5189 89.871C41.5189 90.1162 41.6077 90.3037 41.7853 90.4334C41.9657 90.5602 42.194 90.6236 42.4703 90.6236ZM48.8107 87.9894V91.7441H47.0094V85.2494H48.7261V86.3953H48.8022C48.946 86.0176 49.187 85.7188 49.5253 85.4989C49.8635 85.2762 50.2737 85.1649 50.7557 85.1649C51.2067 85.1649 51.6 85.2635 51.9354 85.4608C52.2709 85.6582 52.5316 85.9401 52.7176 86.3065C52.9037 86.6701 52.9967 87.1043 52.9967 87.6088V91.7441H51.1954V87.9302C51.1983 87.5327 51.0968 87.2226 50.891 87C50.6852 86.7744 50.4019 86.6617 50.0411 86.6617C49.7987 86.6617 49.5845 86.7138 49.3984 86.8181C49.2152 86.9224 49.0714 87.0747 48.9671 87.2748C48.8656 87.4721 48.8135 87.7103 48.8107 87.9894ZM57.3508 91.871C56.6856 91.871 56.1133 91.73 55.6341 91.4482C55.1577 91.1634 54.7913 90.7688 54.5348 90.2642C54.2811 89.7596 54.1542 89.179 54.1542 88.5222C54.1542 87.8569 54.2825 87.2734 54.539 86.7716C54.7983 86.267 55.1662 85.8738 55.6426 85.5919C56.119 85.3072 56.6856 85.1649 57.3424 85.1649C57.909 85.1649 58.4051 85.2677 58.8308 85.4735C59.2564 85.6793 59.5933 85.9682 59.8413 86.3403C60.0894 86.7124 60.2261 87.1494 60.2515 87.6511H58.5517C58.5038 87.3269 58.3769 87.0662 58.1711 86.8689C57.9682 86.6687 57.7018 86.5687 57.372 86.5687C57.0929 86.5687 56.8491 86.6448 56.6405 86.797C56.4347 86.9464 56.274 87.1649 56.1585 87.4524C56.0429 87.7399 55.9851 88.088 55.9851 88.4968C55.9851 88.9112 56.0415 89.2635 56.1542 89.5539C56.2698 89.8442 56.4319 90.0655 56.6405 90.2177C56.8491 90.3699 57.0929 90.446 57.372 90.446C57.5778 90.446 57.7624 90.4038 57.9259 90.3192C58.0922 90.2346 58.2289 90.112 58.336 89.9513C58.446 89.7878 58.5179 89.5919 58.5517 89.3636H60.2515C60.2233 89.8597 60.088 90.2966 59.8456 90.6744C59.606 91.0493 59.2747 91.3424 58.8519 91.5539C58.4291 91.7653 57.9287 91.871 57.3508 91.871ZM64.3646 91.871C63.6965 91.871 63.1215 91.7357 62.6394 91.4651C62.1602 91.1916 61.7909 90.8055 61.5316 90.3065C61.2723 89.8047 61.1426 89.2114 61.1426 88.5264C61.1426 87.8583 61.2723 87.272 61.5316 86.7674C61.7909 86.2628 62.156 85.8696 62.6267 85.5877C63.1003 85.3058 63.6556 85.1649 64.2927 85.1649C64.7212 85.1649 65.12 85.2339 65.4893 85.372C65.8614 85.5074 66.1856 85.7117 66.4618 85.9852C66.7409 86.2586 66.958 86.6025 67.113 87.0169C67.268 87.4284 67.3456 87.9105 67.3456 88.463V88.9577H61.8614V87.8414H65.65C65.65 87.5821 65.5936 87.3523 65.4809 87.1522C65.3681 86.952 65.2117 86.7956 65.0115 86.6828C64.8142 86.5673 64.5845 86.5095 64.3223 86.5095C64.0489 86.5095 63.8064 86.5729 63.595 86.6997C63.3864 86.8238 63.2229 86.9915 63.1045 87.2029C62.9861 87.4115 62.9255 87.6441 62.9227 87.9006V88.9619C62.9227 89.2833 62.9819 89.5609 63.1003 89.7949C63.2215 90.0288 63.3921 90.2093 63.6119 90.3361C63.8318 90.463 64.0926 90.5264 64.3942 90.5264C64.5943 90.5264 64.7776 90.4982 64.9439 90.4418C65.1102 90.3854 65.2525 90.3009 65.3709 90.1881C65.4893 90.0754 65.5795 89.9372 65.6415 89.7737L67.3075 89.8837C67.2229 90.284 67.0496 90.6335 66.7874 90.9323C66.5281 91.2283 66.1926 91.4594 65.7811 91.6257C65.3723 91.7892 64.9002 91.871 64.3646 91.871Z" fill="white"/>
<path d="M73.2432 91.7441V84.167H75.8923C76.4201 84.167 76.8555 84.2582 77.1983 84.4408C77.5412 84.6208 77.7964 84.8638 77.9642 85.1696C78.1319 85.473 78.2157 85.8097 78.2157 86.1797C78.2157 86.5052 78.1578 86.7741 78.0419 86.9862C77.9284 87.1983 77.7779 87.3661 77.5905 87.4894C77.4055 87.6127 77.2045 87.704 76.9874 87.7632V87.8372C77.2193 87.852 77.4524 87.9334 77.6867 88.0813C77.921 88.2293 78.1171 88.4415 78.2749 88.7177C78.4328 88.994 78.5117 89.3319 78.5117 89.7315C78.5117 90.1113 78.4254 90.4529 78.2527 90.7563C78.0801 91.0597 77.8075 91.3002 77.4351 91.4778C77.0626 91.6553 76.578 91.7441 75.9811 91.7441H73.2432ZM74.1608 90.9302H75.9811C76.5804 90.9302 77.0059 90.8143 77.2575 90.5824C77.5116 90.3481 77.6386 90.0644 77.6386 89.7315C77.6386 89.4749 77.5732 89.2382 77.4425 89.0211C77.3118 88.8016 77.1255 88.6265 76.8838 88.4957C76.6421 88.3625 76.356 88.2959 76.0255 88.2959H74.1608V90.9302ZM74.1608 87.4968H75.8627C76.1389 87.4968 76.3881 87.4425 76.61 87.334C76.8345 87.2255 77.0121 87.0725 77.1428 86.8752C77.276 86.6779 77.3426 86.446 77.3426 86.1797C77.3426 85.8467 77.2267 85.5643 76.9948 85.3324C76.763 85.0981 76.3955 84.9809 75.8923 84.9809H74.1608V87.4968ZM84.9919 84.167H85.9095V89.1839C85.9095 89.7019 85.7874 90.1643 85.5432 90.5713C85.3015 90.9758 84.9598 91.2952 84.5183 91.5296C84.0768 91.7614 83.5589 91.8773 82.9644 91.8773C82.37 91.8773 81.852 91.7614 81.4105 91.5296C80.969 91.2952 80.6262 90.9758 80.382 90.5713C80.1403 90.1643 80.0194 89.7019 80.0194 89.1839V84.167H80.9369V89.1099C80.9369 89.4799 81.0183 89.8092 81.1811 90.0977C81.3439 90.3839 81.5758 90.6095 81.8767 90.7748C82.1801 90.9376 82.5427 91.019 82.9644 91.019C83.3862 91.019 83.7488 90.9376 84.0522 90.7748C84.3555 90.6095 84.5874 90.3839 84.7477 90.0977C84.9105 89.8092 84.9919 89.4799 84.9919 89.1099V84.167ZM91.8855 86.0613C91.8411 85.6864 91.6611 85.3953 91.3454 85.1881C91.0297 84.9809 90.6424 84.8773 90.1836 84.8773C89.8482 84.8773 89.5547 84.9316 89.3031 85.0401C89.054 85.1486 88.8591 85.2979 88.7185 85.4878C88.5804 85.6777 88.5113 85.8935 88.5113 86.1353C88.5113 86.3375 88.5594 86.5114 88.6556 86.6569C88.7543 86.8 88.8801 86.9196 89.033 87.0158C89.1859 87.1095 89.3463 87.1872 89.514 87.2489C89.6817 87.3081 89.8359 87.3562 89.9765 87.3932L90.746 87.6004C90.9433 87.6522 91.1629 87.7237 91.4046 87.815C91.6488 87.9062 91.8818 88.0308 92.1038 88.1886C92.3283 88.344 92.5133 88.5438 92.6588 88.788C92.8043 89.0322 92.8771 89.3319 92.8771 89.6871C92.8771 90.0965 92.7698 90.4665 92.5552 90.797C92.3431 91.1275 92.0323 91.3902 91.6229 91.585C91.2159 91.7799 90.7213 91.8773 90.1392 91.8773C89.5966 91.8773 89.1267 91.7898 88.7296 91.6146C88.335 91.4395 88.0242 91.1953 87.7973 90.8821C87.5728 90.5688 87.4458 90.205 87.4162 89.7907H88.3633C88.388 90.0768 88.4842 90.3136 88.6519 90.501C88.8221 90.686 89.0367 90.8241 89.2957 90.9154C89.5571 91.0042 89.8383 91.0486 90.1392 91.0486C90.4895 91.0486 90.804 90.9919 91.0827 90.8784C91.3614 90.7625 91.5822 90.6021 91.745 90.3974C91.9077 90.1902 91.9891 89.9485 91.9891 89.6723C91.9891 89.4207 91.9188 89.216 91.7782 89.0581C91.6377 88.9002 91.4527 88.772 91.2233 88.6733C90.9939 88.5747 90.746 88.4883 90.4796 88.4143L89.5473 88.1479C88.9553 87.9778 88.4867 87.7348 88.1414 87.4191C87.796 87.1034 87.6234 86.6902 87.6234 86.1797C87.6234 85.7554 87.7381 85.3854 87.9675 85.0697C88.1993 84.7515 88.5101 84.5049 88.8998 84.3298C89.292 84.1522 89.7298 84.0634 90.2132 84.0634C90.7016 84.0634 91.1357 84.1509 91.5156 84.3261C91.8954 84.4987 92.1963 84.7355 92.4183 85.0364C92.6428 85.3373 92.7612 85.679 92.7735 86.0613H91.8855ZM96.7239 91.7441H94.3857V84.167H96.8275C97.5626 84.167 98.1915 84.3187 98.7144 84.622C99.2373 84.923 99.6381 85.3558 99.9169 85.9207C100.196 86.483 100.335 87.1564 100.335 87.9408C100.335 88.73 100.194 89.4096 99.9132 89.9793C99.632 90.5466 99.2225 90.9832 98.6848 91.2891C98.1471 91.5924 97.4935 91.7441 96.7239 91.7441ZM95.3032 90.9302H96.6647C97.2912 90.9302 97.8104 90.8093 98.2224 90.5676C98.6343 90.3259 98.9413 89.9818 99.1436 89.5354C99.3459 89.0889 99.447 88.5574 99.447 87.9408C99.447 87.3291 99.3471 86.8025 99.1473 86.3609C98.9475 85.917 98.6491 85.5766 98.252 85.3398C97.8548 85.1006 97.3603 84.9809 96.7683 84.9809H95.3032V90.9302Z" fill="white"/>
<path d="M34.2558 45.5814L37.1598 48.5465L29.8474 55.8372L26.9434 52.9419L34.2558 45.5814Z" fill="#F0B90B" stroke="#F0B90B" stroke-width="0.744186"/>
<path d="M38.6643 49.9768L41.5683 52.9419L29.8474 64.628L26.9434 61.7326L38.6643 49.9768Z" fill="#F0B90B" stroke="#F0B90B" stroke-width="0.744186"/>
<path d="M25.4391 54.3721L28.3431 57.3372L25.4391 60.2325L22.5352 57.3372L25.4391 54.3721Z" fill="#F0B90B" stroke="#F0B90B" stroke-width="0.744186"/>
<path d="M43.073 54.3721L45.977 57.3372L34.256 69.0232L31.3521 66.1279L43.073 54.3721Z" fill="#F0B90B" stroke="#F0B90B" stroke-width="0.744186"/>
</g>
<defs>
<filter id="filter0_bdd_102_1954" x="-294.674" y="-297.674" width="738.977" height="723.349" filterUnits="userSpaceOnUse" color-interpolation-filters="sRGB">
<feFlood flood-opacity="0" result="BackgroundImageFix"/>
<feGaussianBlur in="BackgroundImageFix" stdDeviation="148.837"/>
<feComposite in2="SourceAlpha" operator="in" result="effect1_backgroundBlur_102_1954"/>
<feColorMatrix in="SourceAlpha" type="matrix" values="0 0 0 0 0 0 0 0 0 0 0 0 0 0 0 0 0 0 127 0" result="hardAlpha"/>
<feOffset dy="2.97674"/>
<feGaussianBlur stdDeviation="1.48837"/>
<feComposite in2="hardAlpha" operator="out"/>
<feColorMatrix type="matrix" values="0 0 0 0 0 0 0 0 0 0 0 0 0 0 0 0 0 0 0.25 0"/>
<feBlend mode="normal" in2="effect1_backgroundBlur_102_1954" result="effect2_dropShadow_102_1954"/>
<feColorMatrix in="SourceAlpha" type="matrix" values="0 0 0 0 0 0 0 0 0 0 0 0 0 0 0 0 0 0 127 0" result="hardAlpha"/>
<feOffset dy="2.97674"/>
<feGaussianBlur stdDeviation="1.48837"/>
<feComposite in2="hardAlpha" operator="out"/>
<feColorMatrix type="matrix" values="0 0 0 0 0 0 0 0 0 0 0 0 0 0 0 0 0 0 0.25 0"/>
<feBlend mode="normal" in2="effect2_dropShadow_102_1954" result="effect3_dropShadow_102_1954"/>
<feBlend mode="normal" in="SourceGraphic" in2="effect3_dropShadow_102_1954" result="shape"/>
</filter>
</defs>
</svg>
