<svg width="29" height="29" viewBox="0 0 29 29" fill="none" xmlns="http://www.w3.org/2000/svg">
<path d="M13.4391 13.4673V3.87353C9.76099 4.26531 6.34825 6.63478 4.66978 9.96005L10.4202 9.92577V7.86156C9.97406 7.92232 9.51994 7.87532 9.09527 7.72443L11.3966 6.41114V11.3794L2.43236 11.3835C3.3084 7.87951 5.80062 4.82279 9.03945 3.28014C12.2783 1.73749 16.2015 1.73831 19.4395 3.28014C22.6775 4.82197 25.1624 7.88768 26.0385 11.3901H17.0694V6.41849L19.3683 7.71709C18.9401 7.86999 18.4816 7.91592 18.032 7.85095C18.032 8.54201 18.032 9.23307 18.032 9.92413L23.8237 9.94046C23.1313 8.90876 22.434 7.87053 21.5693 6.98086C19.8206 5.19433 17.4938 4.1014 15.0132 3.90128C15.0132 7.08996 15.0118 10.2792 15.0091 13.469H28.4716C28.191 8.97977 25.6939 4.69382 21.9471 2.26313C18.2002 -0.167556 13.2967 -0.682588 9.13571 0.923724C5.981 2.13989 3.31164 4.55017 1.68817 7.53507C1.24642 8.34439 0.884979 9.19575 0.609103 10.0768C0.273409 11.1509 0.189283 12.3622 0 13.4714H13.4391V13.4673Z" fill="url(#paint0_linear_313_1504)"/>
<path d="M15.0084 15.2198V24.6063C17.1398 24.3492 19.0683 23.6554 20.7419 22.2874C20.7419 22.2874 21.7449 21.4173 22.3006 20.757L23.8327 18.5647H18.0264V20.6207H19.3126C19.3312 20.6738 19.3506 20.7268 19.37 20.7799L17.0565 22.0899V17.102H26.028C25.589 18.9206 24.7344 20.6103 23.5326 22.036C23.5326 22.036 22.6792 23.0245 21.8954 23.5819C18.0814 27.1349 10.9688 27.5104 6.50282 23.5534C6.03285 23.3085 4.86884 21.9544 4.86884 21.9544C3.71212 20.5941 2.89729 18.9741 2.42435 17.0947H11.3942V22.0777L9.0913 20.784C9.10748 20.7342 9.12285 20.6844 9.13903 20.6346H10.4333V18.5541H4.61647L6.16227 20.7627C6.49716 21.1284 7.74286 22.3135 7.74286 22.3135C9.36066 23.6432 11.2915 24.3476 13.4375 24.6096V15.2231H0.0502319C0.444166 22.1609 6.33538 28.6539 14.5692 28.4678C22.4842 28.2891 28.0268 21.9332 28.4054 15.2231L15.0084 15.2198Z" fill="url(#paint1_linear_313_1504)"/>
<defs>
<linearGradient id="paint0_linear_313_1504" x1="10.5246" y1="31.8354" x2="17.182" y2="-1.02103" gradientUnits="userSpaceOnUse">
<stop stop-color="#1D1D1B"/>
<stop offset="0.25" stop-color="#F39200"/>
<stop offset="0.51" stop-color="#F9B233"/>
<stop offset="0.94" stop-color="#FCEA10"/>
</linearGradient>
<linearGradient id="paint1_linear_313_1504" x1="10.9696" y1="31.9253" x2="17.627" y2="-0.931183" gradientUnits="userSpaceOnUse">
<stop stop-color="#1D1D1B"/>
<stop offset="0.25" stop-color="#F39200"/>
<stop offset="0.51" stop-color="#F9B233"/>
<stop offset="0.94" stop-color="#FCEA10"/>
</linearGradient>
</defs>
</svg>
